<svg width="422" height="411" viewBox="0 0 422 411" fill="none" xmlns="http://www.w3.org/2000/svg">
<rect width="421.44" height="410.719" fill="white"/>
<g filter="url(#filter0_g_716_286)">
<path d="M205.787 80.9722C205.787 69.337 205.786 37.0682 170.453 35.9447C154.587 35.4266 145.729 46.8293 137.839 62.3232C130.345 77.0387 125.95 76.8967 110.813 76.4078C107.649 76.3056 104.016 76.1882 99.787 76.1882C75.3256 76.1882 64.4538 109.562 71.702 119.255C71.9965 119.649 72.3113 120.062 72.6404 120.495C78.6827 128.435 89.5109 142.664 67.1718 155.696C43.6163 169.438 22.7792 215.45 63.5482 241.953C83.4794 253.854 116.325 249.524 120.625 241.953C123.342 237.167 126.06 218.517 115.189 213.487C104.011 208.314 102.505 194.837 115.189 195.818C127.873 196.8 155.052 196.8 158.676 178.15C162.3 159.5 159.582 152.629 141.462 141.831C130.591 132.997 129.938 103.672 139.65 103.672C139.899 103.672 140.141 103.67 140.376 103.668C145.276 103.621 147.24 103.602 148.71 125.144C149.925 142.936 194.009 140.85 201.257 125.144C206.237 114.353 206.004 97.8934 205.839 86.2656C205.812 84.3552 205.787 82.5752 205.787 80.9722Z" stroke="#2B6ED4" stroke-width="7.34264"/>
<path d="M153.826 367.507C169.334 377.6 200.754 377.278 203.93 348.952C208.223 310.667 204.526 269.842 202.141 254.216C201.459 249.755 198.562 249.335 189.615 250.309C175.37 251.86 169.673 243.475 173.51 237.613C177.983 230.776 192.011 237.168 199.457 231.753C207.509 225.895 204.825 181.617 203.93 159.48C202.141 149.716 186.752 142.486 175.299 156.55C170.825 162.043 173.51 181.942 173.51 188.779C173.51 198.545 165.815 206.944 149.352 209.288C128.773 212.218 126.089 258.122 141.3 271.795C156.51 285.468 178.878 292.305 179.773 305.978C180.667 319.651 182.457 331.371 171.72 330.394C160.984 329.418 166.352 310.861 166.352 306.955C166.352 303.048 160.984 298.816 143.089 287.421C132.352 280.585 133.247 273.748 126.089 266.911C119.775 260.88 84.9319 258.121 81.353 275.701C75.9847 297.188 75.9846 327.464 96.5633 336.254C117.142 345.044 130.069 336.138 136.826 340.161C146.668 346.021 141.819 359.694 153.826 367.507Z" fill="#2B6ED4" stroke="#2B6ED4" stroke-width="3.94106"/>
<path d="M219.802 80.9722C219.802 69.337 219.803 37.0682 254.4 35.9447C269.935 35.4266 278.609 46.8293 286.335 62.3232C293.673 77.0387 297.976 76.8967 312.797 76.4078C315.895 76.3056 319.453 76.1882 323.594 76.1882C347.546 76.1882 358.191 109.562 351.094 119.255C350.805 119.649 350.497 120.062 350.175 120.495C344.259 128.435 333.656 142.664 355.53 155.696C378.594 169.438 398.998 215.45 359.078 241.953C339.562 253.854 307.4 249.524 303.19 241.953C300.529 237.167 297.868 218.517 308.513 213.487C319.458 208.314 320.932 194.837 308.513 195.818C296.093 196.8 269.48 196.8 265.932 178.15C262.383 159.5 265.045 152.629 282.787 141.831C293.432 132.997 294.071 103.672 284.561 103.672C284.318 103.672 284.081 103.67 283.851 103.668C279.053 103.621 277.13 103.602 275.69 125.144C274.501 142.936 231.335 140.85 224.238 125.144C219.362 114.353 219.59 97.8934 219.751 86.2656C219.778 84.3552 219.802 82.5752 219.802 80.9722Z" stroke="#2B6ED4" stroke-width="7.34264"/>
<path d="M270.359 369.136C255.269 379.229 224.699 378.907 221.609 350.581C217.431 312.295 221.028 271.471 223.35 255.845C224.012 251.384 226.832 250.964 235.537 251.938C249.397 253.489 254.939 245.104 251.207 239.241C246.854 232.405 233.205 238.797 225.961 233.381C218.126 227.524 220.738 183.246 221.609 161.109C223.349 151.345 238.323 144.115 249.466 158.179C253.818 163.672 251.207 183.571 251.207 190.408C251.207 200.174 258.693 208.573 274.711 210.917C294.734 213.847 297.345 259.75 282.546 273.424C267.747 287.097 245.983 293.934 245.113 307.607C244.242 321.28 242.501 333 252.948 332.023C263.394 331.047 258.171 312.49 258.171 308.583C258.171 304.677 263.394 300.445 280.805 289.05C291.252 282.214 290.381 275.377 297.345 268.54C303.489 262.509 337.39 259.75 340.873 277.33C346.096 298.817 346.096 329.093 326.073 337.883C306.051 346.673 293.473 337.767 286.899 341.79C277.323 347.65 282.041 361.323 270.359 369.136Z" fill="#2B6ED4" stroke="#2B6ED4" stroke-width="3.94106"/>
</g>
<defs>
<filter id="filter0_g_716_286" x="11.2408" y="6.7545" width="399.663" height="395.888" filterUnits="userSpaceOnUse" color-interpolation-filters="sRGB">
<feFlood flood-opacity="0" result="BackgroundImageFix"/>
<feBlend mode="normal" in="SourceGraphic" in2="BackgroundImageFix" result="shape"/>
<feTurbulence type="fractalNoise" baseFrequency="0.047586593776941299 0.047586593776941299" numOctaves="3" seed="7158" />
<feDisplacementMap in="shape" scale="51.002727508544922" xChannelSelector="R" yChannelSelector="G" result="displacedImage" width="100%" height="100%" />
<feMerge result="effect1_texture_716_286">
<feMergeNode in="displacedImage"/>
</feMerge>
</filter>
</defs>
</svg>
