<svg width="422" height="411" viewBox="0 0 422 411" fill="none" xmlns="http://www.w3.org/2000/svg">
<rect width="421.44" height="410.719" fill="#2B6ED4"/>
<path d="M205.789 80.9712C205.789 69.3361 205.788 37.0672 170.455 35.9437C154.589 35.4256 145.731 46.8284 137.841 62.3222C130.347 77.0377 125.952 76.8957 110.815 76.4068C107.651 76.3046 104.018 76.1873 99.789 76.1873C75.3275 76.1873 64.4558 109.561 71.704 119.254C71.9985 119.648 72.3133 120.061 72.6423 120.494C78.6847 128.434 89.5129 142.663 67.1737 155.695C43.6182 169.437 22.7811 215.449 63.5502 241.952C83.4813 253.853 116.327 249.523 120.627 241.952C123.344 237.166 126.062 218.516 115.191 213.486C104.013 208.313 102.507 194.836 115.191 195.817C127.875 196.799 155.054 196.799 158.678 178.149C162.302 159.499 159.584 152.628 141.464 141.83C130.593 132.996 129.94 103.671 139.652 103.671C139.901 103.671 140.143 103.669 140.378 103.667C145.278 103.62 147.242 103.601 148.712 125.144C149.927 142.935 194.011 140.849 201.259 125.144C206.239 114.352 206.006 97.8925 205.841 86.2647C205.814 84.3542 205.789 82.5742 205.789 80.9712Z" stroke="white" stroke-width="7.34264"/>
<path d="M153.828 367.506C169.336 377.599 200.756 377.277 203.932 348.951C208.225 310.666 204.528 269.841 202.142 254.215C201.461 249.754 198.564 249.334 189.617 250.308C175.372 251.859 169.675 243.474 173.512 237.612C177.985 230.775 192.013 237.167 199.459 231.752C207.511 225.894 204.827 181.616 203.932 159.479C202.143 149.715 186.754 142.485 175.301 156.549C170.827 162.042 173.512 181.941 173.512 188.778C173.512 198.544 165.817 206.944 149.354 209.287C128.775 212.217 126.091 258.121 141.302 271.794C156.512 285.467 178.88 292.304 179.775 305.977C180.669 319.65 182.459 331.37 171.722 330.393C160.985 329.417 166.354 310.86 166.354 306.954C166.354 303.047 160.985 298.815 143.091 287.42C132.354 280.584 133.249 273.747 126.091 266.91C119.777 260.879 84.9339 258.121 81.355 275.7C75.9866 297.187 75.9866 327.463 96.5653 336.253C117.144 345.043 130.071 336.137 136.828 340.16C146.67 346.02 141.821 359.693 153.828 367.506Z" fill="white" stroke="white" stroke-width="3.94106"/>
<path d="M219.802 80.9712C219.802 69.3361 219.803 37.0672 254.4 35.9437C269.935 35.4256 278.609 46.8284 286.335 62.3222C293.673 77.0377 297.976 76.8957 312.797 76.4068C315.895 76.3046 319.453 76.1873 323.594 76.1873C347.546 76.1873 358.191 109.561 351.094 119.254C350.805 119.648 350.497 120.061 350.175 120.494C344.259 128.434 333.656 142.663 355.53 155.695C378.594 169.437 398.998 215.449 359.078 241.952C339.562 253.853 307.4 249.523 303.19 241.952C300.529 237.166 297.868 218.516 308.513 213.486C319.458 208.313 320.932 194.836 308.513 195.817C296.093 196.799 269.48 196.799 265.932 178.149C262.383 159.499 265.045 152.628 282.787 141.83C293.432 132.996 294.071 103.671 284.561 103.671C284.318 103.671 284.081 103.669 283.851 103.667C279.053 103.62 277.13 103.601 275.69 125.144C274.501 142.935 231.335 140.849 224.238 125.144C219.362 114.352 219.59 97.8925 219.751 86.2647C219.778 84.3542 219.802 82.5742 219.802 80.9712Z" stroke="white" stroke-width="7.34264"/>
<path d="M270.359 369.135C255.269 379.228 224.699 378.906 221.609 350.58C217.431 312.294 221.028 271.47 223.35 255.844C224.012 251.383 226.832 250.963 235.537 251.937C249.397 253.488 254.939 245.103 251.207 239.24C246.854 232.404 233.205 238.796 225.961 233.38C218.126 227.523 220.738 183.245 221.609 161.108C223.349 151.344 238.323 144.114 249.466 158.178C253.818 163.671 251.207 183.57 251.207 190.407C251.207 200.173 258.693 208.572 274.711 210.916C294.734 213.846 297.345 259.749 282.546 273.423C267.747 287.096 245.983 293.933 245.113 307.606C244.242 321.279 242.501 332.999 252.948 332.022C263.394 331.046 258.171 312.489 258.171 308.582C258.171 304.676 263.394 300.444 280.805 289.049C291.252 282.213 290.381 275.376 297.345 268.539C303.489 262.508 337.39 259.749 340.873 277.329C346.096 298.816 346.096 329.092 326.073 337.882C306.051 346.672 293.473 337.766 286.899 341.789C277.323 347.649 282.041 361.322 270.359 369.135Z" fill="white" stroke="white" stroke-width="3.94106"/>
</svg>
