<svg width="422" height="411" viewBox="0 0 422 411" fill="none" xmlns="http://www.w3.org/2000/svg">
<rect width="421.44" height="410.719" fill="#2B6ED4"/>
<g filter="url(#filter0_g_716_255)">
<path d="M205.789 80.9722C205.789 69.337 205.788 37.0682 170.455 35.9447C154.589 35.4266 145.731 46.8293 137.841 62.3232C130.347 77.0387 125.952 76.8967 110.815 76.4078C107.651 76.3056 104.018 76.1882 99.789 76.1882C75.3275 76.1882 64.4558 109.562 71.704 119.255C71.9985 119.649 72.3133 120.062 72.6423 120.495C78.6847 128.435 89.5129 142.664 67.1737 155.696C43.6182 169.438 22.7811 215.45 63.5502 241.953C83.4813 253.854 116.327 249.524 120.627 241.953C123.344 237.167 126.062 218.517 115.191 213.487C104.013 208.314 102.507 194.837 115.191 195.818C127.875 196.8 155.054 196.8 158.678 178.15C162.302 159.5 159.584 152.629 141.464 141.831C130.593 132.997 129.94 103.672 139.652 103.672C139.901 103.672 140.143 103.67 140.378 103.668C145.278 103.621 147.242 103.602 148.712 125.144C149.927 142.936 194.011 140.85 201.259 125.144C206.239 114.353 206.006 97.8934 205.841 86.2656C205.814 84.3552 205.789 82.5752 205.789 80.9722Z" stroke="white" stroke-width="7.34264"/>
<path d="M153.828 367.507C169.336 377.6 200.756 377.278 203.932 348.952C208.225 310.667 204.528 269.842 202.142 254.216C201.461 249.755 198.564 249.335 189.617 250.309C175.372 251.86 169.675 243.475 173.512 237.613C177.985 230.776 192.013 237.168 199.459 231.753C207.511 225.895 204.827 181.617 203.932 159.48C202.143 149.716 186.754 142.486 175.301 156.55C170.827 162.043 173.512 181.942 173.512 188.779C173.512 198.545 165.817 206.944 149.354 209.288C128.775 212.218 126.091 258.122 141.302 271.795C156.512 285.468 178.88 292.305 179.775 305.978C180.669 319.651 182.459 331.371 171.722 330.394C160.985 329.418 166.354 310.861 166.354 306.955C166.354 303.048 160.985 298.816 143.091 287.421C132.354 280.585 133.249 273.748 126.091 266.911C119.777 260.88 84.9339 258.121 81.355 275.701C75.9866 297.188 75.9866 327.464 96.5653 336.254C117.144 345.044 130.071 336.138 136.828 340.161C146.67 346.021 141.821 359.694 153.828 367.507Z" fill="white" stroke="white" stroke-width="3.94106"/>
<path d="M219.802 80.9722C219.802 69.337 219.803 37.0682 254.4 35.9447C269.935 35.4266 278.609 46.8293 286.335 62.3232C293.673 77.0387 297.976 76.8967 312.797 76.4078C315.895 76.3056 319.453 76.1882 323.594 76.1882C347.546 76.1882 358.191 109.562 351.094 119.255C350.805 119.649 350.497 120.062 350.175 120.495C344.259 128.435 333.656 142.664 355.53 155.696C378.594 169.438 398.998 215.45 359.078 241.953C339.562 253.854 307.4 249.524 303.19 241.953C300.529 237.167 297.868 218.517 308.513 213.487C319.458 208.314 320.932 194.837 308.513 195.818C296.093 196.8 269.48 196.8 265.932 178.15C262.383 159.5 265.045 152.629 282.787 141.831C293.432 132.997 294.071 103.672 284.561 103.672C284.318 103.672 284.081 103.67 283.851 103.668C279.053 103.621 277.13 103.602 275.69 125.144C274.501 142.936 231.335 140.85 224.238 125.144C219.362 114.353 219.59 97.8934 219.751 86.2656C219.778 84.3552 219.802 82.5752 219.802 80.9722Z" stroke="white" stroke-width="7.34264"/>
<path d="M270.359 369.136C255.269 379.229 224.699 378.907 221.609 350.581C217.431 312.295 221.028 271.471 223.35 255.845C224.012 251.384 226.832 250.964 235.537 251.938C249.397 253.489 254.939 245.104 251.207 239.241C246.854 232.405 233.205 238.797 225.961 233.381C218.126 227.524 220.738 183.246 221.609 161.109C223.349 151.345 238.323 144.115 249.466 158.179C253.818 163.672 251.207 183.571 251.207 190.408C251.207 200.174 258.693 208.573 274.711 210.917C294.734 213.847 297.345 259.75 282.546 273.424C267.747 287.097 245.983 293.934 245.113 307.607C244.242 321.28 242.501 333 252.948 332.023C263.394 331.047 258.171 312.49 258.171 308.583C258.171 304.677 263.394 300.445 280.805 289.05C291.252 282.214 290.381 275.377 297.345 268.54C303.489 262.509 337.39 259.75 340.873 277.33C346.096 298.817 346.096 329.093 326.073 337.883C306.051 346.673 293.473 337.767 286.899 341.79C277.323 347.65 282.041 361.323 270.359 369.136Z" fill="white" stroke="white" stroke-width="3.94106"/>
</g>
<defs>
<filter id="filter0_g_716_255" x="25.8631" y="21.3748" width="370.42" height="366.648" filterUnits="userSpaceOnUse" color-interpolation-filters="sRGB">
<feFlood flood-opacity="0" result="BackgroundImageFix"/>
<feBlend mode="normal" in="SourceGraphic" in2="BackgroundImageFix" result="shape"/>
<feTurbulence type="fractalNoise" baseFrequency="0.12324266880750656 0.12324266880750656" numOctaves="3" seed="783" />
<feDisplacementMap in="shape" scale="21.762163162231445" xChannelSelector="R" yChannelSelector="G" result="displacedImage" width="100%" height="100%" />
<feMerge result="effect1_texture_716_255">
<feMergeNode in="displacedImage"/>
</feMerge>
</filter>
</defs>
</svg>
