<svg width="422" height="411" viewBox="0 0 422 411" fill="none" xmlns="http://www.w3.org/2000/svg">
<rect width="421.44" height="410.719" fill="#2B6ED4"/>
<g filter="url(#filter0_g_716_267)">
<path d="M205.787 80.9712C205.787 69.3361 205.786 37.0672 170.453 35.9437C154.587 35.4256 145.729 46.8284 137.839 62.3222C130.345 77.0377 125.95 76.8957 110.813 76.4068C107.649 76.3046 104.016 76.1873 99.787 76.1873C75.3256 76.1873 64.4538 109.561 71.702 119.254C71.9965 119.648 72.3113 120.061 72.6404 120.494C78.6827 128.434 89.5109 142.663 67.1718 155.695C43.6163 169.437 22.7792 215.449 63.5482 241.952C83.4794 253.853 116.325 249.523 120.625 241.952C123.342 237.166 126.06 218.516 115.189 213.486C104.011 208.313 102.505 194.836 115.189 195.817C127.873 196.799 155.052 196.799 158.676 178.149C162.3 159.499 159.582 152.628 141.462 141.83C130.591 132.996 129.938 103.671 139.65 103.671C139.899 103.671 140.141 103.669 140.376 103.667C145.276 103.62 147.24 103.601 148.71 125.144C149.925 142.935 194.009 140.849 201.257 125.144C206.237 114.352 206.004 97.8925 205.839 86.2647C205.812 84.3542 205.787 82.5742 205.787 80.9712Z" stroke="white" stroke-width="7.34264"/>
<path d="M153.826 367.506C169.334 377.599 200.754 377.277 203.93 348.951C208.223 310.666 204.526 269.841 202.141 254.215C201.459 249.754 198.562 249.334 189.615 250.308C175.37 251.859 169.673 243.474 173.51 237.612C177.983 230.775 192.011 237.167 199.457 231.752C207.509 225.894 204.825 181.616 203.93 159.479C202.141 149.715 186.752 142.485 175.299 156.549C170.825 162.042 173.51 181.941 173.51 188.778C173.51 198.544 165.815 206.944 149.352 209.287C128.773 212.217 126.089 258.121 141.3 271.794C156.51 285.467 178.878 292.304 179.773 305.977C180.667 319.65 182.457 331.37 171.72 330.393C160.984 329.417 166.352 310.86 166.352 306.954C166.352 303.047 160.984 298.815 143.089 287.42C132.352 280.584 133.247 273.747 126.089 266.91C119.775 260.879 84.9319 258.121 81.353 275.7C75.9847 297.187 75.9846 327.463 96.5633 336.253C117.142 345.043 130.069 336.137 136.826 340.16C146.668 346.02 141.819 359.693 153.826 367.506Z" fill="white" stroke="white" stroke-width="3.94106"/>
<path d="M219.802 80.9712C219.802 69.3361 219.803 37.0672 254.4 35.9437C269.935 35.4256 278.609 46.8284 286.335 62.3222C293.673 77.0377 297.976 76.8957 312.797 76.4068C315.895 76.3046 319.453 76.1873 323.594 76.1873C347.546 76.1873 358.191 109.561 351.094 119.254C350.805 119.648 350.497 120.061 350.175 120.494C344.259 128.434 333.656 142.663 355.53 155.695C378.594 169.437 398.998 215.449 359.078 241.952C339.562 253.853 307.4 249.523 303.19 241.952C300.529 237.166 297.868 218.516 308.513 213.486C319.458 208.313 320.932 194.836 308.513 195.817C296.093 196.799 269.48 196.799 265.932 178.149C262.383 159.499 265.045 152.628 282.787 141.83C293.432 132.996 294.071 103.671 284.561 103.671C284.318 103.671 284.081 103.669 283.851 103.667C279.053 103.62 277.13 103.601 275.69 125.144C274.501 142.935 231.335 140.849 224.238 125.144C219.362 114.352 219.59 97.8925 219.751 86.2647C219.778 84.3542 219.802 82.5742 219.802 80.9712Z" stroke="white" stroke-width="7.34264"/>
<path d="M270.359 369.135C255.269 379.228 224.699 378.906 221.609 350.58C217.431 312.294 221.028 271.47 223.35 255.844C224.012 251.383 226.832 250.963 235.537 251.937C249.397 253.488 254.939 245.103 251.207 239.24C246.854 232.404 233.205 238.796 225.961 233.38C218.126 227.523 220.738 183.245 221.609 161.108C223.349 151.344 238.323 144.114 249.466 158.178C253.818 163.671 251.207 183.57 251.207 190.407C251.207 200.173 258.693 208.572 274.711 210.916C294.734 213.846 297.345 259.749 282.546 273.423C267.747 287.096 245.983 293.933 245.113 307.606C244.242 321.279 242.501 332.999 252.948 332.022C263.394 331.046 258.171 312.489 258.171 308.582C258.171 304.676 263.394 300.444 280.805 289.049C291.252 282.213 290.381 275.376 297.345 268.539C303.489 262.508 337.39 259.749 340.873 277.329C346.096 298.816 346.096 329.092 326.073 337.882C306.051 346.672 293.473 337.766 286.899 341.789C277.323 347.649 282.041 361.322 270.359 369.135Z" fill="white" stroke="white" stroke-width="3.94106"/>
</g>
<defs>
<filter id="filter0_g_716_267" x="31.6195" y="27.1322" width="358.906" height="355.131" filterUnits="userSpaceOnUse" color-interpolation-filters="sRGB">
<feFlood flood-opacity="0" result="BackgroundImageFix"/>
<feBlend mode="normal" in="SourceGraphic" in2="BackgroundImageFix" result="shape"/>
<feTurbulence type="fractalNoise" baseFrequency="0.17479521036148071 0.17479521036148071" numOctaves="3" seed="5259" />
<feDisplacementMap in="shape" scale="10.245418548583984" xChannelSelector="R" yChannelSelector="G" result="displacedImage" width="100%" height="100%" />
<feMerge result="effect1_texture_716_267">
<feMergeNode in="displacedImage"/>
</feMerge>
</filter>
</defs>
</svg>
