<svg width="422" height="411" viewBox="0 0 422 411" fill="none" xmlns="http://www.w3.org/2000/svg">
<rect width="421.44" height="410.719" fill="#2B6ED4"/>
<g filter="url(#filter0_g_716_243)">
<path d="M205.787 80.9712C205.787 69.3361 205.786 37.0672 170.453 35.9437C154.587 35.4256 145.729 46.8284 137.839 62.3222C130.345 77.0377 125.95 76.8957 110.813 76.4068C107.649 76.3046 104.016 76.1873 99.787 76.1873C75.3256 76.1873 64.4538 109.561 71.702 119.254C71.9965 119.648 72.3113 120.061 72.6404 120.494C78.6827 128.434 89.5109 142.663 67.1718 155.695C43.6163 169.437 22.7792 215.449 63.5482 241.952C83.4794 253.853 116.325 249.523 120.625 241.952C123.342 237.166 126.06 218.516 115.189 213.486C104.011 208.313 102.505 194.836 115.189 195.817C127.873 196.799 155.052 196.799 158.676 178.149C162.3 159.499 159.582 152.628 141.462 141.83C130.591 132.996 129.938 103.671 139.65 103.671C139.899 103.671 140.141 103.669 140.376 103.667C145.276 103.62 147.24 103.601 148.71 125.144C149.925 142.935 194.009 140.849 201.257 125.144C206.237 114.352 206.004 97.8925 205.839 86.2647C205.812 84.3542 205.787 82.5742 205.787 80.9712Z" stroke="white" stroke-width="7.34264"/>
<path d="M153.826 367.505C169.334 377.598 200.754 377.276 203.93 348.95C208.223 310.665 204.526 269.84 202.141 254.214C201.459 249.753 198.562 249.333 189.615 250.307C175.37 251.858 169.673 243.473 173.51 237.611C177.983 230.774 192.011 237.167 199.457 231.751C207.509 225.893 204.825 181.615 203.93 159.478C202.141 149.714 186.752 142.484 175.299 156.548C170.825 162.041 173.51 181.94 173.51 188.777C173.51 198.543 165.815 206.943 149.352 209.287C128.773 212.216 126.089 258.12 141.3 271.793C156.51 285.466 178.878 292.303 179.773 305.976C180.667 319.649 182.457 331.369 171.72 330.392C160.984 329.416 166.352 310.859 166.352 306.953C166.352 303.046 160.984 298.814 143.089 287.419C132.352 280.583 133.247 273.746 126.089 266.909C119.775 260.878 84.9319 258.12 81.353 275.699C75.9847 297.186 75.9846 327.462 96.5633 336.252C117.142 345.042 130.069 336.136 136.826 340.159C146.668 346.019 141.819 359.692 153.826 367.505Z" fill="white" stroke="white" stroke-width="3.94106"/>
<path d="M219.8 80.9712C219.8 69.3361 219.801 37.0672 254.398 35.9437C269.933 35.4256 278.607 46.8284 286.333 62.3222C293.671 77.0377 297.974 76.8957 312.795 76.4068C315.893 76.3046 319.451 76.1873 323.592 76.1873C347.544 76.1873 358.189 109.561 351.092 119.254C350.804 119.648 350.495 120.061 350.173 120.494C344.257 128.434 333.654 142.663 355.528 155.695C378.593 169.437 398.996 215.449 359.076 241.952C339.56 253.853 307.398 249.523 303.188 241.952C300.527 237.166 297.866 218.516 308.511 213.486C319.456 208.313 320.93 194.836 308.511 195.817C296.091 196.799 269.478 196.799 265.93 178.149C262.381 159.499 265.043 152.628 282.785 141.83C293.43 132.996 294.069 103.671 284.559 103.671C284.316 103.671 284.079 103.669 283.849 103.667C279.051 103.62 277.128 103.601 275.688 125.144C274.499 142.935 231.333 140.849 224.236 125.144C219.36 114.352 219.588 97.8925 219.749 86.2647C219.776 84.3542 219.8 82.5742 219.8 80.9712Z" stroke="white" stroke-width="7.34264"/>
<path d="M270.357 369.134C255.267 379.227 224.697 378.905 221.607 350.579C217.43 312.293 221.026 271.469 223.348 255.843C224.01 251.382 226.83 250.962 235.535 251.936C249.395 253.487 254.937 245.102 251.205 239.239C246.852 232.403 233.203 238.795 225.959 233.38C218.124 227.522 220.736 183.244 221.607 161.107C223.347 151.343 238.321 144.113 249.464 158.177C253.816 163.67 251.205 183.569 251.205 190.406C251.205 200.172 258.691 208.571 274.709 210.915C294.732 213.845 297.343 259.748 282.544 273.422C267.745 287.095 245.981 293.932 245.111 307.605C244.24 321.278 242.499 332.998 252.946 332.021C263.392 331.045 258.169 312.488 258.169 308.581C258.169 304.675 263.392 300.443 280.803 289.048C291.25 282.212 290.379 275.375 297.343 268.538C303.487 262.507 337.388 259.748 340.871 277.328C346.094 298.815 346.094 329.091 326.071 337.881C306.049 346.671 293.471 337.765 286.897 341.788C277.321 347.648 282.039 361.321 270.357 369.134Z" fill="white" stroke="white" stroke-width="3.94106"/>
</g>
<defs>
<filter id="filter0_g_716_243" x="19.4671" y="14.9798" width="383.208" height="379.435" filterUnits="userSpaceOnUse" color-interpolation-filters="sRGB">
<feFlood flood-opacity="0" result="BackgroundImageFix"/>
<feBlend mode="normal" in="SourceGraphic" in2="BackgroundImageFix" result="shape"/>
<feTurbulence type="fractalNoise" baseFrequency="0.10960519313812256 0.10960519313812256" numOctaves="3" seed="8594" />
<feDisplacementMap in="shape" scale="34.550243377685547" xChannelSelector="R" yChannelSelector="G" result="displacedImage" width="100%" height="100%" />
<feMerge result="effect1_texture_716_243">
<feMergeNode in="displacedImage"/>
</feMerge>
</filter>
</defs>
</svg>
