<svg width="38" height="38" viewBox="0 0 38 38" fill="none" xmlns="http://www.w3.org/2000/svg">
<path d="M37.144 20.3655C31.7748 19.8344 27.8895 19.4491 25.4033 19.1014C24.1329 18.9236 23.2344 18.7562 22.657 18.5891C21.911 18.3734 21.8812 18.2094 21.8809 18.2077C21.8779 18.1842 21.8864 17.963 23.1212 17.3952C24.0351 16.9751 25.3829 16.4661 27.0891 15.8218C27.0907 15.8212 27.0927 15.8204 27.0943 15.8199L26.9353 15.3984C25.2249 16.0444 23.8738 16.5548 22.9075 16.8428C21.6017 17.2325 21.4426 17.0649 21.4288 17.0444C21.4249 17.0386 21.3365 16.8942 21.7442 16.2327C22.059 15.7218 22.6111 14.9977 23.4319 14.0186C25.0459 12.0934 27.6793 9.20341 31.3226 5.20599C31.326 5.2024 31.3296 5.19853 31.3329 5.19466C31.3376 5.18942 31.3423 5.18445 31.347 5.1792C31.3489 5.17699 31.3508 5.17478 31.3528 5.17257L31.1862 5.02095L31.0197 4.86932C31.0172 4.87209 31.0144 4.87485 31.0119 4.87789C27.3719 8.872 24.7413 11.7584 22.9677 13.5425C22.0676 14.4481 21.3943 15.0626 20.9093 15.4213C20.2884 15.8809 20.1186 15.8127 20.1015 15.8033C20.046 15.7735 19.8827 15.5729 20.1167 14.2489C20.2973 13.2265 20.6627 11.7849 21.125 9.95932L20.6883 9.84857C20.2393 11.6214 19.8844 13.0216 19.5723 13.999C19.15 15.3222 18.9341 15.4219 18.8976 15.4285C18.8959 15.4282 18.7283 15.3887 18.4491 14.6077C18.2389 14.0197 17.9989 13.1122 17.7161 11.8332C17.1596 9.31831 16.4437 5.41368 15.4531 0.00939011C15.4525 0.00635213 15.452 0.00303798 15.4514 0L15.2299 0.0405984L15.0084 0.0811968C15.0123 0.101634 15.0159 0.121795 15.0195 0.141956C15.0195 0.143337 15.02 0.145547 15.0203 0.146651C15.0209 0.148861 15.0211 0.152175 15.0217 0.154384C16.0068 5.52774 16.7185 9.41331 17.0693 11.9473C17.2483 13.2395 17.3306 14.1677 17.3217 14.7853C17.3104 15.5638 17.1571 15.6724 17.1265 15.6862C17.0646 15.7144 16.7865 15.7224 15.8099 14.6519C15.0598 13.8294 14.0691 12.5731 12.815 10.9823L12.4612 11.2612C13.6673 12.7913 14.6199 13.9996 15.2493 14.8969C16.0855 16.0891 16.0706 16.3634 16.0532 16.4136C16.0281 16.4274 15.8483 16.4948 15.0764 16.2176C14.4644 15.9977 13.5792 15.5986 12.3704 14.9968C10.0057 13.82 6.45984 11.9009 1.55627 9.24595C1.54384 9.23932 1.53197 9.23296 1.51954 9.22606C1.51098 9.22137 1.50297 9.21722 1.49441 9.21253L1.28009 9.60857C1.28285 9.60995 1.28562 9.61161 1.2881 9.61299C1.29086 9.61437 1.2939 9.61603 1.29666 9.61768C1.30302 9.62127 1.30937 9.62459 1.31572 9.6279C1.33036 9.63591 1.34555 9.64392 1.36019 9.65193C6.29524 12.3237 9.86431 14.2567 12.1235 15.6042C13.2776 16.2927 14.0774 16.8216 14.5685 17.2215C15.2112 17.7445 15.1706 17.9249 15.1686 17.9324C15.1562 17.9774 15.0151 18.2038 13.4472 18.2455C12.2762 18.2767 10.5885 18.208 8.45193 18.121C8.44944 18.121 8.44668 18.121 8.4442 18.1207L8.42597 18.5709C10.5252 18.6565 12.1831 18.7242 13.3414 18.8407C14.9433 19.0017 15.0584 19.2249 15.0662 19.2489C15.0662 19.2506 15.07 19.4243 14.3343 19.8659C13.7786 20.1995 12.8992 20.6279 11.6459 21.1755C9.19844 22.2452 5.38109 23.7484 0.104948 25.8247C0.0698735 25.8385 0.0350748 25.8521 0 25.8659L0.0823016 26.0755L0.164879 26.2851C0.180345 26.2791 0.195811 26.273 0.211277 26.2669C0.216249 26.265 0.22122 26.263 0.226191 26.2611C0.238067 26.2564 0.249114 26.2523 0.260714 26.2476C5.5722 24.1572 9.41524 22.6454 11.9362 21.7641C13.2251 21.3136 14.1564 21.0327 14.7828 20.9057C15.5848 20.7433 15.6972 20.8737 15.6981 20.8753C15.7036 20.8836 15.8223 21.0954 14.759 22.3319C13.9935 23.222 12.8098 24.4347 11.3112 25.9692C11.3079 25.9725 11.3049 25.9758 11.3016 25.9791L11.4626 26.1365L11.6239 26.294C11.6255 26.292 11.6277 26.2901 11.6294 26.2882C13.1332 24.7479 14.3216 23.5313 15.199 22.7442C15.6486 22.341 15.9949 22.0701 16.2581 21.9157C16.5125 21.7666 16.6354 21.7613 16.665 21.7795C16.6713 21.7834 16.8191 21.8845 16.6998 22.7075C16.6086 23.3372 16.3783 24.2737 15.9955 25.5709C15.2424 28.1237 13.9181 32.0206 12.0848 37.4141L12.5112 37.5591C14.3279 32.2139 15.6406 28.3521 16.5862 25.8573C17.0679 24.5872 17.4485 23.6879 17.7503 23.1088C18.1334 22.3736 18.3113 22.307 18.3372 22.3012C18.3836 22.3247 18.5852 22.5114 18.7855 23.9879C18.9354 25.0945 19.0594 26.6613 19.216 28.6448L19.4406 28.6271L19.6651 28.6095C19.5024 26.5519 19.3743 24.9266 19.3652 23.7934C19.3536 22.3175 19.5635 22.1333 19.6281 22.1121C19.6471 22.1057 19.8336 22.0665 20.3812 22.6514C20.8066 23.1055 21.3752 23.8534 22.1198 24.9377C23.5824 27.0675 25.6966 30.4516 28.6211 35.1334C28.6271 35.143 28.6332 35.1524 28.639 35.1621C28.6407 35.1646 28.6423 35.1673 28.644 35.1698L29.0259 34.9312C29.0212 34.9238 29.0165 34.916 29.0119 34.9086C29.0102 34.9058 29.0083 34.9028 29.0063 34.9C26.0907 30.2323 23.9834 26.8585 22.6887 24.6123C22.0286 23.4673 21.5873 22.6271 21.3393 22.0441C21.0242 21.3026 21.0896 21.1333 21.1007 21.1128C21.1435 21.0918 21.3948 21.0449 22.5907 21.7514C23.4874 22.2808 24.7004 23.0966 26.2362 24.1293L26.4876 23.7553C24.8965 22.6854 23.6396 21.8403 22.8086 21.188C21.7307 20.3417 21.7188 20.0763 21.7406 20.015C21.7516 19.9841 21.8455 19.8264 22.6039 19.7521C23.2071 19.693 24.1226 19.6982 25.4022 19.7687C27.9245 19.907 31.8231 20.2926 37.2188 20.8264L37.2409 20.6022L37.263 20.3779C37.2227 20.3741 37.1832 20.3702 37.1431 20.366L37.144 20.3655Z" fill="white"/>
</svg>
