<svg width="37" height="37" viewBox="0 0 37 37" fill="none" xmlns="http://www.w3.org/2000/svg">
<path d="M17.9285 36.7751L17.5218 36.7601C17.7232 31.2423 17.8281 27.8112 17.8061 25.4862C17.7946 24.267 17.7466 23.3958 17.6594 22.822C17.5489 22.0945 17.4016 22.0401 17.4002 22.0398C17.3917 22.0376 17.1864 22.0037 16.5438 23.1476C16.08 23.9729 15.4924 25.2183 14.7525 26.8342L14.3824 26.665C15.1223 25.0491 15.6809 23.7908 16.0027 22.9004C16.4487 21.6668 16.2888 21.5337 16.2817 21.5286C16.2806 21.5275 16.1429 21.452 15.5201 21.8439C15.0287 22.1529 14.3375 22.6864 13.4069 23.4744C11.6323 24.9775 9.10306 27.2997 5.05704 31.059L4.78003 30.761C8.82605 27.0017 11.3276 24.6499 12.9567 22.9903C13.8109 22.1202 14.3934 21.47 14.7378 21.0025C15.1742 20.4101 15.1088 20.2675 15.1079 20.2663C15.1034 20.259 14.9821 20.0898 13.7189 20.4445C12.8072 20.7005 11.5104 21.1655 9.8444 21.7852L9.70251 21.404C11.3688 20.7843 12.6543 20.2892 13.5116 19.8871C14.6995 19.33 14.6806 19.1227 14.6794 19.1143C14.6794 19.1129 14.6354 18.962 13.9178 18.7988C13.3516 18.6702 12.4856 18.5588 11.2701 18.4582C8.95186 18.2667 5.5208 18.1212 0 17.9199L0.0149508 17.5133C5.53546 17.7146 8.96822 17.8198 11.2943 17.7975C12.5141 17.786 13.3858 17.7381 13.9598 17.6509C14.6876 17.5404 14.7421 17.3932 14.7423 17.3918C14.7443 17.3834 14.7782 17.1781 13.634 16.5358C12.8083 16.0723 11.5623 15.485 9.94567 14.7454L10.1149 14.3755C11.7316 15.115 12.9908 15.6733 13.8814 15.995C15.1155 16.4408 15.2487 16.2809 15.2538 16.2739C15.2546 16.2727 15.3305 16.1351 14.9384 15.5126C14.6292 15.0214 14.0955 14.3306 13.3071 13.4005C11.8032 11.6267 9.47994 9.09868 5.71882 5.0546L6.01699 4.77772C9.77811 8.8218 12.131 11.3222 13.7917 12.9505C14.6622 13.8042 15.3127 14.3865 15.7804 14.7307C16.3731 15.1669 16.5158 15.1015 16.517 15.1006C16.5243 15.0961 16.6936 14.9749 16.3387 13.7123C16.0825 12.801 15.6174 11.5049 14.9973 9.83965L15.3787 9.69783C15.9988 11.3633 16.4941 12.6482 16.8964 13.5051C17.4535 14.6921 17.6611 14.6738 17.6696 14.6724C17.671 14.6724 17.8219 14.6284 17.9852 13.9111C18.1142 13.3452 18.2256 12.4796 18.326 11.2647C18.5176 8.94755 18.6631 5.51814 18.8645 0L19.2713 0.0149436C19.0699 5.5328 18.965 8.9639 18.987 11.2889C18.9985 12.5081 19.0465 13.3793 19.1336 13.9531C19.2442 14.6805 19.3915 14.735 19.3929 14.7352C19.4016 14.7375 19.6073 14.7702 20.2493 13.6274C20.7131 12.8022 21.3007 11.5568 22.0406 9.94088L22.4107 10.11C21.6708 11.7259 21.1122 12.9846 20.7904 13.8747C20.3444 15.1083 20.5043 15.2413 20.5114 15.2464C20.5125 15.2473 20.6499 15.3231 21.273 14.9312C21.7644 14.6222 22.4555 14.0887 23.3862 13.3006C25.1608 11.7975 27.69 9.47537 31.736 5.71607L32.013 6.01409C27.967 9.7734 25.4654 12.1255 23.8364 13.785C22.9822 14.6552 22.3997 15.3053 22.0553 15.7728C21.6189 16.3652 21.6843 16.5079 21.6851 16.509C21.6897 16.5163 21.811 16.6855 23.0742 16.3308C23.9859 16.0748 25.2827 15.6099 26.9487 14.9901L27.0906 15.3713C25.4243 15.9911 24.1391 16.4862 23.2815 16.8882C22.0936 17.4454 22.1125 17.6526 22.1136 17.6611C22.1136 17.6625 22.1577 17.8133 22.8753 17.9766C23.4414 18.1054 24.3075 18.2168 25.523 18.3172C27.8412 18.5086 31.2723 18.6541 36.7931 18.8554L36.7781 19.262C31.2576 19.0607 27.8249 18.9555 25.4987 18.9778C24.279 18.9894 23.4073 19.0373 22.8333 19.1244C22.1055 19.2349 22.051 19.3821 22.0507 19.3835C22.0488 19.392 22.0149 19.5973 23.1591 20.2396C23.9848 20.7031 25.2307 21.2904 26.8474 22.03L26.6782 22.3999C25.0615 21.6603 23.8025 21.1021 22.9117 20.7803C21.6778 20.3346 21.5444 20.4944 21.5393 20.5015C21.5385 20.5026 21.4626 20.6402 21.8547 21.2628C22.1639 21.7539 22.6976 22.4447 23.486 23.3749C24.9898 25.1487 27.3131 27.6767 31.0743 31.7207L30.7761 31.9976C27.015 27.9536 24.6618 25.4532 23.0017 23.8249C22.1311 22.9711 21.4806 22.3889 21.0129 22.0446C20.4203 21.6084 20.2778 21.6739 20.2764 21.6747C20.2691 21.6792 20.0998 21.8005 20.4547 23.063C20.7108 23.9743 21.176 25.2705 21.796 26.9357L21.4146 27.0775C20.7946 25.412 20.2992 24.1274 19.897 23.2703C19.3398 22.0833 19.1325 22.1016 19.1238 22.103C19.1224 22.103 18.9714 22.147 18.8081 22.8643C18.6795 23.4302 18.568 24.2958 18.4673 25.5107C18.2758 27.8278 18.1302 31.2572 17.9288 36.7753L17.9285 36.7751ZM17.392 21.6321C17.4261 21.6321 17.46 21.6364 17.4941 21.6443C17.8603 21.7311 18.1001 22.2166 18.1833 24.2202C18.4123 22.2279 18.6871 21.761 19.0586 21.7012C19.3207 21.6592 19.5664 21.8439 19.8657 22.3345C19.7712 21.7675 19.8369 21.4669 20.0623 21.3279C20.3827 21.1305 20.8956 21.3042 22.372 22.6624C21.1246 21.0916 20.9887 20.5675 21.209 20.2627C21.3641 20.0481 21.6688 20.0047 22.2279 20.14C21.7599 19.8059 21.5938 19.5468 21.6547 19.2891C21.7416 18.9231 22.2273 18.6834 24.2319 18.6003C22.2386 18.3713 21.7715 18.0967 21.7117 17.7254C21.6696 17.464 21.8544 17.2178 22.3452 16.9187C21.778 17.0131 21.477 16.9474 21.3382 16.7222C21.1407 16.4021 21.3145 15.8893 22.6733 14.4135C21.1018 15.6603 20.5774 15.7962 20.2724 15.576C20.0578 15.4209 20.0143 15.1162 20.1497 14.5576C19.8152 15.0254 19.5562 15.1914 19.2984 15.1305C18.9322 15.0437 18.6925 14.5582 18.6092 12.5546C18.3802 14.5469 18.1054 15.0138 17.7339 15.0736C17.4724 15.1156 17.2261 14.9312 16.9268 14.4403C17.0213 15.0073 16.9556 15.3079 16.7302 15.4469C16.4098 15.6443 15.8969 15.4706 14.4205 14.1124C15.6679 15.6832 15.8038 16.2073 15.5835 16.5121C15.4284 16.7267 15.1237 16.7701 14.5646 16.6348C15.0326 16.9689 15.1988 17.228 15.1378 17.4857C15.0509 17.8517 14.5652 18.0913 12.5606 18.1745C14.5539 18.4035 15.021 18.6781 15.0808 19.0494C15.1232 19.3108 14.9381 19.5569 14.4473 19.8561C15.0146 19.7616 15.3153 19.8273 15.4543 20.0526C15.6518 20.3726 15.478 20.8855 14.1192 22.3613C15.6907 21.1145 16.2151 20.9786 16.5201 21.1988C16.7347 21.3538 16.7782 21.6586 16.6428 22.2172C16.9331 21.8112 17.1666 21.6321 17.392 21.6321Z" fill="#2B6ED4"/>
</svg>
