<svg width="85" height="72" viewBox="0 0 85 72" fill="none" xmlns="http://www.w3.org/2000/svg">
<path d="M82.6356 35.4456C81.7635 35.4456 81.0655 36.0696 80.8804 36.8859C80.8441 36.8846 80.8078 36.8828 80.7715 36.8816C80.7642 36.8816 80.758 36.881 80.7506 36.8803C80.7488 36.8803 80.747 36.8803 80.7445 36.8803C69.9728 36.4347 62.1764 36.1107 57.0406 35.7407C54.3961 35.5501 52.5037 35.3491 51.2559 35.1266C49.6224 34.8352 49.414 34.5555 49.3918 34.5144C49.4023 34.4818 49.4933 34.2795 50.2178 33.9033C50.8014 33.5997 51.6735 33.2438 52.8819 32.8153C55.2073 31.9916 58.5781 30.9694 62.8394 29.6773C63.1112 30.0793 63.5485 30.3602 64.0706 30.3602C64.9058 30.3602 65.5823 29.684 65.5823 28.8492C65.5823 28.0145 64.9058 27.3383 64.0706 27.3383C63.2355 27.3383 62.559 28.0145 62.559 28.8492C62.559 28.9285 62.5922 28.9962 62.6039 29.0724C58.4643 30.327 55.1833 31.3204 52.8383 31.9142C51.612 32.2246 50.7012 32.4102 50.0536 32.4821C49.2528 32.5707 49.0603 32.4576 49.0308 32.4354C49.0247 32.3746 49.0616 32.0082 50.3795 30.777C51.3863 29.8358 52.9951 28.5241 55.2977 26.7666C59.7423 23.3741 66.6708 18.3919 76.2156 11.5331C76.5508 11.8939 77.0207 12.1281 77.5514 12.1281C78.5637 12.1281 79.3866 11.305 79.3866 10.2938C79.3866 9.28263 78.5631 8.45955 77.5514 8.45955C76.5397 8.45955 75.7163 9.28263 75.7163 10.2938C75.7163 10.5422 75.7679 10.7776 75.8577 10.9934C66.1518 17.9684 59.1076 23.0274 54.4354 26.1986C52.0203 27.8381 50.2541 28.9611 49.0351 29.6336C47.4872 30.4868 47.085 30.4604 47.0056 30.4389C46.97 30.3104 47.0185 29.7473 48.5253 27.4145C49.6735 25.6368 51.3887 23.2339 53.5578 20.1942C53.7546 20.2883 53.9687 20.3504 54.2017 20.3504C55.0369 20.3504 55.7134 19.6736 55.7134 18.8394C55.7134 18.0053 55.0369 17.3285 54.2017 17.3285C53.3666 17.3285 52.6901 18.0047 52.6901 18.8394C52.6901 19.223 52.845 19.5635 53.0806 19.8303L53.0418 19.8027C50.6323 23.1786 48.7289 25.8452 47.299 27.586C45.5155 29.7572 44.8845 29.9354 44.6668 29.8481C44.5542 29.8033 44.2836 29.5586 44.2018 28.2591C44.1354 27.2061 44.2049 25.6264 44.414 23.4313C44.8218 19.1406 45.7424 12.642 47.0161 3.6624C47.0272 3.6624 47.0364 3.66855 47.0474 3.66855C48.0591 3.66855 48.8826 2.84546 48.8826 1.83427C48.8826 0.823088 48.0591 0 47.0474 0C46.0358 0 45.2117 0.823088 45.2117 1.83427C45.2117 2.60942 45.6981 3.2653 46.3796 3.53393C46.3783 3.54376 46.3771 3.55298 46.3759 3.56221C46.3759 3.56589 46.3746 3.56958 46.3746 3.57388C45.0358 13.0182 44.0659 19.8481 43.2357 24.191C42.9479 25.6964 42.0721 30.2766 41.074 30.4272C40.8083 30.4678 40.2898 30.1715 39.3329 28.5314C38.5365 27.1668 37.5857 25.1598 36.3932 22.6334C36.649 22.3629 36.812 22.0021 36.812 21.6007C36.812 20.7665 36.1355 20.0897 35.3003 20.0897C34.4652 20.0897 33.7887 20.7659 33.7887 21.6007C33.7887 22.4354 34.4652 23.1116 35.3003 23.1116C35.4953 23.1116 35.6786 23.068 35.8502 23.001C37.9381 27.4238 39.5586 30.8993 38.8083 31.6074C38.0039 32.3672 33.8594 30.3903 32.4972 29.7406C28.5593 27.862 22.5969 24.6275 14.3455 20.1512C14.4119 19.9613 14.4666 19.7652 14.4666 19.5531C14.4666 18.5413 13.6431 17.7188 12.6315 17.7188C11.6198 17.7188 10.7963 18.5419 10.7963 19.5531C10.7963 20.5643 11.6198 21.3874 12.6315 21.3874C13.1973 21.3874 13.6843 21.1151 14.0214 20.7118C14.0355 20.7192 14.049 20.7266 14.0632 20.7346C14.0644 20.7352 14.065 20.7358 14.0669 20.7364C21.9752 25.027 27.6916 28.1288 31.3354 30.3239C33.194 31.4433 34.483 32.3113 35.2764 32.9758C36.2776 33.8148 36.2807 34.1621 36.2573 34.2488C36.2019 34.459 35.7149 34.8309 33.0814 34.9582C30.9886 35.0596 27.9548 35 24.1289 34.9231C24.02 34.1953 23.4192 33.6273 22.6609 33.6273C21.8257 33.6273 21.1492 34.3035 21.1492 35.1383C21.1492 35.973 21.8257 36.6492 22.6609 36.6492C23.3423 36.6492 23.897 36.1894 24.0852 35.5692C27.5833 35.6399 30.3558 35.6958 32.3336 35.8378C33.3668 35.9116 34.1245 36.005 34.6515 36.1236C35.2893 36.2669 35.4117 36.4101 35.4289 36.4359C35.419 36.4912 35.2936 36.8213 33.7278 37.6026C32.5273 38.2013 30.6522 38.9802 27.9935 39.9846C22.779 41.9547 14.5939 44.7799 3.27118 48.6869C2.93539 48.2468 2.43048 47.9432 1.83516 47.9432C0.822869 47.9432 0 48.7662 0 49.7774C0 50.7886 0.823484 51.6117 1.83516 51.6117C2.84683 51.6117 3.67032 50.7886 3.67032 49.7774C3.67032 49.5973 3.6162 49.4332 3.567 49.2691C3.57499 49.2666 3.58237 49.2635 3.59037 49.2611C3.6039 49.2562 3.61743 49.2519 3.63096 49.2469C3.63465 49.2457 3.63895 49.2439 3.64264 49.2433C14.6923 45.4303 22.6849 42.6727 27.937 41.0351C30.6307 40.1948 32.5765 39.6594 33.8846 39.3982C35.6921 39.0367 35.9166 39.2789 35.9227 39.2845C35.9227 39.2863 35.9682 39.4719 35.4449 40.0965C35.0525 40.5643 34.4301 41.1747 33.5408 41.9633C31.8484 43.4644 29.3496 45.4721 26.1996 47.9991C25.9462 47.8085 25.6473 47.6745 25.3054 47.6745C24.4702 47.6745 23.7937 48.3507 23.7937 49.1855C23.7937 50.0202 24.4702 50.6964 25.3054 50.6964C26.1405 50.6964 26.817 50.0202 26.817 49.1855C26.817 48.9291 26.7371 48.6992 26.6245 48.4884C29.8207 45.9239 32.36 43.8886 34.2124 42.5411C35.1872 41.8318 35.9276 41.3456 36.4762 41.0536C37.1472 40.697 37.3594 40.7278 37.3944 40.737C37.4166 40.7819 37.5199 41.1126 36.8704 42.5768C36.3698 43.7054 35.5014 45.3405 34.2155 47.5762C31.7057 51.9381 27.6922 58.4472 22.1394 67.4489C22.1375 67.4526 22.1357 67.4551 22.1332 67.4588C22.1264 67.4704 22.1191 67.4815 22.1123 67.4932C21.9333 67.4348 21.7519 67.3801 21.5539 67.3801C20.5416 67.3801 19.7187 68.2032 19.7187 69.2143C19.7187 70.2255 20.5416 71.0486 21.5539 71.0486C22.5662 71.0486 23.389 70.2255 23.389 69.2143C23.389 68.6353 23.1018 68.1398 22.6812 67.8036C22.6953 67.7809 22.7095 67.7581 22.7236 67.7348C28.5501 58.288 32.7653 51.4562 35.6306 47.2117C37.0925 45.0467 38.2044 43.5529 39.0309 42.6469C40.0531 41.5257 40.4577 41.498 40.5844 41.5386C40.7818 41.6013 41.1176 42.0482 41.1478 44.3379C41.1717 46.1482 41.0131 48.7048 40.812 51.9252C40.0838 52.034 39.5162 52.6346 39.5162 53.3925C39.5162 54.2267 40.1927 54.9034 41.0278 54.9034C41.863 54.9034 42.5395 54.2267 42.5395 53.3925C42.5395 52.7108 42.0789 52.1563 41.4583 51.9682C41.6711 48.5628 41.8433 45.8605 42.1133 43.9882C42.3735 42.1834 42.7228 41.2202 43.1514 41.1243C43.3199 41.0861 43.724 41.1593 44.5309 42.0678C45.2068 42.8288 46.0727 44.0687 47.1772 45.8575C49.3469 49.3699 52.3912 54.9121 56.6002 62.5768C56.2134 62.9136 55.9563 63.3931 55.9563 63.9445C55.9563 64.9563 56.7798 65.7794 57.7915 65.7794C58.8032 65.7794 59.6266 64.9563 59.6266 63.9445C59.6266 62.9327 58.8032 62.1102 57.7915 62.1102C57.5652 62.1102 57.3536 62.1643 57.1537 62.2393C52.9828 54.644 49.9662 49.1498 48.1809 45.4419C47.5567 44.1449 45.6563 40.1973 46.3949 39.4467C46.7332 39.1031 47.8008 39.3109 49.5689 40.0657C51.369 40.8341 53.8469 42.1342 56.9545 43.7718C56.9102 43.9138 56.8653 44.0564 56.8653 44.2131C56.8653 45.0479 57.5418 45.7241 58.377 45.7241C59.2121 45.7241 59.8886 45.0479 59.8886 44.2131C59.8886 43.3784 59.2121 42.7022 58.377 42.7022C57.9335 42.7022 57.5443 42.9007 57.2675 43.205C54.3475 41.6658 52.0228 40.4364 50.4447 39.4596C48.3426 38.1589 48.2073 37.6782 48.2467 37.5319C48.2639 37.4686 48.4306 37.1416 50.0431 36.9283C51.2836 36.7642 53.1919 36.6892 55.8782 36.699C61.134 36.7181 69.3695 37.0574 80.7531 37.5282C80.7771 37.5295 80.8005 37.5301 80.8251 37.5313C80.8306 37.5313 80.8349 37.5313 80.8404 37.5319C80.8441 37.5319 80.8478 37.5319 80.8509 37.5319C80.9788 38.4189 81.7125 39.1136 82.635 39.1136C83.6473 39.1136 84.4702 38.2911 84.4702 37.2793C84.4702 36.2675 83.6467 35.445 82.635 35.445L82.6356 35.4456ZM77.5514 9.1056C78.2064 9.1056 78.739 9.63855 78.739 10.2932C78.739 10.9479 78.2064 11.4802 77.5514 11.4802C76.8964 11.4802 76.3632 10.9479 76.3632 10.2932C76.3632 9.63855 76.8964 9.1056 77.5514 9.1056ZM45.8599 1.83366C45.8599 1.179 46.3925 0.646668 47.0481 0.646668C47.7037 0.646668 48.2356 1.179 48.2356 1.83366C48.2356 2.48832 47.703 3.02127 47.0481 3.02127C46.3931 3.02127 45.8599 2.48832 45.8599 1.83366ZM12.6309 20.7382C11.9759 20.7382 11.4427 20.2059 11.4427 19.5512C11.4427 18.8966 11.9759 18.3636 12.6309 18.3636C13.2858 18.3636 13.819 18.8966 13.819 19.5512C13.819 20.2059 13.2858 20.7382 12.6309 20.7382ZM1.83454 50.9632C1.17957 50.9632 0.646979 50.4309 0.646979 49.7762C0.646979 49.1215 1.17957 48.5886 1.83454 48.5886C2.48952 48.5886 3.02211 49.1215 3.02211 49.7762C3.02211 50.4309 2.48952 50.9632 1.83454 50.9632ZM22.7414 69.2131C22.7414 69.8678 22.2082 70.4001 21.5533 70.4001C20.8983 70.4001 20.3657 69.8678 20.3657 69.2131C20.3657 68.5585 20.8983 68.0255 21.5533 68.0255C22.2082 68.0255 22.7414 68.5585 22.7414 69.2131ZM57.7921 62.7563C58.4471 62.7563 58.9803 63.2892 58.9803 63.9433C58.9803 64.5973 58.4471 65.1309 57.7921 65.1309C57.1371 65.1309 56.6045 64.5985 56.6045 63.9433C56.6045 63.288 57.1371 62.7563 57.7921 62.7563ZM82.635 38.4669C81.98 38.4669 81.4468 37.9346 81.4468 37.2799C81.4468 36.6252 81.98 36.0923 82.635 36.0923C83.29 36.0923 83.8226 36.6252 83.8226 37.2799C83.8226 37.9346 83.29 38.4669 82.635 38.4669Z" fill="#2B6ED4"/>
</svg>
