<svg width="49" height="41" viewBox="0 0 49 41" fill="none" xmlns="http://www.w3.org/2000/svg">
<path d="M47.048 20.1807C46.5515 20.1807 46.1541 20.5359 46.0487 21.0007C46.028 21 46.0074 20.999 45.9867 20.9983C45.9825 20.9983 45.979 20.9979 45.9748 20.9976C45.9738 20.9976 45.9727 20.9976 45.9713 20.9976C39.8385 20.7438 35.3997 20.5594 32.4757 20.3487C30.97 20.2402 29.8926 20.1258 29.1822 19.9991C28.2522 19.8332 28.1335 19.674 28.1209 19.6505C28.1268 19.632 28.1787 19.5168 28.5911 19.3026C28.9234 19.1297 29.4199 18.9271 30.108 18.6832C31.4319 18.2142 33.351 17.6322 35.7772 16.8965C35.9319 17.1254 36.1809 17.2854 36.4782 17.2854C36.9537 17.2854 37.3388 16.9004 37.3388 16.4251C37.3388 15.9499 36.9537 15.5649 36.4782 15.5649C36.0027 15.5649 35.6175 15.9499 35.6175 16.4251C35.6175 16.4703 35.6364 16.5088 35.6431 16.5522C33.2862 17.2665 31.4182 17.832 30.0831 18.1701C29.3849 18.3468 28.8664 18.4525 28.4977 18.4935C28.0418 18.5439 27.9322 18.4795 27.9154 18.4669C27.9119 18.4322 27.9329 18.2237 28.6832 17.5226C29.2564 16.9868 30.1724 16.24 31.4833 15.2394C34.0138 13.3079 37.9586 10.4713 43.3928 6.56627C43.5837 6.7717 43.8512 6.90505 44.1534 6.90505C44.7297 6.90505 45.1982 6.43643 45.1982 5.86071C45.1982 5.285 44.7294 4.81638 44.1534 4.81638C43.5774 4.81638 43.1085 5.285 43.1085 5.86071C43.1085 6.00211 43.1379 6.13615 43.1891 6.25899C37.6631 10.2302 33.6525 13.1105 30.9924 14.916C29.6174 15.8494 28.6118 16.4888 27.9178 16.8717C27.0365 17.3575 26.8075 17.3424 26.7623 17.3302C26.742 17.257 26.7697 16.9364 27.6275 15.6083C28.2813 14.5961 29.2578 13.2281 30.4928 11.4974C30.6048 11.551 30.7267 11.5863 30.8594 11.5863C31.3349 11.5863 31.72 11.201 31.72 10.7261C31.72 10.2512 31.3349 9.86585 30.8594 9.86585C30.3839 9.86585 29.9987 10.2508 29.9987 10.7261C29.9987 10.9445 30.087 11.1384 30.2211 11.2903L30.199 11.2745C28.8271 13.1966 27.7434 14.7148 26.9293 15.7059C25.9139 16.942 25.5547 17.0435 25.4307 16.9938C25.3666 16.9683 25.2126 16.829 25.166 16.0891C25.1282 15.4896 25.1678 14.5902 25.2868 13.3404C25.519 10.8976 26.0431 7.19763 26.7683 2.08516C26.7746 2.08516 26.7798 2.08866 26.7861 2.08866C27.3621 2.08866 27.831 1.62004 27.831 1.04433C27.831 0.468619 27.3621 0 26.7861 0C26.2102 0 25.741 0.468619 25.741 1.04433C25.741 1.48565 26.0179 1.85908 26.4059 2.01202C26.4052 2.01762 26.4045 2.02287 26.4038 2.02812C26.4038 2.03022 26.4031 2.03232 26.4031 2.03477C25.6408 7.41181 25.0886 11.3004 24.6159 13.773C24.4521 14.6301 23.9535 17.2378 23.3852 17.3235C23.2339 17.3466 22.9387 17.1779 22.3939 16.2442C21.9405 15.4672 21.3992 14.3246 20.7202 12.8862C20.8659 12.7322 20.9587 12.5267 20.9587 12.2982C20.9587 11.8233 20.5735 11.4379 20.098 11.4379C19.6225 11.4379 19.2373 11.8229 19.2373 12.2982C19.2373 12.7735 19.6225 13.1584 20.098 13.1584C20.209 13.1584 20.3133 13.1336 20.411 13.0954C21.5998 15.6135 22.5224 17.5923 22.0952 17.9955C21.6372 18.428 19.2776 17.3025 18.502 16.9326C16.2601 15.8631 12.8654 14.0215 8.1675 11.4729C8.20531 11.3648 8.23648 11.2532 8.23648 11.1324C8.23648 10.5564 7.76763 10.0881 7.19164 10.0881C6.61565 10.0881 6.14681 10.5567 6.14681 11.1324C6.14681 11.7081 6.61565 12.1767 7.19164 12.1767C7.51377 12.1767 7.79109 12.0217 7.98297 11.7921C7.99102 11.7963 7.99873 11.8005 8.00678 11.8051C8.00748 11.8054 8.00783 11.8058 8.00888 11.8061C12.5114 14.249 15.766 16.0149 17.8406 17.2647C18.8988 17.902 19.6327 18.3962 20.0844 18.7745C20.6544 19.2522 20.6561 19.45 20.6428 19.4993C20.6113 19.619 20.334 19.8307 18.8347 19.9032C17.6431 19.9609 15.9159 19.927 13.7376 19.8832C13.6756 19.4689 13.3335 19.1455 12.9018 19.1455C12.4263 19.1455 12.0412 19.5305 12.0412 20.0057C12.0412 20.481 12.4263 20.866 12.9018 20.866C13.2898 20.866 13.6056 20.6042 13.7128 20.2511C15.7044 20.2913 17.2828 20.3232 18.4089 20.404C18.9972 20.446 19.4285 20.4992 19.7286 20.5667C20.0917 20.6483 20.1614 20.7298 20.1712 20.7445C20.1656 20.776 20.0942 20.964 19.2027 21.4088C18.5192 21.7497 17.4516 22.1931 15.9379 22.765C12.969 23.8866 8.30896 25.4951 1.86242 27.7196C1.67125 27.469 1.38378 27.2961 1.04483 27.2961C0.468495 27.2961 0 27.7647 0 28.3404C0 28.9161 0.468845 29.3848 1.04483 29.3848C1.62082 29.3848 2.08967 28.9161 2.08967 28.3404C2.08967 28.2379 2.05886 28.1444 2.03084 28.051C2.0354 28.0496 2.0396 28.0479 2.04415 28.0465C2.05185 28.0437 2.05956 28.0412 2.06726 28.0384C2.06936 28.0377 2.07181 28.0367 2.07391 28.0363C8.36498 25.8654 12.9155 24.2954 15.9057 23.3631C17.4394 22.8846 18.5472 22.5798 19.292 22.4311C20.3211 22.2253 20.4489 22.3632 20.4524 22.3663C20.4524 22.3674 20.4783 22.4731 20.1803 22.8286C19.9569 23.095 19.6026 23.4425 19.0962 23.8915C18.1326 24.7462 16.71 25.8892 14.9166 27.328C14.7723 27.2195 14.6021 27.1432 14.4074 27.1432C13.9319 27.1432 13.5468 27.5281 13.5468 28.0034C13.5468 28.4787 13.9319 28.8637 14.4074 28.8637C14.8829 28.8637 15.2681 28.4787 15.2681 28.0034C15.2681 27.8575 15.2226 27.7266 15.1585 27.6065C16.9782 26.1464 18.424 24.9877 19.4786 24.2205C20.0336 23.8166 20.4552 23.5398 20.7675 23.3736C21.1495 23.1706 21.2703 23.1881 21.2903 23.1933C21.3029 23.2189 21.3617 23.4072 20.9919 24.2408C20.7069 24.8834 20.2125 25.8143 19.4804 27.0872C18.0514 29.5706 15.7664 33.2765 12.6049 38.4016C12.6038 38.4037 12.6028 38.4051 12.6014 38.4072C12.5975 38.4138 12.5933 38.4201 12.5895 38.4268C12.4876 38.3935 12.3843 38.3624 12.2716 38.3624C11.6952 38.3624 11.2267 38.831 11.2267 39.4067C11.2267 39.9824 11.6952 40.451 12.2716 40.451C12.8479 40.451 13.3164 39.9824 13.3164 39.4067C13.3164 39.077 13.1529 38.7949 12.9134 38.6035C12.9214 38.5906 12.9295 38.5776 12.9375 38.5643C16.2548 33.1859 18.6547 29.2962 20.286 26.8796C21.1183 25.647 21.7514 24.7966 22.222 24.2807C22.8039 23.6423 23.0343 23.6266 23.1065 23.6497C23.2189 23.6854 23.41 23.9398 23.4272 25.2435C23.4408 26.2742 23.3505 27.7297 23.236 29.5633C22.8214 29.6252 22.4983 29.9671 22.4983 30.3986C22.4983 30.8736 22.8834 31.2589 23.3589 31.2589C23.8344 31.2589 24.2196 30.8736 24.2196 30.3986C24.2196 30.0105 23.9573 29.6948 23.604 29.5878C23.7252 27.6489 23.8232 26.1104 23.9769 25.0444C24.125 24.0168 24.3239 23.4684 24.568 23.4138C24.6639 23.3921 24.894 23.4338 25.3533 23.951C25.7382 24.3843 26.2312 25.0902 26.86 26.1086C28.0953 28.1084 29.8286 31.2638 32.225 35.6277C32.0047 35.8194 31.8583 36.0924 31.8583 36.4064C31.8583 36.9824 32.3272 37.451 32.9032 37.451C33.4792 37.451 33.948 36.9824 33.948 36.4064C33.948 35.8303 33.4792 35.362 32.9032 35.362C32.7743 35.362 32.6539 35.3928 32.5401 35.4355C30.1654 31.1112 28.4479 27.9831 27.4315 25.872C27.0761 25.1336 25.9941 22.886 26.4146 22.4587C26.6072 22.2631 27.2151 22.3814 28.2217 22.8111C29.2466 23.2486 30.6573 23.9888 32.4266 24.9212C32.4014 25.002 32.3759 25.0832 32.3759 25.1724C32.3759 25.6477 32.761 26.0327 33.2365 26.0327C33.712 26.0327 34.0972 25.6477 34.0972 25.1724C34.0972 24.6972 33.712 24.3122 33.2365 24.3122C32.9841 24.3122 32.7624 24.4252 32.6049 24.5985C30.9424 23.7221 29.6188 23.0222 28.7203 22.4661C27.5235 21.7255 27.4465 21.4518 27.4689 21.3685C27.4787 21.3325 27.5736 21.1463 28.4917 21.0249C29.1979 20.9314 30.2844 20.8887 31.8139 20.8943C34.8062 20.9052 39.495 21.0984 45.9762 21.3664C45.9899 21.3671 46.0032 21.3675 46.0172 21.3682C46.0203 21.3682 46.0228 21.3682 46.0259 21.3685C46.028 21.3685 46.0301 21.3685 46.0319 21.3685C46.1047 21.8736 46.5224 22.269 47.0477 22.269C47.624 22.269 48.0925 21.8008 48.0925 21.2247C48.0925 20.6486 47.6237 20.1804 47.0477 20.1804L47.048 20.1807ZM44.1534 5.18421C44.5263 5.18421 44.8295 5.48764 44.8295 5.86036C44.8295 6.23309 44.5263 6.53617 44.1534 6.53617C43.7805 6.53617 43.4769 6.23309 43.4769 5.86036C43.4769 5.48764 43.7805 5.18421 44.1534 5.18421ZM26.11 1.04398C26.11 0.671256 26.4132 0.368176 26.7865 0.368176C27.1597 0.368176 27.4626 0.671256 27.4626 1.04398C27.4626 1.41671 27.1594 1.72014 26.7865 1.72014C26.4136 1.72014 26.11 1.41671 26.11 1.04398ZM7.19129 11.8072C6.81839 11.8072 6.51481 11.5041 6.51481 11.1314C6.51481 10.7586 6.81839 10.4552 7.19129 10.4552C7.5642 10.4552 7.86777 10.7586 7.86777 11.1314C7.86777 11.5041 7.5642 11.8072 7.19129 11.8072ZM1.04448 29.0155C0.671579 29.0155 0.368353 28.7125 0.368353 28.3397C0.368353 27.967 0.671579 27.6636 1.04448 27.6636C1.41739 27.6636 1.72062 27.967 1.72062 28.3397C1.72062 28.7125 1.41739 29.0155 1.04448 29.0155ZM12.9477 39.406C12.9477 39.7787 12.6441 40.0818 12.2712 40.0818C11.8983 40.0818 11.5951 39.7787 11.5951 39.406C11.5951 39.0333 11.8983 38.7299 12.2712 38.7299C12.6441 38.7299 12.9477 39.0333 12.9477 39.406ZM32.9035 35.7298C33.2764 35.7298 33.58 36.0333 33.58 36.4057C33.58 36.778 33.2764 37.0818 32.9035 37.0818C32.5306 37.0818 32.2274 36.7787 32.2274 36.4057C32.2274 36.0326 32.5306 35.7298 32.9035 35.7298ZM47.0477 21.9009C46.6748 21.9009 46.3712 21.5978 46.3712 21.2251C46.3712 20.8523 46.6748 20.5489 47.0477 20.5489C47.4206 20.5489 47.7238 20.8523 47.7238 21.2251C47.7238 21.5978 47.4206 21.9009 47.0477 21.9009Z" fill="#2B6ED4"/>
</svg>
