<svg width="58" height="58" viewBox="0 0 58 58" fill="none" xmlns="http://www.w3.org/2000/svg">
<path d="M57.1579 31.3237C48.8956 30.5069 42.9169 29.9143 39.0911 29.3795C37.1361 29.1059 35.7536 28.8485 34.865 28.5915C33.7171 28.2598 33.6712 28.0074 33.6708 28.0049C33.6661 27.9688 33.6793 27.6285 35.5794 26.7552C36.9857 26.1091 39.0596 25.3262 41.6852 24.3352C41.6878 24.3343 41.6908 24.333 41.6933 24.3322L41.4485 23.684C38.8166 24.6775 36.7375 25.4625 35.2505 25.9056C33.2411 26.505 32.9963 26.2471 32.9751 26.2157C32.9691 26.2068 32.8331 25.9846 33.4604 24.9672C33.9449 24.1814 34.7944 23.0676 36.0575 21.5617C38.5412 18.6005 42.5934 14.1556 48.1999 8.00722C48.205 8.0017 48.2106 7.99575 48.2157 7.98981C48.2229 7.98173 48.2301 7.97409 48.2373 7.96602C48.2403 7.96262 48.2433 7.95922 48.2463 7.95582L47.99 7.72261L47.7337 7.48941C47.7299 7.49365 47.7256 7.4979 47.7218 7.50258C42.1204 13.6458 38.0724 18.0853 35.3431 20.8294C33.9581 22.2223 32.9219 23.1674 32.1756 23.7192C31.2203 24.4261 30.9589 24.3211 30.9325 24.3067C30.8471 24.2608 30.596 23.9524 30.9559 21.916C31.2339 20.3434 31.7961 18.1261 32.5076 15.3182L31.8357 15.1479C31.1446 17.8746 30.5985 20.0282 30.1183 21.5316C29.4684 23.5667 29.1361 23.7201 29.08 23.7303C29.0775 23.7298 28.8195 23.6691 28.3898 22.4678C28.0664 21.5634 27.6971 20.1676 27.2619 18.2004C26.4055 14.3323 25.304 8.32666 23.7795 0.0144427C23.7787 0.00977008 23.7778 0.00467265 23.777 0L23.4361 0.0624436L23.0953 0.124887C23.1012 0.156321 23.1068 0.187331 23.1123 0.21834C23.1123 0.220464 23.1131 0.223862 23.1136 0.225562C23.1144 0.22896 23.1148 0.234057 23.1157 0.237456C24.6316 8.5021 25.7268 14.4784 26.2666 18.3758C26.542 20.3634 26.6686 21.7911 26.655 22.7409C26.6376 23.9384 26.4017 24.1053 26.3545 24.1266C26.2593 24.1699 25.8314 24.1822 24.3286 22.5358C23.1743 21.2707 21.6499 19.3384 19.72 16.8916L19.1756 17.3207C21.0315 19.674 22.4973 21.5324 23.4659 22.9125C24.7528 24.7464 24.7298 25.1682 24.703 25.2455C24.6644 25.2667 24.3877 25.3704 23.1998 24.9439C22.2581 24.6057 20.896 23.9919 19.0358 23.0663C15.397 21.2563 9.94054 18.3045 2.39482 14.221C2.3757 14.2108 2.35743 14.201 2.3383 14.1904C2.32513 14.1832 2.3128 14.1768 2.29963 14.1696L1.96983 14.7787C1.97408 14.7809 1.97833 14.7834 1.98216 14.7855C1.98641 14.7877 1.99108 14.7902 1.99533 14.7928C2.00511 14.7983 2.01488 14.8034 2.02466 14.8085C2.04718 14.8208 2.07056 14.8331 2.09308 14.8454C9.68724 18.9548 15.1794 21.9279 18.6558 24.0004C20.4319 25.0594 21.6626 25.8729 22.4183 26.488C23.4072 27.2925 23.3448 27.5699 23.3418 27.5814C23.3227 27.6506 23.1055 27.9989 20.6928 28.0631C18.8908 28.1111 16.2937 28.0053 13.006 27.8715C13.0022 27.8715 12.9979 27.8715 12.9941 27.8711L12.966 28.5635C16.1964 28.6952 18.7476 28.7992 20.53 28.9785C22.995 29.2261 23.1722 29.5694 23.1841 29.6063C23.1841 29.6089 23.1901 29.8761 22.0579 30.5553C21.2028 31.0684 19.8496 31.7273 17.921 32.5696C14.1547 34.2148 8.28052 36.5269 0.161497 39.7205C0.107523 39.7417 0.0539739 39.7625 0 39.7838L0.126647 40.1062L0.25372 40.4286C0.277519 40.4193 0.301319 40.4099 0.325118 40.4006C0.332768 40.3976 0.340418 40.3946 0.348068 40.3917C0.366342 40.3844 0.383342 40.3781 0.401192 40.3708C8.57462 37.1556 14.4884 34.8304 18.3677 33.4749C20.3511 32.782 21.7842 32.35 22.7481 32.1546C23.9822 31.9048 24.1552 32.1053 24.1565 32.1079C24.165 32.1206 24.3477 32.4465 22.7115 34.3482C21.5334 35.7173 19.7119 37.5825 17.4059 39.9427C17.4008 39.9478 17.3962 39.9529 17.3911 39.9579L17.6388 40.2001L17.887 40.4422C17.8896 40.4392 17.893 40.4363 17.8955 40.4333C20.2096 38.0643 22.0383 36.1931 23.3885 34.9824C24.0804 34.3622 24.6134 33.9455 25.0184 33.7081C25.4098 33.4787 25.5989 33.4706 25.6444 33.4986C25.6542 33.5046 25.8815 33.6601 25.6979 34.9259C25.5577 35.8944 25.2032 37.3349 24.6142 39.3301C23.4553 43.2564 21.4174 49.2501 18.5963 57.5458L19.2525 57.7688C22.0481 49.5475 24.0681 43.6077 25.5233 39.7706C26.2644 37.817 26.8501 36.4339 27.3146 35.5431C27.9041 34.4124 28.1778 34.31 28.2177 34.3011C28.2891 34.3372 28.5993 34.6243 28.9075 36.8952C29.1382 38.5974 29.3291 41.0072 29.57 44.058L29.9155 44.0308L30.2611 44.0036C30.0107 40.839 29.8135 38.3391 29.7995 36.5962C29.7817 34.3261 30.1047 34.0428 30.2041 34.0101C30.2334 34.0003 30.5203 33.94 31.3631 34.8397C32.0175 35.538 32.8926 36.6884 34.0384 38.3561C36.2891 41.632 39.5424 46.8369 44.0427 54.0379C44.052 54.0528 44.0614 54.0672 44.0703 54.0821C44.0728 54.0859 44.0754 54.0902 44.0779 54.094L44.6657 53.727C44.6585 53.7155 44.6513 53.7036 44.644 53.6921C44.6415 53.6879 44.6385 53.6832 44.6355 53.679C40.1489 46.4997 36.9062 41.3105 34.9139 37.8557C33.8981 36.0945 33.219 34.8023 32.8374 33.9056C32.3524 32.765 32.4532 32.5046 32.4702 32.4732C32.536 32.4409 32.9228 32.3687 34.763 33.4553C36.1429 34.2696 38.0095 35.5245 40.3729 37.1127L40.7596 36.5376C38.3112 34.8919 36.3771 33.5921 35.0983 32.5888C33.4396 31.2872 33.4213 30.879 33.4549 30.7847C33.4719 30.7371 33.6164 30.4946 34.7834 30.3803C35.7116 30.2894 37.1204 30.2975 39.0894 30.4058C42.9708 30.6186 48.97 31.2116 57.2731 32.0327L57.3071 31.6878L57.3411 31.3429C57.279 31.3369 57.2182 31.331 57.1566 31.3246L57.1579 31.3237Z" fill="#2B6ED4"/>
</svg>
