<svg width="38" height="38" viewBox="0 0 38 38" fill="none" xmlns="http://www.w3.org/2000/svg">
<path d="M18.2669 37.4872L17.8525 37.4719C18.0577 31.8472 18.1646 28.3497 18.1422 25.9797C18.1304 24.7369 18.0815 23.8488 17.9927 23.2639C17.8801 22.5224 17.73 22.4669 17.7286 22.4666C17.72 22.4643 17.5107 22.4298 16.856 23.5959C16.3835 24.4371 15.7848 25.7066 15.0309 27.3538L14.6538 27.1814C15.4077 25.5342 15.9768 24.2515 16.3047 23.3438C16.7591 22.0864 16.5962 21.9507 16.589 21.9455C16.5878 21.9444 16.4476 21.8674 15.813 22.2669C15.3123 22.5819 14.6081 23.1257 13.6599 23.929C11.8518 25.4612 9.27487 27.8283 5.15248 31.6604L4.87024 31.3566C8.99263 27.5245 11.5414 25.1272 13.2012 23.4355C14.0715 22.5485 14.665 21.8857 15.016 21.4092C15.4606 20.8054 15.3939 20.6599 15.3931 20.6588C15.3885 20.6513 15.2649 20.4789 13.9778 20.8404C13.0489 21.1014 11.7277 21.5753 10.0302 22.2071L9.88562 21.8185C11.5834 21.1868 12.8931 20.6821 13.7666 20.2722C14.9769 19.7043 14.9576 19.493 14.9565 19.4844C14.9565 19.483 14.9116 19.3292 14.1805 19.1628C13.6036 19.0317 12.7213 18.9182 11.4828 18.8156C9.12081 18.6204 5.62499 18.4721 0 18.2669L0.015233 17.8525C5.63993 18.0577 9.13748 18.1649 11.5075 18.1422C12.7503 18.1304 13.6384 18.0815 14.2233 17.9927C14.9648 17.8801 15.0203 17.73 15.0206 17.7286C15.0226 17.72 15.0571 17.5107 13.8913 16.856C13.0501 16.3835 11.7805 15.7848 10.1334 15.0309L10.3058 14.6538C11.953 15.4077 13.236 15.9768 14.1434 16.3047C15.4008 16.7591 15.5365 16.5962 15.5417 16.589C15.5425 16.5878 15.6198 16.4476 15.2203 15.813C14.9053 15.3123 14.3615 14.6081 13.5582 13.6599C12.026 11.8518 9.65885 9.27486 5.82675 5.15248L6.13055 4.87024C9.96265 8.99262 12.36 11.5414 14.052 13.2012C14.9389 14.0715 15.6017 14.665 16.0783 15.016C16.6821 15.4606 16.8275 15.3939 16.8287 15.3931C16.8362 15.3885 17.0086 15.2649 16.647 13.9778C16.3861 13.0489 15.9121 11.7277 15.2804 10.0302L15.669 9.88562C16.3007 11.5834 16.8054 12.8931 17.2153 13.7666C17.7829 14.9766 17.9944 14.9579 18.0031 14.9565C18.0045 14.9565 18.1583 14.9116 18.3247 14.1805C18.456 13.6036 18.5696 12.7213 18.6719 11.4828C18.867 9.12081 19.0153 5.62499 19.2206 0L19.635 0.015233C19.4298 5.63993 19.3229 9.13748 19.3453 11.5075C19.3571 12.7503 19.4059 13.6384 19.4948 14.2233C19.6074 14.9648 19.7574 15.0203 19.7589 15.0206C19.7678 15.0229 19.9773 15.0562 20.6315 13.8913C21.104 13.0501 21.7027 11.7805 22.4566 10.1334L22.8336 10.3058C22.0798 11.953 21.5107 13.236 21.1827 14.1434C20.7283 15.4008 20.8913 15.5365 20.8985 15.5416C20.8996 15.5425 21.0396 15.6198 21.6745 15.2203C22.1752 14.9053 22.8793 14.3615 23.8275 13.5582C25.6356 12.026 28.2126 9.65885 32.335 5.82675L32.6172 6.13055C28.4948 9.96265 25.9461 12.3603 24.2862 14.052C23.4159 14.9389 22.8224 15.6017 22.4715 16.0783C22.0269 16.6821 22.0936 16.8275 22.0944 16.8287C22.099 16.8362 22.2226 17.0086 23.5096 16.647C24.4386 16.3861 25.7598 15.9121 27.4573 15.2804L27.6019 15.669C25.9041 16.3007 24.5946 16.8054 23.7209 17.2153C22.5106 17.7832 22.5298 17.9944 22.531 18.0031C22.531 18.0045 22.5758 18.1583 23.307 18.3247C23.8839 18.456 24.7662 18.5696 26.0047 18.6719C28.3667 18.867 31.8625 19.0153 37.4875 19.2206L37.4722 19.635C31.8475 19.4298 28.35 19.3226 25.98 19.3453C24.7372 19.3571 23.8491 19.4059 23.2642 19.4947C22.5227 19.6074 22.4672 19.7574 22.4669 19.7589C22.4649 19.7675 22.4304 19.9767 23.5962 20.6315C24.4374 21.104 25.7069 21.7027 27.3541 22.4566L27.1817 22.8336C25.5345 22.0798 24.2517 21.5107 23.3441 21.1827C22.0869 20.7283 21.951 20.8913 21.9458 20.8985C21.945 20.8996 21.8676 21.0399 22.2672 21.6745C22.5822 22.1752 23.1259 22.8793 23.9293 23.8275C25.4615 25.6356 27.8286 28.2126 31.6607 32.335L31.3569 32.6172C27.5248 28.4948 25.1272 25.9461 23.4358 24.2862C22.5488 23.4159 21.886 22.8224 21.4095 22.4715C20.8056 22.0269 20.6605 22.0935 20.6591 22.0944C20.6516 22.099 20.4791 22.2226 20.8407 23.5096C21.1017 24.4386 21.5756 25.7598 22.2074 27.4573L21.8188 27.6018C21.187 25.9041 20.6823 24.5946 20.2725 23.7209C19.7049 22.5109 19.4936 22.5296 19.4847 22.531C19.4833 22.531 19.3295 22.5758 19.1631 23.307C19.032 23.8839 18.9185 24.7662 18.8159 26.0047C18.6207 28.3667 18.4724 31.8625 18.2672 37.4875L18.2669 37.4872ZM17.7203 22.051C17.755 22.051 17.7895 22.0553 17.8243 22.0634C18.1974 22.1519 18.4417 22.6468 18.5265 24.6892C18.7598 22.6583 19.0398 22.1824 19.4183 22.1214C19.6853 22.0786 19.9356 22.2669 20.2406 22.767C20.1443 22.189 20.2113 21.8826 20.4409 21.7409C20.7674 21.5397 21.2899 21.7168 22.7943 23.1012C21.5233 21.5 21.3848 20.9657 21.6093 20.655C21.7673 20.4363 22.0777 20.3921 22.6474 20.53C22.1706 20.1894 22.0013 19.9253 22.0634 19.6626C22.1519 19.2895 22.6468 19.0452 24.6892 18.9604C22.6583 18.7271 22.1824 18.4471 22.1214 18.0686C22.0786 17.8022 22.2669 17.5513 22.767 17.2463C22.189 17.3426 21.8823 17.2756 21.7409 17.046C21.5397 16.7198 21.7168 16.197 23.1012 14.6926C21.5 15.9636 20.9657 16.1021 20.655 15.8776C20.4363 15.7196 20.3921 15.4089 20.53 14.8395C20.1891 15.3163 19.9253 15.4856 19.6626 15.4235C19.2895 15.335 19.0452 14.8401 18.9604 12.7977C18.7271 14.8286 18.4471 15.3045 18.0686 15.3655C17.8022 15.4083 17.5513 15.2203 17.2463 14.7199C17.3426 15.2979 17.2756 15.6043 17.046 15.746C16.7195 15.9472 16.197 15.7701 14.6926 14.3857C15.9636 15.9869 16.1021 16.5212 15.8776 16.8319C15.7196 17.0506 15.4092 17.0948 14.8395 16.9569C15.3163 17.2975 15.4856 17.5616 15.4235 17.8243C15.335 18.1974 14.8401 18.4417 12.7977 18.5264C14.8286 18.7598 15.3045 19.0398 15.3655 19.4183C15.4086 19.6847 15.22 19.9356 14.7199 20.2406C15.2979 20.1443 15.6043 20.2113 15.746 20.4409C15.9472 20.7671 15.7701 21.2899 14.3857 22.7943C15.9869 21.5233 16.5212 21.3848 16.8319 21.6093C17.0506 21.7673 17.0948 22.078 16.9569 22.6474C17.2526 22.2335 17.4906 22.051 17.7203 22.051Z" fill="white"/>
</svg>
