<svg width="93" height="93" viewBox="0 0 93 93" fill="none" xmlns="http://www.w3.org/2000/svg">
<path d="M45.2688 92.8555L44.2418 92.8178C44.7503 78.8854 45.0153 70.222 44.9597 64.3515C44.9305 61.2731 44.8094 59.0733 44.5893 57.6245C44.3101 55.7878 43.9383 55.6504 43.9348 55.6497C43.9134 55.644 43.3949 55.5585 41.7723 58.4468C40.6014 60.5306 39.1177 63.6752 37.2494 67.7552L36.3149 67.3281C38.1832 63.248 39.5935 60.0707 40.4062 57.8225C41.5323 54.7078 41.1284 54.3718 41.1106 54.3589C41.1078 54.3561 40.7602 54.1653 39.1875 55.1549C37.9467 55.9351 36.2017 57.2821 33.8519 59.2719C29.371 63.0672 22.9849 68.9306 12.7688 78.4227L12.0694 77.6702C22.2854 68.1781 28.6018 62.2399 32.7151 58.0496C34.8719 55.8526 36.3427 54.2109 37.2124 53.0305C38.3143 51.5347 38.149 51.1745 38.1469 51.1717C38.1355 51.1531 37.8292 50.726 34.6397 51.6216C32.3376 52.268 29.0633 53.442 24.8567 55.0068L24.4984 54.0443C28.7058 52.4795 31.9516 51.2293 34.1162 50.2141C37.1155 48.8074 37.0678 48.2841 37.065 48.2627C37.065 48.2592 36.9538 47.8783 35.1418 47.4661C33.7123 47.1415 31.5256 46.8602 28.4565 46.6061C22.6031 46.1227 13.9398 45.7553 0 45.247L0.0377502 44.2204C13.9768 44.7287 22.6444 44.9943 28.5177 44.9381C31.5976 44.9089 33.7985 44.7878 35.248 44.5679C37.0856 44.2888 37.2231 43.9172 37.2238 43.9136C37.2288 43.8922 37.3142 43.374 34.4253 41.7522C32.3405 40.5818 29.1944 39.0989 25.1124 37.2315L25.5398 36.2974C29.6218 38.1648 32.8013 39.5744 35.0499 40.3867C38.1661 41.5123 38.5023 41.1086 38.5151 41.0908C38.5173 41.088 38.7089 40.7406 37.7188 39.1686C36.9382 37.9285 35.5906 36.1842 33.5998 33.8356C29.8027 29.3569 23.9364 22.9738 14.4398 12.7627L15.1927 12.0635C24.6893 22.2747 30.6303 28.588 34.8234 32.6994C37.0215 34.8551 38.664 36.3252 39.8449 37.1945C41.3414 38.2958 41.7018 38.1306 41.7047 38.1285C41.7232 38.1171 42.1505 37.811 41.2545 34.623C40.6078 32.3221 39.4332 29.0493 37.8677 24.8447L38.8307 24.4866C40.3962 28.692 41.647 31.9362 42.6627 34.0997C44.0694 37.0969 44.5936 37.0507 44.615 37.0471C44.6185 37.0471 44.9996 36.936 45.412 35.1249C45.7375 33.6961 46.0189 31.5105 46.2724 28.4428C46.7561 22.5922 47.1236 13.9331 47.6321 0L48.6592 0.037732C48.1507 13.9701 47.8857 22.6335 47.9413 28.504C47.9705 31.5824 48.0916 33.7822 48.3116 35.231C48.5909 37.0677 48.9627 37.2051 48.9662 37.2059C48.9883 37.2115 49.5075 37.2941 51.1287 34.4087C52.2996 32.3249 53.7833 29.1803 55.6516 25.1003L56.5861 25.5275C54.7178 29.6075 53.3075 32.7855 52.4948 35.0331C51.3687 38.1477 51.7726 38.4838 51.7904 38.4966C51.7932 38.4987 52.1401 38.6902 53.7135 37.7006C54.9542 36.9204 56.6993 35.5734 59.0491 33.5836C63.5299 29.7883 69.9161 23.9249 80.1322 14.4328L80.8316 15.1853C70.6156 24.6774 64.2992 30.6163 60.1858 34.8067C58.0291 37.0037 56.5583 38.6454 55.6886 39.8257C54.5867 41.3215 54.752 41.6817 54.7541 41.6846C54.7655 41.7031 55.0718 42.1302 58.2613 41.2346C60.5633 40.5882 63.8376 39.4142 68.0443 37.8494L68.4026 38.812C64.1952 40.3768 60.9501 41.6269 58.7848 42.6421C55.7855 44.0489 55.8332 44.5721 55.836 44.5935C55.836 44.597 55.9471 44.9779 57.7592 45.3901C59.1887 45.7155 61.3753 45.9967 64.4445 46.2501C70.2979 46.7335 78.9612 47.1009 92.901 47.6092L92.8632 48.6358C78.9242 48.1275 70.2566 47.8619 64.3832 47.9182C61.3034 47.9474 59.1025 48.0684 57.653 48.2884C55.8154 48.5674 55.6779 48.9391 55.6772 48.9426C55.6722 48.964 55.5867 49.4823 58.4757 51.104C60.5605 52.2744 63.7066 53.7574 67.7886 55.6247L67.3612 56.5588C63.2792 54.6914 60.1004 53.2818 57.851 52.4695C54.7356 51.3439 54.3987 51.7476 54.3859 51.7654C54.3837 51.7683 54.1921 52.1157 55.1822 53.6876C55.9628 54.9278 57.3104 56.672 59.3012 59.0206C63.0983 63.4993 68.9645 69.8824 78.4612 80.0936L77.7083 80.7927C68.2117 70.5816 62.2699 64.2682 58.0782 60.1569C55.8802 58.0011 54.2377 56.531 53.0568 55.6618C51.5603 54.5604 51.2006 54.7256 51.197 54.7277C51.1785 54.7391 50.7512 55.0452 51.6472 58.2332C52.2939 60.5342 53.4685 63.8069 55.034 68.0115L54.071 68.3696C52.5055 64.1643 51.2547 60.9207 50.239 58.7565C48.8323 55.7593 48.3088 55.8056 48.2867 55.8091C48.2832 55.8091 47.9021 55.9202 47.4897 57.7313C47.1649 59.1602 46.8835 61.3458 46.6293 64.4134C46.1456 70.264 45.7781 78.9232 45.2696 92.8562L45.2688 92.8555ZM43.9141 54.6202C44.0003 54.6202 44.0858 54.6309 44.1719 54.6508C45.0965 54.8701 45.7019 56.096 45.912 61.155C46.4904 56.1245 47.1841 54.9456 48.1222 54.7946C48.7839 54.6886 49.4043 55.1549 50.16 56.3936C49.9214 54.9619 50.0873 54.203 50.6564 53.8521C51.4656 53.3537 52.7605 53.7923 56.4885 57.2216C53.3388 53.2555 52.9955 51.932 53.5518 51.1624C53.9435 50.6206 54.7128 50.511 56.1245 50.8527C54.9429 50.0091 54.5233 49.3548 54.6772 48.7041C54.8966 47.7801 56.1231 47.1749 61.1844 46.9649C56.1516 46.3868 54.9721 45.6934 54.8211 44.7558C54.7149 44.0958 55.1815 43.4743 56.4208 42.719C54.9884 42.9575 54.2284 42.7916 53.878 42.2228C53.3794 41.4147 53.8182 40.1198 57.2492 36.3935C53.2811 39.5417 51.957 39.8848 51.1871 39.3288C50.645 38.9372 50.5353 38.1677 50.8772 36.7573C50.0325 37.9384 49.3786 38.3577 48.7276 38.204C47.8031 37.9847 47.1977 36.7588 46.9875 31.6998C46.4092 36.7303 45.7154 37.9092 44.7774 38.0602C44.1171 38.1662 43.4953 37.7006 42.7396 36.4612C42.9782 37.8929 42.8122 38.6518 42.2431 39.0027C41.434 39.5011 40.1391 39.0626 36.4111 35.6332C39.5607 39.5993 39.904 40.9228 39.3478 41.6924C38.956 42.2342 38.1868 42.3438 36.7751 42.0021C37.9567 42.8457 38.3762 43.5 38.2224 44.1507C38.003 45.0747 36.7765 45.6799 31.7151 45.8899C36.748 46.468 37.9275 47.1614 38.0785 48.099C38.1853 48.759 37.7181 49.3805 36.4788 50.1358C37.9111 49.8973 38.6704 50.0632 39.0215 50.632C39.5201 51.4401 39.0814 52.735 35.6504 56.4613C39.6184 53.3131 40.9425 52.97 41.7125 53.526C42.2545 53.9176 42.3642 54.6871 42.0223 56.0975C42.7553 55.0723 43.345 54.6202 43.9141 54.6202Z" fill="#2B6ED4"/>
</svg>
