<svg width="98" height="83" viewBox="0 0 98 83" fill="none" xmlns="http://www.w3.org/2000/svg">
<path d="M95.7052 41.0517C94.6952 41.0517 93.8867 41.7743 93.6724 42.7197C93.6303 42.7183 93.5883 42.7162 93.5463 42.7147C93.5377 42.7147 93.5306 42.714 93.5221 42.7133C93.5199 42.7133 93.5178 42.7133 93.5149 42.7133C81.0396 42.1972 72.0102 41.822 66.062 41.3934C62.9993 41.1727 60.8076 40.9399 59.3625 40.6822C57.4707 40.3447 57.2292 40.0208 57.2036 39.9731C57.2157 39.9354 57.3211 39.7012 58.1601 39.2655C58.8361 38.9138 59.8461 38.5016 61.2457 38.0053C63.9388 37.0514 67.8427 35.8674 72.778 34.371C73.0928 34.8366 73.5993 35.1619 74.204 35.1619C75.1712 35.1619 75.9547 34.3788 75.9547 33.412C75.9547 32.4452 75.1712 31.6621 74.204 31.6621C73.2367 31.6621 72.4532 32.4452 72.4532 33.412C72.4532 33.5039 72.4917 33.5822 72.5052 33.6704C67.7109 35.1235 63.911 36.274 61.1951 36.9617C59.7749 37.3212 58.72 37.5362 57.97 37.6195C57.0426 37.722 56.8197 37.591 56.7855 37.5654C56.7784 37.4949 56.8211 37.0706 58.3475 35.6446C59.5135 34.5547 61.3767 33.0354 64.0435 31C69.191 27.0709 77.2154 21.3008 88.2698 13.3571C88.658 13.775 89.2022 14.0463 89.8169 14.0463C90.9892 14.0463 91.9423 13.093 91.9423 11.9219C91.9423 10.7508 90.9885 9.7975 89.8169 9.7975C88.6452 9.7975 87.6914 10.7508 87.6914 11.9219C87.6914 12.2095 87.7513 12.4822 87.8553 12.732C76.6143 20.8103 68.456 26.6694 63.0449 30.3422C60.2478 32.2409 58.2022 33.5416 56.7905 34.3204C54.9977 35.3086 54.5319 35.278 54.44 35.2531C54.3987 35.1043 54.4549 34.4521 56.2 31.7504C57.5298 29.6915 59.5163 26.9086 62.0285 23.3881C62.2564 23.4971 62.5043 23.569 62.7742 23.569C63.7415 23.569 64.525 22.7851 64.525 21.819C64.525 20.853 63.7415 20.0691 62.7742 20.0691C61.807 20.0691 61.0235 20.8523 61.0235 21.819C61.0235 22.2633 61.203 22.6577 61.4758 22.9667L61.4309 22.9346C58.6402 26.8445 56.4358 29.9328 54.7797 31.949C52.7142 34.4635 51.9834 34.67 51.7312 34.5689C51.6009 34.5169 51.2875 34.2336 51.1928 32.7286C51.1158 31.509 51.1963 29.6794 51.4385 27.1371C51.9107 22.1679 52.977 14.6414 54.4521 4.24164C54.4649 4.24164 54.4756 4.24876 54.4884 4.24876C55.6601 4.24876 56.6138 3.2955 56.6138 2.12438C56.6138 0.953266 55.6601 0 54.4884 0C53.3167 0 52.3623 0.953266 52.3623 2.12438C52.3623 3.02212 52.9257 3.78174 53.7149 4.09285C53.7135 4.10424 53.712 4.11492 53.7106 4.1256C53.7106 4.12987 53.7092 4.13414 53.7092 4.13913C52.1586 15.0771 51.0353 22.9873 50.0738 28.0171C49.7404 29.7606 48.7262 35.0651 47.5702 35.2395C47.2625 35.2865 46.662 34.9434 45.5537 33.044C44.6314 31.4635 43.5302 29.139 42.1491 26.213C42.4454 25.8998 42.6342 25.4819 42.6342 25.017C42.6342 24.0509 41.8507 23.2671 40.8834 23.2671C39.9161 23.2671 39.1327 24.0502 39.1327 25.017C39.1327 25.9838 39.9161 26.7669 40.8834 26.7669C41.1092 26.7669 41.3214 26.7164 41.5202 26.6388C43.9383 31.7611 45.8151 35.7863 44.9462 36.6064C44.0145 37.4864 39.2146 35.1968 37.6369 34.4443C33.0762 32.2687 26.1708 28.5225 16.6143 23.3383C16.6913 23.1183 16.7547 22.8912 16.7547 22.6456C16.7547 21.4738 15.8009 20.5212 14.6292 20.5212C13.4576 20.5212 12.5038 21.4745 12.5038 22.6456C12.5038 23.8167 13.4576 24.77 14.6292 24.77C15.2845 24.77 15.8487 24.4546 16.239 23.9876C16.2554 23.9961 16.271 24.0047 16.2874 24.0139C16.2888 24.0146 16.2895 24.0153 16.2917 24.016C25.4507 28.9853 32.0712 32.5776 36.2914 35.1199C38.4439 36.4163 39.9368 37.4216 40.8556 38.1912C42.0152 39.1629 42.0188 39.5652 41.9917 39.6656C41.9276 39.909 41.3635 40.3397 38.3135 40.4871C35.8897 40.6046 32.3761 40.5355 27.9451 40.4465C27.819 39.6036 27.1231 38.9458 26.2449 38.9458C25.2776 38.9458 24.4941 39.7289 24.4941 40.6957C24.4941 41.6625 25.2776 42.4456 26.2449 42.4456C27.0341 42.4456 27.6766 41.9131 27.8945 41.1948C31.9459 41.2766 35.1568 41.3414 37.4474 41.5059C38.644 41.5913 39.5216 41.6995 40.132 41.8369C40.8706 42.0028 41.0123 42.1687 41.0323 42.1986C41.0209 42.2627 40.8756 42.645 39.0621 43.5498C37.6718 44.2432 35.5001 45.1452 32.421 46.3085C26.3817 48.5902 16.9021 51.8622 3.78855 56.3872C3.39965 55.8775 2.81488 55.5258 2.1254 55.5258C0.953013 55.5258 0 56.4791 0 57.6502C0 58.8213 0.953725 59.7746 2.1254 59.7746C3.29708 59.7746 4.25081 58.8213 4.25081 57.6502C4.25081 57.4416 4.18813 57.2515 4.13115 57.0614C4.14041 57.0586 4.14895 57.055 4.15821 57.0522C4.17388 57.0465 4.18955 57.0415 4.20522 57.0358C4.2095 57.0344 4.21448 57.0322 4.21876 57.0315C17.0161 52.6155 26.2727 49.4218 32.3554 47.5252C35.4752 46.552 37.7288 45.9319 39.2438 45.6293C41.3371 45.2107 41.5971 45.4912 41.6042 45.4976C41.6042 45.4998 41.6569 45.7148 41.0508 46.4381C40.5964 46.9799 39.8755 47.6868 38.8456 48.6002C36.8855 50.3387 33.9915 52.6639 30.3433 55.5906C30.0498 55.3699 29.7037 55.2147 29.3076 55.2147C28.3404 55.2147 27.5569 55.9978 27.5569 56.9646C27.5569 57.9314 28.3404 58.7145 29.3076 58.7145C30.2749 58.7145 31.0584 57.9314 31.0584 56.9646C31.0584 56.6677 30.9658 56.4015 30.8355 56.1573C34.5371 53.1871 37.4781 50.8299 39.6234 49.2694C40.7523 48.4479 41.6099 47.8847 42.2453 47.5466C43.0223 47.1336 43.2681 47.1692 43.3087 47.1799C43.3343 47.2319 43.454 47.6149 42.7018 49.3107C42.122 50.6178 41.1163 52.5115 39.627 55.1008C36.7202 60.1526 32.072 67.6912 25.6409 78.1166C25.6388 78.1208 25.6366 78.1237 25.6338 78.128C25.6259 78.1415 25.6174 78.1543 25.6096 78.1678C25.4023 78.1002 25.1922 78.0368 24.9628 78.0368C23.7904 78.0368 22.8374 78.9901 22.8374 80.1612C22.8374 81.3323 23.7904 82.2856 24.9628 82.2856C26.1352 82.2856 27.0882 81.3323 27.0882 80.1612C27.0882 79.4906 26.7556 78.9168 26.2684 78.5274C26.2848 78.501 26.3012 78.4747 26.3175 78.4476C33.0656 67.5068 37.9474 59.5944 41.2659 54.6786C42.959 52.1712 44.2467 50.4412 45.204 49.3919C46.3878 48.0933 46.8565 48.0613 47.0032 48.1083C47.2318 48.1809 47.6207 48.6984 47.6556 51.3504C47.6834 53.447 47.4997 56.4079 47.2667 60.1376C46.4234 60.2637 45.766 60.9592 45.766 61.837C45.766 62.8031 46.5495 63.5869 47.5167 63.5869C48.484 63.5869 49.2675 62.8031 49.2675 61.837C49.2675 61.0475 48.734 60.4053 48.0153 60.1875C48.2618 56.2434 48.4612 53.1138 48.7739 50.9453C49.0752 48.8551 49.4798 47.7395 49.9762 47.6284C50.1714 47.5843 50.6393 47.669 51.5738 48.7212C52.3566 49.6026 53.3595 51.0385 54.6387 53.1102C57.1516 57.1782 60.6773 63.5969 65.5521 72.4739C65.104 72.864 64.8063 73.4193 64.8063 74.0579C64.8063 75.2297 65.76 76.183 66.9317 76.183C68.1034 76.183 69.0571 75.2297 69.0571 74.0579C69.0571 72.8861 68.1034 71.9335 66.9317 71.9335C66.6696 71.9335 66.4246 71.9962 66.1931 72.083C61.3625 63.2865 57.8688 56.9233 55.8011 52.629C55.0782 51.1268 52.8773 46.5548 53.7327 45.6856C54.1244 45.2876 55.3609 45.5282 57.4087 46.4025C59.4935 47.2924 62.3632 48.7981 65.9623 50.6947C65.911 50.8591 65.859 51.0243 65.859 51.2058C65.859 52.1726 66.6425 52.9558 67.6098 52.9558C68.5771 52.9558 69.3605 52.1726 69.3605 51.2058C69.3605 50.2391 68.5771 49.4559 67.6098 49.4559C67.0962 49.4559 66.6454 49.6859 66.3249 50.0383C62.943 48.2556 60.2507 46.8318 58.423 45.7005C55.9884 44.1941 55.8318 43.6374 55.8773 43.4679C55.8973 43.3946 56.0903 43.0159 57.9579 42.7688C59.3945 42.5787 61.6047 42.4919 64.7159 42.5033C70.8029 42.5254 80.3408 42.9183 93.5249 43.4637C93.5527 43.4651 93.5798 43.4658 93.6082 43.4672C93.6147 43.4672 93.6196 43.4672 93.6261 43.4679C93.6303 43.4679 93.6346 43.4679 93.6382 43.4679C93.7863 44.4952 94.6361 45.2997 95.7045 45.2997C96.8768 45.2997 97.8299 44.3472 97.8299 43.1753C97.8299 42.0035 96.8761 41.051 95.7045 41.051L95.7052 41.0517ZM89.8169 10.5457C90.5754 10.5457 91.1922 11.163 91.1922 11.9212C91.1922 12.6794 90.5754 13.2959 89.8169 13.2959C89.0583 13.2959 88.4407 12.6794 88.4407 11.9212C88.4407 11.163 89.0583 10.5457 89.8169 10.5457ZM53.113 2.12367C53.113 1.36547 53.7299 0.748944 54.4891 0.748944C55.2484 0.748944 55.8645 1.36547 55.8645 2.12367C55.8645 2.88187 55.2477 3.49911 54.4891 3.49911C53.7306 3.49911 53.113 2.88187 53.113 2.12367ZM14.6285 24.0182C13.87 24.0182 13.2524 23.4017 13.2524 22.6435C13.2524 21.8853 13.87 21.268 14.6285 21.268C15.3871 21.268 16.0046 21.8853 16.0046 22.6435C16.0046 23.4017 15.3871 24.0182 14.6285 24.0182ZM2.12469 59.0235C1.36613 59.0235 0.749305 58.407 0.749305 57.6488C0.749305 56.8906 1.36613 56.2733 2.12469 56.2733C2.88326 56.2733 3.50008 56.8906 3.50008 57.6488C3.50008 58.407 2.88326 59.0235 2.12469 59.0235ZM26.3382 80.1598C26.3382 80.918 25.7207 81.5345 24.9621 81.5345C24.2035 81.5345 23.5867 80.918 23.5867 80.1598C23.5867 79.4016 24.2035 78.7844 24.9621 78.7844C25.7207 78.7844 26.3382 79.4016 26.3382 80.1598ZM66.9324 72.6817C67.691 72.6817 68.3085 73.299 68.3085 74.0565C68.3085 74.814 67.691 75.4319 66.9324 75.4319C66.1739 75.4319 65.557 74.8154 65.557 74.0565C65.557 73.2976 66.1739 72.6817 66.9324 72.6817ZM95.7045 44.5508C94.9459 44.5508 94.3283 43.9343 94.3283 43.1761C94.3283 42.4179 94.9459 41.8006 95.7045 41.8006C96.463 41.8006 97.0798 42.4179 97.0798 43.1761C97.0798 43.9343 96.463 44.5508 95.7045 44.5508Z" fill="#2B6ED4"/>
</svg>
