<svg width="23" height="23" viewBox="0 0 23 23" fill="none" xmlns="http://www.w3.org/2000/svg">
<path d="M22.0137 12.064C18.8316 11.7494 16.5289 11.5212 15.0555 11.3152C14.3026 11.2098 13.7701 11.1107 13.4279 11.0117C12.9858 10.8839 12.9681 10.7867 12.9679 10.7858C12.9661 10.7719 12.9712 10.6408 13.703 10.3044C14.2446 10.0556 15.0434 9.75409 16.0546 9.37241C16.0556 9.37208 16.0567 9.37159 16.0577 9.37126L15.9634 9.12161C14.9498 9.50427 14.149 9.80661 13.5763 9.97724C12.8024 10.2081 12.7082 10.1088 12.7 10.0967C12.6977 10.0932 12.6453 10.0077 12.8869 9.61585C13.0735 9.31318 13.4007 8.88422 13.8871 8.30425C14.8437 7.16379 16.4044 5.45186 18.5637 3.08389C18.5656 3.08176 18.5677 3.07947 18.5697 3.07718C18.5725 3.07407 18.5753 3.07113 18.5781 3.06802C18.5792 3.06671 18.5803 3.0654 18.5815 3.06409L18.4828 2.97428L18.3841 2.88446C18.3826 2.8861 18.381 2.88773 18.3795 2.88953C16.2222 5.25554 14.6631 6.96534 13.612 8.0222C13.0786 8.55865 12.6795 8.92267 12.3921 9.13519C12.0241 9.40742 11.9235 9.36701 11.9133 9.36145C11.8804 9.34378 11.7837 9.225 11.9223 8.4407C12.0294 7.83504 12.2459 6.98104 12.5199 5.89964L12.2611 5.83403C11.995 6.88419 11.7847 7.71365 11.5997 8.29264C11.3494 9.07645 11.2214 9.13551 11.1998 9.13944C11.1989 9.13928 11.0995 9.11588 10.934 8.65322C10.8095 8.30491 10.6672 7.76731 10.4996 7.00967C10.1698 5.51992 9.74553 3.20692 9.15841 0.00556245C9.15809 0.00376284 9.15776 0.00179962 9.15743 0L9.02616 0.0240494L8.89489 0.0480989C8.89718 0.0602054 8.89931 0.0721483 8.90143 0.0840912C8.90143 0.0849092 8.90176 0.086218 8.90193 0.0868725C8.90225 0.0881813 8.90242 0.0901445 8.90274 0.0914533C9.48659 3.27449 9.9084 5.5762 10.1163 7.07724C10.2223 7.84273 10.2711 8.3926 10.2659 8.75841C10.2592 9.21961 10.1683 9.2839 10.1502 9.29208C10.1135 9.30877 9.94866 9.31351 9.36989 8.67939C8.92533 8.19219 8.33821 7.44796 7.59494 6.50562L7.38526 6.67086C8.10005 7.57721 8.66459 8.29297 9.03762 8.82451C9.53324 9.53077 9.5244 9.69323 9.51409 9.72301C9.49919 9.73119 9.39264 9.77111 8.93515 9.60685C8.57244 9.47662 8.04784 9.24022 7.33141 8.88373C5.92998 8.18662 3.82849 7.04976 0.922339 5.47705C0.914974 5.47313 0.907935 5.46937 0.90057 5.46527C0.895496 5.46249 0.890749 5.46004 0.885675 5.45726L0.758659 5.69186C0.760296 5.69268 0.761932 5.69366 0.763406 5.69448C0.765042 5.6953 0.766843 5.69628 0.76848 5.69726C0.772244 5.69939 0.776009 5.70135 0.779774 5.70332C0.788449 5.70806 0.797451 5.7128 0.806126 5.71755C3.73093 7.30023 5.84617 8.44528 7.18508 9.24349C7.8691 9.65135 8.34312 9.96465 8.63414 10.2015C9.01503 10.5114 8.99097 10.6182 8.98982 10.6227C8.98246 10.6493 8.89881 10.7835 7.9696 10.8082C7.2756 10.8267 6.27534 10.7859 5.00911 10.7344C5.00764 10.7344 5.006 10.7344 5.00453 10.7342L4.99373 11.0009C6.23786 11.0516 7.22044 11.0917 7.90691 11.1607C8.85626 11.2561 8.92451 11.3883 8.9291 11.4025C8.9291 11.4035 8.93139 11.5064 8.49534 11.768C8.16602 11.9657 7.64486 12.2194 6.90208 12.5438C5.45154 13.1775 3.18915 14.0679 0.0621986 15.2979C0.0414112 15.3061 0.0207874 15.3141 0 15.3223L0.0487768 15.4464L0.0977172 15.5706C0.106883 15.567 0.116049 15.5634 0.125216 15.5598C0.128162 15.5587 0.131108 15.5575 0.134054 15.5564C0.141093 15.5536 0.14764 15.5512 0.154514 15.5484C3.30242 14.3101 5.58003 13.4145 7.07411 12.8925C7.838 12.6256 8.38993 12.4592 8.76116 12.384C9.23649 12.2878 9.30311 12.365 9.3036 12.366C9.30687 12.3709 9.37725 12.4964 8.74708 13.2288C8.29336 13.7561 7.59183 14.4745 6.7037 15.3835C6.70173 15.3854 6.69993 15.3874 6.69797 15.3893L6.79339 15.4826L6.88898 15.5759C6.88996 15.5747 6.89127 15.5736 6.89226 15.5724C7.7835 14.66 8.48781 13.9393 9.00783 13.4731C9.2743 13.2342 9.47955 13.0737 9.63554 12.9823C9.78629 12.8939 9.85913 12.8908 9.87664 12.9016C9.88041 12.9039 9.96798 12.9638 9.89727 13.4513C9.84325 13.8243 9.70674 14.3791 9.47988 15.1475C9.03352 16.6597 8.24868 18.9681 7.16216 22.1631L7.41489 22.249C8.49158 19.0827 9.26955 16.795 9.82999 15.3172C10.1155 14.5648 10.341 14.0321 10.5199 13.689C10.7469 13.2535 10.8523 13.2141 10.8677 13.2107C10.8952 13.2246 11.0147 13.3352 11.1334 14.2098C11.2223 14.8653 11.2958 15.7934 11.3886 16.9684L11.5216 16.958L11.6547 16.9475C11.5583 15.7287 11.4823 14.7659 11.4769 14.0946C11.4701 13.2203 11.5945 13.1112 11.6328 13.0986C11.6441 13.0948 11.7545 13.0716 12.0791 13.4181C12.3312 13.6871 12.6682 14.1301 13.1095 14.7724C13.9763 16.0341 15.2293 18.0387 16.9625 20.8121C16.9661 20.8178 16.9697 20.8234 16.9732 20.8291C16.9742 20.8306 16.9751 20.8322 16.9761 20.8337L17.2025 20.6923C17.1997 20.6879 17.1969 20.6833 17.1941 20.6789C17.1932 20.6773 17.192 20.6755 17.1909 20.6738C15.4629 17.9088 14.214 15.9103 13.4467 14.5797C13.0555 13.9014 12.7939 13.4037 12.6469 13.0584C12.4602 12.6191 12.499 12.5188 12.5055 12.5067C12.5309 12.4943 12.6798 12.4664 13.3886 12.8849C13.92 13.1986 14.6389 13.6818 15.5492 14.2935L15.6981 14.072C14.7551 13.4382 14.0102 12.9376 13.5177 12.5512C12.8789 12.0499 12.8718 11.8927 12.8848 11.8564C12.8913 11.838 12.947 11.7446 13.3964 11.7006C13.7539 11.6656 14.2965 11.6687 15.0548 11.7104C16.5497 11.7924 18.8602 12.0208 22.0581 12.337L22.0712 12.2042L22.0843 12.0713C22.0604 12.0691 22.037 12.0668 22.0132 12.0643L22.0137 12.064Z" fill="#2B6ED4"/>
</svg>
