<svg width="19" height="21" viewBox="0 0 19 21" fill="none" xmlns="http://www.w3.org/2000/svg">
<path d="M15.9492 14.0486C14.8192 13.3908 13.8907 12.8503 13.1119 12.4301C11.6129 11.5151 10.8141 10.8658 10.8128 10.281C10.8115 9.69622 11.6073 9.04322 13.1022 8.12143C13.8792 7.69771 14.8052 7.15305 15.9321 6.49005C16.5503 6.1263 17.251 5.71419 18.0022 5.27837L17.8212 4.9667C17.07 5.40252 16.3644 5.80609 15.7417 6.16226C14.6067 6.81139 13.6742 7.34492 12.9207 7.80896C11.3785 8.64899 10.4165 9.01581 9.90899 8.72445C9.40166 8.43326 9.23373 7.4178 9.18243 5.66307C9.20372 4.7787 9.19485 3.70471 9.18388 2.39773C9.17792 1.68072 9.17114 0.868092 9.1692 0L8.80867 0.000806177C8.8106 0.868898 8.80754 1.68152 8.8048 2.39854C8.7998 3.70551 8.79576 4.7795 8.82109 5.66388C8.7777 7.41893 8.61461 8.43504 8.10857 8.72848C7.60253 9.02209 6.63884 8.65964 5.09282 7.82669C4.33723 7.36604 3.40226 6.83671 2.26435 6.19273C1.64023 5.83947 0.932713 5.43896 0.179542 5.00669L0 5.31916C0.753171 5.75143 1.45569 6.16049 2.07562 6.52133C3.20562 7.17917 4.13397 7.71963 4.91296 8.13981C6.41188 9.05482 7.2107 9.70412 7.21199 10.2889C7.21328 10.8737 6.41752 11.5267 4.92279 12.4485C4.14575 12.8722 3.21981 13.4169 2.09288 14.0799C1.47473 14.4435 0.773981 14.8558 0.0227452 15.2916L0.203739 15.6032C0.954974 15.1674 1.66056 14.7639 2.28323 14.4077C3.41823 13.7585 4.35078 13.225 5.10427 12.761C6.64659 11.9209 7.6085 11.5543 8.11583 11.8455C8.62316 12.1367 8.79109 13.1521 8.84238 14.9069C8.82109 15.7912 8.82996 16.8652 8.84093 18.1722C8.8469 18.8892 8.85368 19.7018 8.85561 20.5699L9.21615 20.5691C9.21421 19.701 9.21728 18.8884 9.22002 18.1714C9.22502 16.8644 9.22905 15.7904 9.20372 14.9061C9.24712 13.151 9.41021 12.1349 9.91625 11.8415C10.4223 11.5478 11.3858 11.9103 12.932 12.7432C13.6876 13.2039 14.6226 13.7332 15.7605 14.3772C16.3846 14.7305 17.0921 15.131 17.8453 15.5633L18.0248 15.2508C17.2716 14.8185 16.5691 14.4095 15.9492 14.0486ZM9.73509 11.5298C9.3823 11.7344 9.15549 12.1362 9.01805 12.8263C8.87755 12.1368 8.64881 11.736 8.29521 11.533C8.12502 11.4353 7.92983 11.3856 7.69883 11.3856C7.44977 11.3856 7.15924 11.4434 6.81339 11.5606C7.34056 11.0943 7.57349 10.6959 7.57253 10.2883C7.57156 9.88067 7.33685 9.48323 6.80758 9.01935C7.47509 9.2425 7.93677 9.24492 8.28956 9.04031C8.64236 8.83571 8.86916 8.43391 9.0066 7.74382C9.1471 8.43326 9.37585 8.83409 9.72945 9.03709C10.0832 9.24008 10.5447 9.23557 11.2114 9.00952C10.6843 9.47581 10.4513 9.87422 10.4523 10.2818C10.4533 10.6894 10.688 11.0869 11.2172 11.5508C10.5497 11.3276 10.088 11.3252 9.73525 11.5298H9.73509Z" fill="#2B6ED4"/>
</svg>
