<svg width="96" height="99" viewBox="0 0 96 99" fill="none" xmlns="http://www.w3.org/2000/svg">
<path d="M79.1001 46.3413C68.5059 44.3393 62.0563 42.5275 58.3197 38.6923C55.4236 35.7194 53.373 31.4279 50.8374 17.2884L47.7369 0L44.6364 17.2884C42.6798 28.1972 40.9076 34.8394 37.154 38.6923C34.2714 41.6511 30.1054 43.747 16.3736 46.3413L0 49.4353L16.3729 52.5293C26.9671 54.5312 33.4167 56.3431 37.1533 60.1782C40.0494 63.1512 42.1 67.4427 44.6356 81.5822L47.7361 98.8706L50.8366 81.5822C52.7932 70.6734 54.5654 64.0311 58.319 60.1782C61.2023 57.2195 65.3676 55.1235 79.0994 52.5293L95.4723 49.4353L79.0994 46.3413H79.1001ZM63.4929 49.9187C59.3083 51.4322 56.2306 53.296 53.8061 55.7849C51.3894 58.2653 49.5802 61.4113 48.1129 65.6864C47.9854 66.0566 47.8608 66.4367 47.7369 66.829C47.6129 66.4374 47.4876 66.0573 47.3608 65.6864C45.8928 61.412 44.0836 58.2653 41.6676 55.7849C39.2431 53.2968 36.1654 51.4329 31.9808 49.9187C31.5278 49.7549 31.0591 49.5933 30.5719 49.4353C31.0591 49.2765 31.5278 49.1156 31.9808 48.9519C36.1654 47.4383 39.2431 45.5745 41.6676 43.0856C44.0843 40.6053 45.8935 37.4593 47.3608 33.1842C47.4883 32.814 47.6129 32.4338 47.7369 32.0416C47.8608 32.4331 47.9861 32.814 48.1129 33.1842C49.5809 37.4586 51.3901 40.6053 53.8061 43.0856C56.2306 45.5738 59.3083 47.4376 63.4929 48.9519C63.9459 49.1156 64.4153 49.2772 64.9018 49.4353C64.4146 49.594 63.9459 49.7549 63.4929 49.9187Z" fill="#2B6ED4"/>
</svg>
