<svg width="101" height="88" viewBox="0 0 101 88" fill="none" xmlns="http://www.w3.org/2000/svg">
<path d="M59.3625 54.3853C57.606 51.8537 55.3545 48.3603 56.0775 47.2639C56.9479 45.9447 62.5164 47.4212 70.2238 49.4652L70.3228 49.0907L70.4218 48.7162C70.3883 48.707 70.3549 48.6984 70.3207 48.6892C66.4011 47.6498 63.3027 46.8268 61.1552 46.1006C58.2819 45.1296 58.0804 44.6255 58.0875 44.4938C58.0911 44.4169 58.2121 44.0012 60.2143 43.3433C61.7528 42.8379 64.1752 42.2655 67.6191 41.5949C74.407 40.2721 85.2306 38.5485 100.212 36.1629L100.15 35.7806L100.089 35.3983C100.08 35.3997 100.071 35.4011 100.061 35.4025C100.052 35.404 100.044 35.4054 100.034 35.4068C100.026 35.4082 100.018 35.4097 100.009 35.4111C99.9944 35.4132 99.9802 35.4154 99.9652 35.4182H99.9638C99.9553 35.4196 99.9474 35.4211 99.9396 35.4225C99.9318 35.4239 99.9246 35.4246 99.9168 35.426C99.9132 35.426 99.9097 35.4268 99.9061 35.4275C99.8933 35.4296 99.879 35.4317 99.8662 35.4339C99.8648 35.4339 99.8605 35.4346 99.8591 35.4353C99.8498 35.4367 99.8392 35.4389 99.8292 35.4403L99.8213 35.4417C85.7348 37.685 75.5444 39.3067 68.8783 40.1311C65.4602 40.554 63.0164 40.7591 61.406 40.7591H61.401C59.2449 40.7591 59.0519 40.3896 59.037 40.3476C59.0334 40.3376 58.9565 40.0863 59.7606 39.3452C60.3767 38.7778 61.3646 38.0545 62.7813 37.1354C65.5286 35.3534 69.664 32.9756 74.9006 29.9656L74.5145 29.2942C69.6013 32.1184 65.7209 34.3496 62.9003 35.8283C59.3219 37.7042 58.4066 37.8309 58.173 37.7697C58.1723 37.6223 58.3026 37.0606 59.7079 35.2445C60.8447 33.7758 62.6652 31.6749 65.2743 28.8222C70.347 23.2771 78.2525 15.0408 89.1815 3.65786C89.2477 3.58881 89.3126 3.52118 89.3795 3.45212C89.3852 3.44642 89.3909 3.44002 89.3966 3.43432L89.1167 3.16593L88.8375 2.89824C88.8268 2.90892 88.8161 2.92031 88.8054 2.93099C88.7919 2.94523 88.7798 2.95733 88.767 2.97157C88.7342 3.00645 88.7 3.04134 88.6673 3.07551C77.3066 14.9077 69.0906 23.4636 63.671 28.7582C60.9002 31.4649 58.866 33.3123 57.4514 34.4059C55.5212 35.898 55.1309 35.6731 55.1159 35.6631C55.1138 35.6617 54.9179 35.52 55.0817 34.5639C55.2092 33.8214 55.5191 32.7706 56.0298 31.351C57.0191 28.6023 58.6602 24.7429 60.7386 19.857L60.0256 19.5537C57.8097 24.7628 56.0597 28.8778 54.6857 31.6187C52.9627 35.0551 52.2184 35.4794 51.9292 35.426C51.8138 35.4047 51.4043 35.1982 50.9962 33.4398C50.6771 32.0636 50.4064 29.9542 50.1685 26.9919C49.7034 21.2047 49.3715 12.3668 48.9142 0.144521C48.9142 0.143809 48.9142 0.143097 48.9142 0.142385C48.9142 0.13313 48.9142 0.123163 48.9135 0.113908C48.9135 0.108924 48.9135 0.104653 48.9135 0.100381C48.9135 0.0897024 48.9128 0.0811593 48.9121 0.0704805C48.9114 0.046987 48.9107 0.0234935 48.9092 0L48.135 0.0291889C48.135 0.046275 48.1364 0.0640731 48.1371 0.0811593C48.1371 0.0825832 48.1371 0.0825832 48.1371 0.0847189C48.1371 0.0854309 48.1371 0.0882786 48.1371 0.0889905C48.1371 0.0989574 48.1378 0.1075 48.1386 0.117467C48.1386 0.121027 48.1386 0.125299 48.1386 0.128858C48.6158 12.8759 48.9598 22.0924 48.8886 28.0427C48.8636 30.1165 48.7874 36.4291 47.4277 36.8898C46.865 37.0806 45.8379 36.3003 44.3749 34.5717C42.8542 32.7748 40.9276 30.061 38.4923 26.6274C38.4781 26.6074 38.4638 26.5868 38.4489 26.5669L37.8171 27.0147C40.2716 30.4746 42.2104 33.2077 43.4063 35.2559C44.5523 37.2187 44.9398 38.4667 44.5587 38.9664C43.7353 40.0443 39.0443 38.7529 35.5863 37.6878C29.8597 35.9244 21.1387 32.7414 9.06787 28.3367L8.93539 28.7005L8.80219 29.0643C8.8086 29.0664 8.81644 29.0693 8.82285 29.0714C8.82784 29.0735 8.83425 29.0757 8.83923 29.0771C8.8663 29.0871 8.89265 29.0963 8.91972 29.1063C8.92114 29.1063 8.92257 29.1077 8.92399 29.1077C8.95391 29.1191 8.98382 29.1298 9.01374 29.1405C20.5539 33.3515 28.9009 36.3992 34.2807 38.6133C37.04 39.7488 38.9724 40.6487 40.1882 41.3642C41.7752 42.2975 41.8015 42.7247 41.7908 42.8009C41.7609 43.0152 41.2766 43.569 37.4446 44.0759C34.4929 44.4668 30.1666 44.7743 24.6886 45.163L24.7434 45.9355C29.9024 45.5688 33.978 45.2798 36.8278 45.2442C38.2979 45.2264 39.3663 45.2769 40.0928 45.4001C41.0287 45.5589 41.0999 45.7902 41.1028 45.8002C41.1149 45.8465 41.1669 46.2943 39.2096 47.6249C37.7509 48.6166 35.394 49.9528 32.005 51.7113C25.388 55.1435 14.8579 60.1747 0.302713 67.1273C0.287756 67.1344 0.272086 67.1415 0.257128 67.1494C0.250718 67.1522 0.243595 67.1558 0.237897 67.1586C0.234336 67.16 0.22935 67.1629 0.226501 67.1643C0.220803 67.1665 0.214392 67.17 0.209406 67.1729C0.16667 67.1928 0.123934 67.2134 0.0819107 67.2341C0.0712267 67.2391 0.0605427 67.2441 0.0498587 67.249C0.0327643 67.2569 0.0170944 67.2647 0 67.2725L0.334053 67.9716C14.5929 61.1607 24.8944 56.2398 31.7137 53.1857C35.196 51.6259 37.7281 50.5729 39.4546 49.9678C41.5821 49.2217 42.147 49.2765 42.2844 49.3242C42.273 49.4161 42.1854 49.72 41.5999 50.4519C41.0892 51.0905 40.3001 51.9334 39.1882 53.0305C37.0585 55.13 33.9637 57.9442 30.0498 61.5031C30.0363 61.5152 30.0228 61.5273 30.0092 61.5394C29.9978 61.5501 29.9857 61.5608 29.9743 61.5714L30.4957 62.1445C34.7337 58.2916 38.0813 55.2489 40.4959 53.2882C41.741 52.278 42.6854 51.5988 43.3827 51.2108C44.2902 50.7075 44.506 50.8556 44.5153 50.862C44.5509 50.889 44.8486 51.1816 44.2546 53.1672C43.8101 54.6537 42.9397 56.85 41.5935 59.8813C38.9567 65.8181 34.5706 74.8061 28.5014 87.2434C28.4964 87.2534 28.4914 87.2641 28.4864 87.2733C28.4821 87.2826 28.4771 87.2925 28.4729 87.3011L28.8212 87.4712L29.1695 87.6407C29.1844 87.6094 29.2001 87.5773 29.2158 87.546C29.2158 87.5453 29.2158 87.5446 29.2165 87.5439C29.235 87.5061 29.2535 87.4684 29.272 87.4307C29.2735 87.4271 29.2742 87.4264 29.2756 87.4228C29.2841 87.4057 29.292 87.3894 29.3005 87.3716C35.6454 74.3704 40.2374 64.9645 43.3678 59.1295C44.9654 56.1509 46.1926 54.0849 47.12 52.8141C48.2995 51.1966 48.7867 51.1581 48.9085 51.1852C49.0937 51.2258 49.5524 51.6209 49.8138 54.3931C50.0161 56.5417 50.0738 59.5859 50.1464 63.4395L50.9214 63.4253C50.7811 56.0006 50.6799 50.6363 52.0809 50.1387C53.2861 49.7101 56.133 52.7415 58.1694 55.0581C61.5313 58.8825 66.332 65.0086 72.9717 73.4848C72.9739 73.4876 72.976 73.4905 72.9781 73.4926C72.9903 73.5083 73.0024 73.5232 73.0145 73.5389L73.3193 73.3004L73.6242 73.0619C73.6106 73.0448 73.5971 73.027 73.5836 73.0099C67.0094 64.6185 62.2571 58.5522 59.366 54.3846L59.3625 54.3853Z" fill="#2B6ED4"/>
</svg>
