<svg width="40" height="45" viewBox="0 0 40 45" fill="none" xmlns="http://www.w3.org/2000/svg">
<path d="M34.5848 30.4635C32.1345 29.037 30.1211 27.8651 28.4322 26.9539C25.1819 24.9698 23.4497 23.5618 23.4469 22.2937C23.4441 21.0256 25.1697 19.6096 28.4112 17.6108C30.0962 16.692 32.1041 15.5109 34.5477 14.0733C35.8882 13.2845 37.4077 12.3908 39.0367 11.4458L38.6442 10.77C37.0152 11.715 35.4852 12.5901 34.135 13.3625C31.6738 14.7701 29.6516 15.927 28.0177 16.9332C24.6737 18.7548 22.5875 19.5502 21.487 18.9184C20.3869 18.287 20.0228 16.085 19.9115 12.28C19.9577 10.3623 19.9385 8.03342 19.9147 5.19933C19.9017 3.64453 19.887 1.8824 19.8828 0L19.101 0.00174814C19.1052 1.88415 19.0986 3.64628 19.0926 5.20108C19.0818 8.03517 19.0731 10.364 19.128 12.2818C19.0339 16.0875 18.6802 18.2908 17.5829 18.9272C16.4856 19.5638 14.3959 18.7779 11.0435 16.9717C9.405 15.9728 7.37758 14.825 4.91011 13.4285C3.55674 12.6625 2.02253 11.794 0.389325 10.8567L0 11.5343C1.6332 12.4716 3.15657 13.3586 4.50084 14.1411C6.95117 15.5676 8.96426 16.7395 10.6534 17.6507C13.9037 19.6348 15.6359 21.0428 15.6387 22.3109C15.6415 23.579 13.916 24.995 10.6748 26.9938C8.98979 27.9126 6.98196 29.0937 4.53827 30.5313C3.19785 31.3198 1.67833 32.2138 0.0493214 33.1588L0.441794 33.8346C2.0708 32.8896 3.60081 32.0145 4.95103 31.2421C7.41221 29.8345 9.43439 28.6776 11.0683 27.6714C14.4127 25.8498 16.4985 25.0548 17.5987 25.6862C18.6988 26.3176 19.0629 28.5196 19.1741 32.3246C19.128 34.2423 19.1472 36.5712 19.171 39.4053C19.1839 40.9601 19.1986 42.7222 19.2028 44.6046L19.9846 44.6029C19.9804 42.7205 19.9871 40.9583 19.993 39.4035C20.0039 36.5694 20.0126 34.2406 19.9577 32.3228C20.0518 28.5171 20.4054 26.3138 21.5027 25.6774C22.6001 25.0408 24.6894 25.8267 28.0422 27.6329C29.6807 28.6318 31.7081 29.7796 34.1756 31.1761C35.5289 31.9421 37.0631 32.8106 38.6963 33.7479L39.0857 33.0703C37.4525 32.133 35.9291 31.246 34.5848 30.4635ZM21.1099 25.0016C20.3449 25.4453 19.8531 26.3166 19.5551 27.813C19.2504 26.318 18.7544 25.4488 17.9876 25.0086C17.6186 24.7967 17.1953 24.689 16.6944 24.689C16.1543 24.689 15.5244 24.8142 14.7744 25.0684C15.9175 24.0573 16.4226 23.1933 16.4205 22.3095C16.4184 21.4256 15.9095 20.5638 14.7618 19.5579C16.2093 20.0418 17.2104 20.047 17.9754 19.6033C18.7404 19.1597 19.2322 18.2884 19.5302 16.792C19.8349 18.287 20.3309 19.1562 21.0977 19.5963C21.8648 20.0365 22.8656 20.0267 24.3113 19.5366C23.1681 20.5477 22.663 21.4116 22.6651 22.2955C22.6672 23.1793 23.1762 24.0412 24.3239 25.0471C22.8764 24.5632 21.8753 24.5579 21.1103 25.0016H21.1099Z" fill="#2B6ED4"/>
</svg>
