<svg width="268" height="20" viewBox="0 0 268 20" fill="none" xmlns="http://www.w3.org/2000/svg">
<path d="M20.452 0.644531V18.7645H16.2613V12.0229H4.19075V18.7645H0V0.644531H4.19075V7.38607H16.2613V0.644531H20.452Z" fill="#2B6ED4"/>
<path d="M27.5814 5.29084V7.36263H39.9028V12.0324H27.5814V14.1042H41.7473V18.7739H23.3906V0.621094H41.7473V5.29084H27.5814Z" fill="#2B6ED4"/>
<path d="M64.3644 0.644531V18.7645H60.1736V6.25151L49.3131 18.7645H44.6797V0.644531H48.8704V12.5326L59.1997 0.644531H64.3644ZM52.2348 4.0153L50.3903 1.94351L54.1221 0.646358L56.0101 0.644531L52.2348 4.0153Z" fill="#2B6ED4"/>
<path d="M71.4954 18.7433H67.3047V0.65625H79.8179C81.6624 0.65625 83.1971 1.11665 84.3776 2.021C85.8679 3.15555 86.6795 4.94781 86.6795 7.10181C86.6795 11.0974 84.0529 13.5474 79.8179 13.5474H71.4954V18.7433ZM71.4954 8.89408H79.8179C82.4888 8.89408 82.4888 7.69375 82.4888 7.10181C82.4888 6.57565 82.4888 5.30956 79.8179 5.30956H71.4954V8.89408Z" fill="#2B6ED4"/>
<path d="M99.0797 3.24037C99.0797 2.61627 99.0797 0.88539 97.1997 0.825129C96.3554 0.797336 95.8841 1.40897 95.4643 2.24005C95.0655 3.02938 94.8317 3.02177 94.0263 2.99554C93.8579 2.99006 93.6646 2.98377 93.4396 2.98377C92.138 2.98377 91.5596 4.77391 91.9452 5.29384C91.9609 5.31496 91.9777 5.33715 91.9952 5.36034C92.3167 5.78624 92.8928 6.54946 91.7042 7.24851C90.4508 7.98563 89.3421 10.4537 91.5114 11.8753C92.5719 12.5137 94.3196 12.2814 94.5484 11.8753C94.693 11.6186 94.8376 10.6182 94.2591 10.3484C93.6643 10.0709 93.5842 9.34799 94.2591 9.40064C94.934 9.4533 96.3802 9.4533 96.573 8.45292C96.7658 7.45254 96.6212 7.08398 95.6571 6.50482C95.0786 6.03096 95.0439 4.45799 95.5607 4.45799C95.5739 4.45799 95.5868 4.45787 95.5993 4.45774C95.86 4.45523 95.9645 4.45422 96.0427 5.60974C96.1074 6.56405 98.453 6.45217 98.8387 5.60974C99.1036 5.03091 99.0912 4.14802 99.0825 3.52431C99.081 3.42184 99.0797 3.32636 99.0797 3.24037Z" stroke="#2B6ED4" stroke-width="0.379814"/>
<path d="M96.3149 18.612C97.1401 19.1534 98.8119 19.1361 98.9809 17.6167C99.2093 15.5631 99.0126 13.3734 98.8857 12.5352C98.8494 12.2959 98.6953 12.2734 98.2192 12.3256C97.4612 12.4088 97.1581 11.959 97.3623 11.6446C97.6003 11.2779 98.3467 11.6207 98.7429 11.3302C99.1713 11.0161 99.0285 8.64102 98.9809 7.45357C98.8857 6.92984 98.0669 6.54203 97.4575 7.29641C97.2194 7.59109 97.3623 8.65843 97.3623 9.02515C97.3623 9.54902 96.9528 9.99955 96.0769 10.1253C94.9819 10.2824 94.8391 12.7447 95.6484 13.4781C96.4577 14.2115 97.6479 14.5782 97.6955 15.3116C97.7431 16.0451 97.8383 16.6737 97.2671 16.6213C96.6958 16.5689 96.9814 15.5736 96.9814 15.364C96.9814 15.1545 96.6958 14.9275 95.7436 14.3163C95.1723 13.9496 95.22 13.5829 94.8391 13.2161C94.5031 12.8926 92.6492 12.7447 92.4588 13.6876C92.1731 14.8401 92.1731 16.4642 93.2681 16.9356C94.363 17.4071 95.0509 16.9294 95.4104 17.1452C95.9341 17.4595 95.6761 18.1929 96.3149 18.612Z" fill="#2B6ED4" stroke="#2B6ED4" stroke-width="0.20386"/>
<path d="M99.8264 3.24037C99.8264 2.61627 99.8265 0.88539 101.667 0.825129C102.494 0.797336 102.955 1.40897 103.367 2.24005C103.757 3.02938 103.986 3.02177 104.775 2.99554C104.939 2.99006 105.129 2.98377 105.349 2.98377C106.623 2.98377 107.19 4.77391 106.812 5.29384C106.797 5.31496 106.78 5.33715 106.763 5.36034C106.449 5.78624 105.884 6.54946 107.048 7.24851C108.276 7.98563 109.361 10.4537 107.237 11.8753C106.199 12.5137 104.487 12.2814 104.263 11.8753C104.122 11.6186 103.98 10.6182 104.547 10.3484C105.129 10.0709 105.207 9.34799 104.547 9.40064C103.886 9.4533 102.47 9.4533 102.281 8.45292C102.092 7.45254 102.234 7.08398 103.178 6.50482C103.744 6.03096 103.778 4.45799 103.272 4.45799C103.259 4.45799 103.247 4.45787 103.234 4.45774C102.979 4.45523 102.877 4.45422 102.8 5.60974C102.737 6.56405 100.44 6.45217 100.062 5.60974C99.803 5.03091 99.8151 4.14802 99.8237 3.52431C99.8251 3.42184 99.8264 3.32636 99.8264 3.24037Z" stroke="#2B6ED4" stroke-width="0.379814"/>
<path d="M102.516 18.698C101.714 19.2393 100.087 19.2221 99.9225 17.7027C99.7003 15.6491 99.8916 13.4593 100.015 12.6211C100.05 12.3818 100.2 12.3593 100.664 12.4115C101.401 12.4947 101.696 12.045 101.497 11.7305C101.266 11.3638 100.54 11.7067 100.154 11.4162C99.7372 11.102 99.8762 8.72696 99.9225 7.53951C100.015 7.01577 100.812 6.62797 101.405 7.38235C101.636 7.67703 101.497 8.74437 101.497 9.11108C101.497 9.63496 101.896 10.0855 102.748 10.2112C103.813 10.3684 103.952 12.8306 103.165 13.564C102.377 14.2974 101.219 14.6642 101.173 15.3976C101.127 16.131 101.034 16.7596 101.59 16.7073C102.146 16.6549 101.868 15.6595 101.868 15.45C101.868 15.2404 102.146 15.0134 103.072 14.4022C103.628 14.0355 103.582 13.6688 103.952 13.3021C104.279 12.9786 106.083 12.8306 106.268 13.7736C106.546 14.9261 106.546 16.5501 105.481 17.0216C104.416 17.4931 103.746 17.0153 103.397 17.2311C102.887 17.5455 103.138 18.2789 102.516 18.698Z" fill="#2B6ED4" stroke="#2B6ED4" stroke-width="0.20386"/>
<path d="M131.325 0.644531V18.7316H127.164V13.5521H119.122L116.333 18.7645H111.375L114.754 12.5491C112.983 11.4639 111.98 9.57296 111.98 7.10654C111.98 4.95254 112.792 3.16028 114.282 2.02572C115.448 1.12137 116.982 0.660974 118.842 0.660974H131.325V0.644531ZM127.164 8.88236V5.31428H118.842C116.171 5.31428 116.171 6.58037 116.171 7.10654C116.171 7.69848 116.171 8.8988 118.842 8.8988H127.164V8.88236Z" fill="#2B6ED4"/>
<path d="M144.639 19.2101C141.762 19.2101 139.386 18.5031 137.586 17.1384C135.417 15.4776 134.266 12.9126 134.266 9.70623C134.266 3.77039 138.146 0.21875 144.639 0.21875C149.76 0.21875 153.39 2.50429 154.6 6.51633L150.615 7.99618C149.804 5.26668 146.528 4.85561 144.639 4.85561C138.456 4.85561 138.456 8.50591 138.456 9.70623C138.456 12.9126 140.552 14.5568 144.639 14.5568C146.867 14.5568 149.715 14.0636 150.571 11.6465L154.452 13.3565C153.124 17.1384 149.642 19.2101 144.639 19.2101Z" fill="#2B6ED4"/>
<path d="M177.991 0.644531V18.7645H173.8V12.0229H161.73V18.7645H157.539V0.644531H161.73V7.38607H173.8V0.644531H177.991Z" fill="#2B6ED4"/>
<path d="M189.908 2.85733C189.908 2.20705 189.908 0.403581 187.988 0.340792C187.125 0.311834 186.644 0.949123 186.215 1.81506C185.808 2.63749 185.569 2.62956 184.747 2.60223C184.575 2.59652 184.377 2.58996 184.147 2.58996C182.818 2.58996 182.227 4.45519 182.621 4.99692C182.637 5.01893 182.654 5.04204 182.672 5.06621C183.001 5.50997 183.589 6.3052 182.375 7.03357C181.095 7.80161 179.963 10.3732 182.178 11.8544C183.261 12.5195 185.046 12.2775 185.28 11.8544C185.428 11.5869 185.575 10.5446 184.984 10.2634C184.377 9.97435 184.295 9.2211 184.984 9.27596C185.674 9.33082 187.151 9.33082 187.348 8.28849C187.545 7.24616 187.397 6.86214 186.412 6.25869C185.821 5.76495 185.786 4.12601 186.314 4.12601C186.327 4.12601 186.34 4.12588 186.353 4.12576C186.619 4.12314 186.726 4.12209 186.806 5.32607C186.872 6.3204 189.268 6.20383 189.662 5.32607C189.932 4.72296 189.919 3.80304 189.911 3.15318C189.909 3.0464 189.908 2.94692 189.908 2.85733Z" stroke="#2B6ED4" stroke-width="0.379814"/>
<path d="M187.103 18.9003C187.956 19.4672 189.685 19.4491 189.86 17.858C190.096 15.7075 189.893 13.4144 189.762 12.5366C189.724 12.2861 189.565 12.2625 189.072 12.3172C188.289 12.4043 187.975 11.9333 188.186 11.604C188.432 11.22 189.204 11.5791 189.614 11.2749C190.057 10.9458 189.909 8.45873 189.86 7.21525C189.762 6.6668 188.915 6.26069 188.285 7.05067C188.039 7.35926 188.186 8.47697 188.186 8.86099C188.186 9.40958 187.763 9.88138 186.857 10.013C185.725 10.1776 185.577 12.756 186.414 13.5241C187.251 14.2921 188.482 14.6761 188.531 15.4441C188.58 16.2122 188.679 16.8705 188.088 16.8156C187.497 16.7608 187.792 15.7184 187.792 15.499C187.792 15.2796 187.497 15.0418 186.512 14.4018C185.922 14.0178 185.971 13.6338 185.577 13.2498C185.229 12.911 183.312 12.756 183.115 13.7435C182.82 14.9504 182.82 16.651 183.952 17.1448C185.085 17.6385 185.796 17.1382 186.168 17.3642C186.709 17.6934 186.442 18.4614 187.103 18.9003Z" fill="#2B6ED4" stroke="#2B6ED4" stroke-width="0.20386"/>
<path d="M190.764 2.70889C190.764 2.05862 190.764 0.255143 192.684 0.192355C193.546 0.163396 194.028 0.800686 194.457 1.66662C194.864 2.48905 195.103 2.48112 195.925 2.45379C196.097 2.44808 196.295 2.44152 196.524 2.44152C197.854 2.44152 198.444 4.30675 198.051 4.84848C198.035 4.87049 198.017 4.89361 198 4.91777C197.671 5.36153 197.083 6.15676 198.297 6.88513C199.577 7.65317 200.709 10.2247 198.494 11.7059C197.411 12.3711 195.626 12.1291 195.392 11.7059C195.244 11.4385 195.097 10.3961 195.687 10.115C196.295 9.82591 196.377 9.07266 195.687 9.12752C194.998 9.18238 193.521 9.18238 193.324 8.14005C193.127 7.09772 193.275 6.7137 194.26 6.11025C194.85 5.61651 194.886 3.97758 194.358 3.97758C194.345 3.97758 194.331 3.97745 194.319 3.97732C194.052 3.9747 193.946 3.97365 193.866 5.17764C193.8 6.17196 191.404 6.05539 191.01 5.17764C190.74 4.57452 190.752 3.6546 190.761 3.00474C190.763 2.89797 190.764 2.79848 190.764 2.70889Z" stroke="#2B6ED4" stroke-width="0.379814"/>
<path d="M193.569 18.7401C192.715 19.307 190.987 19.2889 190.812 17.6979C190.576 15.5473 190.779 13.2542 190.91 12.3765C190.948 12.1259 191.107 12.1023 191.599 12.157C192.383 12.2441 192.697 11.7732 192.486 11.4439C192.239 11.0598 191.468 11.4189 191.058 11.1147C190.615 10.7857 190.763 8.29858 190.812 7.05509C190.91 6.50664 191.757 6.10054 192.387 6.89051C192.633 7.1991 192.486 8.31681 192.486 8.70083C192.486 9.24943 192.909 9.72122 193.815 9.85288C194.947 10.0175 195.095 12.5959 194.258 13.3639C193.421 14.1319 192.19 14.5159 192.141 15.284C192.092 16.052 191.993 16.7103 192.584 16.6555C193.175 16.6006 192.88 15.5583 192.88 15.3388C192.88 15.1194 193.175 14.8817 194.16 14.2416C194.75 13.8576 194.701 13.4736 195.095 13.0896C195.442 12.7508 197.36 12.5959 197.557 13.5833C197.852 14.7902 197.852 16.4909 196.72 16.9846C195.587 17.4784 194.876 16.9781 194.504 17.2041C193.963 17.5332 194.229 18.3013 193.569 18.7401Z" fill="#2B6ED4" stroke="#2B6ED4" stroke-width="0.20386"/>
<path d="M213.061 19.2101C210.184 19.2101 207.808 18.5031 206.008 17.1384C203.838 15.4776 202.688 12.9126 202.688 9.70623C202.688 3.77039 206.568 0.21875 213.061 0.21875C218.181 0.21875 221.811 2.5043 223.021 6.51633L219.037 7.99618C218.226 5.26668 214.95 4.85561 213.061 4.85561C206.878 4.85561 206.878 8.50591 206.878 9.70623C206.878 12.9126 208.974 14.5568 213.061 14.5568C215.289 14.5568 218.137 14.0636 218.993 11.6465L222.874 13.3565C221.561 17.1384 218.063 19.2101 213.061 19.2101Z" fill="#2B6ED4"/>
<path d="M245.675 5.31428H237.913V18.7645H233.723V5.31428H225.961V0.644531H245.69V5.31428H245.675Z" fill="#2B6ED4"/>
<path d="M261.138 18.7433H248.625V0.65625H252.816V5.83572H261.138C265.373 5.83572 268 8.30214 268 12.2813C268 14.4353 267.188 16.244 265.698 17.3621C264.517 18.2665 262.983 18.7433 261.138 18.7433ZM252.816 14.0736H261.138C263.809 14.0736 263.809 12.8239 263.809 12.2813C263.809 11.7058 263.809 10.489 261.138 10.489H252.816V14.0736Z" fill="#2B6ED4"/>
</svg>
