<svg width="400" height="565" viewBox="0 0 400 565" fill="none" xmlns="http://www.w3.org/2000/svg">
<g clip-path="url(#clip0_787_1334)">
<rect width="399.99" height="564.502" fill="white"/>
<path d="M387.258 283.874L210.166 29.9503L281.293 29.9507L322.581 65.5852L309.357 29.9507L387.258 30.1589L387.259 33.6941L387.258 100.137L347.509 46.0472L387.258 150.517L387.258 156.305L295.595 81.1505L387.258 209.319L387.258 283.874Z" fill="url(#paint0_linear_787_1334)"/>
<path d="M387.333 460.125L290.041 287.947L61.3027 29.9512L115.979 29.9526L236.745 171.504L152.268 29.9503L201.138 29.9508L387.334 362.912L387.333 460.125Z" fill="url(#paint1_linear_787_1334)"/>
<path d="M171.492 367.968L209.128 342.52L327.076 497.857C335.647 509.711 339.961 512.309 344.87 508.99C348.688 506.408 346.585 499.006 338.55 487.893L201.317 305.884C191.139 291.807 189.513 291.804 180.786 297.705L158.423 312.826L126.818 269.115L148.636 254.362C157.908 248.092 157.392 245.132 146.678 230.315L43.2934 87.3259C37.401 79.1763 32.0051 76.2063 28.1871 78.788C23.8235 81.7385 24.8558 87.659 30.7482 95.8086L115.92 213.608L78.285 239.056L13.6428 149.615C13.3563 88.9242 13.1523 68.2767 13.3966 30.1114C32.2933 30.1479 30.6131 30.1444 48.7676 30.1794C59.5689 35.0097 67.537 43.3557 86.8212 70.0272L177.886 195.976C196.634 221.906 200.316 234.86 195.796 255.566C215.315 255.605 227.704 264.877 253.416 300.439L387.096 487.893C387.096 524.546 387.096 520.491 387.097 550.906C347.42 550.906 312.513 556.521 271.663 506.511L171.492 367.968Z" fill="url(#paint2_linear_787_1334)"/>
<path d="M124.547 429.766L137.103 421.277L42.0573 297.691C36.219 289.616 32.0241 284.939 28.7401 280.397C25.456 275.855 22.3558 272.691 16.3365 265.49L25.0969 279.855L38.2361 300.275L124.547 429.766ZM149.203 550.914L12.9159 329.586L12.9161 206.46L298.554 550.914L236.781 551.069L158.629 448.8L143.344 459.136L203.234 551.069L149.203 550.914Z" fill="url(#paint3_linear_787_1334)"/>
<path d="M17.3451 483.542L50.4078 529.27C51.0697 529.053 52.1693 528.31 52.7191 527.938L55.4682 526.079C62.0661 521.618 62.5039 521.091 59.4778 516.906L25.8433 470.879C23.8543 468.128 20.2969 464.223 18.107 472.619C17.4539 475.123 17.3451 477.739 17.3451 480.328L17.3451 483.542ZM19.3684 550.907L12.7554 542.172L12.9168 446.091C12.7553 396.645 12.9176 398.204 12.9174 385.102L97.752 491.718C104.813 501.483 99.4583 508.797 67.0187 530.732L56.572 537.796L67.0186 550.907L19.3684 550.907Z" fill="url(#paint4_linear_787_1334)"/>
<path d="M164.442 13.0273V18.0966H163.136V16.2106H159.373V18.0966H158.066V13.0273H159.373V14.9134H163.136V13.0273H164.442Z" fill="#2B6ED4"/>
<path d="M166.654 14.3289V14.9085H170.495V16.2149H166.654V16.7945H171.07V18.1009H165.348V13.0225H171.07V14.3289H166.654Z" fill="#2B6ED4"/>
<path d="M178.129 13.0273V18.0966H176.822V14.596L173.437 18.0966H171.992V13.0273H173.299V16.3532L176.519 13.0273H178.129ZM174.347 13.9704L173.772 13.3907L174.936 13.0279L175.524 13.0273L174.347 13.9704Z" fill="#2B6ED4"/>
<path d="M180.347 18.0913H179.041V13.0312H182.942C183.517 13.0312 183.995 13.1601 184.363 13.4131C184.828 13.7305 185.081 14.2319 185.081 14.8345C185.081 15.9523 184.262 16.6377 182.942 16.6377H180.347V18.0913ZM180.347 15.3359H182.942C183.774 15.3359 183.774 15.0001 183.774 14.8345C183.774 14.6873 183.774 14.3331 182.942 14.3331H180.347V15.3359Z" fill="#2B6ED4"/>
<path d="M188.955 13.7541C188.955 13.5795 188.955 13.0952 188.369 13.0784C188.106 13.0706 187.959 13.2417 187.828 13.4742C187.704 13.695 187.631 13.6929 187.38 13.6856C187.327 13.684 187.267 13.6823 187.197 13.6823C186.791 13.6823 186.611 14.1831 186.731 14.3286C186.736 14.3345 186.741 14.3407 186.747 14.3472C186.847 14.4663 187.026 14.6798 186.656 14.8754C186.265 15.0816 185.92 15.7721 186.596 16.1698C186.926 16.3484 187.471 16.2834 187.542 16.1698C187.588 16.098 187.633 15.8181 187.452 15.7426C187.267 15.665 187.242 15.4627 187.452 15.4775C187.663 15.4922 188.114 15.4922 188.174 15.2123C188.234 14.9325 188.189 14.8294 187.888 14.6673C187.708 14.5348 187.697 14.0947 187.858 14.0947C187.862 14.0947 187.866 14.0947 187.87 14.0946C187.951 14.0939 187.984 14.0937 188.008 14.4169C188.028 14.6839 188.76 14.6526 188.88 14.4169C188.963 14.255 188.959 14.008 188.956 13.8335C188.956 13.8048 188.955 13.7781 188.955 13.7541Z" stroke="#2B6ED4" stroke-width="0.114377"/>
<path d="M188.093 18.0775C188.35 18.229 188.872 18.2241 188.924 17.7991C188.995 17.2246 188.934 16.6119 188.895 16.3774C188.883 16.3105 188.835 16.3042 188.687 16.3188C188.451 16.3421 188.356 16.2163 188.42 16.1283C188.494 16.0257 188.727 16.1216 188.85 16.0404C188.984 15.9525 188.939 15.288 188.924 14.9558C188.895 14.8093 188.639 14.7008 188.449 14.9118C188.375 14.9943 188.42 15.2929 188.42 15.3955C188.42 15.542 188.292 15.6681 188.019 15.7032C187.678 15.7472 187.633 16.436 187.885 16.6412C188.138 16.8464 188.509 16.949 188.524 17.1542C188.538 17.3594 188.568 17.5352 188.39 17.5206C188.212 17.5059 188.301 17.2275 188.301 17.1688C188.301 17.1102 188.212 17.0467 187.915 16.8757C187.737 16.7731 187.752 16.6705 187.633 16.568C187.528 16.4774 186.95 16.436 186.891 16.6999C186.802 17.0223 186.802 17.4766 187.143 17.6085C187.485 17.7404 187.699 17.6068 187.811 17.6672C187.974 17.7551 187.894 17.9603 188.093 18.0775Z" fill="#2B6ED4" stroke="#2B6ED4" stroke-width="0.0613904"/>
<path d="M189.184 13.7541C189.184 13.5795 189.184 13.0952 189.757 13.0784C190.015 13.0706 190.159 13.2417 190.287 13.4742C190.409 13.695 190.48 13.6929 190.726 13.6856C190.777 13.684 190.836 13.6823 190.905 13.6823C191.302 13.6823 191.479 14.1831 191.361 14.3286C191.357 14.3345 191.351 14.3407 191.346 14.3472C191.248 14.4663 191.072 14.6798 191.435 14.8754C191.817 15.0816 192.156 15.7721 191.494 16.1698C191.17 16.3484 190.637 16.2834 190.567 16.1698C190.523 16.098 190.478 15.8181 190.655 15.7426C190.837 15.665 190.861 15.4627 190.655 15.4775C190.449 15.4922 190.008 15.4922 189.949 15.2123C189.89 14.9325 189.934 14.8294 190.228 14.6673C190.405 14.5348 190.415 14.0947 190.258 14.0947C190.254 14.0947 190.25 14.0947 190.246 14.0946C190.166 14.0939 190.134 14.0937 190.111 14.4169C190.091 14.6839 189.375 14.6526 189.257 14.4169C189.176 14.255 189.18 14.008 189.183 13.8335C189.183 13.8048 189.184 13.7781 189.184 13.7541Z" stroke="#2B6ED4" stroke-width="0.114377"/>
<path d="M190.022 18.0775C189.772 18.229 189.265 18.2241 189.214 17.7991C189.144 17.2246 189.204 16.6119 189.242 16.3774C189.253 16.3105 189.3 16.3042 189.445 16.3188C189.674 16.3421 189.766 16.2163 189.704 16.1283C189.632 16.0257 189.406 16.1216 189.286 16.0404C189.156 15.9525 189.199 15.288 189.214 14.9558C189.242 14.8093 189.491 14.7008 189.676 14.9118C189.748 14.9943 189.704 15.2929 189.704 15.3955C189.704 15.542 189.829 15.6681 190.094 15.7032C190.426 15.7472 190.47 16.436 190.224 16.6412C189.979 16.8464 189.618 16.949 189.603 17.1542C189.589 17.3594 189.56 17.5352 189.733 17.5206C189.907 17.5059 189.82 17.2275 189.82 17.1688C189.82 17.1102 189.907 17.0467 190.195 16.8757C190.369 16.7731 190.354 16.6705 190.47 16.568C190.572 16.4774 191.134 16.436 191.192 16.6999C191.278 17.0223 191.278 17.4766 190.946 17.6085C190.614 17.7404 190.406 17.6068 190.296 17.6672C190.138 17.7551 190.216 17.9603 190.022 18.0775Z" fill="#2B6ED4" stroke="#2B6ED4" stroke-width="0.0613904"/>
<path d="M198.999 13.0273V18.0874H197.701V16.6384H195.194L194.325 18.0966H192.779L193.833 16.3578C193.281 16.0542 192.968 15.5252 192.968 14.8352C192.968 14.2326 193.221 13.7312 193.686 13.4137C194.049 13.1607 194.527 13.0319 195.107 13.0319H198.999V13.0273ZM197.701 15.332V14.3338H195.107C194.274 14.3338 194.274 14.688 194.274 14.8352C194.274 15.0008 194.274 15.3366 195.107 15.3366H197.701V15.332Z" fill="#2B6ED4"/>
<path d="M203.156 18.2183C202.259 18.2183 201.518 18.0205 200.957 17.6387C200.281 17.1741 199.922 16.4565 199.922 15.5595C199.922 13.8989 201.132 12.9053 203.156 12.9053C204.752 12.9053 205.884 13.5447 206.261 14.6671L205.019 15.0811C204.766 14.3175 203.745 14.2025 203.156 14.2025C201.228 14.2025 201.228 15.2237 201.228 15.5595C201.228 16.4565 201.881 16.9165 203.156 16.9165C203.85 16.9165 204.738 16.7785 205.005 16.1023L206.215 16.5807C205.801 17.6387 204.715 18.2183 203.156 18.2183Z" fill="#2B6ED4"/>
<path d="M213.551 13.0273V18.0966H212.245V16.2106H208.482V18.0966H207.176V13.0273H208.482V14.9134H212.245V13.0273H213.551Z" fill="#2B6ED4"/>
<path d="M217.268 13.6467C217.268 13.4648 217.268 12.9602 216.669 12.9426C216.4 12.9345 216.25 13.1128 216.116 13.3551C215.99 13.5852 215.915 13.583 215.659 13.5753C215.605 13.5737 215.544 13.5719 215.472 13.5719C215.057 13.5719 214.873 14.0937 214.996 14.2453C215.001 14.2514 215.006 14.2579 215.012 14.2646C215.114 14.3888 215.298 14.6113 214.919 14.815C214.52 15.0299 214.167 15.7493 214.858 16.1637C215.196 16.3498 215.752 16.2821 215.825 16.1637C215.871 16.0889 215.917 15.7973 215.733 15.7186C215.543 15.6377 215.518 15.427 215.733 15.4424C215.948 15.4577 216.408 15.4577 216.469 15.1661C216.531 14.8745 216.485 14.7671 216.178 14.5982C215.994 14.4601 215.983 14.0016 216.147 14.0016C216.151 14.0016 216.155 14.0016 216.159 14.0015C216.242 14.0008 216.276 14.0005 216.301 14.3373C216.321 14.6155 217.068 14.5829 217.191 14.3373C217.275 14.1686 217.271 13.9113 217.268 13.7294C217.268 13.6996 217.268 13.6717 217.268 13.6467Z" stroke="#2B6ED4" stroke-width="0.114377"/>
<path d="M216.394 18.129C216.66 18.2875 217.199 18.2825 217.253 17.8374C217.327 17.2357 217.263 16.5942 217.223 16.3486C217.211 16.2786 217.161 16.272 217.008 16.2873C216.763 16.3116 216.666 16.1799 216.731 16.0877C216.808 15.9803 217.049 16.0808 217.177 15.9957C217.315 15.9036 217.269 15.2078 217.253 14.8599C217.223 14.7065 216.959 14.5929 216.762 14.8139C216.685 14.9002 216.731 15.2129 216.731 15.3203C216.731 15.4738 216.599 15.6058 216.317 15.6426C215.964 15.6887 215.918 16.41 216.179 16.6249C216.44 16.8398 216.824 16.9472 216.839 17.1621C216.854 17.3769 216.885 17.5611 216.701 17.5457C216.517 17.5304 216.609 17.2388 216.609 17.1774C216.609 17.116 216.517 17.0495 216.21 16.8705C216.025 16.763 216.041 16.6556 215.918 16.5482C215.81 16.4534 215.212 16.41 215.151 16.6863C215.059 17.0239 215.059 17.4997 215.412 17.6378C215.765 17.776 215.986 17.636 216.102 17.6992C216.271 17.7913 216.188 18.0062 216.394 18.129Z" fill="#2B6ED4" stroke="#2B6ED4" stroke-width="0.0613904"/>
<path d="M217.531 13.6057C217.531 13.4237 217.531 12.9192 218.13 12.9016C218.399 12.8935 218.549 13.0718 218.682 13.3141C218.809 13.5442 218.884 13.5419 219.14 13.5343C219.194 13.5327 219.255 13.5309 219.327 13.5309C219.741 13.5309 219.926 14.0527 219.803 14.2042C219.798 14.2104 219.792 14.2169 219.787 14.2236C219.684 14.3478 219.501 14.5702 219.879 14.774C220.279 14.9889 220.632 15.7083 219.941 16.1227C219.603 16.3088 219.047 16.2411 218.974 16.1227C218.928 16.0479 218.882 15.7563 219.066 15.6776C219.255 15.5967 219.281 15.386 219.066 15.4013C218.851 15.4167 218.391 15.4167 218.329 15.1251C218.268 14.8335 218.314 14.7261 218.621 14.5572C218.805 14.4191 218.816 13.9606 218.652 13.9606C218.647 13.9606 218.643 13.9606 218.639 13.9605C218.556 13.9598 218.523 13.9595 218.498 14.2963C218.478 14.5745 217.731 14.5419 217.608 14.2963C217.524 14.1276 217.528 13.8702 217.53 13.6884C217.531 13.6586 217.531 13.6307 217.531 13.6057Z" stroke="#2B6ED4" stroke-width="0.114377"/>
<path d="M218.403 18.0879C218.137 18.2465 217.598 18.2415 217.544 17.7964C217.47 17.1947 217.533 16.5532 217.574 16.3076C217.586 16.2375 217.636 16.2309 217.789 16.2462C218.034 16.2706 218.131 16.1388 218.065 16.0467C217.989 15.9393 217.748 16.0397 217.62 15.9546C217.482 15.8626 217.528 15.1668 217.544 14.8189C217.574 14.6655 217.838 14.5519 218.035 14.7729C218.111 14.8592 218.065 15.1719 218.065 15.2793C218.065 15.4328 218.197 15.5648 218.48 15.6016C218.833 15.6477 218.879 16.369 218.618 16.5839C218.357 16.7987 217.973 16.9062 217.958 17.121C217.943 17.3359 217.912 17.5201 218.096 17.5047C218.28 17.4894 218.188 17.1978 218.188 17.1364C218.188 17.075 218.28 17.0085 218.587 16.8294C218.771 16.722 218.756 16.6146 218.879 16.5071C218.987 16.4124 219.585 16.369 219.646 16.6453C219.738 16.9829 219.738 17.4587 219.385 17.5968C219.032 17.7349 218.811 17.595 218.695 17.6582C218.526 17.7503 218.609 17.9652 218.403 18.0879Z" fill="#2B6ED4" stroke="#2B6ED4" stroke-width="0.0613904"/>
<path d="M224.486 18.2183C223.589 18.2183 222.848 18.0205 222.287 17.6387C221.611 17.1741 221.252 16.4565 221.252 15.5595C221.252 13.8989 222.462 12.9053 224.486 12.9053C226.082 12.9053 227.214 13.5447 227.591 14.6671L226.349 15.0811C226.096 14.3175 225.075 14.2025 224.486 14.2025C222.558 14.2025 222.558 15.2237 222.558 15.5595C222.558 16.4565 223.212 16.9165 224.486 16.9165C225.18 16.9165 226.068 16.7785 226.335 16.1023L227.545 16.5807C227.135 17.6387 226.045 18.2183 224.486 18.2183Z" fill="#2B6ED4"/>
<path d="M234.652 14.3338H232.232V18.0966H230.925V14.3338H228.506V13.0273H234.656V14.3338H234.652Z" fill="#2B6ED4"/>
<path d="M239.473 18.0913H235.572V13.0312H236.879V14.4803H239.473C240.793 14.4803 241.612 15.1703 241.612 16.2835C241.612 16.8861 241.359 17.3921 240.895 17.7049C240.527 17.9579 240.048 18.0913 239.473 18.0913ZM236.879 16.7849H239.473C240.306 16.7849 240.306 16.4353 240.306 16.2835C240.306 16.1225 240.306 15.7821 239.473 15.7821H236.879V16.7849Z" fill="#2B6ED4"/>
<path d="M15.8326 204.412L18.9398 201.829L18.9086 202.117L17.8206 200.808L18.3701 200.352L20.8285 203.309L20.279 203.766L19.191 202.457L19.4755 202.474L16.3683 205.057L15.8326 204.412ZM18.7976 208.05C18.6176 207.834 18.5029 207.594 18.4533 207.331C18.4065 207.072 18.4387 206.806 18.5499 206.533C18.6672 206.261 18.8808 205.996 19.1905 205.738C19.5035 205.478 19.8015 205.315 20.0844 205.249C20.37 205.186 20.6345 205.203 20.8778 205.299C21.1244 205.392 21.3419 205.552 21.5301 205.779C21.7488 206.042 21.8846 206.32 21.9375 206.614C21.9931 206.912 21.9678 207.203 21.8616 207.488C21.7581 207.777 21.5681 208.036 21.2917 208.266C21.0153 208.496 20.724 208.637 20.4179 208.688C20.1178 208.741 19.8268 208.712 19.5447 208.603C19.2653 208.498 19.0163 208.313 18.7976 208.05ZM16.6343 207.348L20.2709 204.325L20.7651 204.919L20.1357 205.443L19.4097 206.012L18.7419 206.652L17.1533 207.973L16.6343 207.348ZM19.274 207.536C19.3985 207.686 19.5426 207.791 19.7061 207.853C19.8724 207.917 20.0478 207.932 20.2325 207.896C20.4172 207.861 20.5945 207.773 20.7643 207.632C20.9375 207.488 21.0566 207.33 21.1217 207.157C21.1901 206.982 21.2078 206.807 21.1748 206.632C21.1445 206.46 21.067 206.299 20.9425 206.149C20.8179 205.999 20.6724 205.892 20.5062 205.827C20.3399 205.763 20.1644 205.748 19.9797 205.784C19.7984 205.816 19.6211 205.904 19.4479 206.048C19.2781 206.189 19.159 206.348 19.0905 206.523C19.0221 206.698 19.0045 206.873 19.0375 207.048C19.0706 207.224 19.1494 207.386 19.274 207.536ZM21.3905 211.169C21.1441 210.873 20.9865 210.565 20.9176 210.245C20.8547 209.925 20.8753 209.618 20.9794 209.323C21.0862 209.032 21.2712 208.777 21.5343 208.558C21.8007 208.336 22.0839 208.2 22.384 208.147C22.6901 208.096 22.9873 208.124 23.2755 208.234C23.5665 208.347 23.8227 208.537 24.0442 208.803C24.2601 209.063 24.3959 209.341 24.4515 209.639C24.5072 209.936 24.4802 210.229 24.3706 210.517C24.261 210.805 24.0664 211.065 23.7866 211.298C23.76 211.32 23.7286 211.343 23.6926 211.368C23.6593 211.395 23.6262 211.42 23.5935 211.442L21.7456 209.219L22.1602 208.874L23.734 210.767L23.4007 210.63C23.5566 210.506 23.6652 210.363 23.7264 210.199C23.7876 210.036 23.803 209.868 23.7728 209.696C23.7452 209.527 23.6692 209.368 23.5446 209.218C23.4173 209.065 23.2718 208.958 23.1083 208.897C22.9476 208.839 22.7796 208.826 22.6043 208.86C22.4352 208.893 22.2707 208.976 22.1108 209.109L22.0109 209.192C21.8511 209.325 21.74 209.479 21.6777 209.655C21.6153 209.831 21.6062 210.013 21.6504 210.202C21.6945 210.39 21.7886 210.571 21.9325 210.744C22.0571 210.894 22.1925 211.01 22.3388 211.091C22.4851 211.172 22.647 211.218 22.8244 211.228L22.718 211.882C22.4784 211.879 22.2442 211.817 22.0154 211.698C21.7926 211.579 21.5843 211.403 21.3905 211.169ZM22.9525 212.977L25.6201 210.76L26.1392 211.384L25.0552 212.285L26.1722 213.629L27.2562 212.728L27.7753 213.352L25.1078 215.57L24.5887 214.946L25.6427 214.069L24.5256 212.726L23.4716 213.602L22.9525 212.977ZM25.7204 216.307L28.3879 214.089L28.907 214.714L27.1486 216.176L30.1321 216.187L30.6055 216.757L27.9379 218.974L27.4188 218.35L29.1772 216.888L26.1979 216.881L25.7204 216.307ZM28.5531 219.715L31.2207 217.497L31.7398 218.121L30.6557 219.023L31.7728 220.366L32.8568 219.465L33.3759 220.09L30.7083 222.307L30.1892 221.683L31.2433 220.807L30.1262 219.463L29.0722 220.339L28.5531 219.715ZM31.3209 223.044L33.9885 220.827L35.6911 222.875L35.1616 223.315L33.8577 221.746L34.118 221.775L31.84 223.669L31.3209 223.044Z" fill="#2B6ED4"/>
<path d="M285.246 330.24L288.877 327.503L289.292 328.053L287.841 331.644L287.619 331.348L291.45 330.917L291.865 331.467L288.241 334.214L287.756 333.571L290.383 331.583L290.484 331.718L287.268 332.06L287.041 331.759L288.24 328.74L288.357 328.896L285.727 330.878L285.246 330.24ZM289.811 336.373C289.579 336.065 289.437 335.75 289.383 335.427C289.336 335.105 289.371 334.799 289.489 334.509C289.609 334.223 289.806 333.977 290.079 333.771C290.356 333.563 290.646 333.439 290.948 333.401C291.256 333.364 291.551 333.407 291.834 333.53C292.119 333.657 292.366 333.859 292.575 334.135C292.778 334.405 292.9 334.69 292.942 334.989C292.983 335.289 292.942 335.58 292.819 335.863C292.696 336.145 292.489 336.396 292.199 336.615C292.171 336.636 292.139 336.658 292.101 336.68C292.067 336.707 292.033 336.73 291.999 336.75L290.259 334.441L290.69 334.117L292.171 336.083L291.845 335.93C292.007 335.814 292.122 335.675 292.191 335.515C292.26 335.354 292.283 335.188 292.261 335.014C292.242 334.845 292.173 334.682 292.056 334.526C291.936 334.367 291.796 334.253 291.636 334.184C291.478 334.119 291.311 334.099 291.134 334.123C290.963 334.149 290.795 334.224 290.629 334.349L290.525 334.427C290.359 334.553 290.241 334.701 290.17 334.874C290.1 335.046 290.082 335.228 290.117 335.418C290.152 335.609 290.238 335.794 290.373 335.974C290.49 336.13 290.62 336.251 290.762 336.339C290.905 336.427 291.064 336.481 291.241 336.499L291.103 337.148C290.864 337.133 290.633 337.06 290.41 336.93C290.194 336.801 289.994 336.615 289.811 336.373ZM292.199 339.541C291.98 339.25 291.845 338.945 291.794 338.626C291.75 338.307 291.786 338.003 291.904 337.714C292.022 337.424 292.218 337.176 292.491 336.97C292.767 336.762 293.06 336.642 293.367 336.611C293.678 336.577 293.978 336.627 294.269 336.761C294.562 336.898 294.818 337.112 295.037 337.402C295.24 337.672 295.364 337.951 295.407 338.238C295.456 338.526 295.415 338.804 295.285 339.07L294.619 338.791C294.688 338.609 294.708 338.434 294.679 338.266C294.653 338.101 294.587 337.95 294.483 337.811C294.363 337.652 294.221 337.535 294.055 337.459C293.889 337.383 293.713 337.359 293.527 337.385C293.345 337.409 293.163 337.488 292.983 337.624C292.804 337.76 292.675 337.913 292.599 338.085C292.525 338.254 292.503 338.429 292.53 338.609C292.557 338.789 292.631 338.958 292.751 339.117C292.855 339.256 292.982 339.36 293.133 339.431C293.287 339.505 293.461 339.534 293.654 339.518L293.739 340.235C293.451 340.284 293.172 340.248 292.901 340.127C292.637 340.006 292.403 339.811 292.199 339.541ZM293.898 341.719L296.274 339.928L296.232 340.196L295.383 339.07L295.933 338.656L297.888 341.25L297.338 341.664L296.494 340.544L296.763 340.577L294.387 342.367L293.898 341.719ZM296.197 344.845C295.983 344.561 295.853 344.263 295.808 343.95C295.765 343.635 295.803 343.333 295.921 343.043C296.039 342.754 296.235 342.506 296.508 342.3C296.785 342.091 297.077 341.972 297.384 341.941C297.695 341.907 297.994 341.955 298.282 342.085C298.57 342.215 298.821 342.422 299.035 342.706C299.251 342.993 299.382 343.293 299.428 343.605C299.476 343.921 299.442 344.221 299.325 344.505C299.21 344.792 299.013 345.041 298.733 345.252C298.46 345.458 298.167 345.577 297.857 345.611C297.548 345.648 297.247 345.601 296.953 345.47C296.665 345.34 296.413 345.132 296.197 344.845ZM296.752 344.426C296.872 344.585 297.013 344.701 297.176 344.773C297.339 344.846 297.513 344.867 297.696 344.837C297.882 344.811 298.064 344.731 298.24 344.598C298.42 344.463 298.546 344.31 298.62 344.141C298.699 343.973 298.726 343.8 298.702 343.624C298.677 343.447 298.606 343.281 298.489 343.125C298.369 342.966 298.227 342.851 298.064 342.778C297.904 342.709 297.731 342.688 297.544 342.715C297.362 342.738 297.18 342.818 297.001 342.954C296.824 343.087 296.698 343.239 296.621 343.411C296.544 343.582 296.517 343.755 296.539 343.928C296.564 344.104 296.635 344.271 296.752 344.426ZM299.841 345.567C299.752 345.45 299.717 345.319 299.734 345.176C299.754 345.031 299.826 344.911 299.951 344.817C300.082 344.718 300.217 344.682 300.356 344.707C300.498 344.73 300.614 344.801 300.702 344.918C300.791 345.036 300.827 345.166 300.81 345.309C300.796 345.449 300.724 345.569 300.592 345.668C300.468 345.762 300.333 345.799 300.187 345.778C300.045 345.755 299.93 345.685 299.841 345.567ZM297.865 347.057C297.776 346.939 297.74 346.809 297.757 346.666C297.778 346.521 297.85 346.401 297.975 346.307C298.106 346.208 298.241 346.171 298.38 346.197C298.522 346.22 298.637 346.29 298.726 346.408C298.814 346.526 298.85 346.656 298.833 346.799C298.82 346.939 298.747 347.059 298.616 347.158C298.491 347.252 298.356 347.288 298.211 347.268C298.069 347.245 297.953 347.175 297.865 347.057ZM279.656 334.454L283.287 331.717L285.708 334.928L282.076 337.665L281.576 337.001L284.803 334.569L284.754 334.849L283.1 332.655L283.383 332.686L280.157 335.118L279.656 334.454ZM283.836 340.075C283.667 339.85 283.564 339.605 283.527 339.341C283.492 339.079 283.537 338.815 283.661 338.548C283.791 338.281 284.017 338.027 284.339 337.785C284.664 337.54 284.969 337.391 285.255 337.338C285.543 337.289 285.807 337.318 286.045 337.426C286.287 337.531 286.497 337.701 286.674 337.936C286.88 338.21 287.002 338.494 287.041 338.79C287.082 339.09 287.043 339.38 286.924 339.66C286.806 339.943 286.604 340.193 286.317 340.41C286.03 340.626 285.733 340.753 285.424 340.79C285.122 340.828 284.833 340.786 284.556 340.663C284.282 340.544 284.042 340.348 283.836 340.075ZM281.709 339.271L285.485 336.424L285.951 337.042L285.297 337.534L284.545 338.069L283.847 338.676L282.198 339.919L281.709 339.271ZM284.337 339.584C284.454 339.74 284.593 339.852 284.753 339.921C284.916 339.993 285.091 340.016 285.277 339.99C285.463 339.963 285.644 339.884 285.821 339.751C286.001 339.615 286.127 339.463 286.2 339.294C286.277 339.122 286.303 338.948 286.278 338.771C286.256 338.598 286.187 338.434 286.069 338.278C285.952 338.123 285.812 338.009 285.649 337.936C285.486 337.864 285.311 337.841 285.125 337.867C284.942 337.891 284.761 337.971 284.581 338.106C284.405 338.239 284.278 338.392 284.202 338.563C284.125 338.735 284.099 338.909 284.124 339.086C284.148 339.262 284.219 339.429 284.337 339.584ZM285.418 342.174C285.33 342.057 285.294 341.926 285.311 341.783C285.331 341.638 285.404 341.518 285.528 341.424C285.66 341.325 285.795 341.288 285.933 341.314C286.076 341.337 286.191 341.407 286.28 341.525C286.368 341.643 286.404 341.773 286.387 341.916C286.374 342.056 286.301 342.176 286.17 342.275C286.045 342.369 285.91 342.406 285.765 342.385C285.622 342.362 285.507 342.292 285.418 342.174ZM286.222 343.273C286.178 343.214 286.139 343.152 286.105 343.085C286.071 343.018 286.035 342.945 285.997 342.866L286.618 342.471C286.641 342.529 286.673 342.587 286.715 342.642C286.824 342.787 286.97 342.859 287.153 342.856C287.339 342.852 287.562 342.781 287.823 342.644C288.083 342.508 288.388 342.319 288.737 342.077L290.281 340.995L292.295 343.667L288.663 346.404L288.163 345.74L291.39 343.308L291.341 343.588L290.039 341.861L290.319 341.877L289.213 342.654C288.846 342.915 288.511 343.129 288.209 343.297C287.907 343.465 287.633 343.579 287.386 343.641C287.145 343.703 286.928 343.706 286.735 343.651C286.542 343.596 286.371 343.47 286.222 343.273ZM288.445 348.284C288.344 348.149 288.265 347.997 288.208 347.828C288.151 347.66 288.129 347.5 288.14 347.35L288.813 347.25C288.804 347.36 288.813 347.47 288.841 347.579C288.869 347.688 288.916 347.785 288.981 347.872C289.07 347.99 289.171 348.062 289.284 348.091C289.398 348.119 289.547 348.112 289.732 348.07L290.217 347.957L290.334 347.951L293.572 347.153L294.041 347.775L290.07 348.735C289.798 348.805 289.561 348.832 289.359 348.816C289.159 348.803 288.986 348.749 288.839 348.654C288.694 348.563 288.563 348.439 288.445 348.284ZM289.82 348.143L291.746 344.73L292.254 345.405L290.629 348.224L289.82 348.143ZM293.03 352.197L293.603 350.195L294.329 350.477L293.605 352.959L293.03 352.197ZM291.532 350.21L294.302 348.122L294.791 348.77L292.021 350.858L291.532 350.21ZM292.987 349.83L293.526 349.423L294.234 350.362L293.694 350.769L292.987 349.83ZM294.028 350.802L293.643 350.14L295.8 350.109L296.324 350.804L294.028 350.802ZM295.1 354.943L295.66 354.521L295.752 354.395L296.732 353.656C296.923 353.512 297.027 353.344 297.044 353.152C297.066 352.957 296.989 352.744 296.814 352.512C296.697 352.356 296.557 352.221 296.394 352.105C296.233 351.993 296.07 351.918 295.906 351.879L296.186 351.269C296.413 351.332 296.63 351.444 296.839 351.606C297.055 351.77 297.246 351.962 297.412 352.183C297.715 352.584 297.851 352.967 297.822 353.331C297.798 353.695 297.586 354.029 297.185 354.331L295.561 355.555L295.1 354.943ZM294.407 354.099C294.25 353.891 294.148 353.684 294.1 353.476C294.055 353.266 294.062 353.07 294.122 352.89C294.187 352.711 294.299 352.561 294.459 352.441C294.614 352.324 294.782 352.254 294.961 352.233C295.143 352.216 295.334 352.264 295.534 352.379C295.734 352.493 295.94 352.691 296.151 352.971L296.757 353.775L296.327 354.1L295.756 353.342C295.589 353.121 295.441 353 295.311 352.978C295.184 352.954 295.069 352.981 294.965 353.06C294.848 353.148 294.79 353.265 294.791 353.411C294.792 353.556 294.855 353.712 294.98 353.878C295.1 354.037 295.243 354.152 295.41 354.221C295.579 354.295 295.755 354.305 295.939 354.254L295.632 354.656C295.422 354.716 295.211 354.699 294.999 354.604C294.789 354.513 294.592 354.345 294.407 354.099ZM297.002 357.542C296.783 357.251 296.648 356.946 296.597 356.627C296.552 356.308 296.588 356.004 296.706 355.715C296.824 355.425 297.02 355.177 297.293 354.971C297.57 354.763 297.862 354.643 298.169 354.612C298.48 354.578 298.781 354.628 299.071 354.762C299.364 354.899 299.62 355.113 299.839 355.403C300.043 355.673 300.166 355.951 300.209 356.239C300.258 356.527 300.218 356.804 300.087 357.071L299.422 356.792C299.49 356.61 299.51 356.435 299.481 356.267C299.455 356.102 299.39 355.951 299.285 355.812C299.166 355.653 299.023 355.536 298.857 355.46C298.692 355.384 298.516 355.359 298.329 355.386C298.147 355.41 297.966 355.489 297.786 355.625C297.606 355.76 297.478 355.914 297.401 356.086C297.328 356.255 297.305 356.429 297.332 356.61C297.359 356.79 297.433 356.959 297.553 357.118C297.657 357.257 297.785 357.361 297.936 357.432C298.089 357.506 298.263 357.535 298.457 357.519L298.542 358.236C298.253 358.285 297.974 358.249 297.703 358.127C297.439 358.007 297.205 357.812 297.002 357.542ZM299.548 360.845L300.109 360.423L300.201 360.297L301.181 359.558C301.371 359.414 301.475 359.246 301.493 359.054C301.514 358.859 301.437 358.646 301.263 358.414C301.145 358.259 301.005 358.123 300.842 358.007C300.682 357.895 300.519 357.82 300.354 357.781L300.635 357.171C300.861 357.234 301.079 357.346 301.288 357.509C301.503 357.672 301.694 357.864 301.861 358.085C302.163 358.486 302.3 358.869 302.27 359.233C302.247 359.598 302.035 359.931 301.634 360.233L300.01 361.457L299.548 360.845ZM298.855 360.001C298.699 359.794 298.597 359.586 298.548 359.378C298.504 359.168 298.511 358.972 298.57 358.792C298.636 358.613 298.748 358.463 298.907 358.343C299.063 358.226 299.23 358.157 299.409 358.135C299.591 358.118 299.782 358.166 299.983 358.281C300.183 358.395 300.389 358.593 300.6 358.873L301.206 359.677L300.775 360.002L300.205 359.244C300.038 359.023 299.889 358.902 299.759 358.88C299.633 358.856 299.518 358.883 299.414 358.962C299.296 359.05 299.238 359.167 299.239 359.313C299.241 359.458 299.304 359.614 299.429 359.78C299.549 359.939 299.692 360.054 299.859 360.123C300.028 360.197 300.204 360.207 300.387 360.156L300.08 360.558C299.871 360.618 299.66 360.601 299.448 360.506C299.238 360.415 299.04 360.247 298.855 360.001ZM301.347 363.232L301.799 362.892L304.255 363.301C304.46 363.336 304.628 363.351 304.759 363.344C304.89 363.338 304.998 363.316 305.084 363.279C305.176 363.242 305.254 363.199 305.32 363.149C305.486 363.024 305.571 362.871 305.575 362.689C305.582 362.504 305.503 362.301 305.336 362.08C305.203 361.904 305.05 361.766 304.879 361.668C304.71 361.573 304.522 361.522 304.316 361.515L304.323 360.769C304.62 360.767 304.91 360.847 305.194 361.007C305.484 361.169 305.741 361.398 305.965 361.695C306.163 361.958 306.292 362.219 306.351 362.478C306.417 362.738 306.411 362.978 306.334 363.199C306.259 363.424 306.114 363.617 305.9 363.778C305.782 363.867 305.653 363.94 305.512 363.997C305.374 364.052 305.209 364.085 305.016 364.095C304.823 364.105 304.584 364.087 304.3 364.041L302.188 363.688L302.336 363.357L303.935 365.478L303.365 365.908L301.347 363.232Z" fill="#2B6ED4"/>
<path d="M369.974 169.253L369.549 168.439C369.638 168.578 369.762 168.654 369.921 168.668C370.083 168.685 370.27 168.655 370.481 168.578C370.692 168.501 370.924 168.39 371.178 168.246C371.435 168.098 371.706 167.93 371.991 167.741L373.193 166.943L375.137 169.65L371.759 172.074L371.274 171.399L374.071 169.391L373.033 167.945L372.36 168.389C372.106 168.555 371.861 168.707 371.624 168.845C371.393 168.984 371.173 169.097 370.963 169.183C370.756 169.273 370.567 169.326 370.397 169.342C370.227 169.357 370.086 169.328 369.974 169.253ZM368.092 169.293L369.462 168.318L372.406 172.418L371.039 173.399L370.584 172.766L371.371 172.201L369.336 169.367L368.55 169.932L368.092 169.293ZM373.387 175.011L373.957 174.602L374.052 174.478L375.05 173.762C375.243 173.623 375.351 173.458 375.373 173.266C375.399 173.071 375.327 172.856 375.158 172.621C375.044 172.462 374.907 172.323 374.747 172.204C374.589 172.088 374.428 172.009 374.265 171.966L374.559 171.363C374.784 171.431 374.999 171.549 375.204 171.716C375.415 171.884 375.602 172.081 375.764 172.306C376.057 172.714 376.184 173.099 376.146 173.463C376.114 173.827 375.894 174.155 375.486 174.448L373.834 175.634L373.387 175.011ZM372.714 174.151C372.562 173.94 372.465 173.73 372.422 173.521C372.382 173.31 372.394 173.115 372.457 172.936C372.527 172.758 372.643 172.611 372.805 172.495C372.963 172.381 373.132 172.316 373.312 172.299C373.494 172.285 373.684 172.338 373.881 172.457C374.079 172.577 374.28 172.779 374.485 173.064L375.072 173.882L374.634 174.196L374.081 173.426C373.919 173.201 373.774 173.076 373.644 173.052C373.518 173.025 373.402 173.049 373.297 173.125C373.177 173.211 373.116 173.326 373.114 173.472C373.112 173.617 373.172 173.775 373.293 173.943C373.409 174.105 373.549 174.223 373.714 174.297C373.882 174.374 374.057 174.389 374.242 174.341L373.926 174.736C373.715 174.792 373.505 174.77 373.294 174.67C373.087 174.574 372.893 174.401 372.714 174.151ZM374.765 176.93L377.182 175.195L377.134 175.462L376.312 174.317L376.871 173.915L378.765 176.554L378.206 176.955L377.387 175.816L377.656 175.855L375.239 177.59L374.765 176.93ZM377.442 180.66L378.012 180.25L378.107 180.126L379.104 179.41C379.298 179.272 379.406 179.106 379.428 178.914C379.453 178.72 379.382 178.505 379.213 178.269C379.099 178.111 378.962 177.972 378.801 177.852C378.644 177.737 378.483 177.657 378.319 177.615L378.614 177.012C378.838 177.08 379.053 177.197 379.259 177.364C379.47 177.533 379.657 177.729 379.818 177.954C380.111 178.362 380.239 178.748 380.201 179.111C380.169 179.475 379.949 179.804 379.541 180.097L377.889 181.282L377.442 180.66ZM376.769 179.799C376.617 179.588 376.52 179.378 376.476 179.17C376.437 178.958 376.449 178.763 376.512 178.584C376.582 178.406 376.697 178.259 376.859 178.143C377.017 178.03 377.186 177.964 377.366 177.947C377.548 177.934 377.738 177.987 377.936 178.106C378.134 178.225 378.335 178.428 378.539 178.712L379.126 179.53L378.688 179.845L378.135 179.074C377.974 178.849 377.828 178.724 377.699 178.7C377.573 178.673 377.457 178.698 377.351 178.773C377.232 178.859 377.171 178.975 377.169 179.12C377.167 179.266 377.226 179.423 377.347 179.592C377.464 179.754 377.604 179.872 377.769 179.945C377.936 180.022 378.112 180.037 378.297 179.99L377.98 180.385C377.77 180.44 377.559 180.418 377.349 180.318C377.141 180.222 376.948 180.049 376.769 179.799ZM380.517 180.777C380.431 180.657 380.398 180.526 380.418 180.384C380.442 180.239 380.518 180.121 380.644 180.03C380.778 179.934 380.914 179.9 381.052 179.929C381.193 179.955 381.307 180.028 381.393 180.148C381.479 180.268 381.511 180.399 381.491 180.541C381.474 180.681 381.399 180.799 381.265 180.895C381.139 180.986 381.003 181.02 380.858 180.996C380.716 180.969 380.603 180.896 380.517 180.777ZM378.506 182.22C378.42 182.1 378.387 181.969 378.408 181.827C378.432 181.682 378.507 181.564 378.634 181.473C378.767 181.377 378.903 181.343 379.041 181.372C379.183 181.399 379.296 181.472 379.382 181.591C379.468 181.711 379.501 181.842 379.48 181.984C379.464 182.124 379.388 182.242 379.255 182.338C379.128 182.429 378.992 182.463 378.847 182.439C378.706 182.413 378.592 182.34 378.506 182.22ZM364.358 174.548C364.149 174.256 364.033 173.939 364.012 173.597C363.993 173.259 364.076 172.922 364.262 172.586C364.451 172.248 364.747 171.934 365.152 171.643C365.557 171.353 365.948 171.174 366.325 171.105C366.706 171.034 367.054 171.062 367.368 171.188C367.685 171.318 367.948 171.529 368.158 171.821C368.37 172.116 368.486 172.433 368.505 172.771C368.523 173.11 368.438 173.448 368.249 173.786C368.066 174.125 367.773 174.44 367.368 174.731C366.963 175.021 366.569 175.2 366.186 175.267C365.809 175.336 365.463 175.307 365.148 175.181C364.834 175.054 364.57 174.844 364.358 174.548ZM364.955 174.12C365.078 174.292 365.231 174.409 365.414 174.47C365.6 174.529 365.815 174.523 366.059 174.455C366.305 174.39 366.576 174.251 366.872 174.039C367.171 173.825 367.389 173.612 367.526 173.402C367.669 173.193 367.741 172.992 367.741 172.8C367.745 172.605 367.685 172.421 367.562 172.249C367.443 172.083 367.289 171.97 367.101 171.908C366.919 171.847 366.704 171.849 366.458 171.914C366.217 171.98 365.947 172.12 365.648 172.335C365.353 172.547 365.134 172.758 364.991 172.967C364.85 173.18 364.778 173.383 364.774 173.578C364.776 173.774 364.836 173.955 364.955 174.12ZM366.199 177L369.629 174.538L369.533 175.062L368.757 173.981L369.332 173.568L370.385 175.035L366.691 177.686L366.199 177ZM367.4 178.752C367.314 178.632 367.281 178.501 367.302 178.359C367.325 178.214 367.401 178.096 367.527 178.005C367.661 177.909 367.797 177.875 367.935 177.904C368.076 177.93 368.19 178.003 368.276 178.123C368.362 178.243 368.395 178.374 368.374 178.516C368.357 178.656 368.282 178.774 368.149 178.87C368.022 178.961 367.886 178.995 367.741 178.971C367.599 178.944 367.486 178.871 367.4 178.752ZM368.999 181.014C368.79 180.722 368.674 180.405 368.653 180.063C368.634 179.725 368.717 179.388 368.903 179.052C369.092 178.714 369.388 178.399 369.793 178.109C370.198 177.818 370.589 177.639 370.966 177.571C371.347 177.5 371.695 177.527 372.009 177.654C372.326 177.783 372.589 177.994 372.799 178.286C373.011 178.582 373.127 178.899 373.146 179.237C373.164 179.575 373.079 179.913 372.89 180.252C372.707 180.591 372.414 180.906 372.009 181.196C371.604 181.486 371.21 181.665 370.827 181.733C370.45 181.801 370.104 181.772 369.789 181.646C369.475 181.52 369.211 181.309 368.999 181.014ZM369.596 180.585C369.719 180.758 369.873 180.875 370.055 180.936C370.241 180.994 370.456 180.989 370.7 180.92C370.946 180.855 371.217 180.717 371.513 180.505C371.812 180.29 372.03 180.078 372.167 179.867C372.31 179.658 372.382 179.457 372.382 179.265C372.386 179.07 372.326 178.887 372.203 178.714C372.084 178.549 371.93 178.435 371.742 178.373C371.56 178.312 371.345 178.314 371.099 178.379C370.858 178.445 370.588 178.586 370.289 178.8C369.994 179.012 369.775 179.223 369.632 179.432C369.491 179.645 369.419 179.849 369.415 180.044C369.417 180.24 369.477 180.42 369.596 180.585ZM371.431 184.401C371.211 184.095 371.066 183.796 370.996 183.505C370.926 183.215 370.929 182.948 371.006 182.706C371.087 182.462 371.239 182.259 371.465 182.097C371.69 181.936 371.923 181.859 372.163 181.868C372.404 181.876 372.646 181.964 372.888 182.131C373.131 182.298 373.364 182.538 373.589 182.851C373.814 183.165 373.967 183.463 374.047 183.746C374.131 184.033 374.136 184.293 374.064 184.526C373.997 184.76 373.853 184.957 373.631 185.116C373.406 185.278 373.164 185.356 372.904 185.35C372.65 185.346 372.396 185.262 372.14 185.099C371.887 184.94 371.65 184.707 371.431 184.401ZM371.969 184.014C372.151 184.268 372.348 184.43 372.559 184.502C372.771 184.574 372.97 184.543 373.156 184.41C373.339 184.278 373.43 184.101 373.43 183.877C373.429 183.654 373.338 183.415 373.156 183.162C372.975 182.909 372.779 182.748 372.57 182.679C372.361 182.611 372.165 182.642 371.982 182.774C371.796 182.907 371.701 183.084 371.699 183.304C371.697 183.524 371.787 183.761 371.969 184.014ZM373.652 182.806C373.809 183.024 373.979 183.164 374.161 183.225C374.347 183.283 374.519 183.256 374.677 183.142C374.843 183.023 374.924 182.866 374.922 182.67C374.92 182.474 374.844 182.271 374.692 182.06C374.541 181.849 374.374 181.713 374.191 181.652C374.009 181.591 373.835 181.619 373.67 181.738C373.511 181.852 373.429 182.004 373.422 182.196C373.422 182.388 373.498 182.591 373.652 182.806ZM373.23 183.109C373.026 182.824 372.887 182.553 372.815 182.296C372.746 182.036 372.743 181.798 372.806 181.582C372.876 181.367 373.012 181.186 373.216 181.04C373.428 180.888 373.649 180.815 373.881 180.819C374.119 180.824 374.355 180.9 374.589 181.047C374.822 181.193 375.036 181.402 375.23 181.673C375.427 181.948 375.558 182.219 375.623 182.487C375.687 182.755 375.684 183.003 375.612 183.23C375.544 183.455 375.405 183.643 375.194 183.795C374.99 183.941 374.773 184.011 374.545 184.005C374.322 183.999 374.098 183.92 373.871 183.768C373.649 183.614 373.435 183.394 373.23 183.109ZM373.11 186.707C373.024 186.587 372.991 186.456 373.012 186.313C373.035 186.168 373.111 186.05 373.237 185.96C373.371 185.864 373.507 185.83 373.645 185.859C373.786 185.885 373.9 185.958 373.986 186.078C374.072 186.197 374.105 186.329 374.084 186.471C374.068 186.611 373.992 186.729 373.859 186.825C373.732 186.916 373.596 186.949 373.451 186.926C373.31 186.899 373.196 186.826 373.11 186.707ZM373.703 187.455L374.163 187.126L376.609 187.593C376.813 187.633 376.981 187.651 377.112 187.648C377.243 187.644 377.351 187.625 377.438 187.589C377.531 187.555 377.61 187.514 377.677 187.466C377.846 187.345 377.934 187.193 377.943 187.011C377.954 186.827 377.879 186.622 377.718 186.397C377.589 186.218 377.44 186.077 377.27 185.975C377.103 185.876 376.917 185.82 376.711 185.808L376.736 185.063C377.033 185.068 377.321 185.154 377.601 185.321C377.887 185.489 378.138 185.725 378.356 186.027C378.548 186.295 378.67 186.558 378.724 186.818C378.783 187.08 378.772 187.32 378.689 187.539C378.609 187.762 378.46 187.951 378.242 188.108C378.122 188.194 377.991 188.264 377.849 188.318C377.71 188.37 377.544 188.398 377.351 188.404C377.157 188.409 376.919 188.386 376.636 188.333L374.533 187.931L374.689 187.603L376.239 189.762L375.658 190.178L373.703 187.455ZM376.92 192.048C376.71 191.756 376.595 191.439 376.573 191.097C376.554 190.759 376.638 190.422 376.823 190.086C377.012 189.748 377.309 189.433 377.714 189.143C378.118 188.853 378.509 188.673 378.887 188.605C379.268 188.534 379.615 188.562 379.93 188.688C380.247 188.817 380.51 189.028 380.72 189.32C380.932 189.616 381.047 189.933 381.066 190.271C381.085 190.609 381 190.948 380.811 191.286C380.628 191.625 380.334 191.94 379.93 192.23C379.525 192.521 379.131 192.7 378.748 192.767C378.37 192.835 378.024 192.806 377.71 192.68C377.395 192.554 377.132 192.343 376.92 192.048ZM377.516 191.62C377.64 191.792 377.793 191.909 377.975 191.97C378.161 192.028 378.376 192.023 378.62 191.955C378.867 191.89 379.138 191.751 379.433 191.539C379.732 191.324 379.95 191.112 380.087 190.902C380.23 190.692 380.302 190.492 380.303 190.299C380.307 190.104 380.247 189.921 380.123 189.748C380.004 189.583 379.851 189.469 379.662 189.407C379.48 189.346 379.266 189.348 379.019 189.413C378.779 189.479 378.509 189.62 378.21 189.834C377.914 190.047 377.695 190.257 377.552 190.466C377.412 190.679 377.339 190.883 377.335 191.078C377.337 191.274 377.398 191.454 377.516 191.62ZM378.302 193.862L378.761 193.532L381.207 193.999C381.412 194.039 381.579 194.057 381.71 194.054C381.841 194.05 381.95 194.031 382.036 193.996C382.129 193.961 382.209 193.92 382.275 193.872C382.444 193.751 382.533 193.599 382.541 193.417C382.553 193.233 382.478 193.028 382.316 192.803C382.187 192.624 382.038 192.483 381.869 192.381C381.702 192.282 381.515 192.226 381.31 192.214L381.334 191.469C381.631 191.474 381.92 191.56 382.199 191.727C382.485 191.895 382.737 192.131 382.954 192.433C383.146 192.701 383.269 192.964 383.322 193.225C383.382 193.486 383.37 193.726 383.288 193.945C383.208 194.168 383.058 194.357 382.84 194.514C382.721 194.6 382.59 194.67 382.447 194.724C382.309 194.776 382.142 194.804 381.949 194.81C381.756 194.815 381.518 194.792 381.235 194.739L379.131 194.338L379.288 194.01L380.837 196.168L380.256 196.585L378.302 193.862ZM381.56 198.512C381.32 198.178 381.185 197.84 381.154 197.5C381.126 197.157 381.202 196.825 381.382 196.504C381.562 196.183 381.851 195.88 382.249 195.595C382.671 195.292 383.082 195.111 383.483 195.053C383.886 194.998 384.26 195.052 384.606 195.214C384.954 195.38 385.256 195.64 385.511 195.996C385.645 196.182 385.753 196.374 385.836 196.57C385.921 196.77 385.966 196.959 385.971 197.137L385.272 197.255C385.265 197.105 385.231 196.961 385.17 196.824C385.115 196.688 385.041 196.554 384.947 196.424C384.697 196.076 384.392 195.877 384.031 195.827C383.67 195.777 383.28 195.902 382.861 196.203C382.794 196.251 382.716 196.309 382.627 196.378C382.542 196.445 382.461 196.522 382.385 196.608L382.465 196.231C382.655 196.191 382.837 196.191 383.01 196.232C383.189 196.274 383.358 196.352 383.516 196.468C383.676 196.588 383.821 196.737 383.949 196.917C384.124 197.159 384.231 197.41 384.273 197.668C384.318 197.924 384.294 198.17 384.203 198.406C384.115 198.64 383.956 198.839 383.728 199.003C383.485 199.177 383.231 199.269 382.966 199.278C382.7 199.287 382.445 199.225 382.2 199.092C381.955 198.959 381.742 198.765 381.56 198.512ZM382.072 198.089C382.173 198.229 382.287 198.337 382.415 198.41C382.546 198.481 382.68 198.513 382.818 198.504C382.958 198.5 383.092 198.452 383.219 198.361C383.412 198.222 383.517 198.045 383.534 197.831C383.55 197.616 383.478 197.396 383.316 197.171C383.21 197.023 383.089 196.913 382.952 196.841C382.821 196.77 382.683 196.735 382.541 196.737C382.4 196.741 382.268 196.788 382.145 196.876C382.033 196.957 381.95 197.062 381.898 197.19C381.846 197.318 381.832 197.458 381.857 197.611C381.884 197.768 381.956 197.927 382.072 198.089Z" fill="#2B6ED4"/>
</g>
<defs>
<linearGradient id="paint0_linear_787_1334" x1="307.743" y1="50.3197" x2="461.206" y2="288.691" gradientUnits="userSpaceOnUse">
<stop stop-color="#2B6ED4"/>
<stop offset="1" stop-color="white"/>
</linearGradient>
<linearGradient id="paint1_linear_787_1334" x1="259.524" y1="199.511" x2="416.645" y2="440.129" gradientUnits="userSpaceOnUse">
<stop stop-color="#2B6ED4"/>
<stop offset="1" stop-color="white"/>
</linearGradient>
<linearGradient id="paint2_linear_787_1334" x1="203.231" y1="333.382" x2="367.77" y2="564.24" gradientUnits="userSpaceOnUse">
<stop stop-color="#2B6ED4"/>
<stop offset="1" stop-color="white"/>
</linearGradient>
<linearGradient id="paint3_linear_787_1334" x1="78.0821" y1="357.525" x2="275.784" y2="624.917" gradientUnits="userSpaceOnUse">
<stop stop-color="#2B6ED4"/>
<stop offset="1" stop-color="white"/>
</linearGradient>
<linearGradient id="paint4_linear_787_1334" x1="14.0505" y1="462.568" x2="82.1329" y2="574.708" gradientUnits="userSpaceOnUse">
<stop stop-color="#2B6ED4"/>
<stop offset="1" stop-color="white"/>
</linearGradient>
<clipPath id="clip0_787_1334">
<rect width="399.99" height="564.502" fill="white"/>
</clipPath>
</defs>
</svg>
