<svg width="400" height="565" viewBox="0 0 400 565" fill="none" xmlns="http://www.w3.org/2000/svg">
<g clip-path="url(#clip0_787_1301)">
<rect width="399.99" height="564.502" fill="white"/>
<path d="M287.909 30.0917L387.276 30.0934L387.276 29.2628L387.276 67.3815L329.48 45.2984L387.276 83.7446L387.276 134.88L131.166 30.0889L225.652 30.0915L317.479 68.4031L287.909 30.0917Z" fill="url(#paint0_linear_787_1301)"/>
<path d="M66.4977 61.4733L59.062 77.7647L343.27 198.985C364.54 207.792 383.165 218.678 387.09 226.552C387.09 235.766 387.09 237.075 387.09 258.782L387.09 271.276L334.999 253.046L337.638 247.266C339.317 243.587 336.827 240.057 329.354 236.962L13.0667 97.5585L13.0667 29.7823L84.1939 29.7819L387.09 153.934L387.09 196.88L66.4977 61.4733Z" fill="url(#paint1_linear_787_1301)"/>
<path d="M260.379 231.264L367.944 276.682C390.969 284.803 386.937 311.063 386.937 349.926C386.937 382.652 386.939 379.44 386.937 379.44C363.956 372.256 336.455 362.263 323.714 356.953L13.3979 229.519C13.3982 222.427 13.399 211.404 13.3982 167.677C13.3977 144.409 40.333 138.162 58.7041 147.754L150.199 185.64L133.408 222.427L29.6715 179.471C22.5839 176.536 18.4028 177.304 16.7238 180.983C15.0447 184.662 17.9512 188.365 25.0388 191.3L363.956 331.641C373.621 335.643 376.678 335.659 378.837 330.929C380.996 326.199 378.898 324.081 367.944 319.545L243.589 268.051L260.379 231.264Z" fill="url(#paint2_linear_787_1301)"/>
<path d="M175.168 426.47L344.539 498.717L346.221 495.031C348.625 489.765 345.966 485.534 338.728 482.536L193.484 420.28C187.211 417.682 183.111 416.611 181.423 416.538C179.494 416.992 177.328 419.225 176.128 423.111L175.407 424.691L175.168 426.47ZM387.09 551.536L12.906 401.303L12.9063 353.516L148.63 415.481L153.196 405.476C160.649 390.404 167.868 380.872 174.857 378.13C182.328 375.589 193.662 377.152 208.62 383.346L353.382 445.403C369.305 451.996 381.604 459.317 384.026 466.581C387.09 475.772 387.09 482.536 387.09 506.091L387.09 551.536ZM387.09 444.405L12.9063 289.019L12.9063 247.478L387.09 401.615L387.09 444.405Z" fill="url(#paint3_linear_787_1301)"/>
<path d="M43.0737 551.227L12.9135 551.227L12.9137 495.162L94.1729 517.864L12.9137 469.707L12.9136 415.206L328.711 551.228L304.779 551.274L248.552 551.274L102.355 491.252L201.779 551.227L122.588 551.227L79.5625 541.19L108.878 551.227L43.0737 551.227Z" fill="url(#paint4_linear_787_1301)"/>
<path d="M163.786 13.0273V18.0966H162.479V16.2106H158.717V18.0966H157.41V13.0273H158.717V14.9134H162.479V13.0273H163.786Z" fill="#2B6ED4"/>
<path d="M166.008 14.3289V14.9085H169.849V16.2149H166.008V16.7945H170.424V18.1009H164.701V13.0225H170.424V14.3289H166.008Z" fill="#2B6ED4"/>
<path d="M177.482 13.0273V18.0966H176.176V14.596L172.79 18.0966H171.346V13.0273H172.652V16.3532L175.872 13.0273H177.482ZM173.701 13.9704L173.126 13.3907L174.289 13.0279L174.878 13.0273L173.701 13.9704Z" fill="#2B6ED4"/>
<path d="M179.701 18.0962H178.395V13.0361H182.295C182.87 13.0361 183.349 13.1649 183.717 13.4179C184.181 13.7353 184.434 14.2367 184.434 14.8394C184.434 15.9572 183.616 16.6426 182.295 16.6426H179.701V18.0962ZM179.701 15.3408H182.295C183.128 15.3408 183.128 15.005 183.128 14.8394C183.128 14.6922 183.128 14.3379 182.295 14.3379H179.701V15.3408Z" fill="#2B6ED4"/>
<path d="M188.307 13.7541C188.307 13.5795 188.307 13.0952 187.721 13.0784C187.457 13.0706 187.31 13.2417 187.18 13.4742C187.055 13.695 186.982 13.6929 186.731 13.6856C186.679 13.684 186.619 13.6823 186.548 13.6823C186.143 13.6823 185.962 14.1831 186.083 14.3286C186.087 14.3345 186.093 14.3407 186.098 14.3472C186.198 14.4663 186.378 14.6798 186.007 14.8754C185.617 15.0816 185.271 15.7721 185.947 16.1698C186.278 16.3484 186.823 16.2834 186.894 16.1698C186.939 16.098 186.984 15.8181 186.804 15.7426C186.618 15.665 186.594 15.4627 186.804 15.4775C187.014 15.4922 187.465 15.4922 187.525 15.2123C187.585 14.9325 187.54 14.8294 187.24 14.6673C187.059 14.5348 187.049 14.0947 187.21 14.0947C187.214 14.0947 187.218 14.0947 187.222 14.0946C187.303 14.0939 187.336 14.0937 187.36 14.4169C187.38 14.6839 188.111 14.6526 188.232 14.4169C188.314 14.255 188.31 14.008 188.308 13.8335C188.307 13.8048 188.307 13.7781 188.307 13.7541Z" stroke="#2B6ED4" stroke-width="0.114377"/>
<path d="M187.445 18.0775C187.702 18.229 188.223 18.2241 188.276 17.7991C188.347 17.2246 188.286 16.6119 188.246 16.3774C188.235 16.3105 188.187 16.3042 188.038 16.3188C187.802 16.3421 187.708 16.2163 187.771 16.1283C187.845 16.0257 188.078 16.1216 188.202 16.0404C188.335 15.9525 188.291 15.288 188.276 14.9558C188.246 14.8093 187.991 14.7008 187.801 14.9118C187.727 14.9943 187.771 15.2929 187.771 15.3955C187.771 15.542 187.644 15.6681 187.371 15.7032C187.029 15.7472 186.985 16.436 187.237 16.6412C187.489 16.8464 187.86 16.949 187.875 17.1542C187.89 17.3594 187.92 17.5352 187.742 17.5206C187.563 17.5059 187.653 17.2275 187.653 17.1688C187.653 17.1102 187.563 17.0467 187.267 16.8757C187.089 16.7731 187.103 16.6705 186.985 16.568C186.88 16.4774 186.302 16.436 186.243 16.6999C186.154 17.0223 186.154 17.4766 186.495 17.6085C186.836 17.7404 187.051 17.6068 187.163 17.6672C187.326 17.7551 187.246 17.9603 187.445 18.0775Z" fill="#2B6ED4" stroke="#2B6ED4" stroke-width="0.0613904"/>
<path d="M188.535 13.7541C188.535 13.5795 188.535 13.0952 189.109 13.0784C189.367 13.0706 189.511 13.2417 189.639 13.4742C189.76 13.695 189.832 13.6929 190.078 13.6856C190.129 13.684 190.188 13.6823 190.257 13.6823C190.654 13.6823 190.831 14.1831 190.713 14.3286C190.708 14.3345 190.703 14.3407 190.698 14.3472C190.599 14.4663 190.424 14.6798 190.786 14.8754C191.169 15.0816 191.507 15.7721 190.845 16.1698C190.522 16.3484 189.988 16.2834 189.918 16.1698C189.874 16.098 189.83 15.8181 190.007 15.7426C190.188 15.665 190.213 15.4627 190.007 15.4775C189.801 15.4922 189.359 15.4922 189.3 15.2123C189.241 14.9325 189.286 14.8294 189.58 14.6673C189.756 14.5348 189.767 14.0947 189.609 14.0947C189.605 14.0947 189.601 14.0947 189.597 14.0946C189.518 14.0939 189.486 14.0937 189.462 14.4169C189.442 14.6839 188.726 14.6526 188.609 14.4169C188.528 14.255 188.532 14.008 188.534 13.8335C188.535 13.8048 188.535 13.7781 188.535 13.7541Z" stroke="#2B6ED4" stroke-width="0.114377"/>
<path d="M189.374 18.0775C189.123 18.229 188.616 18.2241 188.565 17.7991C188.496 17.2246 188.555 16.6119 188.594 16.3774C188.605 16.3105 188.652 16.3042 188.796 16.3188C189.026 16.3421 189.118 16.2163 189.056 16.1283C188.984 16.0257 188.757 16.1216 188.637 16.0404C188.507 15.9525 188.551 15.288 188.565 14.9558C188.594 14.8093 188.842 14.7008 189.027 14.9118C189.099 14.9943 189.056 15.2929 189.056 15.3955C189.056 15.542 189.18 15.6681 189.446 15.7032C189.778 15.7472 189.821 16.436 189.576 16.6412C189.33 16.8464 188.969 16.949 188.955 17.1542C188.94 17.3594 188.912 17.5352 189.085 17.5206C189.258 17.5059 189.172 17.2275 189.172 17.1688C189.172 17.1102 189.258 17.0467 189.547 16.8757C189.72 16.7731 189.706 16.6705 189.821 16.568C189.923 16.4774 190.486 16.436 190.543 16.6999C190.63 17.0223 190.63 17.4766 190.298 17.6085C189.966 17.7404 189.757 17.6068 189.648 17.6672C189.489 17.7551 189.567 17.9603 189.374 18.0775Z" fill="#2B6ED4" stroke="#2B6ED4" stroke-width="0.0613904"/>
<path d="M198.352 13.0273V18.0874H197.055V16.6384H194.548L193.678 18.0966H192.133L193.186 16.3578C192.634 16.0542 192.321 15.5252 192.321 14.8352C192.321 14.2326 192.574 13.7312 193.039 13.4137C193.402 13.1607 193.881 13.0319 194.46 13.0319H198.352V13.0273ZM197.055 15.332V14.3338H194.46C193.628 14.3338 193.628 14.688 193.628 14.8352C193.628 15.0008 193.628 15.3366 194.46 15.3366H197.055V15.332Z" fill="#2B6ED4"/>
<path d="M202.507 18.2232C201.61 18.2232 200.87 18.0254 200.308 17.6436C199.632 17.179 199.273 16.4614 199.273 15.5644C199.273 13.9038 200.483 12.9102 202.507 12.9102C204.103 12.9102 205.235 13.5496 205.612 14.672L204.37 15.086C204.117 14.3224 203.096 14.2074 202.507 14.2074C200.58 14.2074 200.58 15.2286 200.58 15.5644C200.58 16.4614 201.233 16.9214 202.507 16.9214C203.202 16.9214 204.09 16.7834 204.357 16.1072L205.566 16.5856C205.152 17.6436 204.067 18.2232 202.507 18.2232Z" fill="#2B6ED4"/>
<path d="M212.903 13.0273V18.0966H211.597V16.2106H207.834V18.0966H206.527V13.0273H207.834V14.9134H211.597V13.0273H212.903Z" fill="#2B6ED4"/>
<path d="M216.619 13.6467C216.619 13.4648 216.619 12.9602 216.021 12.9426C215.752 12.9345 215.602 13.1128 215.468 13.3551C215.341 13.5852 215.267 13.583 215.01 13.5753C214.957 13.5737 214.895 13.5719 214.823 13.5719C214.409 13.5719 214.225 14.0937 214.348 14.2453C214.353 14.2514 214.358 14.2579 214.364 14.2646C214.466 14.3888 214.649 14.6113 214.271 14.815C213.872 15.0299 213.519 15.7493 214.21 16.1637C214.547 16.3498 215.104 16.2821 215.176 16.1637C215.222 16.0889 215.269 15.7973 215.084 15.7186C214.895 15.6377 214.869 15.427 215.084 15.4424C215.299 15.4577 215.76 15.4577 215.821 15.1661C215.882 14.8745 215.836 14.7671 215.529 14.5982C215.345 14.4601 215.334 14.0016 215.499 14.0016C215.503 14.0016 215.507 14.0016 215.511 14.0015C215.594 14.0008 215.627 14.0005 215.652 14.3373C215.673 14.6155 216.42 14.5829 216.542 14.3373C216.627 14.1686 216.623 13.9113 216.62 13.7294C216.62 13.6996 216.619 13.6717 216.619 13.6467Z" stroke="#2B6ED4" stroke-width="0.114377"/>
<path d="M215.738 18.129C216.004 18.2875 216.543 18.2825 216.597 17.8374C216.671 17.2357 216.607 16.5942 216.566 16.3486C216.555 16.2786 216.505 16.272 216.351 16.2873C216.107 16.3116 216.009 16.1799 216.075 16.0877C216.152 15.9803 216.393 16.0808 216.52 15.9957C216.658 15.9036 216.612 15.2078 216.597 14.8599C216.566 14.7065 216.302 14.5929 216.106 14.8139C216.029 14.9002 216.075 15.2129 216.075 15.3203C216.075 15.4738 215.943 15.6058 215.661 15.6426C215.308 15.6887 215.262 16.41 215.523 16.6249C215.784 16.8398 216.167 16.9472 216.183 17.1621C216.198 17.3769 216.229 17.5611 216.044 17.5457C215.86 17.5304 215.952 17.2388 215.952 17.1774C215.952 17.116 215.86 17.0495 215.553 16.8705C215.369 16.763 215.385 16.6556 215.262 16.5482C215.153 16.4534 214.556 16.41 214.494 16.6863C214.402 17.0239 214.402 17.4997 214.755 17.6378C215.108 17.776 215.33 17.636 215.446 17.6992C215.615 17.7913 215.532 18.0062 215.738 18.129Z" fill="#2B6ED4" stroke="#2B6ED4" stroke-width="0.0613904"/>
<path d="M216.877 13.6057C216.877 13.4237 216.877 12.9192 217.476 12.9016C217.744 12.8935 217.894 13.0718 218.028 13.3141C218.155 13.5442 218.229 13.5419 218.486 13.5343C218.539 13.5327 218.601 13.5309 218.673 13.5309C219.087 13.5309 219.271 14.0527 219.148 14.2042C219.143 14.2104 219.138 14.2169 219.133 14.2236C219.03 14.3478 218.847 14.5702 219.225 14.774C219.624 14.9889 219.977 15.7083 219.287 16.1227C218.949 16.3088 218.392 16.2411 218.32 16.1227C218.274 16.0479 218.228 15.7563 218.412 15.6776C218.601 15.5967 218.627 15.386 218.412 15.4013C218.197 15.4167 217.736 15.4167 217.675 15.1251C217.614 14.8335 217.66 14.7261 217.967 14.5572C218.151 14.4191 218.162 13.9606 217.997 13.9606C217.993 13.9606 217.989 13.9606 217.985 13.9605C217.902 13.9598 217.869 13.9595 217.844 14.2963C217.823 14.5745 217.077 14.5419 216.954 14.2963C216.869 14.1276 216.873 13.8702 216.876 13.6884C216.877 13.6586 216.877 13.6307 216.877 13.6057Z" stroke="#2B6ED4" stroke-width="0.114377"/>
<path d="M217.759 18.0879C217.493 18.2465 216.954 18.2415 216.899 17.7964C216.825 17.1947 216.889 16.5532 216.93 16.3076C216.941 16.2375 216.991 16.2309 217.145 16.2462C217.389 16.2706 217.487 16.1388 217.421 16.0467C217.344 15.9393 217.104 16.0397 216.976 15.9546C216.838 15.8626 216.884 15.1668 216.899 14.8189C216.93 14.6655 217.194 14.5519 217.39 14.7729C217.467 14.8592 217.421 15.1719 217.421 15.2793C217.421 15.4328 217.553 15.5648 217.835 15.6016C218.188 15.6477 218.234 16.369 217.973 16.5839C217.713 16.7987 217.329 16.9062 217.313 17.121C217.298 17.3359 217.267 17.5201 217.452 17.5047C217.636 17.4894 217.544 17.1978 217.544 17.1364C217.544 17.075 217.636 17.0085 217.943 16.8294C218.127 16.722 218.112 16.6146 218.234 16.5071C218.343 16.4124 218.94 16.369 219.002 16.6453C219.094 16.9829 219.094 17.4587 218.741 17.5968C218.388 17.7349 218.166 17.595 218.05 17.6582C217.881 17.7503 217.965 17.9652 217.759 18.0879Z" fill="#2B6ED4" stroke="#2B6ED4" stroke-width="0.0613904"/>
<path d="M223.839 18.2232C222.942 18.2232 222.202 18.0254 221.64 17.6436C220.964 17.179 220.605 16.4614 220.605 15.5644C220.605 13.9038 221.815 12.9102 223.839 12.9102C225.436 12.9102 226.567 13.5496 226.944 14.672L225.702 15.086C225.449 14.3224 224.428 14.2074 223.839 14.2074C221.912 14.2074 221.912 15.2286 221.912 15.5644C221.912 16.4614 222.565 16.9214 223.839 16.9214C224.534 16.9214 225.422 16.7834 225.689 16.1072L226.898 16.5856C226.489 17.6436 225.399 18.2232 223.839 18.2232Z" fill="#2B6ED4"/>
<path d="M234.005 14.3338H231.585V18.0966H230.279V14.3338H227.859V13.0273H234.01V14.3338H234.005Z" fill="#2B6ED4"/>
<path d="M238.817 18.0962H234.916V13.0361H236.222V14.4852H238.817C240.137 14.4852 240.956 15.1752 240.956 16.2884C240.956 16.891 240.703 17.397 240.238 17.7098C239.87 17.9628 239.392 18.0962 238.817 18.0962ZM236.222 16.7898H238.817C239.649 16.7898 239.649 16.4402 239.649 16.2884C239.649 16.1274 239.649 15.787 238.817 15.787H236.222V16.7898Z" fill="#2B6ED4"/>
<path d="M296.82 528.021L298.59 523.832L299.224 524.1L299.77 527.933L299.429 527.789L302.527 525.495L303.162 525.763L301.404 529.957L300.662 529.643L301.938 526.607L302.093 526.672L299.482 528.581L299.135 528.434L298.658 525.222L298.838 525.297L297.557 528.331L296.82 528.021ZM303.846 531.037C303.49 530.887 303.209 530.686 303 530.433C302.798 530.179 302.675 529.896 302.632 529.587C302.593 529.279 302.64 528.967 302.773 528.652C302.908 528.333 303.096 528.081 303.339 527.896C303.587 527.71 303.864 527.599 304.17 527.564C304.48 527.53 304.795 527.581 305.114 527.716C305.426 527.847 305.674 528.032 305.86 528.27C306.046 528.509 306.157 528.781 306.192 529.088C306.227 529.394 306.174 529.715 306.033 530.05C306.019 530.082 306.002 530.117 305.981 530.155C305.964 530.195 305.946 530.232 305.927 530.266L303.264 529.141L303.474 528.645L305.742 529.603L305.383 529.634C305.464 529.453 305.495 529.275 305.474 529.102C305.453 528.928 305.39 528.772 305.284 528.633C305.182 528.496 305.041 528.39 304.862 528.314C304.678 528.237 304.5 528.208 304.326 528.229C304.157 528.252 304.002 528.318 303.862 528.428C303.727 528.535 303.619 528.685 303.538 528.876L303.488 528.996C303.407 529.188 303.379 529.376 303.404 529.56C303.43 529.745 303.506 529.911 303.631 530.058C303.757 530.205 303.924 530.323 304.131 530.41C304.311 530.486 304.484 530.526 304.652 530.531C304.819 530.536 304.983 530.502 305.146 530.43L305.352 531.06C305.138 531.167 304.901 531.22 304.643 531.219C304.391 531.216 304.125 531.155 303.846 531.037ZM307.5 532.581C307.165 532.439 306.895 532.243 306.691 531.992C306.492 531.739 306.372 531.458 306.328 531.148C306.285 530.838 306.33 530.526 306.463 530.211C306.598 529.891 306.791 529.641 307.041 529.46C307.293 529.275 307.578 529.168 307.897 529.138C308.219 529.109 308.548 529.166 308.883 529.307C309.194 529.439 309.44 529.618 309.622 529.845C309.809 530.07 309.913 530.33 309.934 530.626L309.218 530.718C309.186 530.526 309.116 530.365 309.006 530.234C308.901 530.105 308.768 530.006 308.609 529.939C308.425 529.862 308.243 529.832 308.062 529.849C307.88 529.866 307.716 529.933 307.568 530.049C307.422 530.162 307.305 530.322 307.217 530.529C307.13 530.736 307.096 530.934 307.116 531.121C307.137 531.304 307.205 531.466 307.319 531.608C307.432 531.75 307.581 531.86 307.765 531.938C307.924 532.005 308.087 532.032 308.253 532.017C308.423 532.004 308.588 531.942 308.748 531.831L309.181 532.409C308.956 532.596 308.696 532.705 308.401 532.735C308.112 532.764 307.811 532.712 307.5 532.581ZM310.062 533.613L311.22 530.873L311.317 531.125L310.019 530.577L310.287 529.943L313.279 531.206L313.011 531.841L311.718 531.295L311.968 531.188L310.81 533.929L310.062 533.613ZM313.618 535.165C313.291 535.027 313.03 534.834 312.833 534.586C312.639 534.335 312.52 534.054 312.476 533.745C312.433 533.435 312.478 533.122 312.611 532.807C312.746 532.488 312.939 532.238 313.189 532.057C313.441 531.872 313.724 531.764 314.039 531.732C314.353 531.7 314.674 531.753 315.001 531.891C315.332 532.031 315.596 532.225 315.792 532.472C315.993 532.722 316.113 532.998 316.154 533.302C316.199 533.608 316.153 533.922 316.016 534.245C315.883 534.561 315.691 534.811 315.439 534.996C315.191 535.182 314.907 535.293 314.587 535.327C314.272 535.359 313.95 535.305 313.618 535.165ZM313.889 534.524C314.072 534.602 314.253 534.631 314.43 534.612C314.607 534.593 314.768 534.524 314.912 534.406C315.06 534.29 315.177 534.13 315.262 533.927C315.35 533.719 315.383 533.524 315.362 533.341C315.346 533.156 315.283 532.993 315.173 532.853C315.063 532.712 314.919 532.604 314.739 532.528C314.556 532.451 314.375 532.422 314.198 532.441C314.024 532.461 313.864 532.53 313.716 532.646C313.57 532.758 313.453 532.918 313.365 533.126C313.279 533.329 313.246 533.524 313.266 533.711C313.286 533.898 313.349 534.061 313.455 534.2C313.565 534.34 313.709 534.449 313.889 534.524ZM317.134 533.963C316.998 533.905 316.902 533.811 316.845 533.678C316.789 533.542 316.792 533.402 316.853 533.259C316.917 533.107 317.015 533.008 317.148 532.96C317.282 532.909 317.417 532.912 317.553 532.969C317.689 533.027 317.785 533.121 317.842 533.254C317.901 533.382 317.898 533.522 317.834 533.673C317.773 533.817 317.675 533.916 317.539 533.972C317.404 534.023 317.269 534.02 317.134 533.963ZM316.171 536.243C316.035 536.185 315.939 536.091 315.882 535.958C315.826 535.822 315.829 535.682 315.89 535.539C315.954 535.387 316.052 535.288 316.185 535.24C316.319 535.189 316.455 535.192 316.59 535.249C316.726 535.307 316.822 535.401 316.879 535.534C316.938 535.662 316.935 535.802 316.871 535.953C316.81 536.097 316.712 536.196 316.576 536.252C316.441 536.303 316.306 536.3 316.171 536.243ZM294.097 534.469L295.866 530.28L299.57 531.845L297.801 536.034L297.035 535.71L298.607 531.988L298.706 532.255L296.175 531.186L296.435 531.07L294.863 534.793L294.097 534.469ZM300.533 537.237C300.273 537.127 300.061 536.967 299.896 536.756C299.735 536.547 299.642 536.296 299.615 536.003C299.594 535.707 299.662 535.374 299.819 535.003C299.977 534.628 300.167 534.346 300.388 534.157C300.612 533.97 300.855 533.863 301.115 533.837C301.377 533.806 301.644 533.849 301.915 533.963C302.23 534.096 302.479 534.281 302.661 534.518C302.847 534.756 302.958 535.027 302.995 535.329C303.036 535.633 302.987 535.951 302.847 536.282C302.707 536.613 302.513 536.872 302.265 537.059C302.022 537.243 301.751 537.352 301.45 537.384C301.154 537.419 300.848 537.37 300.533 537.237ZM298.289 537.607L300.129 533.251L300.841 533.552L300.522 534.306L300.139 535.145L299.84 536.02L299.037 537.923L298.289 537.607ZM300.719 536.561C300.899 536.637 301.075 536.664 301.248 536.643C301.426 536.624 301.588 536.557 301.736 536.44C301.884 536.324 302.001 536.164 302.087 535.961C302.174 535.753 302.207 535.558 302.186 535.375C302.166 535.188 302.101 535.024 301.992 534.884C301.886 534.745 301.743 534.638 301.563 534.562C301.384 534.486 301.205 534.458 301.028 534.477C300.851 534.496 300.688 534.564 300.54 534.68C300.394 534.792 300.277 534.952 300.19 535.16C300.104 535.363 300.071 535.558 300.09 535.745C300.11 535.932 300.175 536.096 300.285 536.236C300.395 536.377 300.54 536.485 300.719 536.561ZM302.954 538.259C302.818 538.202 302.722 538.107 302.665 537.975C302.61 537.839 302.612 537.699 302.673 537.555C302.737 537.404 302.835 537.304 302.968 537.257C303.103 537.206 303.238 537.209 303.373 537.266C303.509 537.323 303.605 537.418 303.662 537.55C303.721 537.678 303.718 537.818 303.654 537.97C303.594 538.113 303.495 538.213 303.359 538.268C303.225 538.319 303.089 538.316 302.954 538.259ZM304.201 538.807C304.133 538.778 304.067 538.744 304.005 538.703C303.942 538.662 303.874 538.617 303.801 538.568L304.14 537.914C304.19 537.954 304.246 537.987 304.31 538.014C304.477 538.085 304.64 538.073 304.797 537.98C304.955 537.882 305.113 537.709 305.27 537.46C305.427 537.212 305.596 536.895 305.777 536.511L306.57 534.801L309.651 536.102L307.882 540.291L307.116 539.968L308.688 536.246L308.787 536.513L306.794 535.671L307.045 535.545L306.478 536.772C306.29 537.182 306.108 537.535 305.931 537.831C305.754 538.128 305.574 538.365 305.392 538.541C305.215 538.716 305.029 538.828 304.834 538.877C304.639 538.926 304.428 538.903 304.201 538.807ZM308.636 542.027C308.481 541.962 308.336 541.87 308.202 541.752C308.069 541.635 307.969 541.508 307.904 541.373L308.436 540.948C308.483 541.048 308.546 541.138 308.625 541.219C308.704 541.299 308.794 541.36 308.893 541.402C309.029 541.46 309.153 541.472 309.265 541.44C309.378 541.407 309.504 541.326 309.643 541.197L310.005 540.857L310.103 540.792L312.505 538.478L313.223 538.781L310.268 541.602C310.068 541.8 309.876 541.942 309.693 542.029C309.515 542.119 309.338 542.159 309.162 542.151C308.991 542.144 308.816 542.103 308.636 542.027ZM309.755 541.216L309.71 537.298L310.488 537.626L310.496 540.88L309.755 541.216ZM314.565 543.114L314.057 541.094L314.827 540.975L315.445 543.485L314.565 543.114ZM312.273 542.146L313.623 538.95L314.371 539.266L313.021 542.462L312.273 542.146ZM313.341 541.088L313.603 540.465L314.687 540.923L314.424 541.545L313.341 541.088ZM314.729 541.406L314.064 541.027L315.915 539.918L316.717 540.257L314.729 541.406ZM317.733 544.452L318.006 543.806L318.022 543.65L318.5 542.519C318.593 542.3 318.598 542.103 318.517 541.927C318.438 541.748 318.265 541.602 317.997 541.489C317.818 541.413 317.628 541.366 317.429 541.348C317.234 541.331 317.056 541.348 316.894 541.397L316.831 540.728C317.058 540.669 317.303 540.657 317.565 540.693C317.833 540.726 318.095 540.797 318.35 540.905C318.813 541.1 319.123 541.363 319.28 541.692C319.442 542.019 319.426 542.414 319.23 542.877L318.439 544.75L317.733 544.452ZM316.71 544.069C316.471 543.968 316.278 543.84 316.132 543.684C315.988 543.525 315.896 543.352 315.857 543.166C315.824 542.978 315.846 542.792 315.924 542.609C315.999 542.429 316.11 542.285 316.254 542.177C316.402 542.071 316.592 542.017 316.823 542.016C317.054 542.014 317.331 542.082 317.654 542.218L318.581 542.61L318.372 543.107L317.498 542.738C317.243 542.63 317.053 542.599 316.93 542.646C316.809 542.689 316.723 542.77 316.672 542.89C316.615 543.025 316.623 543.156 316.697 543.281C316.771 543.406 316.904 543.51 317.096 543.59C317.279 543.668 317.46 543.695 317.639 543.672C317.822 543.651 317.98 543.572 318.113 543.435L318.049 543.937C317.898 544.094 317.707 544.185 317.476 544.209C317.249 544.236 316.993 544.189 316.71 544.069ZM320.682 545.747C320.347 545.605 320.077 545.409 319.872 545.158C319.674 544.905 319.553 544.624 319.51 544.314C319.467 544.004 319.512 543.692 319.645 543.377C319.78 543.057 319.972 542.807 320.223 542.626C320.475 542.441 320.76 542.334 321.078 542.304C321.4 542.275 321.729 542.332 322.064 542.473C322.375 542.605 322.622 542.784 322.803 543.011C322.99 543.236 323.094 543.496 323.115 543.792L322.399 543.884C322.367 543.692 322.297 543.531 322.188 543.4C322.082 543.271 321.95 543.173 321.79 543.105C321.607 543.028 321.424 542.998 321.243 543.015C321.062 543.032 320.897 543.099 320.749 543.216C320.603 543.328 320.486 543.488 320.399 543.695C320.311 543.902 320.277 544.1 320.297 544.287C320.318 544.47 320.386 544.632 320.5 544.774C320.614 544.917 320.763 545.026 320.946 545.104C321.106 545.171 321.268 545.198 321.434 545.183C321.604 545.17 321.769 545.108 321.929 544.997L322.362 545.575C322.137 545.762 321.877 545.871 321.582 545.901C321.293 545.93 320.993 545.878 320.682 545.747ZM324.542 547.328L324.815 546.681L324.831 546.526L325.308 545.395C325.401 545.176 325.407 544.978 325.326 544.803C325.246 544.624 325.073 544.478 324.806 544.365C324.626 544.289 324.437 544.242 324.238 544.223C324.043 544.207 323.864 544.223 323.702 544.272L323.639 543.604C323.866 543.545 324.111 543.533 324.373 543.568C324.641 543.602 324.903 543.672 325.158 543.78C325.621 543.976 325.931 544.238 326.088 544.568C326.251 544.895 326.234 545.29 326.039 545.753L325.248 547.626L324.542 547.328ZM323.518 546.945C323.279 546.844 323.087 546.715 322.941 546.56C322.797 546.4 322.705 546.228 322.666 546.042C322.632 545.854 322.655 545.668 322.732 545.484C322.808 545.305 322.918 545.161 323.062 545.053C323.211 544.946 323.401 544.892 323.631 544.891C323.862 544.89 324.139 544.958 324.462 545.094L325.39 545.486L325.18 545.982L324.306 545.613C324.051 545.506 323.862 545.475 323.739 545.522C323.617 545.564 323.531 545.646 323.481 545.765C323.423 545.901 323.432 546.031 323.506 546.157C323.58 546.282 323.713 546.385 323.904 546.466C324.088 546.544 324.269 546.571 324.448 546.548C324.631 546.526 324.789 546.447 324.922 546.311L324.858 546.812C324.707 546.97 324.516 547.06 324.284 547.085C324.057 547.111 323.802 547.064 323.518 546.945ZM327.295 548.49L327.514 547.97L329.845 547.093C330.041 547.02 330.193 546.948 330.303 546.877C330.413 546.806 330.496 546.733 330.551 546.657C330.612 546.58 330.659 546.503 330.691 546.427C330.771 546.236 330.768 546.06 330.68 545.901C330.594 545.737 330.423 545.602 330.168 545.494C329.964 545.408 329.764 545.366 329.566 545.367C329.372 545.369 329.184 545.419 329.002 545.516L328.634 544.867C328.891 544.717 329.182 544.64 329.507 544.637C329.839 544.631 330.176 544.701 330.519 544.846C330.823 544.974 331.065 545.135 331.246 545.329C331.433 545.521 331.548 545.732 331.592 545.962C331.64 546.193 331.612 546.433 331.507 546.68C331.45 546.816 331.375 546.944 331.282 547.065C331.19 547.181 331.063 547.292 330.901 547.397C330.739 547.503 330.524 547.607 330.255 547.71L328.251 548.464L328.213 548.103L330.66 549.136L330.382 549.795L327.295 548.49Z" fill="#2B6ED4"/>
<path d="M358.416 132.543L357.623 132.078C357.772 132.148 357.918 132.147 358.06 132.074C358.206 132.003 358.348 131.879 358.486 131.701C358.624 131.524 358.762 131.306 358.9 131.049C359.04 130.788 359.18 130.502 359.322 130.19L359.916 128.875L363.001 130.137L361.426 133.985L360.656 133.67L361.96 130.484L360.313 129.81L359.978 130.543C359.851 130.819 359.724 131.078 359.597 131.32C359.475 131.561 359.348 131.773 359.216 131.958C359.089 132.144 358.957 132.289 358.821 132.393C358.685 132.496 358.55 132.546 358.416 132.543ZM356.842 133.576L357.485 132.021L362.156 133.933L361.519 135.49L360.797 135.195L361.164 134.299L357.936 132.978L357.569 133.874L356.842 133.576ZM364.365 135.609L364.631 134.96L364.645 134.804L365.11 133.668C365.2 133.448 365.204 133.25 365.121 133.076C365.04 132.897 364.865 132.753 364.596 132.643C364.416 132.57 364.226 132.525 364.026 132.509C363.831 132.494 363.653 132.512 363.492 132.563L363.421 131.896C363.647 131.834 363.892 131.819 364.155 131.852C364.423 131.882 364.686 131.95 364.942 132.055C365.407 132.245 365.72 132.504 365.88 132.832C366.047 133.158 366.035 133.553 365.845 134.018L365.074 135.899L364.365 135.609ZM363.338 135.238C363.097 135.139 362.903 135.013 362.756 134.859C362.61 134.701 362.516 134.53 362.475 134.344C362.44 134.157 362.46 133.971 362.535 133.786C362.609 133.606 362.717 133.461 362.861 133.351C363.008 133.243 363.197 133.187 363.428 133.183C363.658 133.179 363.936 133.244 364.261 133.377L365.193 133.758L364.989 134.257L364.111 133.898C363.854 133.793 363.665 133.764 363.542 133.812C363.421 133.856 363.336 133.939 363.287 134.059C363.231 134.195 363.241 134.325 363.316 134.45C363.392 134.574 363.526 134.676 363.718 134.755C363.902 134.83 364.084 134.855 364.263 134.83C364.445 134.807 364.602 134.726 364.734 134.588L364.675 135.09C364.526 135.249 364.336 135.342 364.105 135.369C363.878 135.398 363.622 135.354 363.338 135.238ZM366.551 136.504L367.678 133.75L367.779 134.002L366.474 133.468L366.735 132.831L369.741 134.061L369.48 134.698L368.182 134.167L368.43 134.058L367.303 136.811L366.551 136.504ZM370.8 138.243L371.066 137.593L371.08 137.438L371.545 136.302C371.636 136.081 371.639 135.884 371.556 135.709C371.475 135.531 371.3 135.387 371.031 135.277C370.851 135.203 370.661 135.158 370.462 135.142C370.266 135.128 370.088 135.146 369.927 135.197L369.856 134.529C370.083 134.468 370.327 134.453 370.59 134.486C370.858 134.516 371.121 134.584 371.377 134.689C371.842 134.879 372.155 135.138 372.316 135.466C372.482 135.791 372.47 136.186 372.28 136.651L371.509 138.533L370.8 138.243ZM369.773 137.871C369.532 137.773 369.338 137.647 369.191 137.493C369.045 137.335 368.951 137.163 368.91 136.978C368.875 136.79 368.895 136.604 368.97 136.42C369.044 136.239 369.152 136.094 369.296 135.985C369.443 135.876 369.632 135.82 369.863 135.817C370.094 135.813 370.371 135.877 370.696 136.01L371.628 136.391L371.424 136.89L370.546 136.531C370.289 136.426 370.1 136.398 369.977 136.446C369.856 136.49 369.771 136.572 369.722 136.692C369.666 136.829 369.676 136.959 369.751 137.083C369.827 137.208 369.961 137.31 370.153 137.388C370.337 137.464 370.519 137.489 370.698 137.464C370.88 137.44 371.037 137.359 371.169 137.221L371.111 137.724C370.961 137.883 370.771 137.976 370.54 138.003C370.313 138.032 370.057 137.988 369.773 137.871ZM373.468 136.709C373.332 136.654 373.234 136.56 373.176 136.428C373.119 136.293 373.12 136.153 373.179 136.009C373.241 135.856 373.339 135.756 373.471 135.707C373.605 135.654 373.74 135.656 373.876 135.711C374.013 135.767 374.11 135.861 374.168 135.992C374.228 136.12 374.227 136.26 374.165 136.412C374.106 136.556 374.009 136.657 373.873 136.714C373.739 136.767 373.604 136.765 373.468 136.709ZM372.53 139C372.394 138.944 372.297 138.851 372.238 138.719C372.181 138.583 372.183 138.443 372.242 138.299C372.304 138.147 372.401 138.046 372.534 137.997C372.667 137.945 372.803 137.946 372.939 138.002C373.075 138.058 373.172 138.151 373.231 138.283C373.291 138.41 373.29 138.55 373.228 138.703C373.169 138.847 373.071 138.948 372.936 139.004C372.802 139.057 372.667 139.056 372.53 139ZM356.468 140.011C356.135 139.875 355.869 139.668 355.67 139.389C355.474 139.113 355.366 138.783 355.345 138.4C355.325 138.013 355.41 137.589 355.598 137.128C355.787 136.667 356.023 136.308 356.307 136.049C356.592 135.787 356.901 135.626 357.234 135.566C357.572 135.507 357.907 135.546 358.24 135.682C358.576 135.82 358.842 136.027 359.038 136.304C359.234 136.581 359.341 136.912 359.361 137.299C359.386 137.684 359.304 138.107 359.115 138.568C358.927 139.029 358.688 139.389 358.399 139.65C358.115 139.908 357.807 140.068 357.473 140.128C357.14 140.188 356.805 140.149 356.468 140.011ZM356.746 139.332C356.943 139.412 357.134 139.43 357.321 139.385C357.51 139.335 357.689 139.217 357.86 139.029C358.034 138.843 358.19 138.582 358.328 138.245C358.467 137.905 358.539 137.609 358.544 137.358C358.554 137.105 358.508 136.896 358.406 136.733C358.306 136.566 358.158 136.442 357.962 136.362C357.773 136.285 357.583 136.27 357.39 136.317C357.203 136.363 357.023 136.478 356.848 136.664C356.679 136.848 356.525 137.11 356.386 137.451C356.248 137.787 356.174 138.082 356.164 138.335C356.158 138.59 356.205 138.801 356.305 138.969C356.411 139.134 356.558 139.255 356.746 139.332ZM359.33 141.112L360.929 137.204L361.126 137.699L359.894 137.195L360.162 136.539L361.834 137.223L360.111 141.432L359.33 141.112ZM361.278 141.958C361.141 141.902 361.044 141.809 360.985 141.677C360.929 141.542 360.93 141.402 360.989 141.257C361.051 141.105 361.148 141.005 361.281 140.956C361.415 140.903 361.55 140.904 361.686 140.96C361.822 141.016 361.92 141.11 361.978 141.241C362.038 141.369 362.037 141.509 361.975 141.661C361.916 141.805 361.818 141.906 361.683 141.963C361.549 142.015 361.414 142.014 361.278 141.958ZM363.834 143.025C363.501 142.889 363.235 142.682 363.035 142.404C362.84 142.127 362.731 141.798 362.71 141.415C362.691 141.028 362.775 140.604 362.964 140.143C363.153 139.682 363.389 139.322 363.672 139.064C363.958 138.801 364.267 138.64 364.6 138.58C364.938 138.522 365.273 138.561 365.605 138.697C365.942 138.835 366.208 139.042 366.404 139.318C366.6 139.595 366.707 139.927 366.727 140.314C366.752 140.698 366.67 141.121 366.481 141.582C366.293 142.043 366.054 142.404 365.764 142.664C365.481 142.923 365.172 143.082 364.839 143.142C364.506 143.202 364.171 143.163 363.834 143.025ZM364.112 142.346C364.308 142.426 364.5 142.444 364.687 142.399C364.875 142.35 365.055 142.231 365.225 142.044C365.4 141.858 365.556 141.596 365.694 141.26C365.833 140.919 365.905 140.623 365.909 140.372C365.919 140.119 365.874 139.911 365.772 139.748C365.672 139.58 365.524 139.456 365.327 139.376C365.139 139.299 364.949 139.284 364.756 139.332C364.569 139.377 364.388 139.493 364.214 139.679C364.045 139.862 363.891 140.124 363.752 140.465C363.614 140.802 363.54 141.097 363.53 141.35C363.524 141.605 363.571 141.816 363.671 141.983C363.777 142.148 363.924 142.269 364.112 142.346ZM367.693 144.605C367.344 144.462 367.063 144.286 366.849 144.077C366.635 143.868 366.497 143.64 366.433 143.394C366.372 143.145 366.393 142.891 366.498 142.635C366.603 142.378 366.76 142.19 366.969 142.069C367.177 141.949 367.428 141.895 367.723 141.908C368.017 141.92 368.342 142 368.699 142.146C369.056 142.292 369.344 142.463 369.562 142.66C369.785 142.859 369.928 143.077 369.99 143.313C370.058 143.547 370.041 143.79 369.937 144.042C369.832 144.299 369.668 144.494 369.445 144.627C369.228 144.758 368.968 144.822 368.665 144.82C368.365 144.819 368.041 144.747 367.693 144.605ZM367.944 143.991C368.232 144.11 368.485 144.143 368.703 144.092C368.92 144.04 369.073 143.908 369.16 143.696C369.245 143.488 369.228 143.289 369.109 143.1C368.99 142.91 368.786 142.757 368.497 142.639C368.209 142.521 367.958 142.488 367.744 142.541C367.531 142.594 367.381 142.725 367.296 142.933C367.209 143.146 367.223 143.346 367.338 143.533C367.453 143.721 367.655 143.873 367.944 143.991ZM368.729 142.074C368.977 142.175 369.195 142.204 369.382 142.158C369.57 142.109 369.702 141.994 369.775 141.814C369.852 141.626 369.838 141.449 369.733 141.284C369.627 141.119 369.454 140.988 369.213 140.889C368.973 140.791 368.759 140.764 368.572 140.809C368.385 140.854 368.253 140.971 368.176 141.16C368.102 141.34 368.113 141.513 368.209 141.679C368.311 141.842 368.484 141.974 368.729 142.074ZM368.532 142.555C368.207 142.422 367.946 142.266 367.748 142.086C367.551 141.903 367.423 141.703 367.362 141.486C367.306 141.267 367.326 141.041 367.421 140.809C367.52 140.568 367.668 140.388 367.867 140.268C368.072 140.146 368.312 140.085 368.588 140.086C368.863 140.086 369.156 140.15 369.464 140.276C369.777 140.404 370.032 140.564 370.229 140.757C370.426 140.95 370.555 141.162 370.615 141.393C370.676 141.619 370.658 141.853 370.56 142.093C370.465 142.325 370.318 142.5 370.121 142.615C369.93 142.729 369.698 142.781 369.425 142.773C369.154 142.76 368.856 142.687 368.532 142.555ZM370.34 145.667C370.204 145.611 370.106 145.518 370.048 145.386C369.991 145.251 369.992 145.111 370.051 144.966C370.114 144.814 370.211 144.713 370.343 144.665C370.477 144.612 370.612 144.613 370.749 144.669C370.885 144.725 370.982 144.818 371.041 144.95C371.101 145.078 371.1 145.218 371.037 145.37C370.978 145.514 370.881 145.615 370.745 145.672C370.611 145.724 370.476 145.723 370.34 145.667ZM371.241 145.986L371.455 145.463L373.776 144.56C373.97 144.485 374.122 144.412 374.231 144.339C374.34 144.267 374.422 144.193 374.476 144.117C374.536 144.039 374.582 143.961 374.613 143.885C374.692 143.693 374.687 143.518 374.597 143.359C374.509 143.197 374.337 143.063 374.08 142.958C373.876 142.875 373.675 142.834 373.477 142.838C373.283 142.842 373.096 142.894 372.915 142.994L372.54 142.349C372.794 142.196 373.084 142.115 373.41 142.108C373.742 142.099 374.08 142.165 374.424 142.306C374.729 142.431 374.973 142.589 375.156 142.781C375.346 142.971 375.463 143.18 375.51 143.41C375.56 143.641 375.535 143.881 375.433 144.129C375.377 144.266 375.303 144.395 375.211 144.516C375.121 144.634 374.996 144.746 374.835 144.853C374.674 144.961 374.46 145.067 374.192 145.173L372.196 145.949L372.155 145.588L374.613 146.595L374.343 147.256L371.241 145.986ZM376.405 148.17C376.072 148.034 375.806 147.827 375.606 147.548C375.41 147.272 375.302 146.942 375.281 146.559C375.262 146.172 375.346 145.748 375.535 145.287C375.723 144.826 375.96 144.467 376.243 144.208C376.528 143.946 376.838 143.785 377.171 143.725C377.508 143.666 377.843 143.705 378.176 143.841C378.513 143.979 378.779 144.186 378.975 144.463C379.17 144.739 379.278 145.071 379.297 145.458C379.322 145.843 379.241 146.266 379.052 146.727C378.863 147.187 378.624 147.548 378.335 147.809C378.052 148.067 377.743 148.226 377.41 148.287C377.076 148.347 376.741 148.308 376.405 148.17ZM376.683 147.491C376.879 147.571 377.071 147.589 377.258 147.543C377.446 147.494 377.626 147.376 377.796 147.188C377.97 147.002 378.127 146.741 378.264 146.404C378.404 146.064 378.476 145.768 378.48 145.517C378.49 145.264 378.444 145.055 378.343 144.892C378.243 144.725 378.094 144.601 377.898 144.521C377.71 144.444 377.519 144.429 377.327 144.476C377.14 144.521 376.959 144.637 376.785 144.823C376.616 145.007 376.462 145.269 376.322 145.61C376.185 145.946 376.111 146.241 376.101 146.494C376.095 146.749 376.142 146.96 376.242 147.128C376.347 147.293 376.494 147.414 376.683 147.491ZM378.539 148.973L378.753 148.45L381.074 147.547C381.268 147.472 381.42 147.398 381.529 147.326C381.638 147.254 381.72 147.18 381.774 147.104C381.835 147.025 381.88 146.948 381.911 146.872C381.99 146.68 381.985 146.504 381.895 146.346C381.807 146.184 381.635 146.05 381.378 145.945C381.174 145.861 380.973 145.821 380.775 145.824C380.581 145.829 380.394 145.881 380.213 145.98L379.838 145.336C380.092 145.182 380.383 145.102 380.708 145.095C381.04 145.086 381.378 145.152 381.723 145.293C382.027 145.417 382.271 145.576 382.455 145.768C382.644 145.957 382.761 146.167 382.808 146.397C382.858 146.628 382.833 146.868 382.731 147.116C382.675 147.252 382.601 147.381 382.51 147.503C382.419 147.62 382.294 147.733 382.133 147.84C381.972 147.947 381.758 148.054 381.49 148.159L379.494 148.936L379.453 148.575L381.912 149.581L381.641 150.243L378.539 148.973ZM383.769 151.184C383.388 151.028 383.094 150.814 382.887 150.542C382.682 150.266 382.57 149.945 382.552 149.577C382.534 149.209 382.618 148.799 382.803 148.346C383 147.865 383.253 147.494 383.561 147.231C383.874 146.971 384.22 146.818 384.599 146.772C384.982 146.727 385.376 146.788 385.781 146.954C385.993 147.04 386.187 147.145 386.361 147.268C386.539 147.393 386.678 147.529 386.776 147.677L386.247 148.148C386.162 148.024 386.057 147.92 385.932 147.837C385.813 147.75 385.679 147.677 385.531 147.616C385.134 147.454 384.769 147.447 384.437 147.597C384.104 147.746 383.84 148.059 383.645 148.536C383.614 148.612 383.579 148.703 383.54 148.809C383.503 148.911 383.476 149.019 383.457 149.133L383.325 148.77C383.464 148.635 383.618 148.539 383.787 148.482C383.961 148.422 384.146 148.399 384.341 148.414C384.54 148.43 384.742 148.48 384.947 148.563C385.223 148.677 385.447 148.832 385.62 149.028C385.793 149.221 385.904 149.442 385.952 149.691C386.002 149.936 385.973 150.188 385.866 150.449C385.753 150.725 385.587 150.938 385.367 151.087C385.147 151.235 384.898 151.318 384.619 151.335C384.341 151.352 384.057 151.302 383.769 151.184ZM383.978 150.553C384.138 150.619 384.292 150.649 384.439 150.644C384.588 150.635 384.719 150.59 384.831 150.509C384.947 150.431 385.035 150.319 385.094 150.175C385.184 149.955 385.18 149.749 385.08 149.558C384.98 149.368 384.802 149.22 384.545 149.115C384.377 149.046 384.216 149.018 384.061 149.029C383.912 149.038 383.778 149.082 383.657 149.159C383.541 149.237 383.454 149.347 383.396 149.487C383.344 149.615 383.33 149.748 383.353 149.884C383.377 150.02 383.44 150.146 383.542 150.263C383.648 150.381 383.793 150.478 383.978 150.553Z" fill="#2B6ED4"/>
<path d="M13.0696 350.373L14.6236 346.643L14.7295 346.913L13.1585 346.258L13.4333 345.598L16.9832 347.077L16.7084 347.737L15.1373 347.082L15.3971 346.966L13.8432 350.695L13.0696 350.373ZM17.3841 352.22C17.1243 352.112 16.9114 351.953 16.7455 351.743C16.5836 351.534 16.4886 351.284 16.4607 350.991C16.4383 350.695 16.5046 350.361 16.6595 349.99C16.8161 349.614 17.0043 349.331 17.2241 349.141C17.448 348.953 17.69 348.845 17.9502 348.817C18.212 348.786 18.4789 348.827 18.7507 348.94C19.0665 349.071 19.316 349.255 19.4993 349.491C19.6865 349.728 19.7993 349.998 19.8376 350.3C19.8799 350.604 19.832 350.922 19.6937 351.254C19.5555 351.586 19.3628 351.846 19.1156 352.033C18.8741 352.219 18.6031 352.329 18.3026 352.363C18.0061 352.399 17.6999 352.351 17.3841 352.22ZM15.142 352.602L16.9608 348.236L17.6743 348.534L17.3596 349.289L16.9808 350.131L16.686 351.007L15.8916 352.914L15.142 352.602ZM17.5675 351.543C17.7474 351.618 17.924 351.645 18.0972 351.623C18.2744 351.603 18.4366 351.535 18.5839 351.418C18.7311 351.301 18.8472 351.14 18.9322 350.937C19.0188 350.729 19.0509 350.533 19.0286 350.35C19.0079 350.164 18.9423 350 18.8317 349.86C18.7251 349.722 18.5818 349.615 18.4019 349.54C18.222 349.465 18.0435 349.438 17.8663 349.458C17.689 349.478 17.5268 349.546 17.3796 349.663C17.234 349.776 17.1179 349.937 17.0313 350.145C16.9463 350.348 16.9142 350.544 16.9349 350.731C16.9555 350.918 17.0212 351.081 17.1318 351.221C17.2424 351.361 17.3876 351.468 17.5675 351.543ZM21.1284 353.78C20.7726 353.632 20.4899 353.432 20.2804 353.18C20.0765 352.926 19.9522 352.645 19.9076 352.335C19.8669 352.027 19.9124 351.716 20.0439 351.4C20.1772 351.08 20.3646 350.827 20.6061 350.642C20.8533 350.454 21.1299 350.342 21.4361 350.305C21.7462 350.27 22.0612 350.319 22.381 350.452C22.6928 350.582 22.9423 350.766 23.1296 351.003C23.3168 351.241 23.4287 351.513 23.4654 351.819C23.5021 352.125 23.4504 352.446 23.3105 352.782C23.2972 352.814 23.2802 352.849 23.2596 352.887C23.2429 352.927 23.2251 352.964 23.2061 352.999L20.5377 351.887L20.745 351.389L23.0177 352.336L22.6589 352.37C22.7395 352.187 22.769 352.01 22.7473 351.836C22.7257 351.663 22.6615 351.507 22.5549 351.369C22.4523 351.233 22.3111 351.127 22.1312 351.052C21.9473 350.975 21.7687 350.948 21.5955 350.969C21.4263 350.993 21.2717 351.06 21.1318 351.17C20.9975 351.279 20.8904 351.429 20.8105 351.621L20.7605 351.741C20.6806 351.932 20.6538 352.121 20.6801 352.305C20.7064 352.49 20.7829 352.655 20.9095 352.802C21.0361 352.948 21.2033 353.065 21.4112 353.152C21.5911 353.227 21.7646 353.266 21.9319 353.27C22.0991 353.274 22.2637 353.239 22.4256 353.166L22.635 353.795C22.4211 353.903 22.1851 353.957 21.9269 353.958C21.6744 353.956 21.4082 353.896 21.1284 353.78ZM23.3509 354.657L24.685 351.454L25.4345 351.767L24.8924 353.068L26.5054 353.74L27.0476 352.439L27.7971 352.751L26.463 355.953L25.7135 355.641L26.2406 354.376L24.6276 353.704L24.1004 354.969L23.3509 354.657ZM27.3477 356.322L28.6818 353.12L29.4313 353.432L28.5519 355.543L31.2003 354.169L31.8839 354.454L30.5498 357.656L29.8002 357.343L30.6796 355.233L28.0373 356.609L27.3477 356.322ZM31.4381 358.026L32.7722 354.824L33.5218 355.136L32.9797 356.437L34.5927 357.109L35.1349 355.808L35.8844 356.12L34.5503 359.323L33.8008 359.01L34.3279 357.745L32.7148 357.073L32.1877 358.338L31.4381 358.026ZM35.4349 359.691L36.769 356.489L39.2276 357.513L38.9628 358.149L37.0799 357.364L37.3237 357.269L36.1845 360.003L35.4349 359.691Z" fill="#2B6ED4"/>
</g>
<defs>
<linearGradient id="paint0_linear_787_1301" x1="305.974" y1="30.3132" x2="404.092" y2="163.268" gradientUnits="userSpaceOnUse">
<stop stop-color="#2B6ED4"/>
<stop offset="1" stop-color="white"/>
</linearGradient>
<linearGradient id="paint1_linear_787_1301" x1="231.61" y1="124.828" x2="-37.2258" y2="93.917" gradientUnits="userSpaceOnUse">
<stop stop-color="#2B6ED4"/>
<stop offset="1" stop-color="white"/>
</linearGradient>
<linearGradient id="paint2_linear_787_1301" x1="153.236" y1="224.988" x2="384.667" y2="460.129" gradientUnits="userSpaceOnUse">
<stop stop-color="#2B6ED4"/>
<stop offset="1" stop-color="white"/>
</linearGradient>
<linearGradient id="paint3_linear_787_1301" x1="219.514" y1="430.465" x2="-15.254" y2="409.632" gradientUnits="userSpaceOnUse">
<stop stop-color="#2B6ED4"/>
<stop offset="1" stop-color="white"/>
</linearGradient>
<linearGradient id="paint4_linear_787_1301" x1="171.821" y1="481.007" x2="211.34" y2="595.509" gradientUnits="userSpaceOnUse">
<stop stop-color="#2B6ED4"/>
<stop offset="1" stop-color="white"/>
</linearGradient>
<clipPath id="clip0_787_1301">
<rect width="399.99" height="564.502" fill="white"/>
</clipPath>
</defs>
</svg>
