<svg width="400" height="565" viewBox="0 0 400 565" fill="none" xmlns="http://www.w3.org/2000/svg">
<g clip-path="url(#clip0_787_1267)">
<rect width="399.99" height="564.502" fill="white"/>
<path d="M357.967 283.549V519.679H360.202C364.352 519.679 364.99 517.278 364.99 501.269V305.161C364.99 283.549 364.671 282.749 360.84 282.749H359.244C358.925 282.749 358.286 282.749 357.967 283.549ZM360.84 562.102H335.621V28.209H357.967V239.525H364.032C382.867 239.525 387.017 252.332 387.017 302.76V498.067C387.017 551.697 382.228 562.102 360.84 562.102Z" fill="url(#paint0_linear_787_1267)"/>
<path d="M302.829 562.102V71.4328H292.613V28.209H334.751V71.4328H324.536V562.102H302.829Z" fill="url(#paint1_linear_787_1267)"/>
<path d="M293.148 348.382V501.266C293.148 551.694 287.402 564.501 266.653 564.501C253.883 564.501 248.137 560.499 244.307 545.29C241.753 534.084 241.434 526.08 241.434 475.652V100.246C241.434 35.4099 245.264 25.8047 268.249 25.8047C289.318 25.8047 293.148 37.8113 293.148 97.8442V211.507H270.802V82.6359C270.802 73.8311 269.526 69.8289 267.291 69.8289C265.056 69.8289 263.779 74.6315 263.779 83.4363V504.468C263.779 516.474 264.418 519.676 267.291 519.676C270.164 519.676 270.802 516.474 270.802 502.867V348.382H293.148Z" fill="url(#paint2_linear_787_1267)"/>
<path d="M207.192 85.0372V504.468C207.192 514.873 208.469 520.477 210.703 520.477C212.938 520.477 213.895 514.873 213.895 504.468V85.0372C213.895 74.6315 212.938 69.8289 210.703 69.8289C208.469 69.8289 207.192 74.6315 207.192 85.0372ZM236.241 97.8442V491.661C236.241 552.494 232.091 564.501 210.384 564.501C188.996 564.501 184.846 552.494 184.846 491.661V97.8442C184.846 37.8113 188.996 25.8047 210.384 25.8047C232.091 25.8047 236.241 37.8113 236.241 97.8442Z" fill="url(#paint3_linear_787_1267)"/>
<path d="M127.35 562.102V28.209H149.376V253.933H157.038V28.209H179.064V562.102H157.038V297.957H149.376V562.102H127.35Z" fill="url(#paint4_linear_787_1267)"/>
<path d="M122.139 348.382V501.266C122.139 551.694 116.393 564.501 95.6428 564.501C82.8737 564.501 77.1276 560.499 73.2969 545.29C70.7431 534.084 70.4238 526.08 70.4238 475.652V100.246C70.4238 35.4099 74.2546 25.8047 97.2389 25.8047C118.308 25.8047 122.139 37.8113 122.139 97.8442V211.507H99.7927V82.6359C99.7927 73.8311 98.5158 69.8289 96.2812 69.8289C94.0466 69.8289 92.7697 74.6315 92.7697 83.4363V504.468C92.7697 516.474 93.4082 519.676 96.2812 519.676C99.1543 519.676 99.7927 516.474 99.7927 502.867V348.382H122.139Z" fill="url(#paint5_linear_787_1267)"/>
<path d="M42.2673 270.742V71.4328H40.0328C35.8828 71.4328 35.2443 73.8341 35.2443 87.4415V252.332C35.2443 268.341 35.8828 271.543 40.0328 271.543C40.9904 271.543 41.6289 271.543 42.2673 270.742ZM40.9904 28.209H64.294V562.102H42.2673V323.571C41.6289 322.771 40.9904 322.771 40.0328 322.771C35.8828 322.771 35.2443 325.973 35.2443 342.782V562.102H12.8984V361.992C12.8984 321.17 14.8138 307.563 23.1137 297.157C14.1753 283.549 12.8984 276.345 12.8984 233.922V96.2464C12.8984 65.0292 13.2177 54.6235 16.7292 44.2178C21.1983 30.6103 24.7098 28.209 40.9904 28.209Z" fill="url(#paint6_linear_787_1267)"/>
<path d="M164.423 13.0273V18.0966H163.116V16.2106H159.353V18.0966H158.047V13.0273H159.353V14.9134H163.116V13.0273H164.423Z" fill="#2B6ED4"/>
<path d="M166.644 14.3289V14.9085H170.485V16.2149H166.644V16.7945H171.06V18.1009H165.338V13.0225H171.06V14.3289H166.644Z" fill="#2B6ED4"/>
<path d="M178.121 13.0273V18.0966H176.814V14.596L173.429 18.0966H171.984V13.0273H173.291V16.3532L176.511 13.0273H178.121ZM174.34 13.9704L173.765 13.3907L174.928 13.0279L175.517 13.0273L174.34 13.9704Z" fill="#2B6ED4"/>
<path d="M180.347 18.0913H179.041V13.0312H182.942C183.517 13.0312 183.995 13.1601 184.363 13.4131C184.828 13.7305 185.081 14.2319 185.081 14.8345C185.081 15.9523 184.262 16.6377 182.942 16.6377H180.347V18.0913ZM180.347 15.3359H182.942C183.774 15.3359 183.774 15.0001 183.774 14.8345C183.774 14.6873 183.774 14.3331 182.942 14.3331H180.347V15.3359Z" fill="#2B6ED4"/>
<path d="M188.936 13.7541C188.936 13.5795 188.936 13.0952 188.349 13.0784C188.086 13.0706 187.939 13.2417 187.808 13.4742C187.684 13.695 187.611 13.6929 187.36 13.6856C187.308 13.684 187.247 13.6823 187.177 13.6823C186.772 13.6823 186.591 14.1831 186.711 14.3286C186.716 14.3345 186.722 14.3407 186.727 14.3472C186.827 14.4663 187.007 14.6798 186.636 14.8754C186.246 15.0816 185.9 15.7721 186.576 16.1698C186.907 16.3484 187.452 16.2834 187.523 16.1698C187.568 16.098 187.613 15.8181 187.433 15.7426C187.247 15.665 187.222 15.4627 187.433 15.4775C187.643 15.4922 188.094 15.4922 188.154 15.2123C188.214 14.9325 188.169 14.8294 187.869 14.6673C187.688 14.5348 187.677 14.0947 187.839 14.0947C187.843 14.0947 187.847 14.0947 187.851 14.0946C187.932 14.0939 187.964 14.0937 187.989 14.4169C188.009 14.6839 188.74 14.6526 188.86 14.4169C188.943 14.255 188.939 14.008 188.936 13.8335C188.936 13.8048 188.936 13.7781 188.936 13.7541Z" stroke="#2B6ED4" stroke-width="0.114377"/>
<path d="M188.074 18.0775C188.331 18.229 188.852 18.2241 188.905 17.7991C188.976 17.2246 188.915 16.6119 188.875 16.3774C188.864 16.3105 188.816 16.3042 188.667 16.3188C188.431 16.3421 188.337 16.2163 188.4 16.1283C188.474 16.0257 188.707 16.1216 188.831 16.0404C188.964 15.9525 188.92 15.288 188.905 14.9558C188.875 14.8093 188.62 14.7008 188.43 14.9118C188.356 14.9943 188.4 15.2929 188.4 15.3955C188.4 15.542 188.273 15.6681 187.999 15.7032C187.658 15.7472 187.614 16.436 187.866 16.6412C188.118 16.8464 188.489 16.949 188.504 17.1542C188.519 17.3594 188.549 17.5352 188.37 17.5206C188.192 17.5059 188.281 17.2275 188.281 17.1688C188.281 17.1102 188.192 17.0467 187.896 16.8757C187.717 16.7731 187.732 16.6705 187.614 16.568C187.509 16.4774 186.931 16.436 186.872 16.6999C186.783 17.0223 186.783 17.4766 187.124 17.6085C187.465 17.7404 187.68 17.6068 187.792 17.6672C187.955 17.7551 187.875 17.9603 188.074 18.0775Z" fill="#2B6ED4" stroke="#2B6ED4" stroke-width="0.0613904"/>
<path d="M189.174 13.7541C189.174 13.5795 189.174 13.0952 189.748 13.0784C190.005 13.0706 190.149 13.2417 190.277 13.4742C190.399 13.695 190.47 13.6929 190.716 13.6856C190.768 13.684 190.827 13.6823 190.895 13.6823C191.293 13.6823 191.469 14.1831 191.352 14.3286C191.347 14.3345 191.342 14.3407 191.336 14.3472C191.238 14.4663 191.062 14.6798 191.425 14.8754C191.808 15.0816 192.146 15.7721 191.484 16.1698C191.16 16.3484 190.627 16.2834 190.557 16.1698C190.513 16.098 190.469 15.8181 190.645 15.7426C190.827 15.665 190.851 15.4627 190.645 15.4775C190.439 15.4922 189.998 15.4922 189.939 15.2123C189.88 14.9325 189.924 14.8294 190.219 14.6673C190.395 14.5348 190.406 14.0947 190.248 14.0947C190.244 14.0947 190.24 14.0947 190.236 14.0946C190.157 14.0939 190.125 14.0937 190.101 14.4169C190.081 14.6839 189.365 14.6526 189.247 14.4169C189.166 14.255 189.17 14.008 189.173 13.8335C189.173 13.8048 189.174 13.7781 189.174 13.7541Z" stroke="#2B6ED4" stroke-width="0.114377"/>
<path d="M190.012 18.0775C189.762 18.229 189.255 18.2241 189.204 17.7991C189.134 17.2246 189.194 16.6119 189.233 16.3774C189.244 16.3105 189.29 16.3042 189.435 16.3188C189.665 16.3421 189.757 16.2163 189.695 16.1283C189.622 16.0257 189.396 16.1216 189.276 16.0404C189.146 15.9525 189.189 15.288 189.204 14.9558C189.233 14.8093 189.481 14.7008 189.666 14.9118C189.738 14.9943 189.695 15.2929 189.695 15.3955C189.695 15.542 189.819 15.6681 190.085 15.7032C190.417 15.7472 190.46 16.436 190.215 16.6412C189.969 16.8464 189.608 16.949 189.594 17.1542C189.579 17.3594 189.55 17.5352 189.724 17.5206C189.897 17.5059 189.81 17.2275 189.81 17.1688C189.81 17.1102 189.897 17.0467 190.186 16.8757C190.359 16.7731 190.344 16.6705 190.46 16.568C190.562 16.4774 191.124 16.436 191.182 16.6999C191.269 17.0223 191.269 17.4766 190.937 17.6085C190.604 17.7404 190.396 17.6068 190.287 17.6672C190.128 17.7551 190.206 17.9603 190.012 18.0775Z" fill="#2B6ED4" stroke="#2B6ED4" stroke-width="0.0613904"/>
<path d="M198.989 13.0273V18.0874H197.692V16.6384H195.185L194.315 18.0966H192.77L193.823 16.3578C193.271 16.0542 192.958 15.5252 192.958 14.8352C192.958 14.2326 193.211 13.7312 193.676 13.4137C194.039 13.1607 194.518 13.0319 195.097 13.0319H198.989V13.0273ZM197.692 15.332V14.3338H195.097C194.265 14.3338 194.265 14.688 194.265 14.8352C194.265 15.0008 194.265 15.3366 195.097 15.3366H197.692V15.332Z" fill="#2B6ED4"/>
<path d="M203.146 18.2183C202.249 18.2183 201.508 18.0205 200.947 17.6387C200.271 17.1741 199.912 16.4565 199.912 15.5595C199.912 13.8989 201.122 12.9053 203.146 12.9053C204.742 12.9053 205.874 13.5447 206.251 14.6671L205.009 15.0811C204.756 14.3175 203.735 14.2025 203.146 14.2025C201.219 14.2025 201.219 15.2237 201.219 15.5595C201.219 16.4565 201.872 16.9165 203.146 16.9165C203.841 16.9165 204.728 16.7785 204.995 16.1023L206.205 16.5807C205.791 17.6387 204.705 18.2183 203.146 18.2183Z" fill="#2B6ED4"/>
<path d="M213.542 13.0273V18.0966H212.235V16.2106H208.472V18.0966H207.166V13.0273H208.472V14.9134H212.235V13.0273H213.542Z" fill="#2B6ED4"/>
<path d="M217.258 13.6467C217.258 13.4648 217.258 12.9602 216.659 12.9426C216.39 12.9345 216.24 13.1128 216.107 13.3551C215.98 13.5852 215.905 13.583 215.649 13.5753C215.595 13.5737 215.534 13.5719 215.462 13.5719C215.048 13.5719 214.864 14.0937 214.986 14.2453C214.991 14.2514 214.997 14.2579 215.002 14.2646C215.105 14.3888 215.288 14.6113 214.91 14.815C214.511 15.0299 214.158 15.7493 214.848 16.1637C215.186 16.3498 215.742 16.2821 215.815 16.1637C215.861 16.0889 215.907 15.7973 215.723 15.7186C215.534 15.6377 215.508 15.427 215.723 15.4424C215.938 15.4577 216.398 15.4577 216.46 15.1661C216.521 14.8745 216.475 14.7671 216.168 14.5982C215.984 14.4601 215.973 14.0016 216.137 14.0016C216.142 14.0016 216.146 14.0016 216.15 14.0015C216.233 14.0008 216.266 14.0005 216.291 14.3373C216.311 14.6155 217.058 14.5829 217.181 14.3373C217.265 14.1686 217.261 13.9113 217.259 13.7294C217.258 13.6996 217.258 13.6717 217.258 13.6467Z" stroke="#2B6ED4" stroke-width="0.114377"/>
<path d="M216.376 18.129C216.642 18.2875 217.181 18.2825 217.236 17.8374C217.309 17.2357 217.246 16.5942 217.205 16.3486C217.193 16.2786 217.144 16.272 216.99 16.2873C216.746 16.3116 216.648 16.1799 216.714 16.0877C216.791 15.9803 217.031 16.0808 217.159 15.9957C217.297 15.9036 217.251 15.2078 217.236 14.8599C217.205 14.7065 216.941 14.5929 216.745 14.8139C216.668 14.9002 216.714 15.2129 216.714 15.3203C216.714 15.4738 216.582 15.6058 216.299 15.6426C215.946 15.6887 215.9 16.41 216.161 16.6249C216.422 16.8398 216.806 16.9472 216.821 17.1621C216.837 17.3769 216.867 17.5611 216.683 17.5457C216.499 17.5304 216.591 17.2388 216.591 17.1774C216.591 17.116 216.499 17.0495 216.192 16.8705C216.008 16.763 216.023 16.6556 215.9 16.5482C215.792 16.4534 215.194 16.41 215.133 16.6863C215.041 17.0239 215.041 17.4997 215.394 17.6378C215.747 17.776 215.969 17.636 216.085 17.6992C216.253 17.7913 216.17 18.0062 216.376 18.129Z" fill="#2B6ED4" stroke="#2B6ED4" stroke-width="0.0613904"/>
<path d="M217.523 13.6057C217.523 13.4237 217.523 12.9192 218.122 12.9016C218.391 12.8935 218.541 13.0718 218.675 13.3141C218.801 13.5442 218.876 13.5419 219.132 13.5343C219.186 13.5327 219.248 13.5309 219.319 13.5309C219.734 13.5309 219.918 14.0527 219.795 14.2042C219.79 14.2104 219.785 14.2169 219.779 14.2236C219.677 14.3478 219.493 14.5702 219.872 14.774C220.271 14.9889 220.624 15.7083 219.933 16.1227C219.595 16.3088 219.039 16.2411 218.966 16.1227C218.92 16.0479 218.874 15.7563 219.058 15.6776C219.248 15.5967 219.273 15.386 219.058 15.4013C218.843 15.4167 218.383 15.4167 218.322 15.1251C218.26 14.8335 218.306 14.7261 218.613 14.5572C218.797 14.4191 218.808 13.9606 218.644 13.9606C218.64 13.9606 218.636 13.9606 218.632 13.9605C218.549 13.9598 218.515 13.9595 218.49 14.2963C218.47 14.5745 217.723 14.5419 217.6 14.2963C217.516 14.1276 217.52 13.8702 217.523 13.6884C217.523 13.6586 217.523 13.6307 217.523 13.6057Z" stroke="#2B6ED4" stroke-width="0.114377"/>
<path d="M218.397 18.0879C218.131 18.2465 217.592 18.2415 217.538 17.7964C217.464 17.1947 217.528 16.5532 217.568 16.3076C217.58 16.2375 217.63 16.2309 217.783 16.2462C218.028 16.2706 218.125 16.1388 218.06 16.0467C217.983 15.9393 217.742 16.0397 217.615 15.9546C217.476 15.8626 217.522 15.1668 217.538 14.8189C217.568 14.6655 217.832 14.5519 218.029 14.7729C218.106 14.8592 218.06 15.1719 218.06 15.2793C218.06 15.4328 218.192 15.5648 218.474 15.6016C218.827 15.6477 218.873 16.369 218.612 16.5839C218.351 16.7987 217.968 16.9062 217.952 17.121C217.937 17.3359 217.906 17.5201 218.09 17.5047C218.274 17.4894 218.182 17.1978 218.182 17.1364C218.182 17.075 218.274 17.0085 218.581 16.8294C218.766 16.722 218.75 16.6146 218.873 16.5071C218.981 16.4124 219.579 16.369 219.64 16.6453C219.732 16.9829 219.732 17.4587 219.379 17.5968C219.026 17.7349 218.805 17.595 218.689 17.6582C218.52 17.7503 218.603 17.9652 218.397 18.0879Z" fill="#2B6ED4" stroke="#2B6ED4" stroke-width="0.0613904"/>
<path d="M224.466 18.2183C223.569 18.2183 222.829 18.0205 222.267 17.6387C221.591 17.1741 221.232 16.4565 221.232 15.5595C221.232 13.8989 222.442 12.9053 224.466 12.9053C226.062 12.9053 227.194 13.5447 227.571 14.6671L226.329 15.0811C226.076 14.3175 225.055 14.2025 224.466 14.2025C222.539 14.2025 222.539 15.2237 222.539 15.5595C222.539 16.4565 223.192 16.9165 224.466 16.9165C225.161 16.9165 226.049 16.7785 226.315 16.1023L227.525 16.5807C227.116 17.6387 226.026 18.2183 224.466 18.2183Z" fill="#2B6ED4"/>
<path d="M234.642 14.3338H232.222V18.0966H230.916V14.3338H228.496V13.0273H234.646V14.3338H234.642Z" fill="#2B6ED4"/>
<path d="M239.463 18.0913H235.562V13.0312H236.869V14.4803H239.463C240.784 14.4803 241.602 15.1703 241.602 16.2835C241.602 16.8861 241.349 17.3921 240.885 17.7049C240.517 17.9579 240.038 18.0913 239.463 18.0913ZM236.869 16.7849H239.463C240.296 16.7849 240.296 16.4353 240.296 16.2835C240.296 16.1225 240.296 15.7821 239.463 15.7821H236.869V16.7849Z" fill="#2B6ED4"/>
<path d="M97.0972 338.368L96.3295 338.258C96.4684 338.265 96.5817 338.218 96.6695 338.116C96.7609 338.013 96.8322 337.871 96.8833 337.688C96.9345 337.505 96.9729 337.291 96.9985 337.046C97.0241 336.798 97.0424 336.529 97.0533 336.24L97.0972 335.023H99.9104V338.532H99.2084V335.626H97.7059L97.6785 336.306C97.6675 336.562 97.6511 336.805 97.6291 337.035C97.6108 337.262 97.5798 337.468 97.5359 337.655C97.4957 337.841 97.439 337.997 97.3659 338.121C97.2928 338.245 97.2032 338.328 97.0972 338.368ZM96.1979 339.678L96.2033 338.258H100.464V339.678H99.8062V338.861H96.8614V339.678H96.1979ZM102.726 338.861V338.269L102.687 338.143V337.107C102.687 336.905 102.627 336.75 102.506 336.64C102.386 336.527 102.203 336.47 101.958 336.47C101.793 336.47 101.631 336.496 101.47 336.547C101.313 336.598 101.179 336.67 101.07 336.761L100.801 336.262C100.958 336.141 101.145 336.052 101.36 335.993C101.58 335.931 101.806 335.9 102.04 335.9C102.464 335.9 102.792 336.002 103.022 336.207C103.256 336.408 103.373 336.721 103.373 337.145V338.861H102.726ZM101.804 338.9C101.585 338.9 101.393 338.863 101.229 338.79C101.064 338.713 100.936 338.609 100.845 338.477C100.757 338.342 100.713 338.19 100.713 338.022C100.713 337.858 100.752 337.71 100.828 337.578C100.909 337.447 101.039 337.342 101.218 337.266C101.397 337.189 101.634 337.15 101.931 337.15H102.781V337.606H101.98C101.746 337.606 101.589 337.644 101.508 337.721C101.428 337.794 101.388 337.885 101.388 337.995C101.388 338.119 101.437 338.218 101.536 338.291C101.634 338.364 101.772 338.401 101.947 338.401C102.115 338.401 102.265 338.362 102.397 338.286C102.532 338.209 102.629 338.095 102.687 337.946L102.803 338.357C102.737 338.529 102.618 338.662 102.446 338.757C102.278 338.852 102.064 338.9 101.804 338.9ZM104.72 338.861V336.35L104.879 336.514H103.689V335.933H106.431V336.514H105.246L105.406 336.35V338.861H104.72ZM108.595 338.861V338.269L108.557 338.143V337.107C108.557 336.905 108.497 336.75 108.376 336.64C108.255 336.527 108.072 336.47 107.828 336.47C107.663 336.47 107.5 336.496 107.339 336.547C107.182 336.598 107.049 336.67 106.939 336.761L106.67 336.262C106.828 336.141 107.014 336.052 107.23 335.993C107.449 335.931 107.676 335.9 107.91 335.9C108.334 335.9 108.661 336.002 108.891 336.207C109.125 336.408 109.242 336.721 109.242 337.145V338.861H108.595ZM107.674 338.9C107.455 338.9 107.263 338.863 107.098 338.79C106.934 338.713 106.806 338.609 106.714 338.477C106.627 338.342 106.583 338.19 106.583 338.022C106.583 337.858 106.621 337.71 106.698 337.578C106.778 337.447 106.908 337.342 107.087 337.266C107.266 337.189 107.504 337.15 107.8 337.15H108.65V337.606H107.849C107.615 337.606 107.458 337.644 107.378 337.721C107.297 337.794 107.257 337.885 107.257 337.995C107.257 338.119 107.307 338.218 107.405 338.291C107.504 338.364 107.641 338.401 107.817 338.401C107.985 338.401 108.135 338.362 108.266 338.286C108.401 338.209 108.498 338.095 108.557 337.946L108.672 338.357C108.606 338.529 108.487 338.662 108.316 338.757C108.147 338.852 107.934 338.9 107.674 338.9ZM110.189 336.81C110.065 336.81 109.959 336.768 109.871 336.684C109.783 336.597 109.74 336.487 109.74 336.355C109.74 336.216 109.783 336.107 109.871 336.026C109.959 335.942 110.065 335.9 110.189 335.9C110.314 335.9 110.42 335.942 110.507 336.026C110.595 336.107 110.639 336.216 110.639 336.355C110.639 336.487 110.595 336.597 110.507 336.684C110.42 336.768 110.314 336.81 110.189 336.81ZM110.189 338.9C110.065 338.9 109.959 338.858 109.871 338.774C109.783 338.686 109.74 338.576 109.74 338.445C109.74 338.306 109.783 338.196 109.871 338.116C109.959 338.031 110.065 337.989 110.189 337.989C110.314 337.989 110.42 338.031 110.507 338.116C110.595 338.196 110.639 338.306 110.639 338.445C110.639 338.576 110.595 338.686 110.507 338.774C110.42 338.858 110.314 338.9 110.189 338.9ZM97.9636 344.916C97.6602 344.916 97.386 344.839 97.1411 344.686C96.8998 344.532 96.7097 344.309 96.5708 344.017C96.4318 343.721 96.3624 343.362 96.3624 342.942C96.3624 342.522 96.4318 342.165 96.5708 341.873C96.7097 341.577 96.8998 341.352 97.1411 341.198C97.386 341.045 97.6602 340.968 97.9636 340.968C98.2707 340.968 98.5449 341.045 98.7862 341.198C99.0275 341.352 99.2176 341.577 99.3565 341.873C99.4991 342.165 99.5704 342.522 99.5704 342.942C99.5704 343.362 99.4991 343.721 99.3565 344.017C99.2176 344.309 99.0275 344.532 98.7862 344.686C98.5449 344.839 98.2707 344.916 97.9636 344.916ZM97.9636 344.297C98.1428 344.297 98.2981 344.249 98.4297 344.154C98.5614 344.055 98.6637 343.905 98.7368 343.704C98.8136 343.503 98.852 343.249 98.852 342.942C98.852 342.631 98.8136 342.377 98.7368 342.18C98.6637 341.979 98.5614 341.831 98.4297 341.736C98.2981 341.637 98.1428 341.588 97.9636 341.588C97.7918 341.588 97.6383 341.637 97.503 341.736C97.3714 341.831 97.2672 341.979 97.1904 342.18C97.1173 342.377 97.0807 342.631 97.0807 342.942C97.0807 343.249 97.1173 343.503 97.1904 343.704C97.2672 343.905 97.3714 344.055 97.503 344.154C97.6383 344.249 97.7918 344.297 97.9636 344.297ZM100.551 344.861V341.297L100.864 341.62H99.7397V341.023H101.264V344.861H100.551ZM102.344 344.9C102.219 344.9 102.113 344.858 102.026 344.774C101.938 344.686 101.894 344.576 101.894 344.445C101.894 344.306 101.938 344.196 102.026 344.116C102.113 344.031 102.219 343.989 102.344 343.989C102.468 343.989 102.574 344.031 102.662 344.116C102.749 344.196 102.793 344.306 102.793 344.445C102.793 344.576 102.749 344.686 102.662 344.774C102.574 344.858 102.468 344.9 102.344 344.9ZM104.682 344.916C104.379 344.916 104.104 344.839 103.859 344.686C103.618 344.532 103.428 344.309 103.289 344.017C103.15 343.721 103.081 343.362 103.081 342.942C103.081 342.522 103.15 342.165 103.289 341.873C103.428 341.577 103.618 341.352 103.859 341.198C104.104 341.045 104.379 340.968 104.682 340.968C104.989 340.968 105.263 341.045 105.505 341.198C105.746 341.352 105.936 341.577 106.075 341.873C106.217 342.165 106.289 342.522 106.289 342.942C106.289 343.362 106.217 343.721 106.075 344.017C105.936 344.309 105.746 344.532 105.505 344.686C105.263 344.839 104.989 344.916 104.682 344.916ZM104.682 344.297C104.861 344.297 105.017 344.249 105.148 344.154C105.28 344.055 105.382 343.905 105.455 343.704C105.532 343.503 105.57 343.249 105.57 342.942C105.57 342.631 105.532 342.377 105.455 342.18C105.382 341.979 105.28 341.831 105.148 341.736C105.017 341.637 104.861 341.588 104.682 341.588C104.51 341.588 104.357 341.637 104.221 341.736C104.09 341.831 103.986 341.979 103.909 342.18C103.836 342.377 103.799 342.631 103.799 342.942C103.799 343.249 103.836 343.503 103.909 343.704C103.986 343.905 104.09 344.055 104.221 344.154C104.357 344.249 104.51 344.297 104.682 344.297ZM108.202 344.916C107.884 344.916 107.608 344.869 107.374 344.774C107.14 344.679 106.959 344.545 106.831 344.373C106.703 344.198 106.639 343.993 106.639 343.759C106.639 343.525 106.701 343.328 106.825 343.167C106.95 343.006 107.129 342.884 107.363 342.799C107.597 342.715 107.876 342.673 108.202 342.673C108.527 342.673 108.807 342.715 109.041 342.799C109.278 342.884 109.459 343.008 109.584 343.172C109.712 343.333 109.776 343.529 109.776 343.759C109.776 343.993 109.71 344.198 109.578 344.373C109.45 344.545 109.267 344.679 109.03 344.774C108.796 344.869 108.52 344.916 108.202 344.916ZM108.202 344.357C108.465 344.357 108.673 344.302 108.827 344.192C108.98 344.083 109.057 343.931 109.057 343.737C109.057 343.547 108.98 343.397 108.827 343.287C108.673 343.178 108.465 343.123 108.202 343.123C107.939 343.123 107.732 343.178 107.582 343.287C107.432 343.397 107.357 343.547 107.357 343.737C107.357 343.931 107.432 344.083 107.582 344.192C107.732 344.302 107.939 344.357 108.202 344.357ZM108.202 342.608C108.428 342.608 108.608 342.56 108.739 342.465C108.871 342.366 108.937 342.235 108.937 342.07C108.937 341.898 108.869 341.765 108.734 341.67C108.598 341.575 108.421 341.527 108.202 341.527C107.982 341.527 107.807 341.575 107.675 341.67C107.544 341.765 107.478 341.898 107.478 342.07C107.478 342.235 107.542 342.366 107.67 342.465C107.801 342.56 107.979 342.608 108.202 342.608ZM108.202 343.046C107.906 343.046 107.652 343.008 107.44 342.931C107.228 342.851 107.063 342.735 106.946 342.586C106.833 342.432 106.776 342.249 106.776 342.037C106.776 341.818 106.835 341.63 106.952 341.472C107.072 341.312 107.24 341.187 107.456 341.099C107.672 341.012 107.92 340.968 108.202 340.968C108.487 340.968 108.737 341.012 108.953 341.099C109.169 341.187 109.337 341.312 109.458 341.472C109.578 341.63 109.639 341.818 109.639 342.037C109.639 342.249 109.58 342.432 109.463 342.586C109.35 342.735 109.185 342.851 108.97 342.931C108.754 343.008 108.498 343.046 108.202 343.046ZM110.61 344.9C110.485 344.9 110.379 344.858 110.292 344.774C110.204 344.686 110.16 344.576 110.16 344.445C110.16 344.306 110.204 344.196 110.292 344.116C110.379 344.031 110.485 343.989 110.61 343.989C110.734 343.989 110.84 344.031 110.928 344.116C111.016 344.196 111.059 344.306 111.059 344.445C111.059 344.576 111.016 344.686 110.928 344.774C110.84 344.858 110.734 344.9 110.61 344.9ZM111.415 344.861V344.384L112.94 342.937C113.068 342.816 113.163 342.71 113.225 342.618C113.287 342.527 113.327 342.443 113.346 342.366C113.368 342.286 113.379 342.211 113.379 342.141C113.379 341.966 113.318 341.831 113.198 341.736C113.077 341.637 112.9 341.588 112.666 341.588C112.479 341.588 112.309 341.62 112.156 341.686C112.006 341.752 111.876 341.853 111.766 341.988L111.267 341.604C111.417 341.403 111.618 341.248 111.87 341.138C112.126 341.025 112.412 340.968 112.726 340.968C113.004 340.968 113.245 341.014 113.45 341.105C113.658 341.193 113.817 341.319 113.927 341.483C114.04 341.648 114.097 341.843 114.097 342.07C114.097 342.194 114.08 342.319 114.048 342.443C114.015 342.564 113.952 342.692 113.861 342.827C113.77 342.962 113.636 343.114 113.461 343.282L112.15 344.527L112.002 344.258H114.245V344.861H111.415ZM116.148 344.916C115.845 344.916 115.57 344.839 115.325 344.686C115.084 344.532 114.894 344.309 114.755 344.017C114.616 343.721 114.547 343.362 114.547 342.942C114.547 342.522 114.616 342.165 114.755 341.873C114.894 341.577 115.084 341.352 115.325 341.198C115.57 341.045 115.845 340.968 116.148 340.968C116.455 340.968 116.729 341.045 116.971 341.198C117.212 341.352 117.402 341.577 117.541 341.873C117.683 342.165 117.755 342.522 117.755 342.942C117.755 343.362 117.683 343.721 117.541 344.017C117.402 344.309 117.212 344.532 116.971 344.686C116.729 344.839 116.455 344.916 116.148 344.916ZM116.148 344.297C116.327 344.297 116.482 344.249 116.614 344.154C116.746 344.055 116.848 343.905 116.921 343.704C116.998 343.503 117.036 343.249 117.036 342.942C117.036 342.631 116.998 342.377 116.921 342.18C116.848 341.979 116.746 341.831 116.614 341.736C116.482 341.637 116.327 341.588 116.148 341.588C115.976 341.588 115.823 341.637 115.687 341.736C115.556 341.831 115.452 341.979 115.375 342.18C115.302 342.377 115.265 342.631 115.265 342.942C115.265 343.249 115.302 343.503 115.375 343.704C115.452 343.905 115.556 344.055 115.687 344.154C115.823 344.249 115.976 344.297 116.148 344.297ZM118.072 344.861V344.384L119.597 342.937C119.725 342.816 119.82 342.71 119.882 342.618C119.944 342.527 119.984 342.443 120.002 342.366C120.024 342.286 120.035 342.211 120.035 342.141C120.035 341.966 119.975 341.831 119.854 341.736C119.734 341.637 119.556 341.588 119.322 341.588C119.136 341.588 118.966 341.62 118.812 341.686C118.662 341.752 118.533 341.853 118.423 341.988L117.924 341.604C118.074 341.403 118.275 341.248 118.527 341.138C118.783 341.025 119.068 340.968 119.383 340.968C119.661 340.968 119.902 341.014 120.107 341.105C120.315 341.193 120.474 341.319 120.584 341.483C120.697 341.648 120.754 341.843 120.754 342.07C120.754 342.194 120.737 342.319 120.704 342.443C120.671 342.564 120.609 342.692 120.518 342.827C120.426 342.962 120.293 343.114 120.118 343.282L118.807 344.527L118.659 344.258H120.902V344.861H118.072ZM122.865 344.916C122.518 344.916 122.22 344.843 121.971 344.697C121.723 344.547 121.532 344.331 121.401 344.05C121.269 343.768 121.203 343.421 121.203 343.008C121.203 342.569 121.282 342.198 121.439 341.895C121.6 341.591 121.821 341.361 122.103 341.204C122.388 341.046 122.715 340.968 123.084 340.968C123.278 340.968 123.463 340.988 123.638 341.028C123.817 341.068 123.969 341.131 124.093 341.215L123.83 341.752C123.724 341.683 123.609 341.635 123.485 341.609C123.364 341.58 123.236 341.566 123.101 341.566C122.739 341.566 122.452 341.677 122.24 341.9C122.028 342.123 121.922 342.452 121.922 342.887C121.922 342.957 121.924 343.039 121.927 343.134C121.931 343.225 121.944 343.319 121.966 343.414L121.746 343.172C121.812 343.022 121.902 342.898 122.015 342.799C122.132 342.697 122.269 342.62 122.426 342.569C122.587 342.518 122.761 342.492 122.947 342.492C123.2 342.492 123.424 342.542 123.622 342.64C123.819 342.735 123.976 342.873 124.093 343.052C124.21 343.227 124.269 343.434 124.269 343.671C124.269 343.924 124.207 344.143 124.082 344.329C123.958 344.516 123.79 344.66 123.578 344.763C123.366 344.865 123.128 344.916 122.865 344.916ZM122.827 344.357C122.973 344.357 123.103 344.331 123.216 344.28C123.329 344.225 123.417 344.148 123.479 344.05C123.545 343.951 123.578 343.836 123.578 343.704C123.578 343.503 123.508 343.344 123.37 343.227C123.231 343.11 123.044 343.052 122.81 343.052C122.657 343.052 122.521 343.081 122.404 343.139C122.291 343.194 122.2 343.271 122.13 343.37C122.064 343.468 122.032 343.582 122.032 343.71C122.032 343.827 122.063 343.935 122.125 344.033C122.187 344.132 122.276 344.211 122.393 344.269C122.514 344.328 122.658 344.357 122.827 344.357Z" fill="#2B6ED4"/>
<path d="M269.585 219.967L269.592 215.927L269.793 216.135L268.091 216.132L268.092 215.418L271.938 215.424L271.937 216.139L270.235 216.136L270.43 215.928L270.423 219.969L269.585 219.967ZM274.278 220.021C273.996 220.02 273.739 219.955 273.505 219.825C273.276 219.694 273.092 219.499 272.954 219.239C272.82 218.975 272.754 218.641 272.754 218.238C272.755 217.831 272.821 217.498 272.951 217.238C273.086 216.979 273.268 216.786 273.498 216.661C273.727 216.531 273.989 216.467 274.284 216.467C274.626 216.468 274.927 216.542 275.187 216.69C275.45 216.837 275.658 217.044 275.809 217.308C275.965 217.572 276.042 217.884 276.041 218.244C276.041 218.603 275.962 218.917 275.806 219.185C275.654 219.449 275.446 219.655 275.181 219.801C274.921 219.948 274.62 220.021 274.278 220.021ZM272.353 221.232L272.361 216.503L273.134 216.504L273.133 217.323L273.105 218.245L273.169 219.168L273.165 221.234L272.353 221.232ZM274.188 219.326C274.383 219.326 274.556 219.283 274.708 219.197C274.864 219.11 274.988 218.985 275.079 218.82C275.17 218.656 275.216 218.463 275.216 218.242C275.217 218.017 275.172 217.824 275.081 217.664C274.99 217.499 274.867 217.374 274.711 217.287C274.56 217.2 274.387 217.156 274.192 217.156C273.997 217.156 273.821 217.199 273.665 217.285C273.509 217.371 273.386 217.497 273.295 217.661C273.203 217.821 273.158 218.014 273.157 218.239C273.157 218.46 273.202 218.653 273.293 218.817C273.383 218.982 273.506 219.108 273.662 219.195C273.818 219.282 273.993 219.325 274.188 219.326ZM278.334 220.028C277.949 220.027 277.611 219.951 277.321 219.798C277.036 219.642 276.813 219.43 276.653 219.161C276.498 218.892 276.42 218.587 276.421 218.244C276.421 217.898 276.498 217.593 276.65 217.329C276.806 217.061 277.019 216.851 277.287 216.7C277.56 216.549 277.87 216.473 278.217 216.474C278.554 216.475 278.855 216.549 279.119 216.696C279.383 216.844 279.591 217.052 279.742 217.321C279.893 217.59 279.968 217.906 279.968 218.27C279.968 218.304 279.965 218.343 279.961 218.387C279.961 218.43 279.959 218.471 279.954 218.51L277.063 218.505L277.064 217.966L279.526 217.97L279.208 218.139C279.212 217.939 279.172 217.764 279.085 217.612C278.999 217.461 278.88 217.341 278.729 217.254C278.581 217.168 278.41 217.124 278.216 217.124C278.016 217.123 277.841 217.166 277.689 217.253C277.542 217.339 277.425 217.46 277.338 217.616C277.255 217.767 277.214 217.947 277.213 218.155L277.213 218.285C277.213 218.493 277.26 218.677 277.355 218.837C277.45 218.998 277.584 219.121 277.757 219.208C277.93 219.295 278.13 219.339 278.355 219.339C278.55 219.339 278.725 219.309 278.881 219.249C279.037 219.189 279.176 219.094 279.297 218.964L279.732 219.465C279.576 219.646 279.378 219.787 279.14 219.886C278.906 219.981 278.637 220.028 278.334 220.028ZM280.723 219.986L280.729 216.517L281.541 216.519L281.538 217.928L283.286 217.931L283.288 216.521L284.1 216.523L284.094 219.992L283.282 219.99L283.285 218.62L281.537 218.617L281.535 219.987L280.723 219.986ZM285.053 219.993L285.059 216.524L285.871 216.526L285.867 218.812L287.787 216.529L288.527 216.53L288.522 219.999L287.71 219.998L287.713 217.711L285.8 219.995L285.053 219.993ZM289.484 220.001L289.49 216.532L290.302 216.533L290.3 217.943L292.047 217.946L292.049 216.536L292.861 216.537L292.856 220.006L292.044 220.005L292.046 218.634L290.298 218.631L290.296 220.002L289.484 220.001ZM293.814 220.008L293.82 216.539L296.483 216.543L296.482 217.232L294.442 217.229L294.631 217.047L294.626 220.009L293.814 220.008Z" fill="#2B6ED4"/>
<path d="M266.047 337.568V333.504H266.663L268.445 336.471H268.115L269.868 333.504H270.483L270.495 337.568H269.775L269.769 334.625H269.92L268.434 337.104H268.097L266.587 334.625H266.762V337.568H266.047ZM272.881 337.609C272.536 337.609 272.234 337.541 271.975 337.406C271.72 337.266 271.52 337.077 271.377 336.837C271.238 336.597 271.168 336.324 271.168 336.018C271.168 335.708 271.236 335.436 271.371 335.199C271.511 334.959 271.7 334.772 271.94 334.636C272.184 334.501 272.461 334.433 272.771 334.433C273.072 334.433 273.341 334.499 273.578 334.63C273.814 334.762 274 334.948 274.135 335.188C274.271 335.428 274.338 335.71 274.338 336.035C274.338 336.066 274.336 336.101 274.332 336.14C274.332 336.179 274.331 336.215 274.327 336.25H271.743V335.768H273.943L273.659 335.919C273.663 335.741 273.626 335.585 273.549 335.449C273.471 335.314 273.365 335.207 273.229 335.13C273.098 335.052 272.945 335.014 272.771 335.014C272.592 335.014 272.436 335.052 272.3 335.13C272.169 335.207 272.064 335.316 271.987 335.455C271.913 335.59 271.876 335.751 271.876 335.937V336.053C271.876 336.239 271.919 336.403 272.004 336.546C272.089 336.69 272.209 336.8 272.364 336.877C272.519 336.955 272.697 336.994 272.898 336.994C273.072 336.994 273.229 336.966 273.369 336.912C273.508 336.858 273.632 336.773 273.74 336.657L274.129 337.104C273.99 337.266 273.814 337.392 273.601 337.481C273.392 337.566 273.152 337.609 272.881 337.609ZM276.427 337.609C276.102 337.609 275.811 337.541 275.556 337.406C275.304 337.266 275.107 337.077 274.964 336.837C274.82 336.597 274.749 336.324 274.749 336.018C274.749 335.708 274.82 335.436 274.964 335.199C275.107 334.959 275.304 334.772 275.556 334.636C275.811 334.501 276.102 334.433 276.427 334.433C276.729 334.433 276.994 334.495 277.222 334.619C277.455 334.739 277.631 334.917 277.751 335.153L277.193 335.478C277.1 335.331 276.986 335.223 276.851 335.153C276.719 335.083 276.576 335.048 276.421 335.048C276.243 335.048 276.082 335.087 275.939 335.165C275.796 335.242 275.684 335.354 275.602 335.501C275.521 335.645 275.48 335.817 275.48 336.018C275.48 336.219 275.521 336.394 275.602 336.541C275.684 336.684 275.796 336.794 275.939 336.872C276.082 336.949 276.243 336.988 276.421 336.988C276.576 336.988 276.719 336.953 276.851 336.883C276.986 336.814 277.1 336.705 277.193 336.558L277.751 336.883C277.631 337.115 277.455 337.295 277.222 337.423C276.994 337.547 276.729 337.609 276.427 337.609ZM278.895 337.568V334.909L279.064 335.083H277.804V334.468H280.707V335.083H279.453L279.621 334.909V337.568H278.895ZM282.363 337.609C282.046 337.609 281.763 337.541 281.515 337.406C281.268 337.266 281.072 337.077 280.929 336.837C280.786 336.597 280.714 336.324 280.714 336.018C280.714 335.708 280.786 335.436 280.929 335.199C281.072 334.959 281.268 334.772 281.515 334.636C281.763 334.501 282.046 334.433 282.363 334.433C282.684 334.433 282.969 334.501 283.217 334.636C283.468 334.772 283.664 334.957 283.803 335.194C283.946 335.43 284.018 335.705 284.018 336.018C284.018 336.324 283.946 336.597 283.803 336.837C283.664 337.077 283.468 337.266 283.217 337.406C282.969 337.541 282.684 337.609 282.363 337.609ZM282.363 336.988C282.541 336.988 282.7 336.949 282.839 336.872C282.979 336.794 283.087 336.682 283.164 336.535C283.246 336.388 283.286 336.215 283.286 336.018C283.286 335.817 283.246 335.645 283.164 335.501C283.087 335.354 282.979 335.242 282.839 335.165C282.7 335.087 282.543 335.048 282.369 335.048C282.191 335.048 282.032 335.087 281.893 335.165C281.757 335.242 281.649 335.354 281.568 335.501C281.486 335.645 281.446 335.817 281.446 336.018C281.446 336.215 281.486 336.388 281.568 336.535C281.649 336.682 281.757 336.794 281.893 336.872C282.032 336.949 282.189 336.988 282.363 336.988ZM284.839 335.397C284.708 335.397 284.596 335.352 284.503 335.263C284.41 335.17 284.363 335.054 284.363 334.915C284.363 334.768 284.41 334.652 284.503 334.566C284.596 334.477 284.708 334.433 284.839 334.433C284.971 334.433 285.083 334.477 285.176 334.566C285.269 334.652 285.316 334.768 285.316 334.915C285.316 335.054 285.269 335.17 285.176 335.263C285.083 335.352 284.971 335.397 284.839 335.397ZM284.839 337.609C284.708 337.609 284.596 337.564 284.503 337.475C284.41 337.383 284.363 337.266 284.363 337.127C284.363 336.98 284.41 336.864 284.503 336.779C284.596 336.69 284.708 336.645 284.839 336.645C284.971 336.645 285.083 336.69 285.176 336.779C285.269 336.864 285.316 336.98 285.316 337.127C285.316 337.266 285.269 337.383 285.176 337.475C285.083 337.564 284.971 337.609 284.839 337.609ZM266.047 343.568V339.504H269.642V343.568H268.898V339.957L269.073 340.143H266.616L266.791 339.957V343.568H266.047ZM272.309 343.609C272.057 343.609 271.827 343.551 271.618 343.435C271.413 343.319 271.248 343.144 271.124 342.912C271.004 342.676 270.944 342.378 270.944 342.018C270.944 341.654 271.002 341.356 271.119 341.124C271.239 340.892 271.401 340.719 271.606 340.607C271.811 340.491 272.046 340.433 272.309 340.433C272.615 340.433 272.884 340.499 273.116 340.63C273.352 340.762 273.538 340.946 273.673 341.182C273.813 341.418 273.882 341.697 273.882 342.018C273.882 342.339 273.813 342.62 273.673 342.86C273.538 343.096 273.352 343.28 273.116 343.412C272.884 343.543 272.615 343.609 272.309 343.609ZM270.59 344.695V340.468H271.281V341.199L271.258 342.024L271.316 342.848V344.695H270.59ZM272.228 342.988C272.402 342.988 272.557 342.949 272.692 342.872C272.831 342.794 272.942 342.682 273.023 342.535C273.104 342.388 273.145 342.215 273.145 342.018C273.145 341.817 273.104 341.645 273.023 341.501C272.942 341.354 272.831 341.242 272.692 341.165C272.557 341.087 272.402 341.048 272.228 341.048C272.053 341.048 271.897 341.087 271.757 341.165C271.618 341.242 271.508 341.354 271.426 341.501C271.345 341.645 271.304 341.817 271.304 342.018C271.304 342.215 271.345 342.388 271.426 342.535C271.508 342.682 271.618 342.794 271.757 342.872C271.897 342.949 272.053 342.988 272.228 342.988ZM274.658 343.609C274.527 343.609 274.414 343.564 274.321 343.475C274.229 343.383 274.182 343.266 274.182 343.127C274.182 342.98 274.229 342.864 274.321 342.779C274.414 342.69 274.527 342.645 274.658 342.645C274.79 342.645 274.902 342.69 274.995 342.779C275.088 342.864 275.134 342.98 275.134 343.127C275.134 343.266 275.088 343.383 274.995 343.475C274.902 343.564 274.79 343.609 274.658 343.609ZM275.875 343.626C275.809 343.626 275.744 343.621 275.678 343.609C275.612 343.597 275.54 343.584 275.463 343.568L275.515 342.912C275.569 342.928 275.628 342.935 275.689 342.935C275.852 342.935 275.982 342.87 276.078 342.738C276.175 342.603 276.245 342.405 276.287 342.146C276.33 341.886 276.359 341.567 276.375 341.188L276.433 339.504H279.423V343.568H278.68V339.957L278.854 340.143H276.92L277.083 339.951L277.042 341.159C277.031 341.561 277.004 341.915 276.961 342.221C276.918 342.527 276.853 342.785 276.764 342.994C276.678 343.199 276.564 343.355 276.421 343.464C276.278 343.572 276.096 343.626 275.875 343.626ZM280.648 344.735C280.497 344.735 280.346 344.71 280.195 344.66C280.044 344.61 279.918 344.54 279.817 344.451L280.108 343.917C280.181 343.983 280.264 344.035 280.357 344.074C280.45 344.112 280.545 344.132 280.642 344.132C280.773 344.132 280.88 344.099 280.961 344.033C281.042 343.967 281.118 343.857 281.188 343.702L281.368 343.295L281.426 343.208L282.598 340.468H283.295L281.844 343.818C281.747 344.05 281.639 344.234 281.519 344.37C281.402 344.505 281.271 344.6 281.124 344.654C280.98 344.708 280.822 344.735 280.648 344.735ZM281.286 343.679L279.887 340.468H280.642L281.78 343.144L281.286 343.679ZM285.907 343.568L284.786 342.082L285.379 341.716L286.761 343.568H285.907ZM283.683 343.568V340.468H284.409V343.568H283.683ZM284.194 342.326V341.722H285.245V342.326H284.194ZM285.448 342.105L284.769 342.024L285.907 340.468H286.685L285.448 342.105ZM288.981 343.568V342.941L288.94 342.808V341.71C288.94 341.497 288.876 341.333 288.749 341.217C288.621 341.097 288.427 341.037 288.168 341.037C287.994 341.037 287.822 341.064 287.651 341.118C287.485 341.172 287.344 341.248 287.227 341.345L286.943 340.816C287.109 340.688 287.307 340.594 287.535 340.532C287.767 340.466 288.007 340.433 288.255 340.433C288.704 340.433 289.051 340.541 289.294 340.758C289.542 340.971 289.666 341.302 289.666 341.751V343.568H288.981ZM288.005 343.609C287.773 343.609 287.57 343.57 287.396 343.493C287.222 343.412 287.086 343.301 286.989 343.162C286.896 343.019 286.85 342.858 286.85 342.68C286.85 342.506 286.891 342.349 286.972 342.21C287.057 342.07 287.194 341.96 287.384 341.879C287.574 341.797 287.825 341.757 288.139 341.757H289.039V342.239H288.191C287.943 342.239 287.777 342.279 287.692 342.361C287.607 342.438 287.564 342.535 287.564 342.651C287.564 342.783 287.616 342.887 287.721 342.965C287.825 343.042 287.971 343.081 288.156 343.081C288.334 343.081 288.493 343.04 288.633 342.959C288.776 342.877 288.878 342.757 288.94 342.599L289.062 343.034C288.992 343.216 288.867 343.357 288.685 343.458C288.507 343.559 288.28 343.609 288.005 343.609ZM291.859 343.609C291.534 343.609 291.243 343.541 290.988 343.406C290.736 343.266 290.539 343.077 290.396 342.837C290.253 342.597 290.181 342.324 290.181 342.018C290.181 341.708 290.253 341.436 290.396 341.199C290.539 340.959 290.736 340.772 290.988 340.636C291.243 340.501 291.534 340.433 291.859 340.433C292.161 340.433 292.426 340.495 292.654 340.619C292.887 340.739 293.063 340.917 293.183 341.153L292.625 341.478C292.532 341.331 292.418 341.223 292.283 341.153C292.151 341.083 292.008 341.048 291.853 341.048C291.675 341.048 291.514 341.087 291.371 341.165C291.228 341.242 291.116 341.354 291.034 341.501C290.953 341.645 290.913 341.817 290.913 342.018C290.913 342.219 290.953 342.394 291.034 342.541C291.116 342.684 291.228 342.794 291.371 342.872C291.514 342.949 291.675 342.988 291.853 342.988C292.008 342.988 292.151 342.953 292.283 342.883C292.418 342.814 292.532 342.705 292.625 342.558L293.183 342.883C293.063 343.115 292.887 343.295 292.654 343.423C292.426 343.547 292.161 343.609 291.859 343.609ZM295.587 343.568V342.941L295.546 342.808V341.71C295.546 341.497 295.482 341.333 295.355 341.217C295.227 341.097 295.033 341.037 294.774 341.037C294.6 341.037 294.428 341.064 294.257 341.118C294.091 341.172 293.95 341.248 293.833 341.345L293.549 340.816C293.715 340.688 293.913 340.594 294.141 340.532C294.373 340.466 294.613 340.433 294.861 340.433C295.31 340.433 295.657 340.541 295.9 340.758C296.148 340.971 296.272 341.302 296.272 341.751V343.568H295.587ZM294.611 343.609C294.379 343.609 294.176 343.57 294.002 343.493C293.828 343.412 293.692 343.301 293.595 343.162C293.502 343.019 293.456 342.858 293.456 342.68C293.456 342.506 293.497 342.349 293.578 342.21C293.663 342.07 293.801 341.96 293.99 341.879C294.18 341.797 294.431 341.757 294.745 341.757H295.645V342.239H294.797C294.55 342.239 294.383 342.279 294.298 342.361C294.213 342.438 294.17 342.535 294.17 342.651C294.17 342.783 294.222 342.887 294.327 342.965C294.431 343.042 294.577 343.081 294.762 343.081C294.94 343.081 295.099 343.04 295.239 342.959C295.382 342.877 295.484 342.757 295.546 342.599L295.668 343.034C295.599 343.216 295.473 343.357 295.291 343.458C295.113 343.559 294.886 343.609 294.611 343.609ZM298.258 343.568V343.063L299.872 341.53C300.008 341.403 300.108 341.29 300.174 341.194C300.24 341.097 300.283 341.008 300.302 340.926C300.325 340.841 300.337 340.762 300.337 340.688C300.337 340.503 300.273 340.359 300.145 340.259C300.017 340.154 299.83 340.102 299.582 340.102C299.385 340.102 299.205 340.137 299.042 340.207C298.883 340.276 298.746 340.383 298.63 340.526L298.101 340.119C298.26 339.907 298.473 339.742 298.74 339.626C299.011 339.506 299.313 339.446 299.646 339.446C299.94 339.446 300.195 339.494 300.412 339.591C300.633 339.684 300.801 339.817 300.917 339.992C301.037 340.166 301.097 340.373 301.097 340.613C301.097 340.745 301.08 340.876 301.045 341.008C301.01 341.136 300.944 341.271 300.848 341.414C300.751 341.557 300.61 341.718 300.424 341.896L299.036 343.214L298.879 342.93H301.254V343.568H298.258Z" fill="#2B6ED4"/>
</g>
<defs>
<linearGradient id="paint0_linear_787_1267" x1="342.574" y1="235.275" x2="308.256" y2="574.898" gradientUnits="userSpaceOnUse">
<stop stop-color="#2B6ED4"/>
<stop offset="0.856123" stop-color="white"/>
</linearGradient>
<linearGradient id="paint1_linear_787_1267" x1="322.733" y1="129.227" x2="321.025" y2="540.819" gradientUnits="userSpaceOnUse">
<stop stop-color="#2B6ED4"/>
<stop offset="1" stop-color="white"/>
</linearGradient>
<linearGradient id="paint2_linear_787_1267" x1="263.7" y1="179.102" x2="224.213" y2="538.347" gradientUnits="userSpaceOnUse">
<stop stop-color="#2B6ED4"/>
<stop offset="1" stop-color="white"/>
</linearGradient>
<linearGradient id="paint3_linear_787_1267" x1="219.346" y1="179.102" x2="154.049" y2="533.789" gradientUnits="userSpaceOnUse">
<stop stop-color="#2B6ED4"/>
<stop offset="1" stop-color="white"/>
</linearGradient>
<linearGradient id="paint4_linear_787_1267" x1="153.223" y1="192.926" x2="153.223" y2="546.594" gradientUnits="userSpaceOnUse">
<stop stop-color="#2B6ED4"/>
<stop offset="1" stop-color="white"/>
</linearGradient>
<linearGradient id="paint5_linear_787_1267" x1="96.1244" y1="159.152" x2="42.3242" y2="536.365" gradientUnits="userSpaceOnUse">
<stop stop-color="#2B6ED4"/>
<stop offset="1" stop-color="white"/>
</linearGradient>
<linearGradient id="paint6_linear_787_1267" x1="38.7042" y1="122.577" x2="-41.6457" y2="534.557" gradientUnits="userSpaceOnUse">
<stop stop-color="#2B6ED4"/>
<stop offset="1" stop-color="white"/>
</linearGradient>
<clipPath id="clip0_787_1267">
<rect width="399.99" height="564.502" fill="white"/>
</clipPath>
</defs>
</svg>
