<svg width="401" height="566" viewBox="0 0 401 566" fill="none" xmlns="http://www.w3.org/2000/svg">
<g filter="url(#filter0_n_787_1880)">
<g clip-path="url(#clip0_787_1880)">
<rect width="400.379" height="565.052" fill="#2B6ED4"/>
<path d="M18.2845 98.9932V68.6845H31.4038C34.1172 68.6845 36.4553 69.1319 38.4181 70.0267C40.381 70.8927 41.8964 72.1483 42.9644 73.7937C44.0325 75.439 44.5665 77.4018 44.5665 79.6822C44.5665 81.9337 44.0325 83.8821 42.9644 85.5274C41.8964 87.1728 40.381 88.4429 38.4181 89.3377C36.4553 90.2036 34.1172 90.6366 31.4038 90.6366H22.1813L25.2988 87.4759V98.9932H18.2845ZM25.2988 88.2552L22.1813 84.9213H31.0142C33.1791 84.9213 34.7955 84.4594 35.8636 83.5357C36.9316 82.612 37.4656 81.3275 37.4656 79.6822C37.4656 78.008 36.9316 76.7091 35.8636 75.7854C34.7955 74.8617 33.1791 74.3998 31.0142 74.3998H22.1813L25.2988 71.0659V88.2552ZM43.3849 98.9932L56.8939 68.6845H63.8216L77.3739 98.9932H70.0132L58.9289 72.2349H61.7L50.5724 98.9932H43.3849ZM50.1394 92.4984L52.0012 87.1728H67.5886L69.4937 92.4984H50.1394ZM94.4361 99.5127C92.098 99.5127 89.9187 99.1375 87.8981 98.387C85.9064 97.6076 84.1744 96.5107 82.7023 95.0963C81.2302 93.6819 80.0755 92.0222 79.2384 90.117C78.4302 88.2119 78.0261 86.1192 78.0261 83.8388C78.0261 81.5585 78.4302 79.4657 79.2384 77.5606C80.0755 75.6555 81.2302 73.9957 82.7023 72.5813C84.2033 71.1669 85.9497 70.0845 87.9414 69.334C89.9331 68.5546 92.1124 68.1649 94.4794 68.1649C97.1061 68.1649 99.4731 68.6268 101.58 69.5504C103.716 70.4453 105.506 71.7731 106.949 73.5339L102.446 77.6905C101.407 76.507 100.252 75.6266 98.9824 75.0493C97.7123 74.4431 96.3268 74.14 94.8258 74.14C93.4114 74.14 92.1124 74.371 90.9289 74.8328C89.7455 75.2947 88.7207 75.9586 87.8548 76.8245C86.9888 77.6905 86.3105 78.7152 85.8198 79.8987C85.3579 81.0822 85.127 82.3956 85.127 83.8388C85.127 85.2821 85.3579 86.5955 85.8198 87.779C86.3105 88.9624 86.9888 89.9872 87.8548 90.8531C88.7207 91.7191 89.7455 92.383 90.9289 92.8448C92.1124 93.3067 93.4114 93.5376 94.8258 93.5376C96.3268 93.5376 97.7123 93.2489 98.9824 92.6716C100.252 92.0655 101.407 91.1562 102.446 89.9439L106.949 94.1005C105.506 95.8613 103.716 97.2035 101.58 98.1272C99.4731 99.0509 97.0917 99.5127 94.4361 99.5127ZM110.655 98.9932V68.6845H138.279V98.9932H131.308V72.7978L132.91 74.3998H116.024L117.626 72.7978V98.9932H110.655ZM143.431 98.6035L145.12 93.2778C146.794 93.7685 148.194 93.9129 149.32 93.7108C150.474 93.4799 151.499 92.6716 152.394 91.2861L153.866 89.0779L154.516 88.3418L164.561 68.6845H171.445L158.542 92.6716C157.388 94.8365 156.017 96.4963 154.429 97.6509C152.87 98.8055 151.153 99.455 149.277 99.5993C147.4 99.7725 145.452 99.4406 143.431 98.6035ZM154.386 94.1871L140.704 68.6845H148.194L158.239 89.0346L154.386 94.1871ZM180.493 98.9932V72.7978L182.095 74.3998H170.837V68.6845H197.119V74.3998H185.862L187.42 72.7978V98.9932H180.493ZM195.715 98.9932L209.224 68.6845H216.151L229.704 98.9932H222.343L211.259 72.2349H214.03L202.902 98.9932H195.715ZM202.469 92.4984L204.331 87.1728H219.918L221.824 92.4984H202.469ZM232.857 98.9932V68.6845H255.762V74.3132H239.828V93.3644H256.325V98.9932H232.857ZM239.309 86.3501V80.8946H253.9V86.3501H239.309ZM261.124 98.9932V68.6845H266.926L279.829 90.0738H276.755L289.441 68.6845H295.243L295.287 98.9932H288.705L288.662 78.7729H289.918L279.743 95.7891H276.625L266.234 78.7729H267.706V98.9932H261.124ZM301.777 88.4717L300.434 68.6845H308.488L307.146 88.4717H301.777ZM304.461 99.3395C303.249 99.3395 302.253 98.9499 301.473 98.1705C300.694 97.3911 300.304 96.4674 300.304 95.3994C300.304 94.3025 300.694 93.3933 301.473 92.6716C302.253 91.9211 303.249 91.5459 304.461 91.5459C305.702 91.5459 306.698 91.9211 307.449 92.6716C308.228 93.3933 308.618 94.3025 308.618 95.3994C308.618 96.4674 308.228 97.3911 307.449 98.1705C306.698 98.9499 305.702 99.3395 304.461 99.3395Z" fill="white"/>
<path d="M18.7883 271.502V266.95H19.4775L21.4738 270.273H21.1031L23.0669 266.95H23.7561L23.7691 271.502H22.9628L22.9563 268.205H23.1254L21.4608 270.982H21.0836L19.393 268.205H19.5881V271.502H18.7883ZM26.4409 271.547C26.0551 271.547 25.717 271.472 25.4265 271.32C25.1404 271.164 24.9172 270.951 24.7568 270.683C24.6007 270.414 24.5227 270.108 24.5227 269.766C24.5227 269.419 24.5986 269.113 24.7503 268.849C24.9063 268.58 25.1187 268.37 25.3875 268.218C25.6606 268.067 25.9706 267.991 26.3174 267.991C26.6555 267.991 26.9568 268.064 27.2212 268.212C27.4856 268.359 27.6937 268.567 27.8454 268.836C27.9972 269.105 28.073 269.421 28.073 269.785C28.073 269.82 28.0708 269.859 28.0665 269.902C28.0665 269.946 28.0643 269.987 28.06 270.026H25.1664V269.486H27.6308L27.3122 269.655C27.3166 269.456 27.2754 269.28 27.1887 269.129C27.102 268.977 26.9828 268.858 26.8311 268.771C26.6837 268.684 26.5124 268.641 26.3174 268.641C26.118 268.641 25.9424 268.684 25.7907 268.771C25.6433 268.858 25.5262 268.979 25.4395 269.135C25.3572 269.287 25.316 269.467 25.316 269.675V269.805C25.316 270.013 25.3637 270.197 25.459 270.358C25.5544 270.518 25.6888 270.641 25.8622 270.728C26.0356 270.815 26.235 270.858 26.4604 270.858C26.6555 270.858 26.8311 270.828 26.9871 270.767C27.1432 270.706 27.2819 270.611 27.4033 270.481L27.8389 270.982C27.6829 271.164 27.4856 271.305 27.2472 271.404C27.0131 271.5 26.7444 271.547 26.4409 271.547ZM30.4121 271.547C30.0479 271.547 29.7228 271.472 29.4367 271.32C29.1549 271.164 28.9338 270.951 28.7734 270.683C28.6131 270.414 28.5329 270.108 28.5329 269.766C28.5329 269.419 28.6131 269.113 28.7734 268.849C28.9338 268.58 29.1549 268.37 29.4367 268.218C29.7228 268.067 30.0479 267.991 30.4121 267.991C30.7502 267.991 31.0471 268.06 31.3029 268.199C31.563 268.333 31.7602 268.533 31.8946 268.797L31.2704 269.161C31.1663 268.996 31.0385 268.875 30.8867 268.797C30.7393 268.719 30.579 268.68 30.4056 268.68C30.2061 268.68 30.0262 268.723 29.8659 268.81C29.7055 268.897 29.5797 269.022 29.4887 269.187C29.3977 269.347 29.3522 269.54 29.3522 269.766C29.3522 269.991 29.3977 270.186 29.4887 270.351C29.5797 270.511 29.7055 270.635 29.8659 270.722C30.0262 270.808 30.2061 270.852 30.4056 270.852C30.579 270.852 30.7393 270.813 30.8867 270.735C31.0385 270.657 31.1663 270.535 31.2704 270.371L31.8946 270.735C31.7602 270.995 31.563 271.196 31.3029 271.339C31.0471 271.478 30.7502 271.547 30.4121 271.547ZM33.1765 271.502V268.524L33.3651 268.719H31.9541V268.03H35.2053V268.719H33.8008L33.9894 268.524V271.502H33.1765ZM37.06 271.547C36.7046 271.547 36.3881 271.472 36.1107 271.32C35.8332 271.164 35.6143 270.951 35.4539 270.683C35.2935 270.414 35.2133 270.108 35.2133 269.766C35.2133 269.419 35.2935 269.113 35.4539 268.849C35.6143 268.58 35.8332 268.37 36.1107 268.218C36.3881 268.067 36.7046 267.991 37.06 267.991C37.4198 267.991 37.7384 268.067 38.0159 268.218C38.2976 268.37 38.5166 268.578 38.6726 268.842C38.833 269.107 38.9132 269.415 38.9132 269.766C38.9132 270.108 38.833 270.414 38.6726 270.683C38.5166 270.951 38.2976 271.164 38.0159 271.32C37.7384 271.472 37.4198 271.547 37.06 271.547ZM37.06 270.852C37.2594 270.852 37.4372 270.808 37.5932 270.722C37.7493 270.635 37.8707 270.509 37.9574 270.345C38.0484 270.18 38.0939 269.987 38.0939 269.766C38.0939 269.54 38.0484 269.347 37.9574 269.187C37.8707 269.022 37.7493 268.897 37.5932 268.81C37.4372 268.723 37.2616 268.68 37.0665 268.68C36.8671 268.68 36.6894 268.723 36.5333 268.81C36.3816 268.897 36.2602 269.022 36.1692 269.187C36.0782 269.347 36.0326 269.54 36.0326 269.766C36.0326 269.987 36.0782 270.18 36.1692 270.345C36.2602 270.509 36.3816 270.635 36.5333 270.722C36.6894 270.808 36.8649 270.852 37.06 270.852ZM39.8332 269.07C39.6858 269.07 39.5601 269.02 39.4561 268.92C39.352 268.816 39.3 268.686 39.3 268.53C39.3 268.366 39.352 268.236 39.4561 268.14C39.5601 268.04 39.6858 267.991 39.8332 267.991C39.9806 267.991 40.1063 268.04 40.2103 268.14C40.3144 268.236 40.3664 268.366 40.3664 268.53C40.3664 268.686 40.3144 268.816 40.2103 268.92C40.1063 269.02 39.9806 269.07 39.8332 269.07ZM39.8332 271.547C39.6858 271.547 39.5601 271.498 39.4561 271.398C39.352 271.294 39.3 271.164 39.3 271.008C39.3 270.843 39.352 270.713 39.4561 270.618C39.5601 270.518 39.6858 270.468 39.8332 270.468C39.9806 270.468 40.1063 270.518 40.2103 270.618C40.3144 270.713 40.3664 270.843 40.3664 271.008C40.3664 271.164 40.3144 271.294 40.2103 271.398C40.1063 271.498 39.9806 271.547 39.8332 271.547ZM18.7883 278.502V273.95H22.8133V278.502H21.981V274.457L22.176 274.666H19.4255L19.6206 274.457V278.502H18.7883ZM25.8004 278.547C25.5186 278.547 25.2607 278.482 25.0266 278.352C24.7968 278.222 24.6126 278.027 24.4739 277.767C24.3395 277.503 24.2723 277.169 24.2723 276.766C24.2723 276.358 24.3373 276.025 24.4674 275.764C24.6018 275.504 24.7838 275.311 25.0136 275.186C25.2433 275.056 25.5056 274.991 25.8004 274.991C26.1428 274.991 26.4441 275.064 26.7042 275.212C26.9686 275.359 27.1767 275.565 27.3284 275.829C27.4845 276.094 27.5625 276.406 27.5625 276.766C27.5625 277.126 27.4845 277.44 27.3284 277.709C27.1767 277.973 26.9686 278.179 26.7042 278.326C26.4441 278.474 26.1428 278.547 25.8004 278.547ZM23.8757 279.763V275.03H24.6494V275.849L24.6234 276.772L24.6885 277.696V279.763H23.8757ZM25.7093 277.852C25.9044 277.852 26.0778 277.808 26.2295 277.722C26.3856 277.635 26.5091 277.509 26.6002 277.345C26.6912 277.18 26.7367 276.987 26.7367 276.766C26.7367 276.54 26.6912 276.347 26.6002 276.187C26.5091 276.022 26.3856 275.897 26.2295 275.81C26.0778 275.723 25.9044 275.68 25.7093 275.68C25.5143 275.68 25.3387 275.723 25.1826 275.81C25.0266 275.897 24.903 276.022 24.812 276.187C24.721 276.347 24.6754 276.54 24.6754 276.766C24.6754 276.987 24.721 277.18 24.812 277.345C24.903 277.509 25.0266 277.635 25.1826 277.722C25.3387 277.808 25.5143 277.852 25.7093 277.852ZM28.4314 278.547C28.284 278.547 28.1583 278.498 28.0542 278.398C27.9502 278.294 27.8982 278.164 27.8982 278.008C27.8982 277.843 27.9502 277.713 28.0542 277.618C28.1583 277.518 28.284 277.468 28.4314 277.468C28.5787 277.468 28.7045 277.518 28.8085 277.618C28.9125 277.713 28.9646 277.843 28.9646 278.008C28.9646 278.164 28.9125 278.294 28.8085 278.398C28.7045 278.498 28.5787 278.547 28.4314 278.547ZM29.7943 278.567C29.7206 278.567 29.6469 278.56 29.5732 278.547C29.4995 278.534 29.4193 278.519 29.3326 278.502L29.3911 277.767C29.4518 277.785 29.5168 277.793 29.5862 277.793C29.7683 277.793 29.9135 277.719 30.0219 277.572C30.1302 277.42 30.2083 277.199 30.2559 276.909C30.3036 276.618 30.3361 276.261 30.3535 275.836L30.4185 273.95H33.7673V278.502H32.9349V274.457L33.13 274.666H30.9647L31.1468 274.451L31.1013 275.803C31.0883 276.254 31.0579 276.651 31.0102 276.993C30.9625 277.336 30.8888 277.624 30.7891 277.858C30.6938 278.088 30.5659 278.264 30.4055 278.385C30.2451 278.506 30.0414 278.567 29.7943 278.567ZM35.1388 279.809C34.9697 279.809 34.8006 279.781 34.6316 279.724C34.4625 279.668 34.3216 279.59 34.2089 279.49L34.534 278.892C34.6164 278.966 34.7096 279.024 34.8136 279.068C34.9177 279.111 35.0239 279.133 35.1323 279.133C35.2796 279.133 35.3989 279.096 35.4899 279.022C35.5809 278.948 35.6655 278.825 35.7435 278.652L35.9451 278.196L36.0101 278.099L37.3236 275.03H38.1039L36.4783 278.782C36.3699 279.042 36.2485 279.248 36.1141 279.399C35.9841 279.551 35.8367 279.657 35.672 279.718C35.5116 279.779 35.3338 279.809 35.1388 279.809ZM35.854 278.625L34.2869 275.03H35.1323L36.4067 278.027L35.854 278.625ZM41.0288 278.502L39.7738 276.837L40.4371 276.428L41.9846 278.502H41.0288ZM38.5384 278.502V275.03H39.3512V278.502H38.5384ZM39.1106 277.11V276.434H40.2875V277.11H39.1106ZM40.5151 276.863L39.7543 276.772L41.0288 275.03H41.9001L40.5151 276.863ZM44.4711 278.502V277.8L44.4256 277.65V276.421C44.4256 276.183 44.3541 275.999 44.2111 275.868C44.068 275.734 43.8513 275.667 43.5608 275.667C43.3657 275.667 43.1728 275.697 42.9821 275.758C42.7957 275.819 42.6375 275.903 42.5074 276.012L42.1888 275.42C42.3752 275.277 42.5963 275.171 42.852 275.101C43.1121 275.027 43.3809 274.991 43.6583 274.991C44.1612 274.991 44.5492 275.112 44.8223 275.355C45.0997 275.593 45.2384 275.964 45.2384 276.467V278.502H44.4711ZM43.3787 278.547C43.1186 278.547 42.8911 278.504 42.696 278.417C42.5009 278.326 42.3492 278.203 42.2408 278.047C42.1368 277.886 42.0848 277.706 42.0848 277.507C42.0848 277.312 42.1303 277.136 42.2213 276.98C42.3167 276.824 42.4706 276.701 42.683 276.61C42.8954 276.519 43.1772 276.473 43.5283 276.473H44.5362V277.013H43.5868C43.3094 277.013 43.123 277.058 43.0276 277.149C42.9322 277.236 42.8846 277.345 42.8846 277.475C42.8846 277.622 42.9431 277.739 43.0601 277.826C43.1772 277.912 43.3397 277.956 43.5478 277.956C43.7472 277.956 43.9249 277.91 44.081 277.819C44.2414 277.728 44.3563 277.594 44.4256 277.416L44.5622 277.904C44.4842 278.107 44.3433 278.266 44.1395 278.378C43.9401 278.491 43.6865 278.547 43.3787 278.547ZM47.6943 278.547C47.3301 278.547 47.005 278.472 46.7189 278.32C46.4371 278.164 46.216 277.951 46.0557 277.683C45.8953 277.414 45.8151 277.108 45.8151 276.766C45.8151 276.419 45.8953 276.113 46.0557 275.849C46.216 275.58 46.4371 275.37 46.7189 275.218C47.005 275.067 47.3301 274.991 47.6943 274.991C48.0324 274.991 48.3293 275.06 48.5851 275.199C48.8452 275.333 49.0424 275.533 49.1768 275.797L48.5526 276.161C48.4485 275.996 48.3207 275.875 48.1689 275.797C48.0216 275.719 47.8612 275.68 47.6878 275.68C47.4884 275.68 47.3085 275.723 47.1481 275.81C46.9877 275.897 46.862 276.022 46.7709 276.187C46.6799 276.347 46.6344 276.54 46.6344 276.766C46.6344 276.991 46.6799 277.186 46.7709 277.351C46.862 277.511 46.9877 277.635 47.1481 277.722C47.3085 277.808 47.4884 277.852 47.6878 277.852C47.8612 277.852 48.0216 277.813 48.1689 277.735C48.3207 277.657 48.4485 277.535 48.5526 277.371L49.1768 277.735C49.0424 277.995 48.8452 278.196 48.5851 278.339C48.3293 278.478 48.0324 278.547 47.6943 278.547ZM51.8692 278.502V277.8L51.8237 277.65V276.421C51.8237 276.183 51.7521 275.999 51.6091 275.868C51.466 275.734 51.2493 275.667 50.9588 275.667C50.7638 275.667 50.5709 275.697 50.3801 275.758C50.1937 275.819 50.0355 275.903 49.9054 276.012L49.5868 275.42C49.7732 275.277 49.9943 275.171 50.2501 275.101C50.5102 275.027 50.7789 274.991 51.0564 274.991C51.5592 274.991 51.9472 275.112 52.2203 275.355C52.4977 275.593 52.6365 275.964 52.6365 276.467V278.502H51.8692ZM50.7768 278.547C50.5167 278.547 50.2891 278.504 50.094 278.417C49.8989 278.326 49.7472 278.203 49.6388 278.047C49.5348 277.886 49.4828 277.706 49.4828 277.507C49.4828 277.312 49.5283 277.136 49.6193 276.98C49.7147 276.824 49.8686 276.701 50.081 276.61C50.2934 276.519 50.5752 276.473 50.9263 276.473H51.9342V277.013H50.9848C50.7074 277.013 50.521 277.058 50.4256 277.149C50.3303 277.236 50.2826 277.345 50.2826 277.475C50.2826 277.622 50.3411 277.739 50.4581 277.826C50.5752 277.912 50.7378 277.956 50.9458 277.956C51.1452 277.956 51.323 277.91 51.479 277.819C51.6394 277.728 51.7543 277.594 51.8237 277.416L51.9602 277.904C51.8822 278.107 51.7413 278.266 51.5376 278.378C51.3381 278.491 51.0845 278.547 50.7768 278.547ZM54.8606 278.502V277.936L56.6683 276.22C56.82 276.077 56.9327 275.951 57.0064 275.842C57.0801 275.734 57.1278 275.634 57.1494 275.543C57.1755 275.448 57.1885 275.359 57.1885 275.277C57.1885 275.069 57.1169 274.908 56.9739 274.796C56.8308 274.679 56.6206 274.62 56.3431 274.62C56.1221 274.62 55.9205 274.659 55.7384 274.737C55.5607 274.815 55.4068 274.934 55.2767 275.095L54.685 274.64C54.8628 274.401 55.1012 274.217 55.4003 274.087C55.7037 273.952 56.0419 273.885 56.4147 273.885C56.7441 273.885 57.0302 273.939 57.273 274.048C57.5201 274.152 57.7087 274.301 57.8387 274.496C57.9731 274.692 58.0403 274.923 58.0403 275.192C58.0403 275.34 58.0208 275.487 57.9818 275.634C57.9427 275.777 57.869 275.929 57.7607 276.09C57.6523 276.25 57.4941 276.43 57.286 276.629L55.7319 278.105L55.5564 277.787H58.2158V278.502H54.8606Z" fill="white"/>
<path d="M19.302 539.6L18.3916 539.47C18.5564 539.479 18.6907 539.423 18.7948 539.301C18.9031 539.18 18.9877 539.011 19.0484 538.794C19.1091 538.577 19.1546 538.324 19.1849 538.033C19.2153 537.738 19.2369 537.42 19.2499 537.077L19.302 535.634H22.6377V539.795H21.8054V536.349H20.0237L19.9912 537.155C19.9782 537.459 19.9587 537.747 19.9327 538.02C19.911 538.289 19.8742 538.534 19.8222 538.755C19.7745 538.976 19.7073 539.16 19.6206 539.308C19.5339 539.455 19.4277 539.553 19.302 539.6ZM18.2356 541.154L18.2421 539.47H23.2944V541.154H22.5142V540.186H19.0224V541.154H18.2356ZM25.9761 540.186V539.483L25.9306 539.334V538.105C25.9306 537.866 25.859 537.682 25.716 537.552C25.5729 537.418 25.3562 537.35 25.0657 537.35C24.8707 537.35 24.6778 537.381 24.487 537.442C24.3006 537.502 24.1424 537.587 24.0124 537.695L23.6937 537.103C23.8801 536.96 24.1012 536.854 24.357 536.785C24.6171 536.711 24.8858 536.674 25.1633 536.674C25.6661 536.674 26.0541 536.796 26.3272 537.038C26.6047 537.277 26.7434 537.647 26.7434 538.15V540.186H25.9761ZM24.8837 540.231C24.6236 540.231 24.396 540.188 24.2009 540.101C24.0059 540.01 23.8541 539.886 23.7458 539.73C23.6417 539.57 23.5897 539.39 23.5897 539.191C23.5897 538.996 23.6352 538.82 23.7262 538.664C23.8216 538.508 23.9755 538.384 24.1879 538.293C24.4003 538.202 24.6821 538.157 25.0332 538.157H26.0411V538.696H25.0918C24.8143 538.696 24.6279 538.742 24.5325 538.833C24.4372 538.92 24.3895 539.028 24.3895 539.158C24.3895 539.306 24.448 539.423 24.5651 539.509C24.6821 539.596 24.8447 539.639 25.0527 539.639C25.2521 539.639 25.4299 539.594 25.5859 539.503C25.7463 539.412 25.8612 539.277 25.9306 539.1L26.0671 539.587C25.9891 539.791 25.8482 539.949 25.6445 540.062C25.4451 540.175 25.1915 540.231 24.8837 540.231ZM28.3409 540.186V537.207L28.5295 537.403H27.1184V536.713H30.3696V537.403H28.9651L29.1537 537.207V540.186H28.3409ZM32.936 540.186V539.483L32.8904 539.334V538.105C32.8904 537.866 32.8189 537.682 32.6759 537.552C32.5328 537.418 32.3161 537.35 32.0256 537.35C31.8305 537.35 31.6376 537.381 31.4469 537.442C31.2605 537.502 31.1023 537.587 30.9722 537.695L30.6536 537.103C30.84 536.96 31.0611 536.854 31.3169 536.785C31.577 536.711 31.8457 536.674 32.1232 536.674C32.626 536.674 33.014 536.796 33.2871 537.038C33.5645 537.277 33.7032 537.647 33.7032 538.15V540.186H32.936ZM31.8436 540.231C31.5835 540.231 31.3559 540.188 31.1608 540.101C30.9657 540.01 30.814 539.886 30.7056 539.73C30.6016 539.57 30.5496 539.39 30.5496 539.191C30.5496 538.996 30.5951 538.82 30.6861 538.664C30.7815 538.508 30.9354 538.384 31.1478 538.293C31.3602 538.202 31.642 538.157 31.9931 538.157H33.001V538.696H32.0516C31.7742 538.696 31.5878 538.742 31.4924 538.833C31.3971 538.92 31.3494 539.028 31.3494 539.158C31.3494 539.306 31.4079 539.423 31.5249 539.509C31.642 539.596 31.8045 539.639 32.0126 539.639C32.212 539.639 32.3898 539.594 32.5458 539.503C32.7062 539.412 32.8211 539.277 32.8904 539.1L33.027 539.587C32.949 539.791 32.8081 539.949 32.6043 540.062C32.4049 540.175 32.1513 540.231 31.8436 540.231ZM34.8261 537.754C34.6787 537.754 34.553 537.704 34.4489 537.604C34.3449 537.5 34.2929 537.37 34.2929 537.214C34.2929 537.049 34.3449 536.919 34.4489 536.824C34.553 536.724 34.6787 536.674 34.8261 536.674C34.9735 536.674 35.0992 536.724 35.2032 536.824C35.3073 536.919 35.3593 537.049 35.3593 537.214C35.3593 537.37 35.3073 537.5 35.2032 537.604C35.0992 537.704 34.9735 537.754 34.8261 537.754ZM34.8261 540.231C34.6787 540.231 34.553 540.181 34.4489 540.082C34.3449 539.977 34.2929 539.847 34.2929 539.691C34.2929 539.527 34.3449 539.397 34.4489 539.301C34.553 539.202 34.6787 539.152 34.8261 539.152C34.9735 539.152 35.0992 539.202 35.2032 539.301C35.3073 539.397 35.3593 539.527 35.3593 539.691C35.3593 539.847 35.3073 539.977 35.2032 540.082C35.0992 540.181 34.9735 540.231 34.8261 540.231ZM20.3293 547.251C19.9695 547.251 19.6444 547.16 19.354 546.977C19.0679 546.795 18.8425 546.531 18.6777 546.184C18.513 545.833 18.4306 545.408 18.4306 544.91C18.4306 544.411 18.513 543.989 18.6777 543.642C18.8425 543.291 19.0679 543.024 19.354 542.842C19.6444 542.66 19.9695 542.569 20.3293 542.569C20.6935 542.569 21.0186 542.66 21.3047 542.842C21.5908 543.024 21.8162 543.291 21.981 543.642C22.15 543.989 22.2346 544.411 22.2346 544.91C22.2346 545.408 22.15 545.833 21.981 546.184C21.8162 546.531 21.5908 546.795 21.3047 546.977C21.0186 547.16 20.6935 547.251 20.3293 547.251ZM20.3293 546.516C20.5418 546.516 20.726 546.459 20.882 546.347C21.0381 546.23 21.1595 546.052 21.2462 545.814C21.3372 545.575 21.3827 545.274 21.3827 544.91C21.3827 544.541 21.3372 544.24 21.2462 544.006C21.1595 543.767 21.0381 543.592 20.882 543.479C20.726 543.362 20.5418 543.304 20.3293 543.304C20.1256 543.304 19.9435 543.362 19.7831 543.479C19.6271 543.592 19.5035 543.767 19.4125 544.006C19.3258 544.24 19.2825 544.541 19.2825 544.91C19.2825 545.274 19.3258 545.575 19.4125 545.814C19.5035 546.052 19.6271 546.23 19.7831 546.347C19.9435 546.459 20.1256 546.516 20.3293 546.516ZM23.3977 547.186V542.959L23.7683 543.343H22.4353V542.634H24.243V547.186H23.3977ZM25.523 547.231C25.3757 547.231 25.2499 547.181 25.1459 547.082C25.0419 546.977 24.9899 546.847 24.9899 546.691C24.9899 546.527 25.0419 546.397 25.1459 546.301C25.2499 546.202 25.3757 546.152 25.523 546.152C25.6704 546.152 25.7962 546.202 25.9002 546.301C26.0042 546.397 26.0562 546.527 26.0562 546.691C26.0562 546.847 26.0042 546.977 25.9002 547.082C25.7962 547.181 25.6704 547.231 25.523 547.231ZM28.2958 547.251C27.936 547.251 27.6109 547.16 27.3205 546.977C27.0344 546.795 26.8089 546.531 26.6442 546.184C26.4795 545.833 26.3971 545.408 26.3971 544.91C26.3971 544.411 26.4795 543.989 26.6442 543.642C26.8089 543.291 27.0344 543.024 27.3205 542.842C27.6109 542.66 27.936 542.569 28.2958 542.569C28.66 542.569 28.9851 542.66 29.2712 542.842C29.5573 543.024 29.7827 543.291 29.9474 543.642C30.1165 543.989 30.201 544.411 30.201 544.91C30.201 545.408 30.1165 545.833 29.9474 546.184C29.7827 546.531 29.5573 546.795 29.2712 546.977C28.9851 547.16 28.66 547.251 28.2958 547.251ZM28.2958 546.516C28.5082 546.516 28.6925 546.459 28.8485 546.347C29.0046 546.23 29.126 546.052 29.2127 545.814C29.3037 545.575 29.3492 545.274 29.3492 544.91C29.3492 544.541 29.3037 544.24 29.2127 544.006C29.126 543.767 29.0046 543.592 28.8485 543.479C28.6925 543.362 28.5082 543.304 28.2958 543.304C28.0921 543.304 27.91 543.362 27.7496 543.479C27.5936 543.592 27.47 543.767 27.379 544.006C27.2923 544.24 27.2489 544.541 27.2489 544.91C27.2489 545.274 27.2923 545.575 27.379 545.814C27.47 546.052 27.5936 546.23 27.7496 546.347C27.91 546.459 28.0921 546.516 28.2958 546.516ZM32.4694 547.251C32.0923 547.251 31.765 547.194 31.4875 547.082C31.2101 546.969 30.9955 546.811 30.8438 546.607C30.6921 546.399 30.6162 546.156 30.6162 545.879C30.6162 545.601 30.6899 545.367 30.8373 545.176C30.9847 544.986 31.1971 544.84 31.4745 544.741C31.752 544.641 32.0836 544.591 32.4694 544.591C32.8552 544.591 33.1868 544.641 33.4643 544.741C33.7461 544.84 33.9606 544.988 34.108 545.183C34.2597 545.374 34.3356 545.605 34.3356 545.879C34.3356 546.156 34.2576 546.399 34.1015 546.607C33.9498 546.811 33.733 546.969 33.4513 547.082C33.1738 547.194 32.8466 547.251 32.4694 547.251ZM32.4694 546.587C32.7815 546.587 33.0286 546.522 33.2107 546.392C33.3928 546.262 33.4838 546.082 33.4838 545.853C33.4838 545.627 33.3928 545.449 33.2107 545.319C33.0286 545.189 32.7815 545.124 32.4694 545.124C32.1573 545.124 31.9124 545.189 31.7346 545.319C31.5569 545.449 31.468 545.627 31.468 545.853C31.468 546.082 31.5569 546.262 31.7346 546.392C31.9124 546.522 32.1573 546.587 32.4694 546.587ZM32.4694 544.513C32.7382 544.513 32.9506 544.457 33.1066 544.344C33.2627 544.227 33.3407 544.071 33.3407 543.876C33.3407 543.672 33.2605 543.514 33.1001 543.401C32.9398 543.288 32.7295 543.232 32.4694 543.232C32.2093 543.232 32.0012 543.288 31.8452 543.401C31.6891 543.514 31.6111 543.672 31.6111 543.876C31.6111 544.071 31.687 544.227 31.8387 544.344C31.9947 544.457 32.205 544.513 32.4694 544.513ZM32.4694 545.033C32.1183 545.033 31.817 544.988 31.5656 544.897C31.3141 544.801 31.1191 544.665 30.9804 544.487C30.846 544.305 30.7788 544.088 30.7788 543.837C30.7788 543.577 30.8481 543.353 30.9869 543.167C31.1299 542.976 31.3293 542.829 31.5851 542.725C31.8408 542.621 32.1356 542.569 32.4694 542.569C32.8075 542.569 33.1045 542.621 33.3602 542.725C33.616 542.829 33.8154 542.976 33.9585 543.167C34.1015 543.353 34.173 543.577 34.173 543.837C34.173 544.088 34.1037 544.305 33.965 544.487C33.8306 544.665 33.6355 544.801 33.3797 544.897C33.124 544.988 32.8205 545.033 32.4694 545.033ZM35.3247 547.231C35.1773 547.231 35.0516 547.181 34.9475 547.082C34.8435 546.977 34.7915 546.847 34.7915 546.691C34.7915 546.527 34.8435 546.397 34.9475 546.301C35.0516 546.202 35.1773 546.152 35.3247 546.152C35.4721 546.152 35.5978 546.202 35.7018 546.301C35.8059 546.397 35.8579 546.527 35.8579 546.691C35.8579 546.847 35.8059 546.977 35.7018 547.082C35.5978 547.181 35.4721 547.231 35.3247 547.231ZM36.2799 547.186V546.62L38.0876 544.903C38.2393 544.76 38.352 544.634 38.4257 544.526C38.4994 544.418 38.5471 544.318 38.5688 544.227C38.5948 544.132 38.6078 544.043 38.6078 543.96C38.6078 543.752 38.5363 543.592 38.3932 543.479C38.2502 543.362 38.0399 543.304 37.7625 543.304C37.5414 543.304 37.3398 543.343 37.1578 543.421C36.98 543.499 36.8261 543.618 36.6961 543.778L36.1044 543.323C36.2821 543.085 36.5205 542.9 36.8196 542.77C37.1231 542.636 37.4612 542.569 37.834 542.569C38.1635 542.569 38.4496 542.623 38.6923 542.731C38.9394 542.835 39.128 542.985 39.258 543.18C39.3924 543.375 39.4596 543.607 39.4596 543.876C39.4596 544.023 39.4401 544.171 39.4011 544.318C39.3621 544.461 39.2884 544.613 39.18 544.773C39.0716 544.934 38.9134 545.113 38.7053 545.313L37.1513 546.789L36.9757 546.47H39.6352V547.186H36.2799ZM41.8917 547.251C41.5319 547.251 41.2068 547.16 40.9164 546.977C40.6303 546.795 40.4048 546.531 40.2401 546.184C40.0754 545.833 39.993 545.408 39.993 544.91C39.993 544.411 40.0754 543.989 40.2401 543.642C40.4048 543.291 40.6303 543.024 40.9164 542.842C41.2068 542.66 41.5319 542.569 41.8917 542.569C42.2559 542.569 42.581 542.66 42.8671 542.842C43.1532 543.024 43.3786 543.291 43.5433 543.642C43.7124 543.989 43.7969 544.411 43.7969 544.91C43.7969 545.408 43.7124 545.833 43.5433 546.184C43.3786 546.531 43.1532 546.795 42.8671 546.977C42.581 547.16 42.2559 547.251 41.8917 547.251ZM41.8917 546.516C42.1041 546.516 42.2884 546.459 42.4444 546.347C42.6005 546.23 42.7219 546.052 42.8086 545.814C42.8996 545.575 42.9451 545.274 42.9451 544.91C42.9451 544.541 42.8996 544.24 42.8086 544.006C42.7219 543.767 42.6005 543.592 42.4444 543.479C42.2884 543.362 42.1041 543.304 41.8917 543.304C41.688 543.304 41.5059 543.362 41.3455 543.479C41.1895 543.592 41.0659 543.767 40.9749 544.006C40.8882 544.24 40.8448 544.541 40.8448 544.91C40.8448 545.274 40.8882 545.575 40.9749 545.814C41.0659 546.052 41.1895 546.23 41.3455 546.347C41.5059 546.459 41.688 546.516 41.8917 546.516ZM44.1733 547.186V546.62L45.9809 544.903C46.1327 544.76 46.2454 544.634 46.3191 544.526C46.3927 544.418 46.4404 544.318 46.4621 544.227C46.4881 544.132 46.5011 544.043 46.5011 543.96C46.5011 543.752 46.4296 543.592 46.2865 543.479C46.1435 543.362 45.9332 543.304 45.6558 543.304C45.4347 543.304 45.2332 543.343 45.0511 543.421C44.8733 543.499 44.7195 543.618 44.5894 543.778L43.9977 543.323C44.1754 543.085 44.4138 542.9 44.713 542.77C45.0164 542.636 45.3545 542.569 45.7273 542.569C46.0568 542.569 46.3429 542.623 46.5857 542.731C46.8327 542.835 47.0213 542.985 47.1514 543.18C47.2857 543.375 47.3529 543.607 47.3529 543.876C47.3529 544.023 47.3334 544.171 47.2944 544.318C47.2554 544.461 47.1817 544.613 47.0733 544.773C46.965 544.934 46.8067 545.113 46.5987 545.313L45.0446 546.789L44.869 546.47H47.5285V547.186H44.1733ZM49.8566 547.251C49.4448 547.251 49.0915 547.164 48.7967 546.99C48.5019 546.813 48.2765 546.557 48.1204 546.223C47.9644 545.889 47.8863 545.478 47.8863 544.988C47.8863 544.468 47.9795 544.028 48.1659 543.668C48.3567 543.308 48.6189 543.035 48.9527 542.848C49.2909 542.662 49.6788 542.569 50.1167 542.569C50.3464 542.569 50.5653 542.593 50.7734 542.64C50.9858 542.688 51.1657 542.762 51.3131 542.861L51.001 543.499C50.8753 543.416 50.7387 543.36 50.5913 543.33C50.4483 543.295 50.2966 543.278 50.1362 543.278C49.707 543.278 49.3667 543.41 49.1153 543.674C48.8639 543.939 48.7382 544.329 48.7382 544.845C48.7382 544.927 48.7403 545.025 48.7447 545.137C48.749 545.246 48.7642 545.356 48.7902 545.469L48.5301 545.183C48.6081 545.005 48.7143 544.858 48.8487 544.741C48.9874 544.619 49.15 544.528 49.3364 544.468C49.5271 544.407 49.733 544.377 49.9541 544.377C50.2532 544.377 50.5198 544.435 50.7539 544.552C50.988 544.665 51.1744 544.827 51.3131 545.04C51.4518 545.248 51.5212 545.493 51.5212 545.775C51.5212 546.074 51.4475 546.334 51.3001 546.555C51.1527 546.776 50.9533 546.947 50.7019 547.069C50.4505 547.19 50.1687 547.251 49.8566 547.251ZM49.8111 546.587C49.9845 546.587 50.1383 546.557 50.2727 546.496C50.4071 546.431 50.5111 546.34 50.5848 546.223C50.6629 546.106 50.7019 545.97 50.7019 545.814C50.7019 545.575 50.6195 545.387 50.4548 545.248C50.2901 545.109 50.069 545.04 49.7915 545.04C49.6095 545.04 49.4491 545.074 49.3104 545.144C49.176 545.209 49.0676 545.3 48.9852 545.417C48.9072 545.534 48.8682 545.668 48.8682 545.82C48.8682 545.959 48.9051 546.087 48.9787 546.204C49.0524 546.321 49.1586 546.414 49.2974 546.483C49.4404 546.553 49.6116 546.587 49.8111 546.587Z" fill="white"/>
<path d="M18.7883 451.689V447.138H22.8133V451.689H21.981V447.645L22.176 447.853H19.4255L19.6206 447.645V451.689H18.7883ZM25.4948 451.735C25.1089 451.735 24.7708 451.659 24.4804 451.507C24.1943 451.351 23.971 451.139 23.8106 450.87C23.6546 450.601 23.5765 450.296 23.5765 449.953C23.5765 449.607 23.6524 449.301 23.8041 449.036C23.9602 448.768 24.1726 448.557 24.4414 448.406C24.7145 448.254 25.0244 448.178 25.3712 448.178C25.7093 448.178 26.0106 448.252 26.275 448.399C26.5395 448.547 26.7476 448.755 26.8993 449.023C27.051 449.292 27.1269 449.609 27.1269 449.973C27.1269 450.007 27.1247 450.047 27.1204 450.09C27.1204 450.133 27.1182 450.174 27.1139 450.213H24.2203V449.674H26.6847L26.3661 449.843C26.3704 449.643 26.3292 449.468 26.2425 449.316C26.1558 449.164 26.0366 449.045 25.8849 448.958C25.7375 448.872 25.5663 448.828 25.3712 448.828C25.1718 448.828 24.9962 448.872 24.8445 448.958C24.6971 449.045 24.5801 449.167 24.4934 449.323C24.411 449.474 24.3698 449.654 24.3698 449.862V449.992C24.3698 450.2 24.4175 450.385 24.5129 450.545C24.6083 450.705 24.7426 450.829 24.916 450.916C25.0894 451.002 25.2888 451.046 25.5143 451.046C25.7093 451.046 25.8849 451.015 26.041 450.955C26.197 450.894 26.3357 450.799 26.4571 450.669L26.8928 451.169C26.7367 451.351 26.5395 451.492 26.3011 451.592C26.067 451.687 25.7982 451.735 25.4948 451.735ZM29.8105 451.735C29.5288 451.735 29.2708 451.67 29.0367 451.54C28.807 451.41 28.6228 451.215 28.484 450.955C28.3497 450.69 28.2825 450.356 28.2825 449.953C28.2825 449.546 28.3475 449.212 28.4775 448.952C28.6119 448.692 28.794 448.499 29.0237 448.373C29.2535 448.243 29.5158 448.178 29.8105 448.178C30.153 448.178 30.4543 448.252 30.7144 448.399C30.9788 448.547 31.1869 448.753 31.3386 449.017C31.4947 449.281 31.5727 449.594 31.5727 449.953C31.5727 450.313 31.4947 450.627 31.3386 450.896C31.1869 451.161 30.9788 451.366 30.7144 451.514C30.4543 451.661 30.153 451.735 29.8105 451.735ZM27.8858 452.951V448.217H28.6596V449.036L28.6336 449.96L28.6986 450.883V452.951H27.8858ZM29.7195 451.039C29.9146 451.039 30.088 450.996 30.2397 450.909C30.3957 450.822 30.5193 450.697 30.6103 450.532C30.7014 450.367 30.7469 450.174 30.7469 449.953C30.7469 449.728 30.7014 449.535 30.6103 449.375C30.5193 449.21 30.3957 449.084 30.2397 448.997C30.088 448.911 29.9146 448.867 29.7195 448.867C29.5244 448.867 29.3489 448.911 29.1928 448.997C29.0367 449.084 28.9132 449.21 28.8222 449.375C28.7311 449.535 28.6856 449.728 28.6856 449.953C28.6856 450.174 28.7311 450.367 28.8222 450.532C28.9132 450.697 29.0367 450.822 29.1928 450.909C29.3489 450.996 29.5244 451.039 29.7195 451.039ZM33.8707 451.735C33.4849 451.735 33.1467 451.659 32.8563 451.507C32.5702 451.351 32.3469 451.139 32.1866 450.87C32.0305 450.601 31.9525 450.296 31.9525 449.953C31.9525 449.607 32.0283 449.301 32.1801 449.036C32.3361 448.768 32.5485 448.557 32.8173 448.406C33.0904 448.254 33.4003 448.178 33.7471 448.178C34.0853 448.178 34.3865 448.252 34.651 448.399C34.9154 448.547 35.1235 448.755 35.2752 449.023C35.4269 449.292 35.5028 449.609 35.5028 449.973C35.5028 450.007 35.5006 450.047 35.4963 450.09C35.4963 450.133 35.4941 450.174 35.4898 450.213H32.5962V449.674H35.0606L34.742 449.843C34.7463 449.643 34.7052 449.468 34.6185 449.316C34.5318 449.164 34.4125 449.045 34.2608 448.958C34.1134 448.872 33.9422 448.828 33.7471 448.828C33.5477 448.828 33.3722 448.872 33.2204 448.958C33.0731 449.045 32.956 449.167 32.8693 449.323C32.7869 449.474 32.7458 449.654 32.7458 449.862V449.992C32.7458 450.2 32.7934 450.385 32.8888 450.545C32.9842 450.705 33.1186 450.829 33.292 450.916C33.4654 451.002 33.6648 451.046 33.8902 451.046C34.0853 451.046 34.2608 451.015 34.4169 450.955C34.5729 450.894 34.7117 450.799 34.833 450.669L35.2687 451.169C35.1126 451.351 34.9154 451.492 34.677 451.592C34.4429 451.687 34.1741 451.735 33.8707 451.735ZM37.3607 451.748C37.0962 451.748 36.834 451.718 36.5739 451.657C36.3181 451.592 36.0862 451.501 35.8781 451.384L36.1057 450.779C36.2747 450.874 36.4655 450.948 36.6779 451C36.8903 451.052 37.1027 451.078 37.3151 451.078C37.4972 451.078 37.6533 451.061 37.7833 451.026C37.9134 450.987 38.0131 450.931 38.0824 450.857C38.1561 450.783 38.193 450.699 38.193 450.604C38.193 450.465 38.1323 450.361 38.0109 450.291C37.8939 450.218 37.7248 450.181 37.5037 450.181H36.7104V449.635H37.4387C37.5774 449.635 37.6944 449.62 37.7898 449.589C37.8895 449.559 37.9654 449.513 38.0174 449.453C38.0694 449.392 38.0954 449.32 38.0954 449.238C38.0954 449.156 38.0629 449.084 37.9979 449.023C37.9372 448.958 37.8483 448.911 37.7313 448.88C37.6142 448.846 37.4734 448.828 37.3086 448.828C37.1352 448.828 36.9553 448.85 36.7689 448.893C36.5869 448.937 36.4005 449 36.2097 449.082L36.0016 448.484C36.2227 448.384 36.4373 448.308 36.6454 448.256C36.8578 448.2 37.068 448.169 37.2761 448.165C37.5926 448.152 37.8743 448.185 38.1214 448.263C38.3685 448.341 38.5636 448.453 38.7067 448.601C38.8497 448.748 38.9212 448.922 38.9212 449.121C38.9212 449.286 38.8692 449.435 38.7652 449.57C38.6655 449.7 38.5268 449.802 38.349 449.875C38.1756 449.949 37.9762 449.986 37.7508 449.986L37.7768 449.81C38.1626 449.81 38.4661 449.888 38.6871 450.044C38.9082 450.196 39.0188 450.404 39.0188 450.669C39.0188 450.881 38.9472 451.07 38.8042 451.234C38.6611 451.395 38.4639 451.52 38.2125 451.611C37.9654 451.702 37.6814 451.748 37.3607 451.748ZM41.8326 451.689V450.987L41.7871 450.838V449.609C41.7871 449.37 41.7155 449.186 41.5725 449.056C41.4294 448.922 41.2127 448.854 40.9222 448.854C40.7272 448.854 40.5343 448.885 40.3435 448.945C40.1571 449.006 39.9989 449.091 39.8689 449.199L39.5502 448.607C39.7366 448.464 39.9577 448.358 40.2135 448.289C40.4736 448.215 40.7423 448.178 41.0198 448.178C41.5226 448.178 41.9106 448.3 42.1837 448.542C42.4612 448.781 42.5999 449.151 42.5999 449.654V451.689H41.8326ZM40.7402 451.735C40.4801 451.735 40.2525 451.692 40.0574 451.605C39.8624 451.514 39.7106 451.39 39.6023 451.234C39.4982 451.074 39.4462 450.894 39.4462 450.695C39.4462 450.5 39.4917 450.324 39.5828 450.168C39.6781 450.012 39.832 449.888 40.0444 449.797C40.2568 449.706 40.5386 449.661 40.8897 449.661H41.8976V450.2H40.9483C40.6708 450.2 40.4844 450.246 40.3891 450.337C40.2937 450.424 40.246 450.532 40.246 450.662C40.246 450.809 40.3045 450.927 40.4216 451.013C40.5386 451.1 40.7012 451.143 40.9092 451.143C41.1087 451.143 41.2864 451.098 41.4424 451.007C41.6028 450.916 41.7177 450.781 41.7871 450.604L41.9236 451.091C41.8456 451.295 41.7047 451.453 41.501 451.566C41.3016 451.679 41.048 451.735 40.7402 451.735ZM43.4756 451.689V448.217H46.1416V448.906H44.0998L44.2884 448.724V451.689H43.4756ZM48.5278 451.735C48.2461 451.735 47.9881 451.67 47.7541 451.54C47.5243 451.41 47.3401 451.215 47.2014 450.955C47.067 450.69 46.9998 450.356 46.9998 449.953C46.9998 449.546 47.0648 449.212 47.1948 448.952C47.3292 448.692 47.5113 448.499 47.7411 448.373C47.9708 448.243 48.2331 448.178 48.5278 448.178C48.8703 448.178 49.1716 448.252 49.4317 448.399C49.6961 448.547 49.9042 448.753 50.0559 449.017C50.212 449.281 50.29 449.594 50.29 449.953C50.29 450.313 50.212 450.627 50.0559 450.896C49.9042 451.161 49.6961 451.366 49.4317 451.514C49.1716 451.661 48.8703 451.735 48.5278 451.735ZM46.6031 452.951V448.217H47.3769V449.036L47.3509 449.96L47.4159 450.883V452.951H46.6031ZM48.4368 451.039C48.6319 451.039 48.8053 450.996 48.957 450.909C49.1131 450.822 49.2366 450.697 49.3276 450.532C49.4187 450.367 49.4642 450.174 49.4642 449.953C49.4642 449.728 49.4187 449.535 49.3276 449.375C49.2366 449.21 49.1131 449.084 48.957 448.997C48.8053 448.911 48.6319 448.867 48.4368 448.867C48.2417 448.867 48.0662 448.911 47.9101 448.997C47.7541 449.084 47.6305 449.21 47.5395 449.375C47.4484 449.535 47.4029 449.728 47.4029 449.953C47.4029 450.174 47.4484 450.367 47.5395 450.532C47.6305 450.697 47.7541 450.822 47.9101 450.909C48.0662 450.996 48.2417 451.039 48.4368 451.039ZM51.1858 452.996C51.0167 452.996 50.8476 452.968 50.6786 452.912C50.5095 452.856 50.3686 452.778 50.2559 452.678L50.581 452.08C50.6634 452.153 50.7566 452.212 50.8606 452.255C50.9647 452.299 51.0709 452.32 51.1793 452.32C51.3266 452.32 51.4459 452.283 51.5369 452.21C51.6279 452.136 51.7125 452.012 51.7905 451.839L51.9921 451.384L52.0571 451.286L53.3706 448.217H54.1509L52.5253 451.969C52.4169 452.229 52.2955 452.435 52.1611 452.587C52.0311 452.739 51.8837 452.845 51.719 452.905C51.5586 452.966 51.3808 452.996 51.1858 452.996ZM51.901 451.813L50.3339 448.217H51.1793L52.4537 451.215L51.901 451.813ZM55.6843 451.748C55.4198 451.748 55.1576 451.718 54.8975 451.657C54.6417 451.592 54.4098 451.501 54.2017 451.384L54.4293 450.779C54.5984 450.874 54.7891 450.948 55.0015 451C55.2139 451.052 55.4263 451.078 55.6387 451.078C55.8208 451.078 55.9769 451.061 56.1069 451.026C56.237 450.987 56.3367 450.931 56.406 450.857C56.4797 450.783 56.5166 450.699 56.5166 450.604C56.5166 450.465 56.4559 450.361 56.3345 450.291C56.2175 450.218 56.0484 450.181 55.8273 450.181H55.034V449.635H55.7623C55.901 449.635 56.0181 449.62 56.1134 449.589C56.2131 449.559 56.289 449.513 56.341 449.453C56.393 449.392 56.419 449.32 56.419 449.238C56.419 449.156 56.3865 449.084 56.3215 449.023C56.2608 448.958 56.1719 448.911 56.0549 448.88C55.9379 448.846 55.797 448.828 55.6322 448.828C55.4588 448.828 55.2789 448.85 55.0925 448.893C54.9105 448.937 54.7241 449 54.5333 449.082L54.3253 448.484C54.5463 448.384 54.7609 448.308 54.969 448.256C55.1814 448.2 55.3917 448.169 55.5997 448.165C55.9162 448.152 56.198 448.185 56.445 448.263C56.6921 448.341 56.8872 448.453 57.0303 448.601C57.1733 448.748 57.2448 448.922 57.2448 449.121C57.2448 449.286 57.1928 449.435 57.0888 449.57C56.9891 449.7 56.8504 449.802 56.6726 449.875C56.4992 449.949 56.2998 449.986 56.0744 449.986L56.1004 449.81C56.4862 449.81 56.7897 449.888 57.0108 450.044C57.2318 450.196 57.3424 450.404 57.3424 450.669C57.3424 450.881 57.2709 451.07 57.1278 451.234C56.9847 451.395 56.7875 451.52 56.5361 451.611C56.289 451.702 56.005 451.748 55.6843 451.748ZM60.5398 451.689L59.2849 450.025L59.9481 449.615L61.4957 451.689H60.5398ZM58.0494 451.689V448.217H58.8622V451.689H58.0494ZM58.6216 450.298V449.622H59.7986V450.298H58.6216ZM60.0262 450.051L59.2654 449.96L60.5398 448.217H61.4112L60.0262 450.051ZM63.9822 451.689V450.987L63.9367 450.838V449.609C63.9367 449.37 63.8652 449.186 63.7221 449.056C63.5791 448.922 63.3623 448.854 63.0719 448.854C62.8768 448.854 62.6839 448.885 62.4932 448.945C62.3068 449.006 62.1485 449.091 62.0185 449.199L61.6999 448.607C61.8863 448.464 62.1074 448.358 62.3631 448.289C62.6232 448.215 62.892 448.178 63.1694 448.178C63.6723 448.178 64.0602 448.3 64.3333 448.542C64.6108 448.781 64.7495 449.151 64.7495 449.654V451.689H63.9822ZM62.8898 451.735C62.6297 451.735 62.4021 451.692 62.2071 451.605C62.012 451.514 61.8603 451.39 61.7519 451.234C61.6478 451.074 61.5958 450.894 61.5958 450.695C61.5958 450.5 61.6413 450.324 61.7324 450.168C61.8277 450.012 61.9816 449.888 62.194 449.797C62.4065 449.706 62.6882 449.661 63.0394 449.661H64.0472V450.2H63.0979C62.8204 450.2 62.634 450.246 62.5387 450.337C62.4433 450.424 62.3956 450.532 62.3956 450.662C62.3956 450.809 62.4541 450.927 62.5712 451.013C62.6882 451.1 62.8508 451.143 63.0589 451.143C63.2583 451.143 63.436 451.098 63.5921 451.007C63.7525 450.916 63.8673 450.781 63.9367 450.604L64.0732 451.091C63.9952 451.295 63.8543 451.453 63.6506 451.566C63.4512 451.679 63.1976 451.735 62.8898 451.735ZM18.6907 458.689V455.217H19.5426L20.9406 457.682H20.6024L22.072 455.217H22.8328L22.8393 458.689H22.1045V456.088L22.2346 456.173L20.9341 458.325H20.5829L19.276 456.114L19.432 456.075V458.689H18.6907ZM25.373 458.696L23.7995 458.689V455.217H24.6123V456.355L25.4901 456.362C25.9366 456.362 26.2747 456.461 26.5045 456.661C26.7385 456.86 26.8556 457.142 26.8556 457.506C26.8556 457.883 26.7255 458.178 26.4654 458.39C26.2097 458.598 25.8455 458.7 25.373 458.696ZM25.3015 458.098C25.5399 458.102 25.722 458.052 25.8477 457.948C25.9734 457.844 26.0363 457.692 26.0363 457.493C26.0363 457.294 25.9734 457.151 25.8477 457.064C25.7263 456.973 25.5443 456.925 25.3015 456.921L24.6123 456.914V458.091L25.3015 458.098ZM27.3043 458.689V455.217H28.1171V458.689H27.3043ZM30.6597 458.735C30.2956 458.735 29.9704 458.659 29.6843 458.507C29.4026 458.351 29.1815 458.139 29.0211 457.87C28.8607 457.601 28.7805 457.296 28.7805 456.953C28.7805 456.607 28.8607 456.301 29.0211 456.036C29.1815 455.768 29.4026 455.557 29.6843 455.406C29.9704 455.254 30.2956 455.178 30.6597 455.178C30.9978 455.178 31.2948 455.248 31.5505 455.386C31.8106 455.521 32.0079 455.72 32.1423 455.984L31.518 456.349C31.414 456.184 31.2861 456.062 31.1344 455.984C30.987 455.906 30.8266 455.867 30.6532 455.867C30.4538 455.867 30.2739 455.911 30.1135 455.997C29.9531 456.084 29.8274 456.21 29.7364 456.375C29.6453 456.535 29.5998 456.728 29.5998 456.953C29.5998 457.179 29.6453 457.374 29.7364 457.539C29.8274 457.699 29.9531 457.822 30.1135 457.909C30.2739 457.996 30.4538 458.039 30.6532 458.039C30.8266 458.039 30.987 458 31.1344 457.922C31.2861 457.844 31.414 457.723 31.518 457.558L32.1423 457.922C32.0079 458.182 31.8106 458.384 31.5505 458.527C31.2948 458.666 30.9978 458.735 30.6597 458.735ZM32.5868 458.754C32.5217 458.754 32.4502 458.748 32.3722 458.735C32.2985 458.722 32.2205 458.705 32.1381 458.683L32.1771 458C32.2074 458.005 32.2356 458.009 32.2616 458.013C32.2876 458.018 32.3115 458.02 32.3332 458.02C32.4675 458.02 32.5716 457.979 32.6453 457.896C32.719 457.814 32.7732 457.703 32.8078 457.565C32.8469 457.421 32.8729 457.263 32.8859 457.09C32.9032 456.912 32.9162 456.734 32.9249 456.557L32.9834 455.217H35.7925V458.689H34.9796V455.685L35.1682 455.906H33.5166L33.6922 455.679L33.6467 456.596C33.6336 456.903 33.6076 457.19 33.5686 457.454C33.5339 457.714 33.4776 457.942 33.3996 458.137C33.3259 458.332 33.2218 458.484 33.0874 458.592C32.9574 458.7 32.7905 458.754 32.5868 458.754ZM38.3761 458.735C37.9903 458.735 37.6522 458.659 37.3618 458.507C37.0757 458.351 36.8524 458.139 36.692 457.87C36.536 457.601 36.4579 457.296 36.4579 456.953C36.4579 456.607 36.5338 456.301 36.6855 456.036C36.8416 455.768 37.054 455.557 37.3228 455.406C37.5959 455.254 37.9058 455.178 38.2526 455.178C38.5907 455.178 38.892 455.252 39.1564 455.399C39.4209 455.547 39.6289 455.755 39.7807 456.023C39.9324 456.292 40.0083 456.609 40.0083 456.973C40.0083 457.007 40.0061 457.047 40.0018 457.09C40.0018 457.133 39.9996 457.174 39.9952 457.213H37.1017V456.674H39.5661L39.2475 456.843C39.2518 456.643 39.2106 456.468 39.1239 456.316C39.0372 456.164 38.918 456.045 38.7663 455.958C38.6189 455.872 38.4477 455.828 38.2526 455.828C38.0532 455.828 37.8776 455.872 37.7259 455.958C37.5785 456.045 37.4615 456.167 37.3748 456.323C37.2924 456.474 37.2512 456.654 37.2512 456.862V456.992C37.2512 457.2 37.2989 457.385 37.3943 457.545C37.4896 457.705 37.624 457.829 37.7974 457.916C37.9708 458.002 38.1702 458.046 38.3957 458.046C38.5907 458.046 38.7663 458.015 38.9223 457.955C39.0784 457.894 39.2171 457.799 39.3385 457.669L39.7742 458.169C39.6181 458.351 39.4209 458.492 39.1824 458.592C38.9484 458.687 38.6796 458.735 38.3761 458.735ZM40.7672 458.689V455.217H41.58V457.506L43.4982 455.217H44.2395V458.689H43.4267V456.401L41.515 458.689H40.7672ZM42.4513 454.808C42.1045 454.808 41.8379 454.727 41.6515 454.567C41.4651 454.402 41.3698 454.164 41.3654 453.852H41.9051C41.9095 454.008 41.9572 454.131 42.0482 454.222C42.1436 454.313 42.2758 454.359 42.4448 454.359C42.6096 454.359 42.7396 454.313 42.835 454.222C42.9347 454.131 42.9867 454.008 42.991 453.852H43.5437C43.5394 454.164 43.4419 454.402 43.2511 454.567C43.0647 454.727 42.7981 454.808 42.4513 454.808Z" fill="white"/>
<path d="M20.2578 367.332C19.8807 367.332 19.5534 367.275 19.276 367.163C18.9985 367.05 18.7839 366.892 18.6322 366.688C18.4805 366.48 18.4046 366.237 18.4046 365.96C18.4046 365.682 18.4783 365.448 18.6257 365.257C18.7731 365.067 18.9855 364.921 19.2629 364.822C19.5404 364.722 19.872 364.672 20.2578 364.672C20.6436 364.672 20.9753 364.722 21.2527 364.822C21.5345 364.921 21.749 365.069 21.8964 365.264C22.0482 365.455 22.124 365.687 22.124 365.96C22.124 366.237 22.046 366.48 21.8899 366.688C21.7382 366.892 21.5215 367.05 21.2397 367.163C20.9622 367.275 20.635 367.332 20.2578 367.332ZM20.2578 366.668C20.5699 366.668 20.817 366.603 20.9991 366.473C21.1812 366.343 21.2722 366.163 21.2722 365.934C21.2722 365.708 21.1812 365.53 20.9991 365.4C20.817 365.27 20.5699 365.205 20.2578 365.205C19.9457 365.205 19.7008 365.27 19.523 365.4C19.3453 365.53 19.2564 365.708 19.2564 365.934C19.2564 366.163 19.3453 366.343 19.523 366.473C19.7008 366.603 19.9457 366.668 20.2578 366.668ZM20.2578 364.594C20.5266 364.594 20.739 364.538 20.8951 364.425C21.0511 364.308 21.1291 364.152 21.1291 363.957C21.1291 363.753 21.0489 363.595 20.8886 363.482C20.7282 363.369 20.5179 363.313 20.2578 363.313C19.9977 363.313 19.7896 363.369 19.6336 363.482C19.4775 363.595 19.3995 363.753 19.3995 363.957C19.3995 364.152 19.4754 364.308 19.6271 364.425C19.7831 364.538 19.9934 364.594 20.2578 364.594ZM20.2578 365.114C19.9067 365.114 19.6054 365.069 19.354 364.978C19.1026 364.882 18.9075 364.746 18.7688 364.568C18.6344 364.386 18.5672 364.169 18.5672 363.918C18.5672 363.658 18.6365 363.435 18.7753 363.248C18.9183 363.057 19.1177 362.91 19.3735 362.806C19.6293 362.702 19.924 362.65 20.2578 362.65C20.5959 362.65 20.8929 362.702 21.1486 362.806C21.4044 362.91 21.6038 363.057 21.7469 363.248C21.8899 363.435 21.9615 363.658 21.9615 363.918C21.9615 364.169 21.8921 364.386 21.7534 364.568C21.619 364.746 21.4239 364.882 21.1682 364.978C20.9124 365.069 20.6089 365.114 20.2578 365.114ZM23.5958 368.528C23.34 368.134 23.1428 367.678 23.0041 367.163C22.8697 366.642 22.8025 366.083 22.8025 365.485C22.8025 364.887 22.8697 364.328 23.0041 363.807C23.1428 363.283 23.34 362.828 23.5958 362.442H24.3696C24.1051 362.919 23.9101 363.406 23.7844 363.905C23.663 364.399 23.6023 364.926 23.6023 365.485C23.6023 366.044 23.663 366.573 23.7844 367.072C23.9101 367.566 24.1051 368.051 24.3696 368.528H23.5958ZM26.4938 367.332C26.1166 367.332 25.7894 367.275 25.5119 367.163C25.2345 367.05 25.0199 366.892 24.8682 366.688C24.7165 366.48 24.6406 366.237 24.6406 365.96C24.6406 365.682 24.7143 365.448 24.8617 365.257C25.0091 365.067 25.2215 364.921 25.4989 364.822C25.7764 364.722 26.108 364.672 26.4938 364.672C26.8796 364.672 27.2112 364.722 27.4887 364.822C27.7704 364.921 27.985 365.069 28.1324 365.264C28.2841 365.455 28.36 365.687 28.36 365.96C28.36 366.237 28.282 366.48 28.1259 366.688C27.9742 366.892 27.7574 367.05 27.4757 367.163C27.1982 367.275 26.8709 367.332 26.4938 367.332ZM26.4938 366.668C26.8059 366.668 27.053 366.603 27.2351 366.473C27.4171 366.343 27.5082 366.163 27.5082 365.934C27.5082 365.708 27.4171 365.53 27.2351 365.4C27.053 365.27 26.8059 365.205 26.4938 365.205C26.1817 365.205 25.9367 365.27 25.759 365.4C25.5813 365.53 25.4924 365.708 25.4924 365.934C25.4924 366.163 25.5813 366.343 25.759 366.473C25.9367 366.603 26.1817 366.668 26.4938 366.668ZM26.4938 364.594C26.7626 364.594 26.975 364.538 27.131 364.425C27.2871 364.308 27.3651 364.152 27.3651 363.957C27.3651 363.753 27.2849 363.595 27.1245 363.482C26.9641 363.369 26.7539 363.313 26.4938 363.313C26.2337 363.313 26.0256 363.369 25.8696 363.482C25.7135 363.595 25.6355 363.753 25.6355 363.957C25.6355 364.152 25.7113 364.308 25.8631 364.425C26.0191 364.538 26.2294 364.594 26.4938 364.594ZM26.4938 365.114C26.1427 365.114 25.8414 365.069 25.59 364.978C25.3385 364.882 25.1435 364.746 25.0047 364.568C24.8704 364.386 24.8032 364.169 24.8032 363.918C24.8032 363.658 24.8725 363.435 25.0112 363.248C25.1543 363.057 25.3537 362.91 25.6095 362.806C25.8652 362.702 26.16 362.65 26.4938 362.65C26.8319 362.65 27.1289 362.702 27.3846 362.806C27.6404 362.91 27.8398 363.057 27.9828 363.248C28.1259 363.435 28.1974 363.658 28.1974 363.918C28.1974 364.169 28.1281 364.386 27.9893 364.568C27.855 364.746 27.6599 364.882 27.4041 364.978C27.1484 365.069 26.8449 365.114 26.4938 365.114ZM30.6771 367.332C30.3173 367.332 29.9922 367.241 29.7017 367.059C29.4156 366.876 29.1902 366.612 29.0255 366.265C28.8607 365.914 28.7784 365.489 28.7784 364.991C28.7784 364.492 28.8607 364.07 29.0255 363.723C29.1902 363.372 29.4156 363.105 29.7017 362.923C29.9922 362.741 30.3173 362.65 30.6771 362.65C31.0412 362.65 31.3663 362.741 31.6524 362.923C31.9385 363.105 32.164 363.372 32.3287 363.723C32.4978 364.07 32.5823 364.492 32.5823 364.991C32.5823 365.489 32.4978 365.914 32.3287 366.265C32.164 366.612 31.9385 366.876 31.6524 367.059C31.3663 367.241 31.0412 367.332 30.6771 367.332ZM30.6771 366.597C30.8895 366.597 31.0737 366.54 31.2298 366.428C31.3858 366.311 31.5072 366.133 31.5939 365.895C31.685 365.656 31.7305 365.355 31.7305 364.991C31.7305 364.622 31.685 364.321 31.5939 364.087C31.5072 363.848 31.3858 363.673 31.2298 363.56C31.0737 363.443 30.8895 363.385 30.6771 363.385C30.4733 363.385 30.2913 363.443 30.1309 363.56C29.9748 363.673 29.8513 363.848 29.7602 364.087C29.6735 364.321 29.6302 364.622 29.6302 364.991C29.6302 365.355 29.6735 365.656 29.7602 365.895C29.8513 366.133 29.9748 366.311 30.1309 366.428C30.2913 366.54 30.4733 366.597 30.6771 366.597ZM34.9222 367.332C34.5624 367.332 34.2373 367.241 33.9468 367.059C33.6607 366.876 33.4353 366.612 33.2706 366.265C33.1059 365.914 33.0235 365.489 33.0235 364.991C33.0235 364.492 33.1059 364.07 33.2706 363.723C33.4353 363.372 33.6607 363.105 33.9468 362.923C34.2373 362.741 34.5624 362.65 34.9222 362.65C35.2863 362.65 35.6115 362.741 35.8976 362.923C36.1837 363.105 36.4091 363.372 36.5738 363.723C36.7429 364.07 36.8274 364.492 36.8274 364.991C36.8274 365.489 36.7429 365.914 36.5738 366.265C36.4091 366.612 36.1837 366.876 35.8976 367.059C35.6115 367.241 35.2863 367.332 34.9222 367.332ZM34.9222 366.597C35.1346 366.597 35.3188 366.54 35.4749 366.428C35.631 366.311 35.7523 366.133 35.839 365.895C35.9301 365.656 35.9756 365.355 35.9756 364.991C35.9756 364.622 35.9301 364.321 35.839 364.087C35.7523 363.848 35.631 363.673 35.4749 363.56C35.3188 363.443 35.1346 363.385 34.9222 363.385C34.7185 363.385 34.5364 363.443 34.376 363.56C34.2199 363.673 34.0964 363.848 34.0054 364.087C33.9187 364.321 33.8753 364.622 33.8753 364.991C33.8753 365.355 33.9187 365.656 34.0054 365.895C34.0964 366.133 34.2199 366.311 34.376 366.428C34.5364 366.54 34.7185 366.597 34.9222 366.597ZM37.1255 368.528C37.3943 368.051 37.5894 367.566 37.7108 367.072C37.8365 366.573 37.8993 366.044 37.8993 365.485C37.8993 364.926 37.8365 364.399 37.7108 363.905C37.5894 363.406 37.3943 362.919 37.1255 362.442H37.8993C38.1594 362.828 38.3567 363.283 38.4911 363.807C38.6254 364.328 38.6926 364.887 38.6926 365.485C38.6926 366.083 38.6254 366.642 38.4911 367.163C38.3567 367.678 38.1594 368.134 37.8993 368.528H37.1255ZM40.9077 367.332C40.5869 367.332 40.2727 367.286 39.9649 367.195C39.6614 367.1 39.4057 366.97 39.1976 366.805L39.5552 366.148C39.7199 366.283 39.9194 366.391 40.1534 366.473C40.3919 366.556 40.639 366.597 40.8947 366.597C41.1938 366.597 41.4279 366.534 41.597 366.408C41.7704 366.283 41.8571 366.114 41.8571 365.901C41.8571 365.758 41.8202 365.632 41.7465 365.524C41.6772 365.416 41.5515 365.333 41.3694 365.277C41.1917 365.221 40.9467 365.192 40.6346 365.192H39.5357L39.7698 362.715H42.4423V363.424H40.0819L40.5241 363.021L40.3485 364.874L39.9063 364.477H40.8232C41.274 364.477 41.636 364.538 41.9091 364.659C42.1865 364.776 42.3881 364.941 42.5138 365.153C42.6439 365.361 42.7089 365.6 42.7089 365.869C42.7089 366.133 42.6439 366.376 42.5138 366.597C42.3838 366.818 42.1844 366.996 41.9156 367.13C41.6512 367.264 41.3152 367.332 40.9077 367.332ZM44.5432 367.332C44.2224 367.332 43.9082 367.286 43.6004 367.195C43.2969 367.1 43.0412 366.97 42.8331 366.805L43.1907 366.148C43.3555 366.283 43.5549 366.391 43.789 366.473C44.0274 366.556 44.2745 366.597 44.5302 366.597C44.8293 366.597 45.0634 366.534 45.2325 366.408C45.4059 366.283 45.4926 366.114 45.4926 365.901C45.4926 365.758 45.4557 365.632 45.382 365.524C45.3127 365.416 45.187 365.333 45.0049 365.277C44.8272 365.221 44.5822 365.192 44.2701 365.192H43.1712L43.4053 362.715H46.0778V363.424H43.7174L44.1596 363.021L43.984 364.874L43.5419 364.477H44.4587C44.9095 364.477 45.2715 364.538 45.5446 364.659C45.822 364.776 46.0236 364.941 46.1493 365.153C46.2794 365.361 46.3444 365.6 46.3444 365.869C46.3444 366.133 46.2794 366.376 46.1493 366.597C46.0193 366.818 45.8199 366.996 45.5511 367.13C45.2867 367.264 44.9507 367.332 44.5432 367.332ZM48.1787 367.332C47.858 367.332 47.5437 367.286 47.2359 367.195C46.9324 367.1 46.6767 366.97 46.4686 366.805L46.8262 366.148C46.991 366.283 47.1904 366.391 47.4245 366.473C47.6629 366.556 47.91 366.597 48.1657 366.597C48.4649 366.597 48.6989 366.534 48.868 366.408C49.0414 366.283 49.1281 366.114 49.1281 365.901C49.1281 365.758 49.0913 365.632 49.0176 365.524C48.9482 365.416 48.8225 365.333 48.6404 365.277C48.4627 365.221 48.2178 365.192 47.9056 365.192H46.8067L47.0408 362.715H49.7133V363.424H47.3529L47.7951 363.021L47.6195 364.874L47.1774 364.477H48.0942C48.545 364.477 48.907 364.538 49.1801 364.659C49.4576 364.776 49.6591 364.941 49.7848 365.153C49.9149 365.361 49.9799 365.6 49.9799 365.869C49.9799 366.133 49.9149 366.376 49.7848 366.597C49.6548 366.818 49.4554 366.996 49.1866 367.13C48.9222 367.264 48.5862 367.332 48.1787 367.332ZM50.409 365.797V365.121H52.1971V365.797H50.409ZM54.0128 367.332C53.6921 367.332 53.3778 367.286 53.07 367.195C52.7665 367.1 52.5108 366.97 52.3027 366.805L52.6668 366.148C52.8316 366.283 53.031 366.391 53.2651 366.473C53.4991 366.556 53.7441 366.597 53.9998 366.597C54.3033 366.597 54.5395 366.536 54.7086 366.415C54.8777 366.289 54.9622 366.12 54.9622 365.908C54.9622 365.7 54.8842 365.535 54.7281 365.413C54.572 365.292 54.3206 365.231 53.9738 365.231H53.5577V364.653L54.8582 363.105L54.9687 363.424H52.5238V362.715H55.6254V363.281L54.325 364.828L53.8828 364.568H54.1364C54.6956 364.568 55.1139 364.694 55.3914 364.945C55.6731 365.192 55.814 365.511 55.814 365.901C55.814 366.157 55.749 366.393 55.6189 366.61C55.4889 366.827 55.2895 367.002 55.0207 367.137C54.7563 367.267 54.4203 367.332 54.0128 367.332ZM57.6819 367.332C57.3611 367.332 57.0469 367.286 56.7391 367.195C56.4356 367.1 56.1799 366.97 55.9718 366.805L56.3294 366.148C56.4942 366.283 56.6936 366.391 56.9276 366.473C57.1661 366.556 57.4132 366.597 57.6689 366.597C57.968 366.597 58.2021 366.534 58.3712 366.408C58.5446 366.283 58.6313 366.114 58.6313 365.901C58.6313 365.758 58.5944 365.632 58.5207 365.524C58.4514 365.416 58.3257 365.333 58.1436 365.277C57.9659 365.221 57.7209 365.192 57.4088 365.192H56.3099L56.544 362.715H59.2165V363.424H56.8561L57.2983 363.021L57.1227 364.874L56.6806 364.477H57.5974C58.0482 364.477 58.4102 364.538 58.6833 364.659C58.9607 364.776 59.1623 364.941 59.288 365.153C59.4181 365.361 59.4831 365.6 59.4831 365.869C59.4831 366.133 59.4181 366.376 59.288 366.597C59.158 366.818 58.9586 366.996 58.6898 367.13C58.4254 367.264 58.0894 367.332 57.6819 367.332ZM59.9122 365.797V365.121H61.7003V365.797H59.9122ZM63.516 367.332C63.1952 367.332 62.881 367.286 62.5732 367.195C62.2697 367.1 62.014 366.97 61.8059 366.805L62.17 366.148C62.3347 366.283 62.5342 366.391 62.7682 366.473C63.0023 366.556 63.2473 366.597 63.503 366.597C63.8065 366.597 64.0427 366.536 64.2118 366.415C64.3808 366.289 64.4654 366.12 64.4654 365.908C64.4654 365.7 64.3873 365.535 64.2313 365.413C64.0752 365.292 63.8238 365.231 63.477 365.231H63.0609V364.653L64.3613 363.105L64.4719 363.424H62.027V362.715H65.1286V363.281L63.8281 364.828L63.386 364.568H63.6396C64.1988 364.568 64.6171 364.694 64.8945 364.945C65.1763 365.192 65.3172 365.511 65.3172 365.901C65.3172 366.157 65.2522 366.393 65.1221 366.61C64.9921 366.827 64.7927 367.002 64.5239 367.137C64.2595 367.267 63.9235 367.332 63.516 367.332ZM67.1851 367.332C66.8643 367.332 66.55 367.286 66.2423 367.195C65.9388 367.1 65.6831 366.97 65.475 366.805L65.8326 366.148C65.9973 366.283 66.1967 366.391 66.4308 366.473C66.6693 366.556 66.9163 366.597 67.1721 366.597C67.4712 366.597 67.7053 366.534 67.8744 366.408C68.0478 366.283 68.1345 366.114 68.1345 365.901C68.1345 365.758 68.0976 365.632 68.0239 365.524C67.9546 365.416 67.8289 365.333 67.6468 365.277C67.4691 365.221 67.2241 365.192 66.912 365.192H65.8131L66.0472 362.715H68.7197V363.424H66.3593L66.8015 363.021L66.6259 364.874L66.1837 364.477H67.1006C67.5514 364.477 67.9134 364.538 68.1865 364.659C68.4639 364.776 68.6655 364.941 68.7912 365.153C68.9213 365.361 68.9863 365.6 68.9863 365.869C68.9863 366.133 68.9213 366.376 68.7912 366.597C68.6612 366.818 68.4618 366.996 68.193 367.13C67.9286 367.264 67.5926 367.332 67.1851 367.332Z" fill="white"/>
<path d="M-0.00195312 520.116C7.03282 520.116 62.2388 521.342 88.9256 475.411C122.284 417.998 67.5943 345.835 199.894 285.699C332.193 225.563 383.025 238.952 380.302 156.123C378.123 89.86 343.341 100.072 380.302 53.0977" stroke="white" stroke-width="1.81543"/>
<circle cx="93.833" cy="466.908" r="3.06742" fill="white"/>
<circle cx="149.667" cy="314.864" r="3.06742" fill="white"/>
<circle cx="245.876" cy="265.849" r="3.06742" fill="white"/>
<circle cx="357.067" cy="219.554" r="3.06742" fill="white"/>
<path d="M388.652 54.4699C385.227 53.8224 383.142 53.2364 381.934 51.9961C380.998 51.0346 380.335 49.6467 379.516 45.0737L378.513 39.4824L377.511 45.0737C376.879 48.6018 376.306 50.75 375.092 51.9961C374.161 52.953 372.814 53.6308 368.375 54.4699L363.082 55.4705L368.375 56.4712C371.799 57.1186 373.884 57.7046 375.092 58.9449C376.028 59.9064 376.691 61.2944 377.511 65.8673L378.513 71.4586L379.515 65.8673C380.148 62.3392 380.721 60.191 381.934 58.9449C382.866 57.988 384.213 57.3102 388.652 56.4712L393.944 55.4705L388.652 54.4699H388.652ZM383.607 55.6268C382.254 56.1164 381.259 56.7191 380.475 57.5241C379.694 58.3263 379.109 59.3437 378.635 60.7264C378.594 60.8461 378.553 60.969 378.513 61.0959C378.473 60.9693 378.433 60.8463 378.392 60.7264C377.917 59.3439 377.332 58.3263 376.551 57.5241C375.768 56.7194 374.773 56.1166 373.42 55.6268C373.274 55.5739 373.122 55.5216 372.965 55.4705C373.122 55.4192 373.274 55.3671 373.42 55.3142C374.773 54.8247 375.768 54.2219 376.551 53.4169C377.333 52.6148 377.918 51.5973 378.392 50.2147C378.433 50.0949 378.473 49.972 378.513 49.8451C378.553 49.9718 378.594 50.0949 378.635 50.2147C379.109 51.5971 379.694 52.6148 380.475 53.4169C381.259 54.2217 382.254 54.8244 383.607 55.3142C383.753 55.3671 383.905 55.4194 384.062 55.4705C383.905 55.5219 383.753 55.5739 383.607 55.6268Z" fill="white"/>
<path d="M372.157 55.3671L378.528 49.4659L384.633 55.6017L378.528 61.5017L372.157 55.3671Z" fill="white"/>
<path d="M164.628 12.8809V17.9551H163.32V16.0672H159.554V17.9551H158.246V12.8809H159.554V14.7687H163.32V12.8809H164.628Z" fill="white"/>
<path d="M166.857 14.1768V14.757H170.701V16.0647H166.857V16.6449H171.277V17.9525H165.549V12.8691H171.277V14.1768H166.857Z" fill="white"/>
<path d="M178.338 12.8809V17.9551H177.03V14.451L173.641 17.9551H172.195V12.8809H173.503V16.2099L176.726 12.8809H178.338ZM174.553 13.8248L173.977 13.2446L175.142 12.8814L175.731 12.8809L174.553 13.8248Z" fill="white"/>
<path d="M180.564 17.9458H179.256V12.8809H183.161C183.736 12.8809 184.215 13.0098 184.583 13.263C185.048 13.5807 185.302 14.0826 185.302 14.6858C185.302 15.8047 184.482 16.4908 183.161 16.4908H180.564V17.9458ZM180.564 15.1877H183.161C183.994 15.1877 183.994 14.8516 183.994 14.6858C183.994 14.5385 183.994 14.1839 183.161 14.1839H180.564V15.1877Z" fill="white"/>
<path d="M189.168 13.6043C189.168 13.4296 189.168 12.9449 188.581 12.928C188.318 12.9202 188.171 13.0915 188.04 13.3242C187.915 13.5453 187.842 13.5431 187.591 13.5358C187.539 13.5342 187.478 13.5325 187.408 13.5325C187.002 13.5325 186.821 14.0338 186.942 14.1794C186.947 14.1853 186.952 14.1915 186.957 14.198C187.058 14.3173 187.237 14.531 186.867 14.7268C186.475 14.9332 186.129 15.6243 186.806 16.0224C187.137 16.2012 187.683 16.1361 187.754 16.0224C187.799 15.9505 187.844 15.6704 187.664 15.5948C187.478 15.5171 187.453 15.3147 187.664 15.3294C187.874 15.3442 188.326 15.3442 188.386 15.064C188.446 14.7839 188.401 14.6807 188.1 14.5185C187.919 14.3858 187.909 13.9453 188.07 13.9453C188.074 13.9453 188.078 13.9453 188.082 13.9452C188.163 13.9445 188.196 13.9443 188.22 14.2678C188.24 14.5351 188.972 14.5038 189.093 14.2678C189.175 14.1058 189.172 13.8585 189.169 13.6839C189.168 13.6552 189.168 13.6284 189.168 13.6043Z" fill="white" stroke="white" stroke-width="0.114489"/>
<path d="M188.305 17.9342C188.563 18.0858 189.084 18.081 189.137 17.6555C189.208 17.0804 189.147 16.4672 189.107 16.2325C189.096 16.1655 189.048 16.1592 188.899 16.1738C188.663 16.1971 188.568 16.0712 188.632 15.9831C188.706 15.8804 188.939 15.9764 189.063 15.8951C189.197 15.8071 189.152 15.142 189.137 14.8095C189.107 14.6628 188.852 14.5542 188.662 14.7655C188.587 14.848 188.632 15.1469 188.632 15.2496C188.632 15.3963 188.504 15.5224 188.231 15.5577C187.889 15.6017 187.845 16.2912 188.097 16.4965C188.35 16.7019 188.721 16.8046 188.736 17.01C188.751 17.2154 188.781 17.3914 188.602 17.3768C188.424 17.3621 188.513 17.0834 188.513 17.0247C188.513 16.966 188.424 16.9024 188.127 16.7313C187.949 16.6286 187.964 16.5259 187.845 16.4232C187.74 16.3326 187.161 16.2912 187.102 16.5552C187.013 16.878 187.013 17.3328 187.355 17.4648C187.696 17.5968 187.911 17.463 188.023 17.5235C188.186 17.6115 188.106 17.8169 188.305 17.9342Z" fill="white" stroke="white" stroke-width="0.0614502"/>
<path d="M189.398 13.6043C189.398 13.4296 189.398 12.9449 189.973 12.928C190.231 12.9202 190.375 13.0915 190.503 13.3242C190.625 13.5453 190.696 13.5431 190.942 13.5358C190.994 13.5342 191.053 13.5325 191.122 13.5325C191.519 13.5325 191.696 14.0338 191.578 14.1794C191.573 14.1853 191.568 14.1915 191.563 14.198C191.465 14.3173 191.289 14.531 191.652 14.7268C192.035 14.9332 192.374 15.6243 191.711 16.0224C191.387 16.2012 190.853 16.1361 190.783 16.0224C190.739 15.9505 190.695 15.6704 190.871 15.5948C191.053 15.5171 191.077 15.3147 190.871 15.3294C190.665 15.3442 190.223 15.3442 190.164 15.064C190.105 14.7839 190.15 14.6807 190.444 14.5185C190.621 14.3858 190.631 13.9453 190.474 13.9453C190.47 13.9453 190.466 13.9453 190.462 13.9452C190.382 13.9445 190.35 13.9443 190.326 14.2678C190.307 14.5351 189.59 14.5038 189.472 14.2678C189.391 14.1058 189.395 13.8585 189.398 13.6839C189.398 13.6552 189.398 13.6284 189.398 13.6043Z" fill="white" stroke="white" stroke-width="0.114489"/>
<path d="M190.238 17.9342C189.987 18.0858 189.48 18.081 189.428 17.6555C189.359 17.0804 189.419 16.4672 189.457 16.2325C189.468 16.1655 189.515 16.1592 189.66 16.1738C189.89 16.1971 189.982 16.0712 189.92 15.9831C189.848 15.8804 189.621 15.9764 189.501 15.8951C189.371 15.8071 189.414 15.142 189.428 14.8095C189.457 14.6628 189.706 14.5542 189.891 14.7655C189.963 14.848 189.92 15.1469 189.92 15.2496C189.92 15.3963 190.044 15.5224 190.31 15.5577C190.642 15.6017 190.686 16.2912 190.44 16.4965C190.194 16.7019 189.833 16.8046 189.819 17.01C189.804 17.2154 189.775 17.3914 189.949 17.3768C190.122 17.3621 190.035 17.0834 190.035 17.0247C190.035 16.966 190.122 16.9024 190.411 16.7313C190.585 16.6286 190.57 16.5259 190.686 16.4232C190.788 16.3326 191.351 16.2912 191.409 16.5552C191.495 16.878 191.495 17.3328 191.163 17.4648C190.83 17.5968 190.622 17.463 190.512 17.5235C190.353 17.6115 190.432 17.8169 190.238 17.9342Z" fill="white" stroke="white" stroke-width="0.0614502"/>
<path d="M199.227 12.8809V17.9458H197.929V16.4954H195.419L194.549 17.9551H193.002L194.056 16.2145C193.504 15.9106 193.191 15.3811 193.191 14.6904C193.191 14.0872 193.444 13.5854 193.909 13.2676C194.273 13.0144 194.752 12.8855 195.332 12.8855H199.227V12.8809ZM197.929 15.1877V14.1885H195.332C194.498 14.1885 194.498 14.5431 194.498 14.6904C194.498 14.8562 194.498 15.1923 195.332 15.1923H197.929V15.1877Z" fill="white"/>
<path d="M203.385 18.0702C202.488 18.0702 201.746 17.8722 201.184 17.49C200.508 17.025 200.148 16.3067 200.148 15.4088C200.148 13.7465 201.359 12.752 203.385 12.752C204.983 12.752 206.116 13.392 206.493 14.5155L205.25 14.9299C204.997 14.1655 203.975 14.0504 203.385 14.0504C201.456 14.0504 201.456 15.0726 201.456 15.4088C201.456 16.3067 202.11 16.7671 203.385 16.7671C204.081 16.7671 204.969 16.629 205.236 15.9521L206.447 16.431C206.033 17.49 204.946 18.0702 203.385 18.0702Z" fill="white"/>
<path d="M213.794 12.8809V17.9551H212.486V16.0672H208.72V17.9551H207.412V12.8809H208.72V14.7687H212.486V12.8809H213.794Z" fill="white"/>
<path d="M217.512 13.4989C217.512 13.3168 217.512 12.8118 216.913 12.7942C216.643 12.7861 216.493 12.9646 216.359 13.2071C216.232 13.4374 216.158 13.4351 215.901 13.4275C215.848 13.4259 215.786 13.4241 215.714 13.4241C215.299 13.4241 215.115 13.9464 215.238 14.0981C215.243 14.1042 215.248 14.1107 215.254 14.1175C215.356 14.2418 215.54 14.4644 215.161 14.6684C214.762 14.8835 214.408 15.6036 215.1 16.0184C215.438 16.2047 215.995 16.1369 216.068 16.0184C216.114 15.9435 216.16 15.6516 215.975 15.5729C215.786 15.4919 215.76 15.281 215.975 15.2964C216.191 15.3117 216.651 15.3117 216.713 15.0198C216.774 14.7279 216.728 14.6204 216.421 14.4514C216.237 14.3132 216.226 13.8542 216.39 13.8542C216.394 13.8542 216.399 13.8542 216.403 13.8541C216.486 13.8534 216.519 13.8531 216.544 14.1903C216.564 14.4687 217.312 14.4361 217.435 14.1903C217.519 14.0214 217.515 13.7638 217.513 13.5818C217.512 13.5519 217.512 13.524 217.512 13.4989Z" fill="white" stroke="white" stroke-width="0.114489"/>
<path d="M216.635 17.979C216.901 18.1377 217.441 18.1327 217.495 17.6871C217.569 17.0849 217.506 16.4427 217.465 16.1969C217.453 16.1268 217.403 16.1202 217.25 16.1355C217.005 16.1599 216.907 16.028 216.973 15.9358C217.05 15.8282 217.291 15.9288 217.419 15.8436C217.557 15.7515 217.511 15.055 217.495 14.7068C217.465 14.5532 217.2 14.4395 217.004 14.6607C216.927 14.7471 216.973 15.0601 216.973 15.1676C216.973 15.3213 216.841 15.4534 216.558 15.4903C216.205 15.5363 216.159 16.2584 216.42 16.4735C216.681 16.6885 217.065 16.7961 217.081 17.0111C217.096 17.2262 217.127 17.4106 216.942 17.3952C216.758 17.3798 216.85 17.088 216.85 17.0265C216.85 16.9651 216.758 16.8985 216.451 16.7193C216.266 16.6117 216.282 16.5042 216.159 16.3966C216.05 16.3018 215.452 16.2584 215.391 16.5349C215.299 16.8729 215.299 17.3491 215.652 17.4874C216.005 17.6256 216.227 17.4856 216.343 17.5488C216.512 17.641 216.429 17.8561 216.635 17.979Z" fill="white" stroke="white" stroke-width="0.0614502"/>
<path d="M217.781 13.456C217.781 13.2739 217.781 12.7688 218.38 12.7512C218.649 12.7431 218.8 12.9216 218.933 13.1641C219.061 13.3944 219.135 13.3922 219.392 13.3845C219.445 13.3829 219.507 13.3811 219.579 13.3811C219.994 13.3811 220.178 13.9034 220.055 14.0551C220.05 14.0613 220.045 14.0678 220.039 14.0745C219.937 14.1988 219.753 14.4215 220.132 14.6254C220.531 14.8405 220.885 15.5606 220.193 15.9754C219.855 16.1617 219.298 16.0939 219.225 15.9754C219.179 15.9005 219.133 15.6087 219.318 15.5299C219.507 15.449 219.533 15.238 219.318 15.2534C219.102 15.2688 218.642 15.2688 218.58 14.9769C218.519 14.685 218.565 14.5774 218.872 14.4085C219.056 14.2702 219.067 13.8112 218.903 13.8112C218.899 13.8112 218.894 13.8112 218.89 13.8112C218.807 13.8104 218.774 13.8101 218.749 14.1473C218.729 14.4257 217.981 14.3931 217.858 14.1473C217.774 13.9784 217.778 13.7208 217.78 13.5388C217.781 13.5089 217.781 13.481 217.781 13.456Z" fill="white" stroke="white" stroke-width="0.114489"/>
<path d="M218.65 17.9399C218.384 18.0987 217.844 18.0936 217.79 17.648C217.716 17.0458 217.78 16.4037 217.82 16.1579C217.832 16.0877 217.882 16.0811 218.036 16.0964C218.28 16.1208 218.378 15.9889 218.312 15.8967C218.235 15.7892 217.994 15.8897 217.867 15.8045C217.728 15.7124 217.774 15.0159 217.79 14.6677C217.82 14.5141 218.085 14.4004 218.281 14.6216C218.358 14.708 218.312 15.021 218.312 15.1286C218.312 15.2822 218.444 15.4143 218.727 15.4512C219.08 15.4973 219.126 16.2193 218.865 16.4344C218.604 16.6495 218.22 16.757 218.205 16.9721C218.189 17.1872 218.158 17.3715 218.343 17.3561C218.527 17.3408 218.435 17.0489 218.435 16.9874C218.435 16.926 218.527 16.8594 218.834 16.6802C219.019 16.5727 219.003 16.4651 219.126 16.3576C219.235 16.2627 219.833 16.2193 219.894 16.4958C219.987 16.8338 219.987 17.3101 219.633 17.4483C219.28 17.5866 219.058 17.4465 218.942 17.5098C218.773 17.6019 218.856 17.817 218.65 17.9399Z" fill="white" stroke="white" stroke-width="0.0614502"/>
<path d="M224.737 18.0702C223.839 18.0702 223.098 17.8722 222.536 17.49C221.859 17.025 221.5 16.3067 221.5 15.4088C221.5 13.7465 222.711 12.752 224.737 12.752C226.335 12.752 227.467 13.392 227.845 14.5155L226.602 14.9299C226.349 14.1655 225.326 14.0504 224.737 14.0504C222.808 14.0504 222.808 15.0726 222.808 15.4088C222.808 16.3067 223.462 16.7671 224.737 16.7671C225.432 16.7671 226.321 16.629 226.588 15.9521L227.799 16.431C227.389 17.49 226.298 18.0702 224.737 18.0702Z" fill="white"/>
<path d="M234.915 14.1885H232.493V17.9551H231.186V14.1885H228.764V12.8809H234.92V14.1885H234.915Z" fill="white"/>
<path d="M239.737 17.9458H235.832V12.8809H237.14V14.3313H239.737C241.058 14.3313 241.878 15.022 241.878 16.1363C241.878 16.7395 241.625 17.246 241.159 17.5591C240.791 17.8123 240.312 17.9458 239.737 17.9458ZM237.14 16.6382H239.737C240.57 16.6382 240.57 16.2882 240.57 16.1363C240.57 15.9751 240.57 15.6344 239.737 15.6344H237.14V16.6382Z" fill="white"/>
</g>
</g>
<defs>
<filter id="filter0_n_787_1880" x="0" y="0" width="400.379" height="565.052" filterUnits="userSpaceOnUse" color-interpolation-filters="sRGB">
<feFlood flood-opacity="0" result="BackgroundImageFix"/>
<feBlend mode="normal" in="SourceGraphic" in2="BackgroundImageFix" result="shape"/>
<feTurbulence type="fractalNoise" baseFrequency="0.31476268172264099 0.31476268172264099" stitchTiles="stitch" numOctaves="3" result="noise" seed="3736" />
<feColorMatrix in="noise" type="luminanceToAlpha" result="alphaNoise" />
<feComponentTransfer in="alphaNoise" result="coloredNoise1">
<feFuncA type="discrete" tableValues="0 0 0 0 0 0 0 0 0 0 0 0 0 0 1 1 1 1 1 1 1 1 1 1 1 1 1 1 1 1 1 1 1 1 1 1 0 0 0 0 0 0 0 0 0 0 0 0 0 0 0 0 0 0 0 0 0 0 0 0 0 0 0 0 0 0 0 0 0 0 0 0 0 0 0 0 0 0 0 0 0 0 0 0 0 0 0 0 0 0 0 0 0 0 0 0 0 0 0 0 "/>
</feComponentTransfer>
<feComposite operator="in" in2="shape" in="coloredNoise1" result="noise1Clipped" />
<feFlood flood-color="rgba(178, 178, 178, 0.7)" result="color1Flood" />
<feComposite operator="in" in2="noise1Clipped" in="color1Flood" result="color1" />
<feMerge result="effect1_noise_787_1880">
<feMergeNode in="shape" />
<feMergeNode in="color1" />
</feMerge>
</filter>
<clipPath id="clip0_787_1880">
<rect width="400.379" height="565.052" fill="white"/>
</clipPath>
</defs>
</svg>
