<svg width="401" height="566" viewBox="0 0 401 566" fill="none" xmlns="http://www.w3.org/2000/svg">
<g clip-path="url(#clip0_787_1844)">
<rect width="400.379" height="565.052" fill="#2B6ED4"/>
<g filter="url(#filter0_n_787_1844)">
<rect x="-2.58789" width="405.223" height="565.052" fill="#2B6ED4"/>
</g>
<path d="M400.299 520.119C240.315 520.119 372.479 349.103 360.339 312.552C345.163 266.863 134.48 350.814 103.967 350.814C73.4541 350.814 186.303 155.306 267.186 140.13C348.069 124.954 255.237 414.646 166.767 431.436C78.2956 448.226 60.0525 279.034 128.666 201.057C197.279 123.08 77.3288 35.6765 158.212 3.54928C239.095 -28.5779 333.055 -3.39214 308.516 80.5584C283.976 164.509 264.637 340.157 221.498 272.998C178.358 205.838 102.028 91.8257 60.8144 144.779C19.6012 197.732 384.187 281.236 356.048 483.81C338.348 577.985 78.5633 478.722 93.2869 422.539C111.691 352.312 348.069 262.343 360.339 219.56C372.609 176.778 111.393 182.105 -13.8867 180.652" stroke="white" stroke-width="1.61443"/>
<circle cx="241.337" cy="517.284" r="3.06742" fill="white"/>
<circle cx="154.657" cy="432.411" r="3.06742" fill="white"/>
<circle cx="293.019" cy="189.369" r="3.06742" fill="white"/>
<circle cx="176.776" cy="207.13" r="3.06742" fill="white"/>
<circle cx="49.5577" cy="181.301" r="3.06742" fill="white"/>
<circle cx="311.743" cy="300.118" r="3.06742" fill="white"/>
<circle cx="161.28" cy="336.288" r="3.06742" fill="white"/>
<path d="M28.9184 99.5127C26.4071 99.5127 24.0834 99.2385 21.9474 98.6901C19.8402 98.1128 18.0506 97.3478 16.5784 96.3953L18.7866 91.1129C20.1433 92.0077 21.6876 92.6861 23.4195 93.1479C25.1515 93.6098 26.9988 93.8407 28.9617 93.8407C31.4441 93.8407 33.2626 93.4799 34.4173 92.7582C35.6007 92.0366 36.1925 91.0552 36.1925 89.814C36.1925 89.0057 35.976 88.3274 35.543 87.779C35.11 87.2305 34.475 86.812 33.6379 86.5233C32.8297 86.2347 31.8482 86.0903 30.6936 86.0903H22.8567V80.808H30.2606C31.8194 80.808 32.974 80.5337 33.7245 79.9853C34.5039 79.4368 34.8935 78.6575 34.8935 77.6472C34.8935 76.7235 34.6193 75.9874 34.0709 75.439C33.5513 74.8905 32.8441 74.5009 31.9493 74.2699C31.0544 74.0102 30.0586 73.8803 28.9617 73.8803C27.9225 73.8803 26.8401 73.9813 25.7143 74.1833C24.5886 74.3565 23.5206 74.6163 22.5103 74.9627C21.5 75.2802 20.5907 75.6555 19.7825 76.0885L17.8341 70.7195C19.3639 69.9113 21.0959 69.2907 23.0299 68.8577C24.9638 68.3958 26.9267 68.1649 28.9184 68.1649C30.5926 68.1649 32.2091 68.3381 33.7678 68.6845C35.3265 69.002 36.7265 69.5071 37.9677 70.1999C39.2089 70.8927 40.1903 71.7731 40.912 72.8411C41.6336 73.8803 41.9944 75.1359 41.9944 76.608C41.9944 77.9358 41.6769 79.1771 41.0419 80.3317C40.4068 81.4863 39.4831 82.4244 38.2708 83.1461C37.0584 83.8677 35.6007 84.2285 33.8977 84.2285L34.1142 82.7131C35.875 82.7131 37.4337 83.0162 38.7904 83.6223C40.1759 84.2285 41.2584 85.1089 42.0377 86.2635C42.846 87.3893 43.2501 88.7459 43.2501 90.3335C43.2501 92.1232 42.6872 93.7108 41.5614 95.0963C40.4646 96.4819 38.8481 97.5643 36.7121 98.3437C34.6049 99.1231 32.007 99.5127 28.9184 99.5127ZM44.5206 98.9932L58.0296 68.6845H64.9573L78.5096 98.9932H71.1489L60.0646 72.2349H62.8357L51.7081 98.9932H44.5206ZM51.2751 92.4984L53.1369 87.1728H68.7242L70.6294 92.4984H51.2751ZM81.6629 98.9932V68.6845H109.287V98.9932H102.316V72.7978L103.918 74.3998H87.0319L88.6339 72.7978V98.9932H81.6629ZM114.439 98.6035L116.128 93.2778C117.802 93.7685 119.202 93.9129 120.328 93.7108C121.482 93.4799 122.507 92.6716 123.402 91.2861L124.874 89.0779L125.524 88.3418L135.569 68.6845H142.453L129.55 92.6716C128.396 94.8365 127.025 96.4963 125.437 97.6509C123.878 98.8055 122.161 99.455 120.285 99.5993C118.408 99.7725 116.46 99.4406 114.439 98.6035ZM125.394 94.1871L111.711 68.6845H119.202L129.247 89.0346L125.394 94.1871ZM151.501 98.9932V72.7978L153.103 74.3998H141.845V68.6845H168.127V74.3998H156.87L158.428 72.7978V98.9932H151.501ZM166.723 98.9932L180.232 68.6845H187.159L200.712 98.9932H193.351L182.267 72.2349H185.038L173.91 98.9932H166.723ZM173.477 92.4984L175.339 87.1728H190.926L192.832 92.4984H173.477ZM204.337 99.4694C203.818 99.4694 203.269 99.4261 202.692 99.3395C202.144 99.253 201.537 99.1375 200.873 98.9932L201.306 93.0613C201.711 93.1768 202.129 93.2345 202.562 93.2345C203.746 93.2345 204.669 92.7582 205.333 91.8057C205.997 90.8243 206.473 89.4243 206.762 87.6058C207.051 85.7872 207.238 83.579 207.325 80.9811L207.758 68.6845H231.052V98.9932H224.125V72.7978L225.727 74.3998H212.347L213.776 72.7112L213.517 80.7214C213.43 83.6945 213.228 86.3357 212.91 88.6449C212.593 90.9541 212.102 92.917 211.438 94.5335C210.774 96.1499 209.865 97.3767 208.71 98.2138C207.556 99.0509 206.098 99.4694 204.337 99.4694ZM252.088 99.5127C249.75 99.5127 247.57 99.1375 245.55 98.387C243.558 97.6076 241.826 96.5107 240.354 95.0963C238.882 93.6819 237.727 92.0222 236.89 90.117C236.082 88.2119 235.678 86.1192 235.678 83.8388C235.678 81.5585 236.082 79.4657 236.89 77.5606C237.727 75.6555 238.882 73.9957 240.354 72.5813C241.855 71.1669 243.601 70.0845 245.593 69.334C247.585 68.5546 249.764 68.1649 252.131 68.1649C254.758 68.1649 257.125 68.6268 259.232 69.5504C261.368 70.4453 263.158 71.7731 264.601 73.5339L260.098 77.6905C259.059 76.507 257.904 75.6266 256.634 75.0493C255.364 74.4431 253.978 74.14 252.477 74.14C251.063 74.14 249.764 74.371 248.581 74.8328C247.397 75.2947 246.372 75.9586 245.506 76.8245C244.64 77.6905 243.962 78.7152 243.471 79.8987C243.01 81.0822 242.779 82.3956 242.779 83.8388C242.779 85.2821 243.01 86.5955 243.471 87.779C243.962 88.9624 244.64 89.9872 245.506 90.8531C246.372 91.7191 247.397 92.383 248.581 92.8448C249.764 93.3067 251.063 93.5376 252.477 93.5376C253.978 93.5376 255.364 93.2489 256.634 92.6716C257.904 92.0655 259.059 91.1562 260.098 89.9439L264.601 94.1005C263.158 95.8613 261.368 97.2035 259.232 98.1272C257.125 99.0509 254.743 99.5127 252.088 99.5127ZM285.033 98.9932V89.4243L286.765 90.9397H278.452C275.825 90.9397 273.559 90.5067 271.654 89.6408C269.749 88.7748 268.291 87.5192 267.281 85.8738C266.27 84.2285 265.765 82.2657 265.765 79.9853C265.765 77.6183 266.299 75.5977 267.367 73.9236C268.464 72.2205 269.994 70.9216 271.957 70.0267C273.92 69.1319 276.229 68.6845 278.884 68.6845H291.961V98.9932H285.033ZM265.852 98.9932L273.386 88.1253H280.487L273.256 98.9932H265.852ZM285.033 87.1728V72.5813L286.765 74.3998H279.058C277.066 74.3998 275.536 74.8617 274.468 75.7854C273.429 76.7091 272.909 78.0802 272.909 79.8987C272.909 81.6595 273.415 83.0162 274.425 83.9687C275.435 84.9213 276.922 85.3976 278.884 85.3976H286.765L285.033 87.1728ZM304.317 88.4717C304.317 87.4614 304.476 86.5666 304.793 85.7872C305.139 85.0079 305.558 84.3151 306.049 83.7089C306.568 83.1028 307.117 82.5399 307.694 82.0203C308.271 81.5007 308.805 81.01 309.296 80.5482C309.816 80.0575 310.234 79.5523 310.552 79.0327C310.898 78.5132 311.071 77.9358 311.071 77.3008C311.071 76.2617 310.638 75.4246 309.772 74.7895C308.935 74.1545 307.809 73.837 306.395 73.837C305.038 73.837 303.826 74.1256 302.758 74.7029C301.69 75.2514 300.81 76.0307 300.117 77.041L294.878 73.9669C296.032 72.2061 297.634 70.8061 299.684 69.7669C301.733 68.6989 304.216 68.1649 307.131 68.1649C309.296 68.1649 311.201 68.4824 312.846 69.1175C314.492 69.7236 315.776 70.6185 316.7 71.8019C317.653 72.9854 318.129 74.4431 318.129 76.1751C318.129 77.3008 317.956 78.2967 317.609 79.1626C317.263 80.0286 316.815 80.7791 316.267 81.4141C315.719 82.0492 315.127 82.6409 314.492 83.1894C313.886 83.7378 313.308 84.2718 312.76 84.7914C312.211 85.311 311.75 85.8594 311.374 86.4367C311.028 87.014 310.855 87.6924 310.855 88.4717H304.317ZM307.607 99.3395C306.395 99.3395 305.399 98.9499 304.62 98.1705C303.84 97.3911 303.451 96.4674 303.451 95.3994C303.451 94.3025 303.84 93.3933 304.62 92.6716C305.399 91.9211 306.395 91.5459 307.607 91.5459C308.849 91.5459 309.844 91.9211 310.595 92.6716C311.374 93.3933 311.764 94.3025 311.764 95.3994C311.764 96.4674 311.374 97.3911 310.595 98.1705C309.844 98.9499 308.849 99.3395 307.607 99.3395Z" fill="white"/>
<path d="M18.798 272.413V267.861H19.4873L21.4835 271.184H21.1129L23.0766 267.861H23.7659L23.7789 272.413H22.9726L22.9661 269.116H23.1351L21.4705 271.893H21.0934L19.4028 269.116H19.5978V272.413H18.798ZM26.4507 272.459C26.0649 272.459 25.7267 272.383 25.4363 272.231C25.1502 272.075 24.9269 271.863 24.7665 271.594C24.6105 271.325 24.5325 271.019 24.5325 270.677C24.5325 270.33 24.6083 270.025 24.76 269.76C24.9161 269.491 25.1285 269.281 25.3973 269.129C25.6704 268.978 25.9803 268.902 26.3271 268.902C26.6653 268.902 26.9665 268.975 27.231 269.123C27.4954 269.27 27.7035 269.478 27.8552 269.747C28.0069 270.016 28.0828 270.332 28.0828 270.696C28.0828 270.731 28.0806 270.77 28.0763 270.813C28.0763 270.857 28.0741 270.898 28.0698 270.937H25.1762V270.397H27.6406L27.322 270.566C27.3263 270.367 27.2851 270.191 27.1985 270.04C27.1118 269.888 26.9925 269.769 26.8408 269.682C26.6934 269.595 26.5222 269.552 26.3271 269.552C26.1277 269.552 25.9522 269.595 25.8004 269.682C25.653 269.769 25.536 269.89 25.4493 270.046C25.3669 270.198 25.3258 270.378 25.3258 270.586V270.716C25.3258 270.924 25.3734 271.108 25.4688 271.269C25.5642 271.429 25.6986 271.553 25.872 271.639C26.0454 271.726 26.2448 271.769 26.4702 271.769C26.6653 271.769 26.8408 271.739 26.9969 271.678C27.1529 271.618 27.2917 271.522 27.413 271.392L27.8487 271.893C27.6926 272.075 27.4954 272.216 27.257 272.316C27.0229 272.411 26.7541 272.459 26.4507 272.459ZM30.4218 272.459C30.0577 272.459 29.7326 272.383 29.4465 272.231C29.1647 272.075 28.9436 271.863 28.7832 271.594C28.6228 271.325 28.5426 271.019 28.5426 270.677C28.5426 270.33 28.6228 270.025 28.7832 269.76C28.9436 269.491 29.1647 269.281 29.4465 269.129C29.7326 268.978 30.0577 268.902 30.4218 268.902C30.7599 268.902 31.0569 268.971 31.3127 269.11C31.5727 269.244 31.77 269.444 31.9044 269.708L31.2801 270.072C31.1761 269.907 31.0482 269.786 30.8965 269.708C30.7491 269.63 30.5887 269.591 30.4153 269.591C30.2159 269.591 30.036 269.634 29.8756 269.721C29.7152 269.808 29.5895 269.933 29.4985 270.098C29.4074 270.259 29.3619 270.452 29.3619 270.677C29.3619 270.902 29.4074 271.097 29.4985 271.262C29.5895 271.423 29.7152 271.546 29.8756 271.633C30.036 271.719 30.2159 271.763 30.4153 271.763C30.5887 271.763 30.7491 271.724 30.8965 271.646C31.0482 271.568 31.1761 271.446 31.2801 271.282L31.9044 271.646C31.77 271.906 31.5727 272.107 31.3127 272.251C31.0569 272.389 30.7599 272.459 30.4218 272.459ZM33.1863 272.413V269.435L33.3749 269.63H31.9639V268.941H35.2151V269.63H33.8105L33.9991 269.435V272.413H33.1863ZM37.0698 272.459C36.7143 272.459 36.3979 272.383 36.1204 272.231C35.843 272.075 35.6241 271.863 35.4637 271.594C35.3033 271.325 35.2231 271.019 35.2231 270.677C35.2231 270.33 35.3033 270.025 35.4637 269.76C35.6241 269.491 35.843 269.281 36.1204 269.129C36.3979 268.978 36.7143 268.902 37.0698 268.902C37.4296 268.902 37.7482 268.978 38.0256 269.129C38.3074 269.281 38.5263 269.489 38.6824 269.754C38.8428 270.018 38.923 270.326 38.923 270.677C38.923 271.019 38.8428 271.325 38.6824 271.594C38.5263 271.863 38.3074 272.075 38.0256 272.231C37.7482 272.383 37.4296 272.459 37.0698 272.459ZM37.0698 271.763C37.2692 271.763 37.4469 271.719 37.603 271.633C37.759 271.546 37.8804 271.42 37.9671 271.256C38.0582 271.091 38.1037 270.898 38.1037 270.677C38.1037 270.452 38.0582 270.259 37.9671 270.098C37.8804 269.933 37.759 269.808 37.603 269.721C37.4469 269.634 37.2714 269.591 37.0763 269.591C36.8769 269.591 36.6991 269.634 36.5431 269.721C36.3914 269.808 36.27 269.933 36.179 270.098C36.0879 270.259 36.0424 270.452 36.0424 270.677C36.0424 270.898 36.0879 271.091 36.179 271.256C36.27 271.42 36.3914 271.546 36.5431 271.633C36.6991 271.719 36.8747 271.763 37.0698 271.763ZM39.843 269.981C39.6956 269.981 39.5699 269.931 39.4658 269.832C39.3618 269.728 39.3098 269.598 39.3098 269.441C39.3098 269.277 39.3618 269.147 39.4658 269.051C39.5699 268.952 39.6956 268.902 39.843 268.902C39.9904 268.902 40.1161 268.952 40.2201 269.051C40.3241 269.147 40.3762 269.277 40.3762 269.441C40.3762 269.598 40.3241 269.728 40.2201 269.832C40.1161 269.931 39.9904 269.981 39.843 269.981ZM39.843 272.459C39.6956 272.459 39.5699 272.409 39.4658 272.309C39.3618 272.205 39.3098 272.075 39.3098 271.919C39.3098 271.754 39.3618 271.624 39.4658 271.529C39.5699 271.429 39.6956 271.379 39.843 271.379C39.9904 271.379 40.1161 271.429 40.2201 271.529C40.3241 271.624 40.3762 271.754 40.3762 271.919C40.3762 272.075 40.3241 272.205 40.2201 272.309C40.1161 272.409 39.9904 272.459 39.843 272.459ZM18.798 279.413V274.861H22.823V279.413H21.9907V275.369L22.1858 275.577H19.4353L19.6303 275.369V279.413H18.798ZM25.8101 279.459C25.5284 279.459 25.2704 279.394 25.0363 279.264C24.8066 279.133 24.6224 278.938 24.4836 278.678C24.3493 278.414 24.2821 278.08 24.2821 277.677C24.2821 277.269 24.3471 276.936 24.4771 276.676C24.6115 276.415 24.7936 276.223 25.0233 276.097C25.2531 275.967 25.5154 275.902 25.8101 275.902C26.1526 275.902 26.4539 275.975 26.714 276.123C26.9784 276.27 27.1865 276.476 27.3382 276.741C27.4943 277.005 27.5723 277.317 27.5723 277.677C27.5723 278.037 27.4943 278.351 27.3382 278.62C27.1865 278.884 26.9784 279.09 26.714 279.238C26.4539 279.385 26.1526 279.459 25.8101 279.459ZM23.8854 280.675V275.941H24.6592V276.76L24.6332 277.683L24.6982 278.607V280.675H23.8854ZM25.7191 278.763C25.9142 278.763 26.0876 278.719 26.2393 278.633C26.3954 278.546 26.5189 278.42 26.6099 278.256C26.701 278.091 26.7465 277.898 26.7465 277.677C26.7465 277.452 26.701 277.259 26.6099 277.098C26.5189 276.933 26.3954 276.808 26.2393 276.721C26.0876 276.634 25.9142 276.591 25.7191 276.591C25.524 276.591 25.3485 276.634 25.1924 276.721C25.0363 276.808 24.9128 276.933 24.8218 277.098C24.7307 277.259 24.6852 277.452 24.6852 277.677C24.6852 277.898 24.7307 278.091 24.8218 278.256C24.9128 278.42 25.0363 278.546 25.1924 278.633C25.3485 278.719 25.524 278.763 25.7191 278.763ZM28.4411 279.459C28.2937 279.459 28.168 279.409 28.064 279.309C27.9599 279.205 27.9079 279.075 27.9079 278.919C27.9079 278.754 27.9599 278.624 28.064 278.529C28.168 278.429 28.2937 278.379 28.4411 278.379C28.5885 278.379 28.7142 278.429 28.8183 278.529C28.9223 278.624 28.9743 278.754 28.9743 278.919C28.9743 279.075 28.9223 279.205 28.8183 279.309C28.7142 279.409 28.5885 279.459 28.4411 279.459ZM29.804 279.478C29.7303 279.478 29.6567 279.472 29.583 279.459C29.5093 279.446 29.4291 279.43 29.3424 279.413L29.4009 278.678C29.4616 278.696 29.5266 278.704 29.596 278.704C29.778 278.704 29.9233 278.631 30.0316 278.483C30.14 278.332 30.218 278.11 30.2657 277.82C30.3134 277.53 30.3459 277.172 30.3632 276.747L30.4283 274.861H33.777V279.413H32.9447V275.369L33.1398 275.577H30.9745L31.1565 275.362L31.111 276.715C31.098 277.165 31.0677 277.562 31.02 277.905C30.9723 278.247 30.8986 278.535 30.7989 278.769C30.7035 278.999 30.5757 279.175 30.4153 279.296C30.2549 279.417 30.0511 279.478 29.804 279.478ZM35.1485 280.72C34.9795 280.72 34.8104 280.692 34.6413 280.636C34.4723 280.579 34.3314 280.501 34.2187 280.401L34.5438 279.803C34.6262 279.877 34.7194 279.935 34.8234 279.979C34.9274 280.022 35.0336 280.044 35.142 280.044C35.2894 280.044 35.4086 280.007 35.4997 279.933C35.5907 279.86 35.6752 279.736 35.7532 279.563L35.9548 279.107L36.0198 279.01L37.3333 275.941H38.1136L36.488 279.693C36.3796 279.953 36.2583 280.159 36.1239 280.31C35.9938 280.462 35.8464 280.568 35.6817 280.629C35.5213 280.69 35.3436 280.72 35.1485 280.72ZM35.8638 279.537L34.2967 275.941H35.142L36.4165 278.938L35.8638 279.537ZM41.0385 279.413L39.7836 277.748L40.4468 277.339L41.9944 279.413H41.0385ZM38.5481 279.413V275.941H39.3609V279.413H38.5481ZM39.1203 278.022V277.345H40.2973V278.022H39.1203ZM40.5249 277.774L39.7641 277.683L41.0385 275.941H41.9099L40.5249 277.774ZM44.4809 279.413V278.711L44.4354 278.561V277.332C44.4354 277.094 44.3639 276.91 44.2208 276.78C44.0778 276.645 43.861 276.578 43.5706 276.578C43.3755 276.578 43.1826 276.608 42.9919 276.669C42.8055 276.73 42.6472 276.814 42.5172 276.923L42.1986 276.331C42.385 276.188 42.606 276.082 42.8618 276.012C43.1219 275.939 43.3907 275.902 43.6681 275.902C44.171 275.902 44.5589 276.023 44.832 276.266C45.1095 276.504 45.2482 276.875 45.2482 277.378V279.413H44.4809ZM43.3885 279.459C43.1284 279.459 42.9008 279.415 42.7058 279.329C42.5107 279.238 42.359 279.114 42.2506 278.958C42.1465 278.798 42.0945 278.618 42.0945 278.418C42.0945 278.223 42.14 278.048 42.2311 277.892C42.3264 277.735 42.4803 277.612 42.6927 277.521C42.9052 277.43 43.1869 277.384 43.5381 277.384H44.5459V277.924H43.5966C43.3191 277.924 43.1327 277.97 43.0374 278.061C42.942 278.147 42.8943 278.256 42.8943 278.386C42.8943 278.533 42.9528 278.65 43.0699 278.737C43.1869 278.824 43.3495 278.867 43.5576 278.867C43.757 278.867 43.9347 278.821 44.0908 278.73C44.2512 278.639 44.366 278.505 44.4354 278.327L44.5719 278.815C44.4939 279.019 44.353 279.177 44.1493 279.29C43.9499 279.402 43.6963 279.459 43.3885 279.459ZM47.704 279.459C47.3399 279.459 47.0148 279.383 46.7287 279.231C46.4469 279.075 46.2258 278.863 46.0654 278.594C45.905 278.325 45.8248 278.019 45.8248 277.677C45.8248 277.33 45.905 277.025 46.0654 276.76C46.2258 276.491 46.4469 276.281 46.7287 276.129C47.0148 275.978 47.3399 275.902 47.704 275.902C48.0422 275.902 48.3391 275.971 48.5949 276.11C48.855 276.244 49.0522 276.444 49.1866 276.708L48.5623 277.072C48.4583 276.907 48.3304 276.786 48.1787 276.708C48.0313 276.63 47.8709 276.591 47.6975 276.591C47.4981 276.591 47.3182 276.634 47.1578 276.721C46.9974 276.808 46.8717 276.933 46.7807 277.098C46.6897 277.259 46.6441 277.452 46.6441 277.677C46.6441 277.902 46.6897 278.097 46.7807 278.262C46.8717 278.423 46.9974 278.546 47.1578 278.633C47.3182 278.719 47.4981 278.763 47.6975 278.763C47.8709 278.763 48.0313 278.724 48.1787 278.646C48.3304 278.568 48.4583 278.446 48.5623 278.282L49.1866 278.646C49.0522 278.906 48.855 279.107 48.5949 279.251C48.3391 279.389 48.0422 279.459 47.704 279.459ZM51.8789 279.413V278.711L51.8334 278.561V277.332C51.8334 277.094 51.7619 276.91 51.6188 276.78C51.4758 276.645 51.259 276.578 50.9686 276.578C50.7735 276.578 50.5806 276.608 50.3899 276.669C50.2035 276.73 50.0453 276.814 49.9152 276.923L49.5966 276.331C49.783 276.188 50.0041 276.082 50.2598 276.012C50.5199 275.939 50.7887 275.902 51.0661 275.902C51.569 275.902 51.957 276.023 52.2301 276.266C52.5075 276.504 52.6462 276.875 52.6462 277.378V279.413H51.8789ZM50.7865 279.459C50.5264 279.459 50.2989 279.415 50.1038 279.329C49.9087 279.238 49.757 279.114 49.6486 278.958C49.5446 278.798 49.4926 278.618 49.4926 278.418C49.4926 278.223 49.5381 278.048 49.6291 277.892C49.7245 277.735 49.8784 277.612 50.0908 277.521C50.3032 277.43 50.585 277.384 50.9361 277.384H51.944V277.924H50.9946C50.7172 277.924 50.5308 277.97 50.4354 278.061C50.34 278.147 50.2923 278.256 50.2923 278.386C50.2923 278.533 50.3509 278.65 50.4679 278.737C50.585 278.824 50.7475 278.867 50.9556 278.867C51.155 278.867 51.3327 278.821 51.4888 278.73C51.6492 278.639 51.7641 278.505 51.8334 278.327L51.97 278.815C51.8919 279.019 51.7511 279.177 51.5473 279.29C51.3479 279.402 51.0943 279.459 50.7865 279.459ZM54.8704 279.413V278.847L56.678 277.131C56.8298 276.988 56.9425 276.862 57.0162 276.754C57.0898 276.645 57.1375 276.546 57.1592 276.454C57.1852 276.359 57.1982 276.27 57.1982 276.188C57.1982 275.98 57.1267 275.819 56.9836 275.707C56.8406 275.59 56.6303 275.531 56.3529 275.531C56.1318 275.531 55.9303 275.57 55.7482 275.648C55.5705 275.726 55.4166 275.845 55.2865 276.006L54.6948 275.551C54.8725 275.312 55.1109 275.128 55.4101 274.998C55.7135 274.864 56.0516 274.796 56.4244 274.796C56.7539 274.796 57.04 274.851 57.2828 274.959C57.5298 275.063 57.7184 275.213 57.8485 275.408C57.9828 275.603 58.05 275.835 58.05 276.103C58.05 276.251 58.0305 276.398 57.9915 276.546C57.9525 276.689 57.8788 276.84 57.7704 277.001C57.6621 277.161 57.5038 277.341 57.2958 277.54L55.7417 279.016L55.5661 278.698H58.2256V279.413H54.8704Z" fill="white"/>
<path d="M19.3117 540.508L18.4014 540.378C18.5661 540.386 18.7005 540.33 18.8045 540.208C18.9129 540.087 18.9974 539.918 19.0581 539.701C19.1188 539.485 19.1643 539.231 19.1947 538.94C19.225 538.646 19.2467 538.327 19.2597 537.985L19.3117 536.541H22.6475V540.703H21.8152V537.256H20.0335L20.001 538.063C19.988 538.366 19.9685 538.654 19.9425 538.927C19.9208 539.196 19.8839 539.441 19.8319 539.662C19.7842 539.883 19.717 540.068 19.6303 540.215C19.5436 540.362 19.4374 540.46 19.3117 540.508ZM18.2453 542.062L18.2518 540.378H23.3042V542.062H22.5239V541.093H19.0321V542.062H18.2453ZM25.9859 541.093V540.391L25.9403 540.241V539.012C25.9403 538.774 25.8688 538.589 25.7258 538.459C25.5827 538.325 25.366 538.258 25.0755 538.258C24.8804 538.258 24.6875 538.288 24.4968 538.349C24.3104 538.409 24.1522 538.494 24.0221 538.602L23.7035 538.011C23.8899 537.868 24.111 537.761 24.3667 537.692C24.6268 537.618 24.8956 537.581 25.173 537.581C25.6759 537.581 26.0639 537.703 26.337 537.946C26.6144 538.184 26.7531 538.555 26.7531 539.058V541.093H25.9859ZM24.8934 541.138C24.6333 541.138 24.4058 541.095 24.2107 541.008C24.0156 540.917 23.8639 540.794 23.7555 540.638C23.6515 540.477 23.5995 540.297 23.5995 540.098C23.5995 539.903 23.645 539.727 23.736 539.571C23.8314 539.415 23.9853 539.292 24.1977 539.201C24.4101 539.11 24.6919 539.064 25.043 539.064H26.0509V539.604H25.1015C24.8241 539.604 24.6377 539.649 24.5423 539.74C24.4469 539.827 24.3993 539.935 24.3993 540.065C24.3993 540.213 24.4578 540.33 24.5748 540.417C24.6919 540.503 24.8544 540.547 25.0625 540.547C25.2619 540.547 25.4396 540.501 25.5957 540.41C25.7561 540.319 25.871 540.185 25.9403 540.007L26.0769 540.495C25.9989 540.698 25.858 540.857 25.6542 540.969C25.4548 541.082 25.2012 541.138 24.8934 541.138ZM28.3506 541.093V538.115L28.5392 538.31H27.1282V537.62H30.3794V538.31H28.9749L29.1635 538.115V541.093H28.3506ZM32.9457 541.093V540.391L32.9002 540.241V539.012C32.9002 538.774 32.8287 538.589 32.6856 538.459C32.5426 538.325 32.3258 538.258 32.0354 538.258C31.8403 538.258 31.6474 538.288 31.4567 538.349C31.2703 538.409 31.112 538.494 30.982 538.602L30.6634 538.011C30.8498 537.868 31.0709 537.761 31.3266 537.692C31.5867 537.618 31.8555 537.581 32.1329 537.581C32.6358 537.581 33.0238 537.703 33.2969 537.946C33.5743 538.184 33.713 538.555 33.713 539.058V541.093H32.9457ZM31.8533 541.138C31.5932 541.138 31.3656 541.095 31.1706 541.008C30.9755 540.917 30.8238 540.794 30.7154 540.638C30.6114 540.477 30.5593 540.297 30.5593 540.098C30.5593 539.903 30.6049 539.727 30.6959 539.571C30.7913 539.415 30.9451 539.292 31.1576 539.201C31.37 539.11 31.6517 539.064 32.0029 539.064H33.0107V539.604H32.0614C31.784 539.604 31.5976 539.649 31.5022 539.74C31.4068 539.827 31.3591 539.935 31.3591 540.065C31.3591 540.213 31.4177 540.33 31.5347 540.417C31.6517 540.503 31.8143 540.547 32.0224 540.547C32.2218 540.547 32.3995 540.501 32.5556 540.41C32.716 540.319 32.8308 540.185 32.9002 540.007L33.0368 540.495C32.9587 540.698 32.8178 540.857 32.6141 540.969C32.4147 541.082 32.1611 541.138 31.8533 541.138ZM34.8358 538.661C34.6885 538.661 34.5627 538.611 34.4587 538.511C34.3547 538.407 34.3026 538.277 34.3026 538.121C34.3026 537.956 34.3547 537.826 34.4587 537.731C34.5627 537.631 34.6885 537.581 34.8358 537.581C34.9832 537.581 35.1089 537.631 35.213 537.731C35.317 537.826 35.369 537.956 35.369 538.121C35.369 538.277 35.317 538.407 35.213 538.511C35.1089 538.611 34.9832 538.661 34.8358 538.661ZM34.8358 541.138C34.6885 541.138 34.5627 541.088 34.4587 540.989C34.3547 540.885 34.3026 540.755 34.3026 540.599C34.3026 540.434 34.3547 540.304 34.4587 540.208C34.5627 540.109 34.6885 540.059 34.8358 540.059C34.9832 540.059 35.1089 540.109 35.213 540.208C35.317 540.304 35.369 540.434 35.369 540.599C35.369 540.755 35.317 540.885 35.213 540.989C35.1089 541.088 34.9832 541.138 34.8358 541.138ZM20.3391 548.158C19.9793 548.158 19.6542 548.067 19.3637 547.885C19.0776 547.703 18.8522 547.438 18.6875 547.091C18.5228 546.74 18.4404 546.315 18.4404 545.817C18.4404 545.318 18.5228 544.896 18.6875 544.549C18.8522 544.198 19.0776 543.931 19.3637 543.749C19.6542 543.567 19.9793 543.476 20.3391 543.476C20.7032 543.476 21.0284 543.567 21.3145 543.749C21.6006 543.931 21.826 544.198 21.9907 544.549C22.1598 544.896 22.2443 545.318 22.2443 545.817C22.2443 546.315 22.1598 546.74 21.9907 547.091C21.826 547.438 21.6006 547.703 21.3145 547.885C21.0284 548.067 20.7032 548.158 20.3391 548.158ZM20.3391 547.423C20.5515 547.423 20.7358 547.367 20.8918 547.254C21.0479 547.137 21.1693 546.959 21.256 546.721C21.347 546.482 21.3925 546.181 21.3925 545.817C21.3925 545.448 21.347 545.147 21.256 544.913C21.1693 544.675 21.0479 544.499 20.8918 544.386C20.7358 544.269 20.5515 544.211 20.3391 544.211C20.1354 544.211 19.9533 544.269 19.7929 544.386C19.6368 544.499 19.5133 544.675 19.4223 544.913C19.3356 545.147 19.2922 545.448 19.2922 545.817C19.2922 546.181 19.3356 546.482 19.4223 546.721C19.5133 546.959 19.6368 547.137 19.7929 547.254C19.9533 547.367 20.1354 547.423 20.3391 547.423ZM23.4074 548.093V543.866L23.7781 544.25H22.4451V543.541H24.2528V548.093H23.4074ZM25.5328 548.138C25.3854 548.138 25.2597 548.088 25.1557 547.989C25.0516 547.885 24.9996 547.755 24.9996 547.599C24.9996 547.434 25.0516 547.304 25.1557 547.208C25.2597 547.109 25.3854 547.059 25.5328 547.059C25.6802 547.059 25.8059 547.109 25.91 547.208C26.014 547.304 26.066 547.434 26.066 547.599C26.066 547.755 26.014 547.885 25.91 547.989C25.8059 548.088 25.6802 548.138 25.5328 548.138ZM28.3056 548.158C27.9458 548.158 27.6207 548.067 27.3302 547.885C27.0441 547.703 26.8187 547.438 26.654 547.091C26.4892 546.74 26.4069 546.315 26.4069 545.817C26.4069 545.318 26.4892 544.896 26.654 544.549C26.8187 544.198 27.0441 543.931 27.3302 543.749C27.6207 543.567 27.9458 543.476 28.3056 543.476C28.6697 543.476 28.9948 543.567 29.281 543.749C29.5671 543.931 29.7925 544.198 29.9572 544.549C30.1263 544.896 30.2108 545.318 30.2108 545.817C30.2108 546.315 30.1263 546.74 29.9572 547.091C29.7925 547.438 29.5671 547.703 29.281 547.885C28.9948 548.067 28.6697 548.158 28.3056 548.158ZM28.3056 547.423C28.518 547.423 28.7022 547.367 28.8583 547.254C29.0144 547.137 29.1357 546.959 29.2224 546.721C29.3135 546.482 29.359 546.181 29.359 545.817C29.359 545.448 29.3135 545.147 29.2224 544.913C29.1357 544.675 29.0144 544.499 28.8583 544.386C28.7022 544.269 28.518 544.211 28.3056 544.211C28.1018 544.211 27.9198 544.269 27.7594 544.386C27.6033 544.499 27.4798 544.675 27.3887 544.913C27.302 545.147 27.2587 545.448 27.2587 545.817C27.2587 546.181 27.302 546.482 27.3887 546.721C27.4798 546.959 27.6033 547.137 27.7594 547.254C27.9198 547.367 28.1018 547.423 28.3056 547.423ZM32.4792 548.158C32.102 548.158 31.7747 548.101 31.4973 547.989C31.2199 547.876 31.0053 547.718 30.8536 547.514C30.7018 547.306 30.626 547.063 30.626 546.786C30.626 546.508 30.6997 546.274 30.8471 546.084C30.9945 545.893 31.2069 545.748 31.4843 545.648C31.7617 545.548 32.0934 545.498 32.4792 545.498C32.865 545.498 33.1966 545.548 33.474 545.648C33.7558 545.748 33.9704 545.895 34.1178 546.09C34.2695 546.281 34.3454 546.513 34.3454 546.786C34.3454 547.063 34.2673 547.306 34.1113 547.514C33.9596 547.718 33.7428 547.876 33.461 547.989C33.1836 548.101 32.8563 548.158 32.4792 548.158ZM32.4792 547.495C32.7913 547.495 33.0384 547.43 33.2205 547.299C33.4025 547.169 33.4936 546.99 33.4936 546.76C33.4936 546.534 33.4025 546.357 33.2205 546.227C33.0384 546.097 32.7913 546.032 32.4792 546.032C32.1671 546.032 31.9221 546.097 31.7444 546.227C31.5667 546.357 31.4778 546.534 31.4778 546.76C31.4778 546.99 31.5667 547.169 31.7444 547.299C31.9221 547.43 32.1671 547.495 32.4792 547.495ZM32.4792 545.42C32.7479 545.42 32.9604 545.364 33.1164 545.251C33.2725 545.134 33.3505 544.978 33.3505 544.783C33.3505 544.579 33.2703 544.421 33.1099 544.308C32.9495 544.196 32.7393 544.139 32.4792 544.139C32.2191 544.139 32.011 544.196 31.8549 544.308C31.6989 544.421 31.6209 544.579 31.6209 544.783C31.6209 544.978 31.6967 545.134 31.8484 545.251C32.0045 545.364 32.2147 545.42 32.4792 545.42ZM32.4792 545.94C32.128 545.94 31.8268 545.895 31.5753 545.804C31.3239 545.709 31.1288 545.572 30.9901 545.394C30.8557 545.212 30.7885 544.995 30.7885 544.744C30.7885 544.484 30.8579 544.261 30.9966 544.074C31.1397 543.884 31.3391 543.736 31.5948 543.632C31.8506 543.528 32.1454 543.476 32.4792 543.476C32.8173 543.476 33.1142 543.528 33.37 543.632C33.6258 543.736 33.8252 543.884 33.9682 544.074C34.1113 544.261 34.1828 544.484 34.1828 544.744C34.1828 544.995 34.1135 545.212 33.9747 545.394C33.8403 545.572 33.6453 545.709 33.3895 545.804C33.1338 545.895 32.8303 545.94 32.4792 545.94ZM35.3344 548.138C35.1871 548.138 35.0613 548.088 34.9573 547.989C34.8533 547.885 34.8012 547.755 34.8012 547.599C34.8012 547.434 34.8533 547.304 34.9573 547.208C35.0613 547.109 35.1871 547.059 35.3344 547.059C35.4818 547.059 35.6075 547.109 35.7116 547.208C35.8156 547.304 35.8676 547.434 35.8676 547.599C35.8676 547.755 35.8156 547.885 35.7116 547.989C35.6075 548.088 35.4818 548.138 35.3344 548.138ZM36.2897 548.093V547.527L38.0974 545.81C38.2491 545.667 38.3618 545.542 38.4355 545.433C38.5092 545.325 38.5569 545.225 38.5785 545.134C38.6046 545.039 38.6176 544.95 38.6176 544.868C38.6176 544.659 38.546 544.499 38.403 544.386C38.2599 544.269 38.0497 544.211 37.7722 544.211C37.5512 544.211 37.3496 544.25 37.1675 544.328C36.9898 544.406 36.8359 544.525 36.7058 544.686L36.1141 544.23C36.2919 543.992 36.5303 543.808 36.8294 543.678C37.1328 543.543 37.471 543.476 37.8438 543.476C38.1732 543.476 38.4593 543.53 38.7021 543.639C38.9492 543.743 39.1378 543.892 39.2678 544.087C39.4022 544.282 39.4694 544.514 39.4694 544.783C39.4694 544.93 39.4499 545.078 39.4109 545.225C39.3718 545.368 39.2981 545.52 39.1898 545.68C39.0814 545.841 38.9232 546.021 38.7151 546.22L37.161 547.696L36.9855 547.378H39.6449V548.093H36.2897ZM41.9015 548.158C41.5417 548.158 41.2166 548.067 40.9261 547.885C40.64 547.703 40.4146 547.438 40.2499 547.091C40.0851 546.74 40.0028 546.315 40.0028 545.817C40.0028 545.318 40.0851 544.896 40.2499 544.549C40.4146 544.198 40.64 543.931 40.9261 543.749C41.2166 543.567 41.5417 543.476 41.9015 543.476C42.2656 543.476 42.5907 543.567 42.8768 543.749C43.163 543.931 43.3884 544.198 43.5531 544.549C43.7222 544.896 43.8067 545.318 43.8067 545.817C43.8067 546.315 43.7222 546.74 43.5531 547.091C43.3884 547.438 43.163 547.703 42.8768 547.885C42.5907 548.067 42.2656 548.158 41.9015 548.158ZM41.9015 547.423C42.1139 547.423 42.2981 547.367 42.4542 547.254C42.6102 547.137 42.7316 546.959 42.8183 546.721C42.9094 546.482 42.9549 546.181 42.9549 545.817C42.9549 545.448 42.9094 545.147 42.8183 544.913C42.7316 544.675 42.6102 544.499 42.4542 544.386C42.2981 544.269 42.1139 544.211 41.9015 544.211C41.6977 544.211 41.5157 544.269 41.3553 544.386C41.1992 544.499 41.0757 544.675 40.9846 544.913C40.8979 545.147 40.8546 545.448 40.8546 545.817C40.8546 546.181 40.8979 546.482 40.9846 546.721C41.0757 546.959 41.1992 547.137 41.3553 547.254C41.5157 547.367 41.6977 547.423 41.9015 547.423ZM44.183 548.093V547.527L45.9907 545.81C46.1424 545.667 46.2551 545.542 46.3288 545.433C46.4025 545.325 46.4502 545.225 46.4719 545.134C46.4979 545.039 46.5109 544.95 46.5109 544.868C46.5109 544.659 46.4394 544.499 46.2963 544.386C46.1533 544.269 45.943 544.211 45.6656 544.211C45.4445 544.211 45.2429 544.25 45.0608 544.328C44.8831 544.406 44.7292 544.525 44.5992 544.686L44.0075 544.23C44.1852 543.992 44.4236 543.808 44.7227 543.678C45.0262 543.543 45.3643 543.476 45.7371 543.476C46.0666 543.476 46.3527 543.53 46.5954 543.639C46.8425 543.743 47.0311 543.892 47.1611 544.087C47.2955 544.282 47.3627 544.514 47.3627 544.783C47.3627 544.93 47.3432 545.078 47.3042 545.225C47.2652 545.368 47.1915 545.52 47.0831 545.68C46.9747 545.841 46.8165 546.021 46.6084 546.22L45.0543 547.696L44.8788 547.378H47.5383V548.093H44.183ZM49.8663 548.158C49.4545 548.158 49.1012 548.071 48.8064 547.898C48.5117 547.72 48.2863 547.464 48.1302 547.13C47.9741 546.797 47.8961 546.385 47.8961 545.895C47.8961 545.375 47.9893 544.935 48.1757 544.575C48.3664 544.215 48.6287 543.942 48.9625 543.756C49.3006 543.569 49.6886 543.476 50.1264 543.476C50.3562 543.476 50.5751 543.5 50.7832 543.548C50.9956 543.595 51.1755 543.669 51.3229 543.769L51.0108 544.406C50.8851 544.324 50.7485 544.267 50.6011 544.237C50.4581 544.202 50.3063 544.185 50.1459 544.185C49.7168 544.185 49.3765 544.317 49.1251 544.581C48.8736 544.846 48.7479 545.236 48.7479 545.752C48.7479 545.834 48.7501 545.932 48.7544 546.045C48.7588 546.153 48.7739 546.263 48.7999 546.376L48.5398 546.09C48.6179 545.912 48.7241 545.765 48.8585 545.648C48.9972 545.526 49.1597 545.435 49.3461 545.375C49.5369 545.314 49.7428 545.284 49.9639 545.284C50.263 545.284 50.5296 545.342 50.7637 545.459C50.9978 545.572 51.1842 545.735 51.3229 545.947C51.4616 546.155 51.531 546.4 51.531 546.682C51.531 546.981 51.4573 547.241 51.3099 547.462C51.1625 547.683 50.9631 547.854 50.7117 547.976C50.4602 548.097 50.1785 548.158 49.8663 548.158ZM49.8208 547.495C49.9942 547.495 50.1481 547.464 50.2825 547.404C50.4169 547.338 50.5209 547.247 50.5946 547.13C50.6726 547.013 50.7117 546.877 50.7117 546.721C50.7117 546.482 50.6293 546.294 50.4646 546.155C50.2998 546.016 50.0788 545.947 49.8013 545.947C49.6192 545.947 49.4589 545.982 49.3201 546.051C49.1858 546.116 49.0774 546.207 48.995 546.324C48.917 546.441 48.878 546.576 48.878 546.727C48.878 546.866 48.9148 546.994 48.9885 547.111C49.0622 547.228 49.1684 547.321 49.3071 547.391C49.4502 547.46 49.6214 547.495 49.8208 547.495Z" fill="white"/>
<path d="M18.798 451.689V447.138H22.823V451.689H21.9907V447.645L22.1858 447.853H19.4353L19.6303 447.645V451.689H18.798ZM25.5045 451.735C25.1187 451.735 24.7806 451.659 24.4901 451.507C24.204 451.351 23.9808 451.139 23.8204 450.87C23.6643 450.601 23.5863 450.296 23.5863 449.953C23.5863 449.607 23.6622 449.301 23.8139 449.036C23.9699 448.768 24.1824 448.557 24.4511 448.406C24.7242 448.254 25.0342 448.178 25.381 448.178C25.7191 448.178 26.0204 448.252 26.2848 448.399C26.5492 448.547 26.7573 448.755 26.909 449.023C27.0608 449.292 27.1366 449.609 27.1366 449.973C27.1366 450.007 27.1345 450.047 27.1301 450.09C27.1301 450.133 27.128 450.174 27.1236 450.213H24.23V449.674H26.6945L26.3758 449.843C26.3802 449.643 26.339 449.468 26.2523 449.316C26.1656 449.164 26.0464 449.045 25.8947 448.958C25.7473 448.872 25.576 448.828 25.381 448.828C25.1816 448.828 25.006 448.872 24.8543 448.958C24.7069 449.045 24.5898 449.167 24.5031 449.323C24.4208 449.474 24.3796 449.654 24.3796 449.862V449.992C24.3796 450.2 24.4273 450.385 24.5227 450.545C24.618 450.705 24.7524 450.829 24.9258 450.916C25.0992 451.002 25.2986 451.046 25.524 451.046C25.7191 451.046 25.8947 451.015 26.0507 450.955C26.2068 450.894 26.3455 450.799 26.4669 450.669L26.9025 451.169C26.7465 451.351 26.5492 451.492 26.3108 451.592C26.0767 451.687 25.808 451.735 25.5045 451.735ZM29.8203 451.735C29.5385 451.735 29.2806 451.67 29.0465 451.54C28.8168 451.41 28.6325 451.215 28.4938 450.955C28.3594 450.69 28.2922 450.356 28.2922 449.953C28.2922 449.546 28.3573 449.212 28.4873 448.952C28.6217 448.692 28.8038 448.499 29.0335 448.373C29.2633 448.243 29.5255 448.178 29.8203 448.178C30.1628 448.178 30.464 448.252 30.7241 448.399C30.9886 448.547 31.1966 448.753 31.3484 449.017C31.5044 449.281 31.5825 449.594 31.5825 449.953C31.5825 450.313 31.5044 450.627 31.3484 450.896C31.1966 451.161 30.9886 451.366 30.7241 451.514C30.464 451.661 30.1628 451.735 29.8203 451.735ZM27.8956 452.951V448.217H28.6694V449.036L28.6434 449.96L28.7084 450.883V452.951H27.8956ZM29.7293 451.039C29.9243 451.039 30.0977 450.996 30.2495 450.909C30.4055 450.822 30.5291 450.697 30.6201 450.532C30.7111 450.367 30.7566 450.174 30.7566 449.953C30.7566 449.728 30.7111 449.535 30.6201 449.375C30.5291 449.21 30.4055 449.084 30.2495 448.997C30.0977 448.911 29.9243 448.867 29.7293 448.867C29.5342 448.867 29.3586 448.911 29.2026 448.997C29.0465 449.084 28.923 449.21 28.8319 449.375C28.7409 449.535 28.6954 449.728 28.6954 449.953C28.6954 450.174 28.7409 450.367 28.8319 450.532C28.923 450.697 29.0465 450.822 29.2026 450.909C29.3586 450.996 29.5342 451.039 29.7293 451.039ZM33.8804 451.735C33.4946 451.735 33.1565 451.659 32.8661 451.507C32.58 451.351 32.3567 451.139 32.1963 450.87C32.0403 450.601 31.9622 450.296 31.9622 449.953C31.9622 449.607 32.0381 449.301 32.1898 449.036C32.3459 448.768 32.5583 448.557 32.8271 448.406C33.1002 448.254 33.4101 448.178 33.7569 448.178C34.095 448.178 34.3963 448.252 34.6607 448.399C34.9252 448.547 35.1332 448.755 35.285 449.023C35.4367 449.292 35.5126 449.609 35.5126 449.973C35.5126 450.007 35.5104 450.047 35.5061 450.09C35.5061 450.133 35.5039 450.174 35.4995 450.213H32.606V449.674H35.0704L34.7518 449.843C34.7561 449.643 34.7149 449.468 34.6282 449.316C34.5415 449.164 34.4223 449.045 34.2706 448.958C34.1232 448.872 33.952 448.828 33.7569 448.828C33.5575 448.828 33.3819 448.872 33.2302 448.958C33.0828 449.045 32.9658 449.167 32.8791 449.323C32.7967 449.474 32.7555 449.654 32.7555 449.862V449.992C32.7555 450.2 32.8032 450.385 32.8986 450.545C32.994 450.705 33.1283 450.829 33.3017 450.916C33.4751 451.002 33.6745 451.046 33.9 451.046C34.095 451.046 34.2706 451.015 34.4266 450.955C34.5827 450.894 34.7214 450.799 34.8428 450.669L35.2785 451.169C35.1224 451.351 34.9252 451.492 34.6867 451.592C34.4527 451.687 34.1839 451.735 33.8804 451.735ZM37.3704 451.748C37.106 451.748 36.8437 451.718 36.5836 451.657C36.3279 451.592 36.0959 451.501 35.8879 451.384L36.1155 450.779C36.2845 450.874 36.4753 450.948 36.6877 451C36.9001 451.052 37.1125 451.078 37.3249 451.078C37.507 451.078 37.663 451.061 37.7931 451.026C37.9231 450.987 38.0228 450.931 38.0922 450.857C38.1659 450.783 38.2027 450.699 38.2027 450.604C38.2027 450.465 38.142 450.361 38.0207 450.291C37.9036 450.218 37.7346 450.181 37.5135 450.181H36.7202V449.635H37.4484C37.5872 449.635 37.7042 449.62 37.7996 449.589C37.8993 449.559 37.9751 449.513 38.0272 449.453C38.0792 449.392 38.1052 449.32 38.1052 449.238C38.1052 449.156 38.0727 449.084 38.0077 449.023C37.947 448.958 37.8581 448.911 37.7411 448.88C37.624 448.846 37.4831 448.828 37.3184 448.828C37.145 448.828 36.9651 448.85 36.7787 448.893C36.5966 448.937 36.4102 449 36.2195 449.082L36.0114 448.484C36.2325 448.384 36.4471 448.308 36.6552 448.256C36.8676 448.2 37.0778 448.169 37.2859 448.165C37.6023 448.152 37.8841 448.185 38.1312 448.263C38.3783 448.341 38.5734 448.453 38.7164 448.601C38.8595 448.748 38.931 448.922 38.931 449.121C38.931 449.286 38.879 449.435 38.7749 449.57C38.6752 449.7 38.5365 449.802 38.3588 449.875C38.1854 449.949 37.986 449.986 37.7606 449.986L37.7866 449.81C38.1724 449.81 38.4758 449.888 38.6969 450.044C38.918 450.196 39.0285 450.404 39.0285 450.669C39.0285 450.881 38.957 451.07 38.814 451.234C38.6709 451.395 38.4737 451.52 38.2222 451.611C37.9751 451.702 37.6912 451.748 37.3704 451.748ZM41.8424 451.689V450.987L41.7968 450.838V449.609C41.7968 449.37 41.7253 449.186 41.5823 449.056C41.4392 448.922 41.2225 448.854 40.932 448.854C40.7369 448.854 40.544 448.885 40.3533 448.945C40.1669 449.006 40.0087 449.091 39.8786 449.199L39.56 448.607C39.7464 448.464 39.9675 448.358 40.2233 448.289C40.4833 448.215 40.7521 448.178 41.0296 448.178C41.5324 448.178 41.9204 448.3 42.1935 448.542C42.4709 448.781 42.6096 449.151 42.6096 449.654V451.689H41.8424ZM40.7499 451.735C40.4899 451.735 40.2623 451.692 40.0672 451.605C39.8721 451.514 39.7204 451.39 39.612 451.234C39.508 451.074 39.456 450.894 39.456 450.695C39.456 450.5 39.5015 450.324 39.5925 450.168C39.6879 450.012 39.8418 449.888 40.0542 449.797C40.2666 449.706 40.5484 449.661 40.8995 449.661H41.9074V450.2H40.958C40.6806 450.2 40.4942 450.246 40.3988 450.337C40.3034 450.424 40.2558 450.532 40.2558 450.662C40.2558 450.809 40.3143 450.927 40.4313 451.013C40.5484 451.1 40.7109 451.143 40.919 451.143C41.1184 451.143 41.2962 451.098 41.4522 451.007C41.6126 450.916 41.7275 450.781 41.7968 450.604L41.9334 451.091C41.8554 451.295 41.7145 451.453 41.5107 451.566C41.3113 451.679 41.0577 451.735 40.7499 451.735ZM43.4854 451.689V448.217H46.1514V448.906H44.1096L44.2982 448.724V451.689H43.4854ZM48.5376 451.735C48.2558 451.735 47.9979 451.67 47.7638 451.54C47.5341 451.41 47.3498 451.215 47.2111 450.955C47.0767 450.69 47.0095 450.356 47.0095 449.953C47.0095 449.546 47.0746 449.212 47.2046 448.952C47.339 448.692 47.5211 448.499 47.7508 448.373C47.9806 448.243 48.2428 448.178 48.5376 448.178C48.8801 448.178 49.1813 448.252 49.4414 448.399C49.7059 448.547 49.914 448.753 50.0657 449.017C50.2217 449.281 50.2998 449.594 50.2998 449.953C50.2998 450.313 50.2217 450.627 50.0657 450.896C49.914 451.161 49.7059 451.366 49.4414 451.514C49.1813 451.661 48.8801 451.735 48.5376 451.735ZM46.6129 452.951V448.217H47.3867V449.036L47.3607 449.96L47.4257 450.883V452.951H46.6129ZM48.4466 451.039C48.6416 451.039 48.815 450.996 48.9668 450.909C49.1228 450.822 49.2464 450.697 49.3374 450.532C49.4284 450.367 49.474 450.174 49.474 449.953C49.474 449.728 49.4284 449.535 49.3374 449.375C49.2464 449.21 49.1228 449.084 48.9668 448.997C48.815 448.911 48.6416 448.867 48.4466 448.867C48.2515 448.867 48.0759 448.911 47.9199 448.997C47.7638 449.084 47.6403 449.21 47.5492 449.375C47.4582 449.535 47.4127 449.728 47.4127 449.953C47.4127 450.174 47.4582 450.367 47.5492 450.532C47.6403 450.697 47.7638 450.822 47.9199 450.909C48.0759 450.996 48.2515 451.039 48.4466 451.039ZM51.1955 452.996C51.0265 452.996 50.8574 452.968 50.6883 452.912C50.5193 452.856 50.3784 452.778 50.2657 452.678L50.5908 452.08C50.6732 452.153 50.7664 452.212 50.8704 452.255C50.9744 452.299 51.0806 452.32 51.189 452.32C51.3364 452.32 51.4556 452.283 51.5467 452.21C51.6377 452.136 51.7222 452.012 51.8002 451.839L52.0018 451.384L52.0668 451.286L53.3803 448.217H54.1606L52.535 451.969C52.4266 452.229 52.3053 452.435 52.1709 452.587C52.0408 452.739 51.8934 452.845 51.7287 452.905C51.5683 452.966 51.3906 452.996 51.1955 452.996ZM51.9108 451.813L50.3437 448.217H51.189L52.4635 451.215L51.9108 451.813ZM55.694 451.748C55.4296 451.748 55.1673 451.718 54.9072 451.657C54.6515 451.592 54.4196 451.501 54.2115 451.384L54.4391 450.779C54.6081 450.874 54.7989 450.948 55.0113 451C55.2237 451.052 55.4361 451.078 55.6485 451.078C55.8306 451.078 55.9866 451.061 56.1167 451.026C56.2467 450.987 56.3464 450.931 56.4158 450.857C56.4895 450.783 56.5263 450.699 56.5263 450.604C56.5263 450.465 56.4656 450.361 56.3443 450.291C56.2272 450.218 56.0582 450.181 55.8371 450.181H55.0438V449.635H55.7721C55.9108 449.635 56.0278 449.62 56.1232 449.589C56.2229 449.559 56.2988 449.513 56.3508 449.453C56.4028 449.392 56.4288 449.32 56.4288 449.238C56.4288 449.156 56.3963 449.084 56.3313 449.023C56.2706 448.958 56.1817 448.911 56.0647 448.88C55.9476 448.846 55.8067 448.828 55.642 448.828C55.4686 448.828 55.2887 448.85 55.1023 448.893C54.9202 448.937 54.7338 449 54.5431 449.082L54.335 448.484C54.5561 448.384 54.7707 448.308 54.9788 448.256C55.1912 448.2 55.4014 448.169 55.6095 448.165C55.9259 448.152 56.2077 448.185 56.4548 448.263C56.7019 448.341 56.897 448.453 57.04 448.601C57.1831 448.748 57.2546 448.922 57.2546 449.121C57.2546 449.286 57.2026 449.435 57.0986 449.57C56.9988 449.7 56.8601 449.802 56.6824 449.875C56.509 449.949 56.3096 449.986 56.0842 449.986L56.1102 449.81C56.496 449.81 56.7994 449.888 57.0205 450.044C57.2416 450.196 57.3521 450.404 57.3521 450.669C57.3521 450.881 57.2806 451.07 57.1376 451.234C56.9945 451.395 56.7973 451.52 56.5458 451.611C56.2988 451.702 56.0148 451.748 55.694 451.748ZM60.5496 451.689L59.2946 450.025L59.9579 449.615L61.5055 451.689H60.5496ZM58.0592 451.689V448.217H58.872V451.689H58.0592ZM58.6314 450.298V449.622H59.8083V450.298H58.6314ZM60.0359 450.051L59.2751 449.96L60.5496 448.217H61.4209L60.0359 450.051ZM63.992 451.689V450.987L63.9465 450.838V449.609C63.9465 449.37 63.8749 449.186 63.7319 449.056C63.5888 448.922 63.3721 448.854 63.0816 448.854C62.8866 448.854 62.6937 448.885 62.5029 448.945C62.3165 449.006 62.1583 449.091 62.0282 449.199L61.7096 448.607C61.896 448.464 62.1171 448.358 62.3729 448.289C62.633 448.215 62.9017 448.178 63.1792 448.178C63.682 448.178 64.07 448.3 64.3431 448.542C64.6205 448.781 64.7593 449.151 64.7593 449.654V451.689H63.992ZM62.8996 451.735C62.6395 451.735 62.4119 451.692 62.2168 451.605C62.0217 451.514 61.87 451.39 61.7617 451.234C61.6576 451.074 61.6056 450.894 61.6056 450.695C61.6056 450.5 61.6511 450.324 61.7421 450.168C61.8375 450.012 61.9914 449.888 62.2038 449.797C62.4162 449.706 62.698 449.661 63.0491 449.661H64.057V450.2H63.1077C62.8302 450.2 62.6438 450.246 62.5484 450.337C62.4531 450.424 62.4054 450.532 62.4054 450.662C62.4054 450.809 62.4639 450.927 62.581 451.013C62.698 451.1 62.8606 451.143 63.0686 451.143C63.268 451.143 63.4458 451.098 63.6018 451.007C63.7622 450.916 63.8771 450.781 63.9465 450.604L64.083 451.091C64.005 451.295 63.8641 451.453 63.6604 451.566C63.4609 451.679 63.2074 451.735 62.8996 451.735ZM18.7005 458.689V455.217H19.5523L20.9503 457.682H20.6122L22.0818 455.217H22.8425L22.849 458.689H22.1143V456.088L22.2443 456.173L20.9438 458.325H20.5927L19.2857 456.114L19.4418 456.075V458.689H18.7005ZM25.3828 458.696L23.8092 458.689V455.217H24.622V456.355L25.4998 456.362C25.9463 456.362 26.2845 456.461 26.5142 456.661C26.7483 456.86 26.8654 457.142 26.8654 457.506C26.8654 457.883 26.7353 458.178 26.4752 458.39C26.2194 458.598 25.8553 458.7 25.3828 458.696ZM25.3113 458.098C25.5497 458.102 25.7318 458.052 25.8575 457.948C25.9832 457.844 26.046 457.692 26.046 457.493C26.046 457.294 25.9832 457.151 25.8575 457.064C25.7361 456.973 25.554 456.925 25.3113 456.921L24.622 456.914V458.091L25.3113 458.098ZM27.314 458.689V455.217H28.1268V458.689H27.314ZM30.6695 458.735C30.3053 458.735 29.9802 458.659 29.6941 458.507C29.4123 458.351 29.1913 458.139 29.0309 457.87C28.8705 457.601 28.7903 457.296 28.7903 456.953C28.7903 456.607 28.8705 456.301 29.0309 456.036C29.1913 455.768 29.4123 455.557 29.6941 455.406C29.9802 455.254 30.3053 455.178 30.6695 455.178C31.0076 455.178 31.3045 455.248 31.5603 455.386C31.8204 455.521 32.0176 455.72 32.152 455.984L31.5278 456.349C31.4238 456.184 31.2959 456.062 31.1441 455.984C30.9968 455.906 30.8364 455.867 30.663 455.867C30.4636 455.867 30.2837 455.911 30.1233 455.997C29.9629 456.084 29.8372 456.21 29.7461 456.375C29.6551 456.535 29.6096 456.728 29.6096 456.953C29.6096 457.179 29.6551 457.374 29.7461 457.539C29.8372 457.699 29.9629 457.822 30.1233 457.909C30.2837 457.996 30.4636 458.039 30.663 458.039C30.8364 458.039 30.9968 458 31.1441 457.922C31.2959 457.844 31.4238 457.723 31.5278 457.558L32.152 457.922C32.0176 458.182 31.8204 458.384 31.5603 458.527C31.3045 458.666 31.0076 458.735 30.6695 458.735ZM32.5965 458.754C32.5315 458.754 32.46 458.748 32.3819 458.735C32.3082 458.722 32.2302 458.705 32.1479 458.683L32.1869 458C32.2172 458.005 32.2454 458.009 32.2714 458.013C32.2974 458.018 32.3213 458.02 32.3429 458.02C32.4773 458.02 32.5814 457.979 32.655 457.896C32.7287 457.814 32.7829 457.703 32.8176 457.565C32.8566 457.421 32.8826 457.263 32.8956 457.09C32.913 456.912 32.926 456.734 32.9346 456.557L32.9932 455.217H35.8022V458.689H34.9894V455.685L35.178 455.906H33.5264L33.7019 455.679L33.6564 456.596C33.6434 456.903 33.6174 457.19 33.5784 457.454C33.5437 457.714 33.4874 457.942 33.4093 458.137C33.3356 458.332 33.2316 458.484 33.0972 458.592C32.9672 458.7 32.8003 458.754 32.5965 458.754ZM38.3859 458.735C38.0001 458.735 37.662 458.659 37.3715 458.507C37.0854 458.351 36.8622 458.139 36.7018 457.87C36.5457 457.601 36.4677 457.296 36.4677 456.953C36.4677 456.607 36.5436 456.301 36.6953 456.036C36.8513 455.768 37.0638 455.557 37.3325 455.406C37.6056 455.254 37.9156 455.178 38.2624 455.178C38.6005 455.178 38.9018 455.252 39.1662 455.399C39.4306 455.547 39.6387 455.755 39.7904 456.023C39.9422 456.292 40.018 456.609 40.018 456.973C40.018 457.007 40.0159 457.047 40.0115 457.09C40.0115 457.133 40.0093 457.174 40.005 457.213H37.1114V456.674H39.5759L39.2572 456.843C39.2616 456.643 39.2204 456.468 39.1337 456.316C39.047 456.164 38.9278 456.045 38.7761 455.958C38.6287 455.872 38.4574 455.828 38.2624 455.828C38.063 455.828 37.8874 455.872 37.7357 455.958C37.5883 456.045 37.4712 456.167 37.3845 456.323C37.3022 456.474 37.261 456.654 37.261 456.862V456.992C37.261 457.2 37.3087 457.385 37.404 457.545C37.4994 457.705 37.6338 457.829 37.8072 457.916C37.9806 458.002 38.18 458.046 38.4054 458.046C38.6005 458.046 38.7761 458.015 38.9321 457.955C39.0882 457.894 39.2269 457.799 39.3483 457.669L39.7839 458.169C39.6279 458.351 39.4306 458.492 39.1922 458.592C38.9581 458.687 38.6894 458.735 38.3859 458.735ZM40.777 458.689V455.217H41.5898V457.506L43.508 455.217H44.2493V458.689H43.4365V456.401L41.5248 458.689H40.777ZM42.4611 454.808C42.1143 454.808 41.8477 454.727 41.6613 454.567C41.4749 454.402 41.3795 454.164 41.3752 453.852H41.9149C41.9192 454.008 41.9669 454.131 42.0579 454.222C42.1533 454.313 42.2855 454.359 42.4546 454.359C42.6193 454.359 42.7494 454.313 42.8447 454.222C42.9444 454.131 42.9965 454.008 43.0008 453.852H43.5535C43.5492 454.164 43.4516 454.402 43.2609 454.567C43.0745 454.727 42.8079 454.808 42.4611 454.808Z" fill="white"/>
<path d="M164.605 13.041V18.1152H163.297V16.2274H159.53V18.1152H158.223V13.041H159.53V14.9289H163.297V13.041H164.605Z" fill="white"/>
<path d="M166.825 14.3409V14.9211H170.67V16.2288H166.825V16.8089H171.246V18.1166H165.518V13.0332H171.246V14.3409H166.825Z" fill="white"/>
<path d="M178.307 13.041V18.1152H176.999V14.6112L173.61 18.1152H172.164V13.041H173.472V16.3701L176.695 13.041H178.307ZM174.522 13.9849L173.946 13.4048L175.11 13.0415L175.7 13.041L174.522 13.9849Z" fill="white"/>
<path d="M180.53 18.1099H179.223V13.0449H183.127C183.703 13.0449 184.182 13.1738 184.55 13.4271C185.015 13.7448 185.268 14.2467 185.268 14.8499C185.268 15.9688 184.449 16.6549 183.127 16.6549H180.53V18.1099ZM180.53 15.3518H183.127C183.961 15.3518 183.961 15.0157 183.961 14.8499C183.961 14.7026 183.961 14.348 183.127 14.348H180.53V15.3518Z" fill="white"/>
<path d="M189.137 13.7645C189.137 13.5897 189.137 13.105 188.55 13.0881C188.287 13.0804 188.14 13.2516 188.009 13.4844C187.884 13.7054 187.811 13.7033 187.56 13.6959C187.507 13.6944 187.447 13.6926 187.377 13.6926C186.971 13.6926 186.79 14.1939 186.91 14.3395C186.915 14.3455 186.921 14.3517 186.926 14.3582C187.026 14.4774 187.206 14.6912 186.835 14.8869C186.444 15.0933 186.098 15.7845 186.775 16.1826C187.106 16.3613 187.651 16.2963 187.723 16.1826C187.768 16.1107 187.813 15.8305 187.633 15.755C187.447 15.6773 187.422 15.4748 187.633 15.4896C187.843 15.5043 188.294 15.5043 188.355 15.2242C188.415 14.944 188.37 14.8408 188.069 14.6787C187.888 14.546 187.877 14.1055 188.039 14.1055C188.043 14.1055 188.047 14.1054 188.051 14.1054C188.132 14.1047 188.165 14.1044 188.189 14.428C188.209 14.6952 188.941 14.6639 189.062 14.428C189.144 14.2659 189.14 14.0187 189.138 13.844C189.137 13.8153 189.137 13.7886 189.137 13.7645Z" fill="white" stroke="white" stroke-width="0.114489"/>
<path d="M188.274 18.0915C188.531 18.2431 189.053 18.2382 189.106 17.8127C189.177 17.2377 189.116 16.6244 189.076 16.3897C189.065 16.3227 189.017 16.3164 188.868 16.331C188.632 16.3543 188.537 16.2284 188.601 16.1403C188.675 16.0376 188.908 16.1337 189.032 16.0523C189.165 15.9643 189.121 15.2992 189.106 14.9667C189.076 14.82 188.821 14.7114 188.631 14.9227C188.556 15.0052 188.601 15.3041 188.601 15.4068C188.601 15.5535 188.473 15.6797 188.2 15.7149C187.858 15.7589 187.813 16.4484 188.066 16.6538C188.319 16.8592 188.69 16.9618 188.705 17.1672C188.72 17.3726 188.749 17.5487 188.571 17.534C188.393 17.5193 188.482 17.2406 188.482 17.1819C188.482 17.1232 188.393 17.0597 188.096 16.8885C187.917 16.7858 187.932 16.6831 187.813 16.5804C187.709 16.4898 187.13 16.4484 187.071 16.7125C186.982 17.0352 186.982 17.49 187.323 17.622C187.665 17.754 187.88 17.6203 187.992 17.6807C188.155 17.7687 188.075 17.9741 188.274 18.0915Z" fill="white" stroke="white" stroke-width="0.0614502"/>
<path d="M189.367 13.7645C189.367 13.5897 189.367 13.105 189.942 13.0881C190.2 13.0804 190.344 13.2516 190.472 13.4844C190.594 13.7054 190.665 13.7033 190.911 13.6959C190.963 13.6944 191.022 13.6926 191.09 13.6926C191.488 13.6926 191.665 14.1939 191.547 14.3395C191.542 14.3455 191.537 14.3517 191.532 14.3582C191.434 14.4774 191.257 14.6912 191.621 14.8869C192.004 15.0933 192.342 15.7845 191.68 16.1826C191.356 16.3613 190.822 16.2963 190.752 16.1826C190.707 16.1107 190.663 15.8305 190.84 15.755C191.022 15.6773 191.046 15.4748 190.84 15.4896C190.634 15.5043 190.192 15.5043 190.133 15.2242C190.074 14.944 190.118 14.8408 190.413 14.6787C190.59 14.546 190.6 14.1055 190.442 14.1055C190.438 14.1055 190.434 14.1054 190.431 14.1054C190.351 14.1047 190.319 14.1044 190.295 14.428C190.275 14.6952 189.559 14.6639 189.441 14.428C189.36 14.2659 189.364 14.0187 189.366 13.844C189.367 13.8153 189.367 13.7886 189.367 13.7645Z" fill="white" stroke="white" stroke-width="0.114489"/>
<path d="M190.207 18.0915C189.956 18.2431 189.448 18.2382 189.397 17.8127C189.328 17.2377 189.387 16.6244 189.426 16.3897C189.437 16.3227 189.484 16.3164 189.628 16.331C189.859 16.3543 189.951 16.2284 189.889 16.1403C189.816 16.0376 189.59 16.1337 189.469 16.0523C189.339 15.9643 189.383 15.2992 189.397 14.9667C189.426 14.82 189.675 14.7114 189.86 14.9227C189.932 15.0052 189.889 15.3041 189.889 15.4068C189.889 15.5535 190.013 15.6797 190.279 15.7149C190.611 15.7589 190.655 16.4484 190.409 16.6538C190.163 16.8592 189.802 16.9618 189.787 17.1672C189.773 17.3726 189.744 17.5487 189.917 17.534C190.091 17.5193 190.004 17.2406 190.004 17.1819C190.004 17.1232 190.091 17.0597 190.38 16.8885C190.553 16.7858 190.539 16.6831 190.655 16.5804C190.757 16.4898 191.319 16.4484 191.377 16.7125C191.464 17.0352 191.464 17.49 191.132 17.622C190.799 17.754 190.59 17.6203 190.481 17.6807C190.322 17.7687 190.401 17.9741 190.207 18.0915Z" fill="white" stroke="white" stroke-width="0.0614502"/>
<path d="M199.202 13.041V18.106H197.903V16.6556H195.394L194.524 18.1152H192.977L194.031 16.3747C193.478 16.0708 193.165 15.5413 193.165 14.8506C193.165 14.2474 193.419 13.7455 193.884 13.4278C194.247 13.1745 194.726 13.0456 195.306 13.0456H199.202V13.041ZM197.903 15.3479V14.3487H195.306C194.473 14.3487 194.473 14.7033 194.473 14.8506C194.473 15.0164 194.473 15.3525 195.306 15.3525H197.903V15.3479Z" fill="white"/>
<path d="M203.352 18.2343C202.454 18.2343 201.713 18.0363 201.151 17.6541C200.474 17.189 200.115 16.4707 200.115 15.5728C200.115 13.9106 201.326 12.916 203.352 12.916C204.95 12.916 206.083 13.556 206.46 14.6796L205.217 15.094C204.964 14.3296 203.942 14.2145 203.352 14.2145C201.423 14.2145 201.423 15.2367 201.423 15.5728C201.423 16.4707 202.077 16.9312 203.352 16.9312C204.048 16.9312 204.936 16.793 205.203 16.1162L206.414 16.595C206 17.6541 204.913 18.2343 203.352 18.2343Z" fill="white"/>
<path d="M213.761 13.041V18.1152H212.453V16.2274H208.687V18.1152H207.379V13.041H208.687V14.9289H212.453V13.041H213.761Z" fill="white"/>
<path d="M217.48 13.6552C217.48 13.4731 217.48 12.968 216.881 12.9505C216.612 12.9424 216.462 13.1208 216.328 13.3633C216.201 13.5936 216.127 13.5914 215.87 13.5837C215.816 13.5821 215.755 13.5803 215.683 13.5803C215.268 13.5803 215.084 14.1026 215.207 14.2543C215.212 14.2605 215.217 14.267 215.223 14.2737C215.325 14.398 215.509 14.6207 215.13 14.8247C214.731 15.0397 214.377 15.7599 215.069 16.1747C215.406 16.3609 215.963 16.2931 216.036 16.1747C216.082 16.0998 216.129 15.8079 215.944 15.7291C215.755 15.6482 215.729 15.4372 215.944 15.4526C216.159 15.468 216.62 15.468 216.682 15.1761C216.743 14.8842 216.697 14.7767 216.39 14.6077C216.205 14.4694 216.194 14.0105 216.359 14.0105C216.363 14.0105 216.367 14.0104 216.371 14.0104C216.454 14.0096 216.488 14.0094 216.513 14.3465C216.533 14.625 217.281 14.5923 217.404 14.3465C217.488 14.1776 217.484 13.92 217.481 13.738C217.481 13.7081 217.48 13.6803 217.48 13.6552Z" fill="white" stroke="white" stroke-width="0.114489"/>
<path d="M216.604 18.144C216.87 18.3028 217.41 18.2977 217.464 17.8521C217.538 17.2499 217.474 16.6078 217.433 16.362C217.422 16.2918 217.372 16.2852 217.218 16.3005C216.974 16.3249 216.876 16.193 216.942 16.1008C217.019 15.9933 217.259 16.0938 217.387 16.0086C217.526 15.9165 217.48 15.22 217.464 14.8718C217.433 14.7182 217.169 14.6045 216.973 14.8257C216.896 14.9121 216.942 15.2251 216.942 15.3327C216.942 15.4863 216.81 15.6184 216.527 15.6553C216.174 15.7014 216.128 16.4234 216.389 16.6385C216.65 16.8536 217.034 16.9611 217.049 17.1762C217.065 17.3913 217.095 17.5756 216.911 17.5602C216.727 17.5449 216.819 17.253 216.819 17.1915C216.819 17.1301 216.727 17.0635 216.419 16.8843C216.235 16.7768 216.251 16.6692 216.128 16.5617C216.019 16.4668 215.421 16.4234 215.359 16.6999C215.267 17.0379 215.267 17.5142 215.621 17.6524C215.974 17.7907 216.196 17.6506 216.312 17.7139C216.481 17.806 216.398 18.0211 216.604 18.144Z" fill="white" stroke="white" stroke-width="0.0614502"/>
<path d="M217.742 13.62C217.742 13.4379 217.742 12.9329 218.341 12.9153C218.61 12.9072 218.761 13.0857 218.894 13.3281C219.021 13.5585 219.096 13.5562 219.353 13.5486C219.406 13.547 219.468 13.5451 219.54 13.5451C219.954 13.5451 220.139 14.0675 220.016 14.2192C220.011 14.2253 220.006 14.2318 220 14.2386C219.898 14.3628 219.714 14.5855 220.093 14.7895C220.492 15.0046 220.845 15.7247 220.154 16.1395C219.816 16.3258 219.259 16.258 219.186 16.1395C219.14 16.0646 219.094 15.7727 219.278 15.694C219.468 15.613 219.494 15.4021 219.278 15.4175C219.063 15.4328 218.603 15.4328 218.541 15.1409C218.48 14.849 218.526 14.7415 218.833 14.5725C219.017 14.4343 219.028 13.9753 218.864 13.9753C218.859 13.9753 218.855 13.9753 218.851 13.9752C218.768 13.9745 218.735 13.9742 218.71 14.3114C218.689 14.5898 217.942 14.5572 217.819 14.3114C217.735 14.1425 217.739 13.8849 217.741 13.7029C217.742 13.673 217.742 13.6451 217.742 13.62Z" fill="white" stroke="white" stroke-width="0.114489"/>
<path d="M218.619 18.1001C218.353 18.2588 217.813 18.2538 217.759 17.8082C217.685 17.206 217.748 16.5638 217.789 16.318C217.801 16.2479 217.851 16.2413 218.004 16.2566C218.249 16.281 218.347 16.1491 218.281 16.0569C218.204 15.9493 217.963 16.0499 217.835 15.9647C217.697 15.8726 217.743 15.1761 217.759 14.8279C217.789 14.6743 218.053 14.5606 218.25 14.7818C218.327 14.8682 218.281 15.1812 218.281 15.2887C218.281 15.4424 218.413 15.5745 218.696 15.6113C219.049 15.6574 219.095 16.3795 218.834 16.5945C218.573 16.8096 218.189 16.9172 218.173 17.1322C218.158 17.3473 218.127 17.5317 218.312 17.5163C218.496 17.5009 218.404 17.2091 218.404 17.1476C218.404 17.0861 218.496 17.0196 218.803 16.8403C218.988 16.7328 218.972 16.6253 219.095 16.5177C219.203 16.4229 219.802 16.3795 219.863 16.656C219.955 16.994 219.955 17.4702 219.602 17.6085C219.249 17.7467 219.027 17.6066 218.911 17.6699C218.742 17.7621 218.825 17.9772 218.619 18.1001Z" fill="white" stroke="white" stroke-width="0.0614502"/>
<path d="M224.698 18.2343C223.8 18.2343 223.059 18.0363 222.497 17.6541C221.82 17.189 221.461 16.4707 221.461 15.5728C221.461 13.9106 222.672 12.916 224.698 12.916C226.296 12.916 227.428 13.556 227.806 14.6796L226.563 15.094C226.31 14.3296 225.287 14.2145 224.698 14.2145C222.769 14.2145 222.769 15.2367 222.769 15.5728C222.769 16.4707 223.422 16.9312 224.698 16.9312C225.393 16.9312 226.282 16.793 226.549 16.1162L227.76 16.595C227.35 17.6541 226.259 18.2343 224.698 18.2343Z" fill="white"/>
<path d="M234.884 14.3487H232.462V18.1152H231.154V14.3487H228.732V13.041H234.889V14.3487H234.884Z" fill="white"/>
<path d="M239.705 18.1099H235.801V13.0449H237.108V14.4954H239.705C241.027 14.4954 241.847 15.186 241.847 16.3003C241.847 16.9035 241.593 17.41 241.128 17.7231C240.76 17.9764 240.281 18.1099 239.705 18.1099ZM237.108 16.8022H239.705C240.539 16.8022 240.539 16.4523 240.539 16.3003C240.539 16.1392 240.539 15.7984 239.705 15.7984H237.108V16.8022Z" fill="white"/>
<path d="M20.2676 368.238C19.8904 368.238 19.5632 368.182 19.2857 368.069C19.0083 367.956 18.7937 367.798 18.642 367.594C18.4903 367.386 18.4144 367.143 18.4144 366.866C18.4144 366.588 18.4881 366.354 18.6355 366.164C18.7829 365.973 18.9953 365.828 19.2727 365.728C19.5501 365.628 19.8818 365.578 20.2676 365.578C20.6534 365.578 20.985 365.628 21.2625 365.728C21.5442 365.828 21.7588 365.975 21.9062 366.17C22.0579 366.361 22.1338 366.593 22.1338 366.866C22.1338 367.143 22.0557 367.386 21.8997 367.594C21.748 367.798 21.5312 367.956 21.2494 368.069C20.972 368.182 20.6447 368.238 20.2676 368.238ZM20.2676 367.575C20.5797 367.575 20.8268 367.51 21.0089 367.38C21.1909 367.25 21.282 367.07 21.282 366.84C21.282 366.614 21.1909 366.437 21.0089 366.307C20.8268 366.177 20.5797 366.112 20.2676 366.112C19.9555 366.112 19.7105 366.177 19.5328 366.307C19.3551 366.437 19.2662 366.614 19.2662 366.84C19.2662 367.07 19.3551 367.25 19.5328 367.38C19.7105 367.51 19.9555 367.575 20.2676 367.575ZM20.2676 365.5C20.5363 365.5 20.7488 365.444 20.9048 365.331C21.0609 365.214 21.1389 365.058 21.1389 364.863C21.1389 364.659 21.0587 364.501 20.8983 364.388C20.7379 364.276 20.5277 364.219 20.2676 364.219C20.0075 364.219 19.7994 364.276 19.6434 364.388C19.4873 364.501 19.4093 364.659 19.4093 364.863C19.4093 365.058 19.4851 365.214 19.6368 365.331C19.7929 365.444 20.0032 365.5 20.2676 365.5ZM20.2676 366.021C19.9165 366.021 19.6152 365.975 19.3637 365.884C19.1123 365.789 18.9172 365.652 18.7785 365.474C18.6441 365.292 18.577 365.076 18.577 364.824C18.577 364.564 18.6463 364.341 18.785 364.154C18.9281 363.964 19.1275 363.816 19.3833 363.712C19.639 363.608 19.9338 363.556 20.2676 363.556C20.6057 363.556 20.9027 363.608 21.1584 363.712C21.4142 363.816 21.6136 363.964 21.7566 364.154C21.8997 364.341 21.9712 364.564 21.9712 364.824C21.9712 365.076 21.9019 365.292 21.7631 365.474C21.6288 365.652 21.4337 365.789 21.1779 365.884C20.9222 365.975 20.6187 366.021 20.2676 366.021ZM23.6056 369.434C23.3498 369.04 23.1526 368.585 23.0138 368.069C22.8795 367.549 22.8123 366.989 22.8123 366.391C22.8123 365.793 22.8795 365.234 23.0138 364.714C23.1526 364.189 23.3498 363.734 23.6056 363.348H24.3793C24.1149 363.825 23.9198 364.313 23.7941 364.811C23.6728 365.305 23.6121 365.832 23.6121 366.391C23.6121 366.95 23.6728 367.479 23.7941 367.978C23.9198 368.472 24.1149 368.957 24.3793 369.434H23.6056ZM26.5036 368.238C26.1264 368.238 25.7991 368.182 25.5217 368.069C25.2443 367.956 25.0297 367.798 24.878 367.594C24.7262 367.386 24.6504 367.143 24.6504 366.866C24.6504 366.588 24.7241 366.354 24.8714 366.164C25.0188 365.973 25.2312 365.828 25.5087 365.728C25.7861 365.628 26.1177 365.578 26.5036 365.578C26.8894 365.578 27.221 365.628 27.4984 365.728C27.7802 365.828 27.9948 365.975 28.1422 366.17C28.2939 366.361 28.3697 366.593 28.3697 366.866C28.3697 367.143 28.2917 367.386 28.1357 367.594C27.9839 367.798 27.7672 367.956 27.4854 368.069C27.208 368.182 26.8807 368.238 26.5036 368.238ZM26.5036 367.575C26.8157 367.575 27.0628 367.51 27.2448 367.38C27.4269 367.25 27.5179 367.07 27.5179 366.84C27.5179 366.614 27.4269 366.437 27.2448 366.307C27.0628 366.177 26.8157 366.112 26.5036 366.112C26.1914 366.112 25.9465 366.177 25.7688 366.307C25.591 366.437 25.5022 366.614 25.5022 366.84C25.5022 367.07 25.591 367.25 25.7688 367.38C25.9465 367.51 26.1914 367.575 26.5036 367.575ZM26.5036 365.5C26.7723 365.5 26.9847 365.444 27.1408 365.331C27.2968 365.214 27.3749 365.058 27.3749 364.863C27.3749 364.659 27.2947 364.501 27.1343 364.388C26.9739 364.276 26.7637 364.219 26.5036 364.219C26.2435 364.219 26.0354 364.276 25.8793 364.388C25.7233 364.501 25.6452 364.659 25.6452 364.863C25.6452 365.058 25.7211 365.214 25.8728 365.331C26.0289 365.444 26.2391 365.5 26.5036 365.5ZM26.5036 366.021C26.1524 366.021 25.8511 365.975 25.5997 365.884C25.3483 365.789 25.1532 365.652 25.0145 365.474C24.8801 365.292 24.8129 365.076 24.8129 364.824C24.8129 364.564 24.8823 364.341 25.021 364.154C25.1641 363.964 25.3635 363.816 25.6192 363.712C25.875 363.608 26.1698 363.556 26.5036 363.556C26.8417 363.556 27.1386 363.608 27.3944 363.712C27.6501 363.816 27.8496 363.964 27.9926 364.154C28.1357 364.341 28.2072 364.564 28.2072 364.824C28.2072 365.076 28.1378 365.292 27.9991 365.474C27.8647 365.652 27.6697 365.789 27.4139 365.884C27.1581 365.975 26.8547 366.021 26.5036 366.021ZM30.6868 368.238C30.327 368.238 30.0019 368.147 29.7115 367.965C29.4254 367.783 29.2 367.518 29.0352 367.171C28.8705 366.82 28.7881 366.396 28.7881 365.897C28.7881 365.398 28.8705 364.976 29.0352 364.629C29.2 364.278 29.4254 364.011 29.7115 363.829C30.0019 363.647 30.327 363.556 30.6868 363.556C31.051 363.556 31.3761 363.647 31.6622 363.829C31.9483 364.011 32.1737 364.278 32.3385 364.629C32.5075 364.976 32.5921 365.398 32.5921 365.897C32.5921 366.396 32.5075 366.82 32.3385 367.171C32.1737 367.518 31.9483 367.783 31.6622 367.965C31.3761 368.147 31.051 368.238 30.6868 368.238ZM30.6868 367.503C30.8993 367.503 31.0835 367.447 31.2396 367.334C31.3956 367.217 31.517 367.039 31.6037 366.801C31.6947 366.562 31.7402 366.261 31.7402 365.897C31.7402 365.529 31.6947 365.227 31.6037 364.993C31.517 364.755 31.3956 364.579 31.2396 364.466C31.0835 364.349 30.8993 364.291 30.6868 364.291C30.4831 364.291 30.301 364.349 30.1406 364.466C29.9846 364.579 29.861 364.755 29.77 364.993C29.6833 365.227 29.64 365.529 29.64 365.897C29.64 366.261 29.6833 366.562 29.77 366.801C29.861 367.039 29.9846 367.217 30.1406 367.334C30.301 367.447 30.4831 367.503 30.6868 367.503ZM34.932 368.238C34.5722 368.238 34.247 368.147 33.9566 367.965C33.6705 367.783 33.4451 367.518 33.2803 367.171C33.1156 366.82 33.0333 366.396 33.0333 365.897C33.0333 365.398 33.1156 364.976 33.2803 364.629C33.4451 364.278 33.6705 364.011 33.9566 363.829C34.247 363.647 34.5722 363.556 34.932 363.556C35.2961 363.556 35.6212 363.647 35.9073 363.829C36.1934 364.011 36.4188 364.278 36.5836 364.629C36.7526 364.976 36.8372 365.398 36.8372 365.897C36.8372 366.396 36.7526 366.82 36.5836 367.171C36.4188 367.518 36.1934 367.783 35.9073 367.965C35.6212 368.147 35.2961 368.238 34.932 368.238ZM34.932 367.503C35.1444 367.503 35.3286 367.447 35.4847 367.334C35.6407 367.217 35.7621 367.039 35.8488 366.801C35.9398 366.562 35.9854 366.261 35.9854 365.897C35.9854 365.529 35.9398 365.227 35.8488 364.993C35.7621 364.755 35.6407 364.579 35.4847 364.466C35.3286 364.349 35.1444 364.291 34.932 364.291C34.7282 364.291 34.5461 364.349 34.3858 364.466C34.2297 364.579 34.1062 364.755 34.0151 364.993C33.9284 365.227 33.8851 365.529 33.8851 365.897C33.8851 366.261 33.9284 366.562 34.0151 366.801C34.1062 367.039 34.2297 367.217 34.3858 367.334C34.5461 367.447 34.7282 367.503 34.932 367.503ZM37.1353 369.434C37.4041 368.957 37.5992 368.472 37.7205 367.978C37.8462 367.479 37.9091 366.95 37.9091 366.391C37.9091 365.832 37.8462 365.305 37.7205 364.811C37.5992 364.313 37.4041 363.825 37.1353 363.348H37.9091C38.1692 363.734 38.3664 364.189 38.5008 364.714C38.6352 365.234 38.7024 365.793 38.7024 366.391C38.7024 366.989 38.6352 367.549 38.5008 368.069C38.3664 368.585 38.1692 369.04 37.9091 369.434H37.1353ZM40.9175 368.238C40.5967 368.238 40.2824 368.192 39.9746 368.101C39.6712 368.006 39.4154 367.876 39.2074 367.711L39.565 367.054C39.7297 367.189 39.9291 367.297 40.1632 367.38C40.4016 367.462 40.6487 367.503 40.9045 367.503C41.2036 367.503 41.4377 367.44 41.6067 367.315C41.7801 367.189 41.8668 367.02 41.8668 366.807C41.8668 366.664 41.83 366.539 41.7563 366.43C41.6869 366.322 41.5612 366.239 41.3792 366.183C41.2014 366.127 40.9565 366.099 40.6444 366.099H39.5455L39.7796 363.621H42.4521V364.33H40.0917L40.5338 363.927L40.3583 365.78L39.9161 365.383H40.833C41.2838 365.383 41.6458 365.444 41.9189 365.565C42.1963 365.682 42.3979 365.847 42.5236 366.06C42.6536 366.268 42.7187 366.506 42.7187 366.775C42.7187 367.039 42.6536 367.282 42.5236 367.503C42.3935 367.724 42.1941 367.902 41.9254 368.036C41.6609 368.171 41.325 368.238 40.9175 368.238ZM44.553 368.238C44.2322 368.238 43.9179 368.192 43.6101 368.101C43.3067 368.006 43.0509 367.876 42.8429 367.711L43.2005 367.054C43.3652 367.189 43.5646 367.297 43.7987 367.38C44.0371 367.462 44.2842 367.503 44.54 367.503C44.8391 367.503 45.0732 367.44 45.2423 367.315C45.4157 367.189 45.5024 367.02 45.5024 366.807C45.5024 366.664 45.4655 366.539 45.3918 366.43C45.3225 366.322 45.1967 366.239 45.0147 366.183C44.8369 366.127 44.592 366.099 44.2799 366.099H43.181L43.4151 363.621H46.0876V364.33H43.7272L44.1694 363.927L43.9938 365.78L43.5516 365.383H44.4685C44.9193 365.383 45.2813 365.444 45.5544 365.565C45.8318 365.682 46.0334 365.847 46.1591 366.06C46.2891 366.268 46.3542 366.506 46.3542 366.775C46.3542 367.039 46.2891 367.282 46.1591 367.503C46.029 367.724 45.8296 367.902 45.5609 368.036C45.2964 368.171 44.9605 368.238 44.553 368.238ZM48.1885 368.238C47.8677 368.238 47.5534 368.192 47.2457 368.101C46.9422 368.006 46.6865 367.876 46.4784 367.711L46.836 367.054C47.0007 367.189 47.2001 367.297 47.4342 367.38C47.6727 367.462 47.9197 367.503 48.1755 367.503C48.4746 367.503 48.7087 367.44 48.8778 367.315C49.0512 367.189 49.1379 367.02 49.1379 366.807C49.1379 366.664 49.101 366.539 49.0273 366.43C48.958 366.322 48.8323 366.239 48.6502 366.183C48.4725 366.127 48.2275 366.099 47.9154 366.099H46.8165L47.0506 363.621H49.7231V364.33H47.3627L47.8049 363.927L47.6293 365.78L47.1871 365.383H48.104C48.5548 365.383 48.9168 365.444 49.1899 365.565C49.4673 365.682 49.6689 365.847 49.7946 366.06C49.9247 366.268 49.9897 366.506 49.9897 366.775C49.9897 367.039 49.9247 367.282 49.7946 367.503C49.6646 367.724 49.4652 367.902 49.1964 368.036C48.932 368.171 48.596 368.238 48.1885 368.238ZM50.4187 366.703V366.027H52.2069V366.703H50.4187ZM54.0226 368.238C53.7018 368.238 53.3875 368.192 53.0798 368.101C52.7763 368.006 52.5205 367.876 52.3125 367.711L52.6766 367.054C52.8413 367.189 53.0407 367.297 53.2748 367.38C53.5089 367.462 53.7538 367.503 54.0096 367.503C54.313 367.503 54.5493 367.442 54.7184 367.321C54.8874 367.195 54.972 367.026 54.972 366.814C54.972 366.606 54.8939 366.441 54.7379 366.32C54.5818 366.198 54.3304 366.138 53.9836 366.138H53.5674V365.559L54.8679 364.011L54.9785 364.33H52.5336V363.621H55.6352V364.187L54.3347 365.734L53.8926 365.474H54.1462C54.7054 365.474 55.1237 365.6 55.4011 365.851C55.6829 366.099 55.8238 366.417 55.8238 366.807C55.8238 367.063 55.7587 367.299 55.6287 367.516C55.4987 367.733 55.2992 367.908 55.0305 368.043C54.766 368.173 54.4301 368.238 54.0226 368.238ZM57.6917 368.238C57.3709 368.238 57.0566 368.192 56.7488 368.101C56.4454 368.006 56.1896 367.876 55.9816 367.711L56.3392 367.054C56.5039 367.189 56.7033 367.297 56.9374 367.38C57.1758 367.462 57.4229 367.503 57.6787 367.503C57.9778 367.503 58.2119 367.44 58.381 367.315C58.5543 367.189 58.641 367.02 58.641 366.807C58.641 366.664 58.6042 366.539 58.5305 366.43C58.4611 366.322 58.3354 366.239 58.1534 366.183C57.9756 366.127 57.7307 366.099 57.4186 366.099H56.3197L56.5538 363.621H59.2263V364.33H56.8659L57.3081 363.927L57.1325 365.78L56.6903 365.383H57.6072C58.058 365.383 58.42 365.444 58.6931 365.565C58.9705 365.682 59.1721 365.847 59.2978 366.06C59.4278 366.268 59.4929 366.506 59.4929 366.775C59.4929 367.039 59.4278 367.282 59.2978 367.503C59.1677 367.724 58.9683 367.902 58.6996 368.036C58.4351 368.171 58.0992 368.238 57.6917 368.238ZM59.9219 366.703V366.027H61.7101V366.703H59.9219ZM63.5258 368.238C63.205 368.238 62.8907 368.192 62.5829 368.101C62.2795 368.006 62.0237 367.876 61.8156 367.711L62.1798 367.054C62.3445 367.189 62.5439 367.297 62.778 367.38C63.0121 367.462 63.257 367.503 63.5128 367.503C63.8162 367.503 64.0525 367.442 64.2215 367.321C64.3906 367.195 64.4751 367.026 64.4751 366.814C64.4751 366.606 64.3971 366.441 64.2411 366.32C64.085 366.198 63.8336 366.138 63.4868 366.138H63.0706V365.559L64.3711 364.011L64.4816 364.33H62.0367V363.621H65.1384V364.187L63.8379 365.734L63.3957 365.474H63.6493C64.2085 365.474 64.6269 365.6 64.9043 365.851C65.1861 366.099 65.327 366.417 65.327 366.807C65.327 367.063 65.2619 367.299 65.1319 367.516C65.0018 367.733 64.8024 367.908 64.5337 368.043C64.2692 368.173 63.9333 368.238 63.5258 368.238ZM67.1949 368.238C66.8741 368.238 66.5598 368.192 66.252 368.101C65.9486 368.006 65.6928 367.876 65.4847 367.711L65.8424 367.054C66.0071 367.189 66.2065 367.297 66.4406 367.38C66.679 367.462 66.9261 367.503 67.1819 367.503C67.481 367.503 67.7151 367.44 67.8841 367.315C68.0575 367.189 68.1442 367.02 68.1442 366.807C68.1442 366.664 68.1074 366.539 68.0337 366.43C67.9643 366.322 67.8386 366.239 67.6566 366.183C67.4788 366.127 67.2339 366.099 66.9218 366.099H65.8229L66.057 363.621H68.7294V364.33H66.3691L66.8112 363.927L66.6357 365.78L66.1935 365.383H67.1103C67.5612 365.383 67.9231 365.444 68.1963 365.565C68.4737 365.682 68.6753 365.847 68.801 366.06C68.931 366.268 68.996 366.506 68.996 366.775C68.996 367.039 68.931 367.282 68.801 367.503C68.6709 367.724 68.4715 367.902 68.2028 368.036C67.9383 368.171 67.6024 368.238 67.1949 368.238Z" fill="white"/>
</g>
<defs>
<filter id="filter0_n_787_1844" x="-2.58789" y="0" width="405.223" height="565.052" filterUnits="userSpaceOnUse" color-interpolation-filters="sRGB">
<feFlood flood-opacity="0" result="BackgroundImageFix"/>
<feBlend mode="normal" in="SourceGraphic" in2="BackgroundImageFix" result="shape"/>
<feTurbulence type="fractalNoise" baseFrequency="0.35193890333175659 0.35193890333175659" stitchTiles="stitch" numOctaves="3" result="noise" seed="6304" />
<feColorMatrix in="noise" type="luminanceToAlpha" result="alphaNoise" />
<feComponentTransfer in="alphaNoise" result="coloredNoise1">
<feFuncA type="discrete" tableValues="0 0 0 0 0 0 0 0 0 0 0 0 1 1 1 1 1 1 1 1 1 1 1 1 1 1 1 1 1 1 1 1 1 1 1 1 1 1 0 0 0 0 0 0 0 0 0 0 0 0 0 0 0 0 0 0 0 0 0 0 0 0 0 0 0 0 0 0 0 0 0 0 0 0 0 0 0 0 0 0 0 0 0 0 0 0 0 0 0 0 0 0 0 0 0 0 0 0 0 0 "/>
</feComponentTransfer>
<feComposite operator="in" in2="shape" in="coloredNoise1" result="noise1Clipped" />
<feFlood flood-color="rgba(255, 255, 255, 0.25)" result="color1Flood" />
<feComposite operator="in" in2="noise1Clipped" in="color1Flood" result="color1" />
<feMerge result="effect1_noise_787_1844">
<feMergeNode in="shape" />
<feMergeNode in="color1" />
</feMerge>
</filter>
<clipPath id="clip0_787_1844">
<rect width="400.379" height="565.052" fill="white"/>
</clipPath>
</defs>
</svg>
