<svg width="62" height="53" viewBox="0 0 62 53" fill="none" xmlns="http://www.w3.org/2000/svg">
<g clip-path="url(#clip0_716_5)">
<path d="M61.252 -0.40332L61.8711 0.3125L62.2744 0.77832L61.8086 1.18164C48.8071 12.441 42.0249 19.6255 37.8848 26.499C42.0248 33.3728 48.8068 40.5583 61.8086 51.8184L62.2744 52.2217L61.8711 52.6875L61.252 53.4033L60.8477 53.8691L60.3818 53.4658C53.7512 47.7234 48.5598 43.8986 44.0322 41.4033C40.1335 39.2547 36.6601 38.039 33.2852 37.6318C32.2492 41.9388 31.792 46.8489 31.792 53V53.6162H29.6133V53C29.6133 46.8487 29.1552 41.9389 28.1191 37.6318C24.7444 38.0395 21.2708 39.255 17.373 41.4033C12.8455 43.8981 7.65307 47.7234 1.02246 53.4658L0.556641 53.8691L0.15332 53.4033L-0.46582 52.6875L-0.869141 52.2217L-0.40332 51.8184C12.5987 40.5585 19.3795 33.3728 23.5195 26.499C19.3794 19.6257 12.5979 12.4408 -0.40332 1.18164L-0.869141 0.77832L-0.46582 0.3125L0.15332 -0.40332L0.556641 -0.869141L1.02246 -0.46582C7.65357 5.27665 12.8455 9.10091 17.373 11.5957C21.2714 13.7442 24.7445 14.9599 28.1191 15.3672C29.1551 11.0602 29.6133 6.15105 29.6133 0V-0.616211H31.792V0C31.792 6.15092 32.2493 11.0603 33.2852 15.3672C36.6602 14.9597 40.1335 13.7443 44.0322 11.5957C48.5593 9.10092 53.7513 5.27653 60.3818 -0.46582L60.8477 -0.869141L61.252 -0.40332ZM24.7412 28.6602C22.4372 32.2684 19.4504 35.912 15.623 39.8857C15.8572 39.7519 16.0903 39.6224 16.3213 39.4951L17.1162 39.0664C20.8013 37.1231 24.1973 35.9549 27.5488 35.5068C26.8291 33.1034 25.9026 30.8625 24.7412 28.6602ZM36.6631 28.6611C35.5021 30.863 34.5744 33.1029 33.8545 35.5059C37.4461 35.9858 41.0894 37.2935 45.084 39.4951C45.3145 39.6222 45.5467 39.7522 45.7803 39.8857C41.9534 35.9123 38.9672 32.2689 36.6631 28.6611ZM30.3223 37.4785C30.4599 38.0693 30.5862 38.6666 30.7021 39.2715C30.8181 38.6667 30.9435 38.0692 31.0811 37.4785C30.9548 37.4762 30.8283 37.4746 30.7021 37.4746C30.5756 37.4746 30.449 37.4761 30.3223 37.4785ZM31.6436 17.6816C31.33 17.6943 31.0161 17.7041 30.7021 17.7041C30.3881 17.7041 30.0744 17.6943 29.7607 17.6816C28.8816 20.7298 27.67 23.6189 26.042 26.499C27.6705 29.3792 28.8816 32.2688 29.7607 35.3164C30.0744 35.3037 30.3881 35.2959 30.7021 35.2959C31.0161 35.2959 31.33 35.3037 31.6436 35.3164C32.523 32.269 33.7334 29.3791 35.3613 26.499C33.7331 23.619 32.5226 20.7296 31.6436 17.6816ZM15.6211 13.1104C19.4494 17.0849 22.4364 20.7293 24.7412 24.3379C25.9023 22.1358 26.8289 19.8954 27.5488 17.4922C23.9579 17.012 20.3152 15.7061 16.3213 13.5049C16.0893 13.377 15.8562 13.2448 15.6211 13.1104ZM45.7832 13.1104C45.5483 13.2447 45.3158 13.3771 45.084 13.5049C41.09 15.7061 37.4474 17.012 33.8564 17.4922C34.576 19.8952 35.502 22.1359 36.6631 24.3379C38.9675 20.7292 41.955 17.0848 45.7832 13.1104ZM30.7021 13.7275C30.5862 14.3321 30.4598 14.9291 30.3223 15.5195C30.4489 15.5218 30.5755 15.5254 30.7021 15.5254C30.8282 15.5254 30.9547 15.5219 31.0811 15.5195C30.9435 14.9291 30.818 14.332 30.7021 13.7275Z" fill="#2B6ED4" stroke="#2B6ED4" stroke-width="1.23255"/>
</g>
<defs>
<clipPath id="clip0_716_5">
<rect width="61.405" height="52.9995" fill="white"/>
</clipPath>
</defs>
</svg>
