<svg width="315" height="310" viewBox="0 0 315 310" fill="none" xmlns="http://www.w3.org/2000/svg">
<g clip-path="url(#clip0_774_989)">
<rect width="314.916" height="309.986" fill="white"/>
<path d="M-27.1153 -24.3395C256.414 -24.3395 22.1877 278.787 43.7036 343.574C70.5984 424.557 443.978 275.754 498.054 275.754C552.13 275.754 352.135 622.293 208.792 649.192C65.4484 676.091 229.968 162.611 386.759 132.85C543.549 103.09 575.88 402.983 454.282 541.198C332.683 679.413 545.263 834.337 401.92 891.282C258.576 948.228 92.057 903.586 135.546 754.783C179.036 605.981 213.31 294.643 289.762 413.683C366.215 532.724 501.491 734.812 574.53 640.952C647.57 547.092 1.4388 399.082 51.3078 40.0176C82.677 -126.909 543.075 49.0367 516.981 148.62C484.364 273.099 65.4482 432.57 43.7036 508.402C21.9589 584.234 484.893 574.791 706.918 577.366" stroke="#2B6ED4" stroke-width="3.31025"/>
<circle cx="237.608" cy="286.35" r="8.02222" fill="#2B6ED4"/>
<circle cx="92.5671" cy="179.387" r="8.02222" fill="#2B6ED4"/>
<circle cx="56.4675" cy="19.6121" r="8.02222" fill="#2B6ED4"/>
</g>
<defs>
<clipPath id="clip0_774_989">
<rect width="314.916" height="309.986" fill="white"/>
</clipPath>
</defs>
</svg>
