<svg width="315" height="310" viewBox="0 0 315 310" fill="none" xmlns="http://www.w3.org/2000/svg">
<g clip-path="url(#clip0_774_935)">
<rect width="314.916" height="309.986" fill="white"/>
<path d="M-27.1153 -340.489C256.414 -340.489 22.1877 -37.362 43.7036 27.4244C70.5984 108.407 443.978 -40.3958 498.054 -40.3958C552.13 -40.3958 352.135 306.144 208.792 333.043C65.4484 359.942 229.968 -153.539 386.759 -183.299C543.549 -213.06 575.88 86.834 454.282 225.049C332.683 363.264 545.263 518.187 401.92 575.133C258.576 632.079 92.057 587.437 135.546 438.634C179.036 289.831 213.31 -21.5066 289.762 97.534C366.215 216.575 501.491 418.663 574.53 324.802C647.57 230.942 1.4388 82.9323 51.3078 -276.132C82.677 -443.058 543.075 -267.113 516.981 -167.529C484.364 -43.0501 65.4482 116.42 43.7036 192.253C21.9589 268.085 484.893 258.642 706.918 261.217" stroke="#2B6ED4" stroke-width="3.31025"/>
<circle cx="64.9988" cy="45.9207" r="8.02222" fill="#2B6ED4"/>
<circle cx="277.583" cy="299.29" r="8.02222" fill="#2B6ED4"/>
<circle cx="196.692" cy="183.636" r="8.02222" fill="#2B6ED4"/>
<circle cx="99.0945" cy="137.508" r="8.02222" fill="#2B6ED4"/>
</g>
<defs>
<clipPath id="clip0_774_935">
<rect width="314.916" height="309.986" fill="white"/>
</clipPath>
</defs>
</svg>
