<svg width="315" height="310" viewBox="0 0 315 310" fill="none" xmlns="http://www.w3.org/2000/svg">
<g clip-path="url(#clip0_774_953)">
<rect width="314.916" height="309.986" fill="white"/>
<path d="M-347.578 -339.872C-64.0486 -339.872 -298.275 -36.7448 -276.759 28.0416C-249.865 109.025 123.515 -39.7786 177.591 -39.7786C231.667 -39.7786 31.6726 306.761 -111.671 333.66C-255.015 360.559 -90.4953 -152.921 66.2956 -182.682C223.087 -212.443 255.418 87.4512 133.819 225.666C12.22 363.881 224.8 518.804 81.4566 575.75C-61.8869 632.696 -228.406 588.054 -184.916 439.251C-141.427 290.448 -107.153 -20.8894 -30.7006 98.1512C45.7521 217.192 181.028 419.28 254.067 325.42C327.107 231.559 -319.024 83.5495 -269.155 -275.515C-237.786 -442.441 222.612 -266.495 196.519 -166.912C163.901 -42.4329 -255.015 117.038 -276.759 192.87C-298.504 268.702 164.43 259.259 386.455 261.834" stroke="#2B6ED4" stroke-width="3.31025"/>
<circle cx="152.79" cy="62.5144" r="8.02222" fill="#2B6ED4"/>
<circle cx="174.85" cy="260.395" r="8.02222" fill="#2B6ED4"/>
<circle cx="33.7937" cy="146.079" r="8.02222" fill="#2B6ED4"/>
</g>
<defs>
<clipPath id="clip0_774_953">
<rect width="314.916" height="309.986" fill="white"/>
</clipPath>
</defs>
</svg>
