<svg width="315" height="310" viewBox="0 0 315 310" fill="none" xmlns="http://www.w3.org/2000/svg">
<g clip-path="url(#clip0_774_971)">
<rect width="314.916" height="309.986" fill="white"/>
<path d="M-347.578 -24.3395C-64.0486 -24.3395 -298.275 278.787 -276.759 343.574C-249.865 424.557 123.515 275.754 177.591 275.754C231.667 275.754 31.6726 622.293 -111.671 649.192C-255.015 676.091 -90.4953 162.611 66.2956 132.85C223.087 103.09 255.418 402.983 133.819 541.198C12.22 679.413 224.8 834.337 81.4566 891.282C-61.8869 948.228 -228.406 903.586 -184.916 754.783C-141.427 605.981 -107.153 294.643 -30.7006 413.683C45.7521 532.724 181.028 734.812 254.067 640.952C327.107 547.092 -319.024 399.082 -269.155 40.0176C-237.786 -126.909 222.612 49.0368 196.519 148.62C163.901 273.099 -255.015 432.57 -276.759 508.402C-298.504 584.234 164.43 574.791 386.455 577.366" stroke="#2B6ED4" stroke-width="3.31025"/>
<circle cx="195.417" cy="151.366" r="8.02222" fill="#2B6ED4"/>
<circle cx="56.366" cy="135.321" r="8.02222" fill="#2B6ED4"/>
<circle cx="33.6355" cy="11.6453" r="8.02222" fill="#2B6ED4"/>
</g>
<defs>
<clipPath id="clip0_774_971">
<rect width="314.916" height="309.986" fill="white"/>
</clipPath>
</defs>
</svg>
