<svg width="482" height="35" viewBox="0 0 482 35" fill="none" xmlns="http://www.w3.org/2000/svg">
<path d="M36.7392 1.16699V33.7169H29.2111V21.6067H7.52809V33.7169H0V1.16699H7.52809V13.2772H29.2111V1.16699H36.7392Z" fill="white"/>
<path d="M49.5398 9.51159V13.2333H71.6734V21.6218H49.5398V25.3435H74.9869V33.732H42.0117V1.12305H74.9869V9.51159H49.5398Z" fill="white"/>
<path d="M115.63 1.16699V33.7169H108.102V11.2391L88.5928 33.7169H80.2695V1.16699H87.7976V22.5223L106.353 1.16699H115.63ZM93.8413 7.2221L90.5279 3.50042L97.2314 1.17027L100.623 1.16699L93.8413 7.2221Z" fill="white"/>
<path d="M128.43 33.6793H120.902V1.18848H143.381C146.694 1.18848 149.451 2.01552 151.571 3.64006C154.249 5.67812 155.707 8.89766 155.707 12.767C155.707 19.9446 150.988 24.3456 143.381 24.3456H128.43V33.6793ZM128.43 15.9866H143.381C148.178 15.9866 148.178 13.8304 148.178 12.767C148.178 11.8218 148.178 9.54749 143.381 9.54749H128.43V15.9866Z" fill="white"/>
<path d="M177.983 5.83345C177.983 4.71233 177.983 1.60305 174.606 1.4948C173.089 1.44487 172.242 2.54359 171.488 4.03651C170.772 5.45443 170.352 5.44075 168.905 5.39364C168.603 5.38379 168.256 5.37249 167.851 5.37249C165.513 5.37249 164.474 8.58824 165.167 9.5222C165.195 9.56015 165.225 9.60001 165.257 9.64167C165.834 10.4067 166.869 11.7777 164.734 13.0335C162.482 14.3576 160.491 18.7911 164.388 21.3448C166.293 22.4916 169.432 22.0743 169.843 21.3448C170.103 20.8837 170.363 19.0867 169.323 18.602C168.255 18.1036 168.111 16.8049 169.323 16.8995C170.536 16.9941 173.134 16.9941 173.48 15.1971C173.826 13.4 173.567 12.738 171.835 11.6976C170.796 10.8463 170.733 8.02072 171.661 8.02072C171.685 8.02072 171.708 8.0205 171.731 8.02028C172.199 8.01576 172.387 8.01395 172.527 10.0897C172.644 11.804 176.857 11.603 177.55 10.0897C178.026 9.04989 178.004 7.4639 177.988 6.3435C177.985 6.15942 177.983 5.98791 177.983 5.83345Z" stroke="white" stroke-width="0.708729"/>
<path d="M173.016 33.4433C174.499 34.4158 177.502 34.3847 177.805 31.6554C178.216 27.9664 177.862 24.0328 177.634 22.527C177.569 22.0972 177.292 22.0568 176.437 22.1506C175.076 22.3001 174.531 21.4921 174.898 20.9272C175.325 20.2685 176.666 20.8844 177.378 20.3626C178.148 19.7982 177.891 15.5318 177.805 13.3987C177.634 12.4579 176.163 11.7612 175.069 13.1164C174.641 13.6457 174.898 15.5631 174.898 16.2218C174.898 17.1629 174.162 17.9722 172.589 18.1981C170.622 18.4804 170.365 22.9034 171.819 24.2209C173.273 25.5384 175.411 26.1971 175.496 27.5146C175.582 28.8321 175.753 29.9614 174.727 29.8673C173.701 29.7732 174.214 27.9851 174.214 27.6087C174.214 27.2323 173.701 26.8245 171.99 25.7266C170.964 25.0678 171.049 24.4091 170.365 23.7503C169.762 23.1692 166.431 22.9034 166.089 24.5973C165.576 26.6676 165.576 29.585 167.543 30.4319C169.51 31.2789 170.746 30.4207 171.392 30.8083C172.332 31.373 171.869 32.6905 173.016 33.4433Z" fill="white" stroke="white" stroke-width="0.380401"/>
<path d="M179.322 5.83345C179.322 4.71233 179.322 1.60305 182.628 1.4948C184.113 1.44487 184.942 2.54359 185.681 4.03651C186.382 5.45443 186.793 5.44075 188.21 5.39364C188.506 5.38379 188.846 5.37249 189.242 5.37249C191.531 5.37249 192.549 8.58824 191.871 9.5222C191.843 9.56015 191.814 9.60001 191.783 9.64167C191.217 10.4067 190.204 11.7777 192.295 13.0335C194.499 14.3576 196.449 18.7911 192.634 21.3448C190.768 22.4916 187.694 22.0743 187.292 21.3448C187.038 20.8837 186.783 19.0867 187.801 18.602C188.847 18.1036 188.988 16.8049 187.801 16.8995C186.614 16.9941 184.07 16.9941 183.731 15.1971C183.391 13.4 183.646 12.738 185.342 11.6976C186.359 10.8463 186.42 8.02072 185.511 8.02072C185.488 8.02072 185.465 8.0205 185.443 8.02028C184.985 8.01576 184.801 8.01395 184.663 10.0897C184.55 11.804 180.424 11.603 179.745 10.0897C179.279 9.04989 179.301 7.4639 179.317 6.3435C179.319 6.15942 179.322 5.98791 179.322 5.83345Z" stroke="white" stroke-width="0.708729"/>
<path d="M184.154 33.5996C182.712 34.572 179.79 34.541 179.494 31.8116C179.095 28.1226 179.439 24.189 179.661 22.6833C179.724 22.2535 179.993 22.213 180.825 22.3069C182.15 22.4563 182.68 21.6484 182.323 21.0835C181.907 20.4247 180.603 21.0407 179.91 20.5188C179.161 19.9544 179.411 15.688 179.494 13.5549C179.661 12.6141 181.092 11.9175 182.157 13.2726C182.573 13.802 182.323 15.7193 182.323 16.3781C182.323 17.3191 183.039 18.1284 184.57 18.3543C186.484 18.6366 186.733 23.0596 185.319 24.3771C183.904 25.6946 181.824 26.3534 181.741 27.6709C181.658 28.9884 181.491 30.1176 182.49 30.0235C183.488 29.9294 182.989 28.1414 182.989 27.765C182.989 27.3885 183.488 26.9807 185.152 25.8828C186.151 25.2241 186.068 24.5653 186.733 23.9066C187.32 23.3255 190.561 23.0596 190.894 24.7536C191.393 26.8239 191.393 29.7412 189.479 30.5882C187.565 31.4351 186.363 30.5769 185.735 30.9646C184.819 31.5292 185.27 32.8467 184.154 33.5996Z" fill="white" stroke="white" stroke-width="0.380401"/>
<path d="M235.908 1.16699V33.6578H228.433V24.3536H213.987L208.977 33.7169H200.07L206.14 22.5519C202.96 20.6024 201.157 17.2057 201.157 12.7751C201.157 8.90572 202.615 5.68617 205.292 3.64811C207.386 2.02357 210.143 1.19653 213.483 1.19653H235.908V1.16699ZM228.433 15.9651V9.55554H213.483C208.685 9.55554 208.685 11.8299 208.685 12.7751C208.685 13.8384 208.685 15.9946 213.483 15.9946H228.433V15.9651Z" fill="white"/>
<path d="M259.826 34.5197C254.657 34.5197 250.389 33.2496 247.156 30.798C243.259 27.8147 241.191 23.207 241.191 17.4472C241.191 6.78432 248.163 0.404297 259.826 0.404297C269.024 0.404297 275.545 4.50996 277.719 11.717L270.562 14.3754C269.104 9.4722 263.219 8.73377 259.826 8.73377C248.719 8.73377 248.719 15.291 248.719 17.4472C248.719 23.207 252.484 26.1607 259.826 26.1607C263.829 26.1607 268.945 25.2746 270.482 20.9326L277.453 24.0045C275.068 30.798 268.812 34.5197 259.826 34.5197Z" fill="white"/>
<path d="M319.733 1.16699V33.7169H312.205V21.6067H290.522V33.7169H282.994V1.16699H290.522V13.2772H312.205V1.16699H319.733Z" fill="white"/>
<path d="M341.149 5.14341C341.149 3.97528 341.149 0.735588 337.7 0.622798C336.151 0.570778 335.286 1.71558 334.516 3.27111C333.784 4.74849 333.355 4.73424 331.878 4.68516C331.569 4.6749 331.214 4.66311 330.801 4.66311C328.413 4.66311 327.352 8.01373 328.06 8.98687C328.088 9.02641 328.119 9.06794 328.151 9.11134C328.741 9.90849 329.798 11.337 327.618 12.6454C325.318 14.0251 323.284 18.6445 327.264 21.3053C329.209 22.5002 332.416 22.0654 332.835 21.3053C333.101 20.8249 333.366 18.9525 332.305 18.4474C331.214 17.9281 331.067 16.575 332.305 16.6736C333.543 16.7721 336.196 16.7721 336.55 14.8997C336.904 13.0273 336.638 12.3375 334.87 11.2535C333.808 10.3665 333.745 7.42242 334.693 7.42242C334.717 7.42242 334.741 7.42218 334.763 7.42196C335.242 7.41725 335.433 7.41536 335.577 9.57815C335.696 11.3643 339.999 11.1549 340.707 9.57815C341.193 8.49475 341.17 6.84224 341.154 5.67485C341.151 5.48305 341.149 5.30434 341.149 5.14341Z" stroke="white" stroke-width="0.708729"/>
<path d="M336.11 33.9617C337.643 34.98 340.749 34.9476 341.063 32.0894C341.487 28.2263 341.122 24.1071 340.886 22.5303C340.818 22.0802 340.532 22.0378 339.648 22.1361C338.24 22.2926 337.677 21.4465 338.056 20.855C338.498 20.1652 339.885 20.8102 340.62 20.2637C341.416 19.6727 341.151 15.2049 341.063 12.9712C340.886 11.986 339.365 11.2565 338.233 12.6755C337.79 13.2299 338.056 15.2377 338.056 15.9275C338.056 16.913 337.295 17.7605 335.668 17.997C333.634 18.2927 333.368 22.9244 334.872 24.3041C336.375 25.6837 338.586 26.3736 338.675 27.7532C338.763 29.1329 338.94 30.3155 337.879 30.2169C336.818 30.1184 337.348 28.246 337.348 27.8518C337.348 27.4576 336.818 27.0305 335.049 25.8808C333.988 25.191 334.076 24.5012 333.368 23.8113C332.744 23.2028 329.3 22.9244 328.947 24.6982C328.416 26.8663 328.416 29.9213 330.45 30.8082C332.484 31.6951 333.762 30.7964 334.43 31.2024C335.403 31.7937 334.923 33.1733 336.11 33.9617Z" fill="white" stroke="white" stroke-width="0.380401"/>
<path d="M342.681 4.87681C342.681 3.70867 342.681 0.468987 346.131 0.356196C347.679 0.304176 348.544 1.44898 349.314 3.00451C350.046 4.48189 350.475 4.46764 351.952 4.41855C352.261 4.40829 352.616 4.39651 353.029 4.39651C355.417 4.39651 356.478 7.74713 355.77 8.72027C355.742 8.7598 355.711 8.80134 355.679 8.84474C355.089 9.64189 354.032 11.0704 356.213 12.3788C358.512 13.7585 360.546 18.3779 356.566 21.0387C354.621 22.2336 351.414 21.7988 350.995 21.0387C350.729 20.5583 350.464 18.6859 351.525 18.1808C352.616 17.6615 352.763 16.3084 351.525 16.407C350.287 16.5055 347.634 16.5055 347.28 14.6331C346.926 12.7607 347.192 12.0709 348.961 10.9869C350.022 10.0999 350.086 7.15581 349.137 7.15581C349.113 7.15581 349.09 7.15558 349.067 7.15535C348.588 7.15065 348.397 7.14876 348.253 9.31155C348.134 11.0977 343.831 10.8883 343.124 9.31155C342.637 8.22814 342.66 6.57564 342.676 5.40825C342.679 5.21645 342.681 5.03774 342.681 4.87681Z" stroke="white" stroke-width="0.708729"/>
<path d="M347.726 33.6736C346.193 34.692 343.087 34.6595 342.773 31.8013C342.349 27.9382 342.714 23.819 342.95 22.2422C343.017 21.7921 343.304 21.7497 344.188 21.848C345.596 22.0045 346.159 21.1584 345.78 20.5669C345.338 19.8771 343.951 20.5221 343.215 19.9756C342.419 19.3846 342.685 14.9168 342.773 12.6831C342.95 11.6979 344.471 10.9684 345.603 12.3875C346.045 12.9418 345.78 14.9496 345.78 15.6394C345.78 16.6249 346.541 17.4724 348.168 17.7089C350.202 18.0046 350.467 22.6363 348.964 24.016C347.461 25.3956 345.25 26.0855 345.161 27.4651C345.073 28.8448 344.896 30.0274 345.957 29.9288C347.018 29.8303 346.488 27.9579 346.488 27.5637C346.488 27.1695 347.018 26.7425 348.787 25.5927C349.848 24.9029 349.76 24.2131 350.467 23.5232C351.092 22.9147 354.536 22.6363 354.889 24.4102C355.42 26.5782 355.42 29.6332 353.386 30.5201C351.352 31.407 350.074 30.5084 349.406 30.9143C348.433 31.5056 348.913 32.8853 347.726 33.6736Z" fill="white" stroke="white" stroke-width="0.380401"/>
<path d="M382.736 34.5197C377.567 34.5197 373.3 33.2496 370.066 30.798C366.169 27.8147 364.102 23.207 364.102 17.4472C364.102 6.78432 371.073 0.404297 382.736 0.404297C391.934 0.404297 398.455 4.50996 400.629 11.717L393.472 14.3754C392.014 9.4722 386.129 8.73377 382.736 8.73377C371.63 8.73377 371.63 15.291 371.63 17.4472C371.63 23.207 375.394 26.1607 382.736 26.1607C386.739 26.1607 391.855 25.2746 393.392 20.9326L400.364 24.0045C398.004 30.798 391.722 34.5197 382.736 34.5197Z" fill="white"/>
<path d="M441.318 9.55554H427.375V33.7169H419.847V9.55554H405.904V1.16699H441.345V9.55554H441.318Z" fill="white"/>
<path d="M469.099 33.6793H446.621V1.18848H454.149V10.4927H469.099C476.707 10.4927 481.425 14.9232 481.425 22.0712C481.425 25.9406 479.967 29.1897 477.29 31.1982C475.17 32.8227 472.413 33.6793 469.099 33.6793ZM454.149 25.2908H469.099C473.897 25.2908 473.897 23.046 473.897 22.0712C473.897 21.0374 473.897 18.8517 469.099 18.8517H454.149V25.2908Z" fill="white"/>
</svg>
