<svg width="386" height="740" viewBox="0 0 386 740" fill="none" xmlns="http://www.w3.org/2000/svg">
<g clip-path="url(#clip0_1597_1686)">
<rect width="386" height="740" fill="#2B6ED4"/>
<g clip-path="url(#clip1_1597_1686)">
<rect x="1.89247" y="-2.7071" width="1839.45" height="1839.45" transform="matrix(0.992963 0.118429 -0.452257 -0.891888 60.9614 1930.72)" stroke="white" stroke-width="7"/>
<rect x="-5.05827" y="-3.53611" width="3571.26" height="1830.28" transform="matrix(-0.452257 -0.891888 -0.992963 -0.118429 1884.77 2146.27)" stroke="white" stroke-width="7"/>
<rect x="1.89247" y="-2.7071" width="1839.45" height="1839.45" transform="matrix(0.992963 0.118429 -0.452257 -0.891888 20.1757 1850.29)" stroke="white" stroke-width="7"/>
<rect x="-5.05827" y="-3.53611" width="3571.26" height="1733.98" transform="matrix(-0.452257 -0.891888 -0.992963 -0.118429 1789.15 2134.87)" stroke="white" stroke-width="7"/>
<rect x="1.89247" y="-2.7071" width="1839.45" height="1839.45" transform="matrix(0.992963 0.118429 -0.452257 -0.891888 -22.6836 1765.76)" stroke="white" stroke-width="7"/>
<rect x="-5.05827" y="-3.53611" width="3571.26" height="1633.1" transform="matrix(-0.452257 -0.891888 -0.992963 -0.118429 1688.98 2122.92)" stroke="white" stroke-width="7"/>
<rect x="1.89247" y="-2.7071" width="1839.45" height="1839.45" transform="matrix(0.992963 0.118429 -0.452257 -0.891888 -65.5435 1681.24)" stroke="white" stroke-width="7"/>
<rect x="-5.05827" y="-3.53611" width="3571.26" height="1533.74" transform="matrix(-0.452257 -0.891888 -0.992963 -0.118429 1590.32 2111.15)" stroke="white" stroke-width="7"/>
<rect x="1.89247" y="-2.7071" width="1839.45" height="1839.45" transform="matrix(0.992963 0.118429 -0.452257 -0.891888 -108.403 1596.72)" stroke="white" stroke-width="7"/>
<rect x="-5.05827" y="-3.53611" width="3571.26" height="1432.86" transform="matrix(-0.452257 -0.891888 -0.992963 -0.118429 1490.15 2099.21)" stroke="white" stroke-width="7"/>
<rect x="1.89247" y="-2.7071" width="1839.45" height="1839.45" transform="matrix(0.992963 0.118429 -0.452257 -0.891888 -151.954 1510.83)" stroke="white" stroke-width="7"/>
<rect x="-5.05827" y="-3.53611" width="3571.26" height="1330.45" transform="matrix(-0.452257 -0.891888 -0.992963 -0.118429 1388.46 2087.08)" stroke="white" stroke-width="7"/>
<rect x="1.89247" y="-2.7071" width="1839.45" height="1839.45" transform="matrix(0.992963 0.118429 -0.452257 -0.891888 -198.961 1418.13)" stroke="white" stroke-width="7"/>
<rect x="-5.05827" y="-3.53611" width="3571.26" height="1220.4" transform="matrix(-0.452257 -0.891888 -0.992963 -0.118429 1279.18 2074.04)" stroke="white" stroke-width="7"/>
<rect x="1.89247" y="-2.7071" width="1839.45" height="1839.45" transform="matrix(0.992963 0.118429 -0.452257 -0.891888 -250.116 1317.25)" stroke="white" stroke-width="7"/>
<rect x="1.89247" y="-2.7071" width="1839.45" height="1839.45" transform="matrix(0.992963 0.118429 -0.452257 -0.891888 -304.727 1209.55)" stroke="white" stroke-width="7"/>
<rect x="-5.05827" y="-3.53611" width="3571.26" height="1069.08" transform="matrix(-0.452257 -0.891888 -0.992963 -0.118429 1128.92 2056.12)" stroke="white" stroke-width="7"/>
<rect x="1.89247" y="-2.7071" width="1839.45" height="1839.45" transform="matrix(0.992963 0.118429 -0.452257 -0.891888 -356.573 1107.31)" stroke="white" stroke-width="7"/>
<rect x="-5.05827" y="-3.53611" width="3571.26" height="911.638" transform="matrix(-0.452257 -0.891888 -0.992963 -0.118429 972.592 2037.48)" stroke="white" stroke-width="7"/>
<rect x="1.89247" y="-2.7071" width="1839.45" height="1839.45" transform="matrix(0.992963 0.118429 -0.452257 -0.891888 -397.359 1026.87)" stroke="white" stroke-width="7"/>
<rect x="-5.05827" y="-3.53611" width="3571.26" height="760.315" transform="matrix(-0.452257 -0.891888 -0.992963 -0.118429 822.333 2019.56)" stroke="white" stroke-width="7"/>
<rect x="1.89247" y="-2.7071" width="1839.45" height="1839.45" transform="matrix(0.992963 0.118429 -0.452257 -0.891888 -440.218 942.351)" stroke="white" stroke-width="7"/>
<rect x="1.89247" y="-2.7071" width="1839.45" height="1839.45" transform="matrix(0.992963 0.118429 -0.452257 -0.891888 -483.078 857.829)" stroke="white" stroke-width="7"/>
<rect x="-5.05827" y="-3.53611" width="3571.26" height="605.935" transform="matrix(-0.452257 -0.891888 -0.992963 -0.118429 669.04 2001.27)" stroke="white" stroke-width="7"/>
<rect x="1.89247" y="-2.7071" width="1839.45" height="1839.45" transform="matrix(0.992963 0.118429 -0.452257 -0.891888 -525.938 773.306)" stroke="white" stroke-width="7"/>
<rect x="-5.05827" y="-3.53611" width="3571.26" height="453.083" transform="matrix(-0.452257 -0.891888 -0.992963 -0.118429 517.264 1983.17)" stroke="white" stroke-width="7"/>
<rect x="1.89247" y="-2.7071" width="1839.45" height="1839.45" transform="matrix(0.992963 0.118429 -0.452257 -0.891888 -569.488 687.421)" stroke="white" stroke-width="7"/>
<rect x="-5.05827" y="-3.53611" width="3571.26" height="352.201" transform="matrix(-0.452257 -0.891888 -0.992963 -0.118429 417.092 1971.22)" stroke="white" stroke-width="7"/>
<rect x="1.89247" y="-2.7071" width="1839.45" height="1839.45" transform="matrix(0.992963 0.118429 -0.452257 -0.891888 -616.496 594.719)" stroke="white" stroke-width="7"/>
<rect x="-5.05827" y="-3.53611" width="3571.26" height="242.148" transform="matrix(-0.452257 -0.891888 -0.992963 -0.118429 307.817 1958.19)" stroke="white" stroke-width="7"/>
<rect x="1.89247" y="-2.7071" width="1839.45" height="1839.45" transform="matrix(0.992963 0.118429 -0.452257 -0.891888 -616.496 594.719)" stroke="white" stroke-width="7"/>
<rect x="-5.05827" y="-3.53611" width="3571.26" height="251.319" transform="matrix(-0.452257 -0.891888 -0.992963 -0.118429 307.817 1958.19)" stroke="white" stroke-width="7"/>
<rect x="1.89247" y="-2.7071" width="1839.45" height="1839.45" transform="matrix(0.992963 0.118429 -0.452257 -0.891888 -667.65 493.837)" stroke="white" stroke-width="7"/>
<rect x="-5.05827" y="-3.53611" width="3571.26" height="121.395" transform="matrix(-0.452257 -0.891888 -0.992963 -0.118429 187.914 1943.89)" stroke="white" stroke-width="7"/>
<rect x="1.89247" y="-2.7071" width="1839.45" height="1839.45" transform="matrix(0.992963 0.118429 -0.452257 -0.891888 -722.261 386.139)" stroke="white" stroke-width="7"/>
<rect x="-0.55226" y="-0.386071" width="3577.49" height="0.764258" transform="matrix(-0.452257 -0.891888 -0.992963 -0.118429 70.0934 1936.23)" stroke="white" stroke-width="0.764258"/>
</g>
</g>
<defs>
<clipPath id="clip0_1597_1686">
<rect width="386" height="740" fill="white"/>
</clipPath>
<clipPath id="clip1_1597_1686">
<rect width="853" height="451.298" fill="white" transform="translate(418.298 -41) rotate(89.9874)"/>
</clipPath>
</defs>
</svg>
