<svg width="354" height="320" viewBox="0 0 354 320" fill="none" xmlns="http://www.w3.org/2000/svg">
<path d="M168.713 47.2685C168.713 36.5319 168.713 6.75517 133.388 5.71848C117.525 5.24035 108.669 15.7625 100.78 30.0597C93.2882 43.6387 88.8946 43.5077 73.7613 43.0566C70.598 42.9623 66.9654 42.854 62.7374 42.854C38.2815 42.854 27.4122 73.6503 34.6588 82.5946C34.9532 82.958 35.268 83.3397 35.5969 83.7387C41.6379 91.0655 52.4636 104.195 30.1295 116.221C6.57942 128.902 -14.253 171.36 26.5068 195.816C46.4335 206.799 79.2719 202.803 83.5706 195.816C86.2875 191.401 89.0048 174.191 78.1359 169.549C66.9603 164.776 65.4551 152.339 78.1359 153.245C90.8168 154.151 117.99 154.151 121.613 136.941C125.236 119.731 122.519 113.391 104.403 103.427C93.5341 95.2755 92.8813 68.2154 102.591 68.2154C102.84 68.2154 103.082 68.2132 103.317 68.2111C108.216 68.1679 110.179 68.1505 111.65 88.0293C112.864 104.446 156.938 102.522 164.184 88.0293C169.163 78.0714 168.93 62.8829 168.765 52.1531C168.738 50.3902 168.713 48.7477 168.713 47.2685Z" stroke="#2B6ED4" stroke-width="6.75023"/>
<path d="M117.081 311.868C132.781 321.228 164.588 320.929 167.804 294.659C172.15 259.153 168.408 221.292 165.992 206.799C165.303 202.662 162.37 202.273 153.312 203.176C138.891 204.614 133.124 196.838 137.008 191.401C141.537 185.061 155.738 190.989 163.275 185.966C171.427 180.534 168.71 139.47 167.804 118.939C165.993 109.884 150.413 103.179 138.82 116.222C134.291 121.317 137.008 139.771 137.008 146.111C137.008 155.169 129.218 162.959 112.552 165.133C91.7193 167.85 89.0019 210.421 104.4 223.102C119.798 235.783 142.443 242.123 143.348 254.804C144.254 267.485 146.066 278.354 135.196 277.449C124.327 276.543 129.762 259.333 129.762 255.71C129.762 252.087 124.327 248.162 106.212 237.595C95.3424 231.254 96.2481 224.914 89.0019 218.573C82.6094 212.98 47.3364 210.421 43.7133 226.725C38.2786 246.652 38.2786 274.731 59.1114 282.883C79.9442 291.035 93.0309 282.775 99.8712 286.506C109.835 291.941 104.926 304.622 117.081 311.868Z" fill="#2B6ED4" stroke="#2B6ED4" stroke-width="3.62309"/>
<path d="M184.39 44.9409C184.39 34.2043 184.39 4.42759 219.715 3.39091C235.578 2.91278 244.434 13.4349 252.323 27.7322C259.815 41.3111 264.208 41.1802 279.342 40.729C282.505 40.6347 286.138 40.5264 290.366 40.5264C314.822 40.5264 325.691 71.3227 318.444 80.267C318.15 80.6304 317.835 81.0122 317.506 81.4111C311.465 88.7379 300.639 101.868 322.974 113.894C346.524 126.575 367.356 169.033 326.596 193.489C306.67 204.471 273.831 200.475 269.532 193.489C266.816 189.073 264.098 171.863 274.967 167.221C286.143 162.448 287.648 150.012 274.967 150.917C262.286 151.823 235.113 151.823 231.49 134.613C227.867 117.404 230.584 111.063 248.7 101.1C259.569 92.9479 260.222 65.8878 250.512 65.8878C250.263 65.8878 250.021 65.8856 249.786 65.8836C244.887 65.8403 242.924 65.8229 241.453 85.7017C240.239 102.119 196.165 100.194 188.919 85.7017C183.94 75.7438 184.173 60.5553 184.338 49.8255C184.365 48.0626 184.39 46.4201 184.39 44.9409Z" stroke="#2B6ED4" stroke-width="6.75023"/>
<path d="M236.021 309.55C220.321 318.91 188.513 318.611 185.298 292.341C180.952 256.835 184.694 218.974 187.109 204.481C187.799 200.344 190.732 199.955 199.79 200.858C214.211 202.296 219.977 194.52 216.094 189.083C211.565 182.743 197.364 188.671 189.826 183.648C181.674 178.216 184.392 137.152 185.298 116.621C187.109 107.566 202.688 100.861 214.282 113.904C218.811 118.999 216.094 137.453 216.094 143.794C216.094 152.851 223.883 160.641 240.549 162.815C261.382 165.532 264.1 208.104 248.701 220.784C233.303 233.465 210.659 239.806 209.753 252.486C208.847 265.167 207.036 276.037 217.905 275.131C228.774 274.225 223.34 257.015 223.34 253.392C223.34 249.769 228.774 245.844 246.89 235.277C257.759 228.936 256.853 222.596 264.1 216.255C270.492 210.662 305.765 208.103 309.388 224.407C314.823 244.334 314.823 272.413 293.99 280.565C273.157 288.717 260.071 280.457 253.23 284.188C243.267 289.623 248.176 302.304 236.021 309.55Z" fill="#2B6ED4" stroke="#2B6ED4" stroke-width="3.62309"/>
</svg>
