<svg width="773" height="56" viewBox="0 0 773 56" fill="none" xmlns="http://www.w3.org/2000/svg">
<path d="M58.9417 1.87589V54.1972H46.8642V34.731H12.0775V54.1972H0V1.87589H12.0775V21.3421H46.8642V1.87589H58.9417Z" fill="white"/>
<path d="M79.4799 15.2891V21.2714H114.989V34.7553H79.4799V40.7376H120.305V54.2215H67.4023V1.80524H120.305V15.2891H79.4799Z" fill="white"/>
<path d="M185.512 1.87589V54.1972H173.434V18.0661L142.135 54.1972H128.781V1.87589H140.859V36.2029L170.627 1.87589H185.512ZM150.555 11.609L145.239 5.62668L155.994 1.88116L161.435 1.87589L150.555 11.609Z" fill="white"/>
<path d="M206.046 54.1365H193.969V1.91013H230.031C235.347 1.91013 239.77 3.23952 243.172 5.85084C247.467 9.12686 249.806 14.302 249.806 20.5217C249.806 32.059 242.236 39.1333 230.031 39.1333H206.046V54.1365ZM206.046 25.6969H230.031C237.729 25.6969 237.728 22.2309 237.728 20.5217C237.728 19.0024 237.729 15.3466 230.031 15.3466H206.046V25.6969Z" fill="white"/>
<path d="M285.543 9.37708C285.543 7.57498 285.543 2.57705 280.125 2.40305C277.692 2.3228 276.333 4.0889 275.124 6.48865C273.974 8.76783 273.301 8.74585 270.979 8.67012C270.494 8.65429 269.937 8.63612 269.289 8.63612C265.538 8.63612 263.87 13.8052 264.982 15.3065C265.027 15.3674 265.075 15.4315 265.126 15.4985C266.052 16.7283 267.713 18.9321 264.287 20.9506C260.675 23.079 257.48 30.2055 263.732 34.3103C266.788 36.1537 271.825 35.483 272.484 34.3103C272.901 33.5692 273.317 30.6806 271.65 29.9014C269.936 29.1003 269.705 27.0128 271.65 27.1649C273.595 27.3169 277.763 27.3169 278.319 24.4283C278.875 21.5397 278.458 20.4755 275.679 18.8032C274.012 17.4349 273.912 12.8929 275.401 12.8929C275.44 12.8929 275.477 12.8926 275.513 12.8922C276.264 12.885 276.565 12.8821 276.791 16.2186C276.977 18.9742 283.737 18.6511 284.848 16.2186C285.612 14.5472 285.576 11.9979 285.551 10.1969C285.547 9.90105 285.543 9.62535 285.543 9.37708Z" stroke="white" stroke-width="1.13758"/>
<path d="M277.575 54.0089C279.953 55.572 284.771 55.5221 285.258 51.1349C285.917 45.2051 285.35 38.8821 284.984 36.4618C284.879 35.771 284.435 35.7059 283.063 35.8568C280.879 36.097 280.005 34.7983 280.594 33.8903C281.28 32.8314 283.431 33.8215 284.572 32.9827C285.807 32.0754 285.396 25.2175 285.258 21.7888C284.984 20.2765 282.624 19.1567 280.868 21.335C280.182 22.1858 280.594 25.2678 280.594 26.3267C280.594 27.8394 279.414 29.1403 276.889 29.5033C273.733 29.9571 273.322 37.0668 275.654 39.1845C277.987 41.3023 281.417 42.3612 281.554 44.4789C281.691 46.5967 281.966 48.4119 280.319 48.2607C278.673 48.1094 279.496 45.2353 279.496 44.6302C279.496 44.0251 278.673 43.3696 275.929 41.6048C274.282 40.546 274.419 39.4871 273.322 38.4282C272.354 37.4941 267.011 37.0668 266.462 39.7896C265.639 43.1175 265.639 47.8069 268.794 49.1683C271.95 50.5297 273.932 49.1502 274.968 49.7734C276.477 50.681 275.734 52.7987 277.575 54.0089Z" fill="white" stroke="white" stroke-width="0.610581"/>
<path d="M287.692 9.37708C287.692 7.57498 287.692 2.57705 292.997 2.40305C295.38 2.3228 296.71 4.0889 297.894 6.48865C299.02 8.76783 299.679 8.74585 301.952 8.67012C302.427 8.65429 302.973 8.63612 303.608 8.63612C307.281 8.63612 308.913 13.8052 307.825 15.3065C307.78 15.3674 307.733 15.4315 307.684 15.4985C306.777 16.7283 305.151 18.9321 308.505 20.9506C312.042 23.079 315.17 30.2055 309.049 34.3103C306.056 36.1537 301.125 35.483 300.479 34.3103C300.071 33.5692 299.663 30.6806 301.295 29.9014C302.974 29.1003 303.2 27.0128 301.295 27.1649C299.391 27.3169 295.31 27.3169 294.766 24.4283C294.221 21.5397 294.63 20.4755 297.35 18.8032C298.983 17.4349 299.081 12.8929 297.622 12.8929C297.585 12.8929 297.549 12.8926 297.513 12.8922C296.778 12.885 296.483 12.8821 296.262 16.2186C296.08 18.9742 289.46 18.6511 288.372 16.2186C287.624 14.5472 287.659 11.9979 287.684 10.1969C287.688 9.90105 287.692 9.62535 287.692 9.37708Z" stroke="white" stroke-width="1.13758"/>
<path d="M295.444 54.0089C293.131 55.572 288.443 55.5221 287.969 51.1349C287.328 45.2051 287.88 38.8821 288.236 36.4618C288.338 35.771 288.77 35.7059 290.105 35.8568C292.23 36.097 293.08 34.7983 292.508 33.8903C291.84 32.8314 289.747 33.8215 288.636 32.9827C287.435 32.0754 287.835 25.2175 287.969 21.7888C288.236 20.2765 290.532 19.1567 292.241 21.335C292.908 22.1858 292.508 25.2678 292.508 26.3267C292.508 27.8394 293.656 29.1403 296.112 29.5033C299.182 29.9571 299.583 37.0668 297.313 39.1845C295.044 41.3023 291.707 42.3612 291.573 44.4789C291.44 46.5967 291.173 48.4119 292.775 48.2607C294.376 48.1094 293.576 45.2353 293.576 44.6302C293.576 44.0251 294.376 43.3696 297.046 41.6048C298.648 40.546 298.515 39.4871 299.583 38.4282C300.525 37.4941 305.723 37.0668 306.257 39.7896C307.058 43.1175 307.058 47.8069 303.988 49.1683C300.918 50.5297 298.989 49.1502 297.981 49.7734C296.512 50.681 297.236 52.7987 295.444 54.0089Z" fill="white" stroke="white" stroke-width="0.610581"/>
<path d="M378.475 1.87589V54.1023H366.482V39.1465H343.305L335.268 54.1972H320.979L330.718 36.2503C325.614 33.1168 322.723 27.6567 322.723 20.535C322.723 14.3153 325.062 9.1401 329.357 5.86408C332.716 3.25276 337.139 1.92336 342.497 1.92336H378.475V1.87589ZM366.482 25.6626V15.3598H342.497C334.8 15.3598 334.8 19.0156 334.8 20.535C334.8 22.2442 334.8 25.7101 342.497 25.7101H366.482V25.6626Z" fill="white"/>
<path d="M416.848 55.4879C408.556 55.4879 401.709 53.4463 396.521 49.5056C390.269 44.7102 386.952 37.3036 386.952 28.0453C386.952 10.9055 398.137 0.650177 416.848 0.650177C431.605 0.650177 442.066 7.24969 445.554 18.8345L434.071 23.1075C431.733 15.2261 422.292 14.0391 416.848 14.0391C399.03 14.0391 399.03 24.5794 399.03 28.0453C399.03 37.3036 405.068 42.0514 416.848 42.0514C423.27 42.0514 431.477 40.6271 433.944 33.6478L445.128 38.5855C441.301 49.5056 431.265 55.4879 416.848 55.4879Z" fill="white"/>
<path d="M512.959 1.87589V54.1972H500.882V34.731H466.095V54.1972H454.018V1.87589H466.095V21.3421H500.882V1.87589H512.959Z" fill="white"/>
<path d="M547.315 8.26742C547.315 6.38974 547.315 1.18221 541.781 1.00091C539.296 0.91729 537.909 2.75747 536.673 5.25786C535.5 7.63263 534.811 7.60972 532.441 7.53082C531.945 7.51433 531.376 7.49539 530.714 7.49539C526.883 7.49539 525.18 12.8812 526.316 14.4455C526.362 14.509 526.411 14.5758 526.463 14.6456C527.409 15.9269 529.105 18.2231 525.606 20.3263C521.917 22.544 518.654 29.9694 525.039 34.2464C528.16 36.167 533.304 35.4682 533.977 34.2464C534.403 33.4741 534.829 30.4644 533.126 29.6526C531.376 28.8178 531.14 26.6428 533.126 26.8012C535.113 26.9596 539.369 26.9596 539.937 23.9499C540.504 20.9402 540.078 19.8313 537.241 18.0888C535.538 16.6632 535.436 11.9307 536.957 11.9307C536.996 11.9307 537.034 11.9304 537.071 11.93C537.838 11.9224 538.146 11.9194 538.376 15.3959C538.566 18.267 545.47 17.9304 546.605 15.3959C547.385 13.6544 547.349 10.9982 547.323 9.12167C547.319 8.81337 547.315 8.52611 547.315 8.26742Z" stroke="white" stroke-width="1.13758"/>
<path d="M539.232 54.5902C541.691 56.227 546.673 56.1748 547.177 51.5806C547.858 45.371 547.272 38.7496 546.893 36.2151C546.785 35.4916 546.326 35.4234 544.907 35.5814C542.648 35.833 541.745 34.473 542.353 33.5221C543.063 32.4133 545.287 33.4501 546.468 32.5717C547.745 31.6217 547.319 24.4401 547.177 20.8496C546.893 19.2659 544.453 18.0933 542.637 20.3743C541.927 21.2654 542.353 24.4928 542.353 25.6016C542.353 27.1857 541.133 28.548 538.522 28.9282C535.259 29.4034 534.833 36.8485 537.245 39.0662C539.657 41.2839 543.204 42.3928 543.346 44.6105C543.488 46.8282 543.772 48.7291 542.069 48.5707C540.367 48.4123 541.218 45.4025 541.218 44.7689C541.218 44.1353 540.367 43.4488 537.529 41.6008C535.826 40.4919 535.968 39.3831 534.833 38.2742C533.832 37.296 528.306 36.8485 527.739 39.6999C526.888 43.1848 526.888 48.0955 530.151 49.5211C533.414 50.9468 535.464 49.5022 536.536 50.1547C538.097 51.1052 537.328 53.3229 539.232 54.5902Z" fill="white" stroke="white" stroke-width="0.610581"/>
<path d="M549.774 7.83807C549.774 5.96039 549.774 0.752858 555.308 0.571556C557.793 0.487938 559.18 2.32811 560.416 4.8285C561.589 7.20328 562.277 7.18037 564.648 7.10147C565.144 7.08497 565.713 7.06603 566.375 7.06603C570.206 7.06603 571.908 12.4519 570.773 14.0161C570.727 14.0797 570.678 14.1464 570.626 14.2162C569.68 15.4976 567.984 17.7938 571.483 19.897C575.172 22.1147 578.435 29.54 572.05 33.817C568.929 35.7377 563.785 35.0389 563.111 33.817C562.686 33.0448 562.26 30.035 563.963 29.2232C565.713 28.3885 565.949 26.2135 563.963 26.3719C561.976 26.5303 557.72 26.5303 557.152 23.5205C556.585 20.5108 557.01 19.402 559.848 17.6595C561.551 16.2338 561.653 11.5014 560.132 11.5014C560.093 11.5014 560.055 11.501 560.018 11.5007C559.251 11.4931 558.943 11.49 558.713 14.9666C558.523 17.8377 551.619 17.5011 550.484 14.9666C549.704 13.2251 549.74 10.5688 549.766 8.69232C549.77 8.38402 549.774 8.09676 549.774 7.83807Z" stroke="white" stroke-width="1.13758"/>
<path d="M557.867 54.1266C555.407 55.7635 550.425 55.7113 549.921 51.117C549.24 44.9074 549.826 38.286 550.205 35.7515C550.313 35.028 550.772 34.9599 552.191 35.1179C554.45 35.3694 555.353 34.0095 554.745 33.0586C554.036 31.9498 551.811 32.9866 550.63 32.1082C549.353 31.1581 549.779 23.9766 549.921 20.386C550.205 18.8024 552.645 17.6297 554.461 19.9108C555.171 20.8018 554.745 24.0292 554.745 25.1381C554.745 26.7222 555.965 28.0845 558.576 28.4647C561.839 28.9399 562.265 36.385 559.853 38.6027C557.441 40.8204 553.894 41.9293 553.752 44.147C553.61 46.3647 553.326 48.2656 555.029 48.1071C556.731 47.9487 555.88 44.939 555.88 44.3054C555.88 43.6717 556.731 42.9853 559.569 41.1372C561.272 40.0284 561.13 38.9195 562.265 37.8107C563.266 36.8325 568.792 36.385 569.359 39.2363C570.211 42.7213 570.211 47.6319 566.947 49.0576C563.684 50.4833 561.634 49.0387 560.562 49.6912C559.002 50.6417 559.771 52.8594 557.867 54.1266Z" fill="white" stroke="white" stroke-width="0.610581"/>
<path d="M614.036 55.4879C605.743 55.4879 598.896 53.4463 593.708 49.5056C587.457 44.7102 584.14 37.3036 584.14 28.0453C584.14 10.9055 595.324 0.650177 614.036 0.650177C628.792 0.650177 639.254 7.24969 642.741 18.8345L631.259 23.1075C628.92 15.2261 619.479 14.0391 614.036 14.0391C596.217 14.0391 596.217 24.5794 596.217 28.0453C596.217 37.3036 602.256 42.0514 614.036 42.0514C620.457 42.0514 628.665 40.6271 631.131 33.6478L642.316 38.5855C638.531 49.5056 628.452 55.4879 614.036 55.4879Z" fill="white"/>
<path d="M708.019 15.3598H685.65V54.1972H673.573V15.3598H651.204V1.87589H708.062V15.3598H708.019Z" fill="white"/>
<path d="M752.591 54.1365H716.528V1.91013H728.606V16.8659H752.591C764.796 16.8659 772.366 23.9876 772.366 35.4775C772.366 41.6971 770.027 46.9198 765.731 50.1483C762.329 52.7596 757.907 54.1365 752.591 54.1365ZM728.606 40.6526H752.591C760.288 40.6526 760.288 37.0443 760.288 35.4775C760.288 33.8157 760.288 30.3023 752.591 30.3023H728.606V40.6526Z" fill="white"/>
</svg>
