<svg width="251" height="299" viewBox="0 0 251 299" fill="none" xmlns="http://www.w3.org/2000/svg">
<path d="M127.227 203.705C126.005 192.975 121.055 194.056 118.732 195.937C99.038 208.638 80.7486 205.7 71.2558 212.149C61.763 218.599 -1.17235 238.035 -9.35784 237.225C-17.5433 236.415 -31.6581 242.308 -39.6375 246.137C-48.4747 247.609 -60.0946 248.109 -60.0946 248.109L-71.5131 247.902C-71.5131 247.902 -73.8371 248.002 -80.6076 247.596L-88.0383 246.823L-106.258 241.621C-115.455 238.996 -142.643 255.839 -152.333 268.339C-166.464 285.678 -174.718 299.172 -178.255 298.162C-181.793 297.152 -169.681 281.527 -172.211 276.988C-174.741 272.45 -185.438 288.479 -188.16 295.335C-190.883 302.19 -189.4 288.29 -191.93 283.751C-194.46 279.212 -200.085 294.22 -200.895 291.699C-205.557 275.865 -192.03 260.644 -191.426 258.527C-190.821 256.41 -166.686 238.874 -156.987 237.063C-147.288 235.252 -136.081 225.475 -125.07 221.748C-114.059 218.022 -96.1958 216.43 -75.3617 213.803C-50.4235 214.231 -1.11101 192.254 4.74586 187.82C10.6027 183.385 29.3961 181.88 22.1103 169.877C14.8246 157.875 -9.12747 153.327 -20.2507 144.045C-31.3739 134.763 -55.9489 110.955 -82.5109 126.272C-109.073 141.588 -165.467 130.069 -187.1 120.077C-208.732 110.085 -224.593 114.717 -236.92 115.015C-249.248 115.312 -282.814 93.5169 -307.047 114.078C-359.764 148.644 -395.636 148.326 -399.272 150.342C-402.908 152.357 -450.058 196.908 -450.049 207.597C-450.039 218.286 -446.975 255.799 -484.07 243.683C-521.165 231.567 -522.566 247.197 -528.02 250.219C-533.474 253.242 -540.321 249.761 -549.42 244.11C-558.519 238.459 -553.494 237.604 -561.989 229.836C-570.484 222.068 -556.146 209.368 -547.853 217.842C-539.56 226.316 -534.607 227.73 -524.112 212.407C-513.616 197.083 -484.627 183.986 -481.399 178.038C-478.17 172.09 -490.901 173.799 -509.685 185.993C-528.469 198.186 -532.41 198.588 -539.592 188.905C-546.775 179.221 -539.208 166.115 -539.02 149.376C-538.833 132.637 -540.454 127.594 -548.349 112.364C-556.244 97.1345 -548.363 96.3311 -550.593 88.0614C-552.823 79.7916 -554.163 49.6403 -544.145 65.4762C-534.128 81.312 -542.21 82.8212 -529.968 101.582C-517.725 120.343 -522.982 117.316 -507.609 133.154C-492.236 148.992 -428.804 119.775 -419.625 101.023C-410.446 82.2709 -360.976 32.2754 -352.294 23.3043C-343.612 14.3332 -327.972 -10.9708 -298.861 -0.370634C-269.75 10.2295 -227.014 2.58349 -205.086 3.50013C-183.158 4.41678 -193.56 11.3711 -162.843 10.9846C-132.127 10.5982 -99.7854 15.2419 -91.5953 21.3964C-83.4051 27.551 -90.7754 34.6066 -72.0815 36.1306C-37.8306 31.4048 20.8971 53.5118 26.7632 59.7663C32.6294 66.0207 49.4074 71.5759 60.0199 74.6055C70.6324 77.6351 66.8888 71.9865 75.8849 75.318C90.138 81.6767 110.257 94.2899 116.531 104.477C122.805 114.665 148.678 120.524 150.294 120.222C151.911 119.92 164.538 115.892 167.879 122.951C181.926 124.672 197.772 104.006 202.43 114.495C207.087 124.984 217.503 134.064 222.558 137.797C227.614 141.531 227.408 136.892 232.566 142.944C237.725 148.997 228.738 156.354 234.103 167.045C238.395 175.598 250.278 176.729 250.081 180.765C249.962 183.196 249.11 180.946 248.473 191.755C247.676 205.267 228.208 243.981 190.115 246.083C152.022 248.185 128.754 217.117 127.227 203.705Z" fill="white"/>
</svg>
