<svg width="1869" height="1797" viewBox="0 0 1869 1797" fill="none" xmlns="http://www.w3.org/2000/svg">
<path d="M135.426 526.64C179.946 582.129 198.182 636.799 253.671 592.279C309.161 547.758 399.605 404.087 355.084 348.597C310.563 293.108 281.312 245.273 225.763 289.858C170.214 334.444 90.8996 471.026 135.426 526.64Z" stroke="#2B6ED4" stroke-width="1.50385" stroke-miterlimit="10"/>
<path d="M365.797 350.298C321.276 294.809 291.988 247.535 236.433 291.996C180.879 336.458 101.818 473.153 146.404 528.702C190.989 584.25 209.462 638.661 264.951 594.141C320.441 549.62 410.258 405.852 365.797 350.298Z" stroke="#2B6ED4" stroke-width="1.50566" stroke-miterlimit="10"/>
<path d="M376.384 352.001C331.863 296.512 302.532 249.675 246.919 294.202C191.305 338.728 112.735 475.277 157.256 530.766C201.777 586.256 220.616 640.526 276.165 595.94C331.714 551.355 420.97 407.55 376.384 352.001Z" stroke="#2B6ED4" stroke-width="1.50748" stroke-miterlimit="10"/>
<path d="M387.033 353.639C342.512 298.15 313.138 251.751 257.525 296.277C201.911 340.803 123.773 477.271 168.294 532.76C212.815 588.249 231.956 642.32 287.505 597.734C343.054 553.149 431.559 409.253 387.033 353.639Z" stroke="#2B6ED4" stroke-width="1.5102" stroke-miterlimit="10"/>
<path d="M397.687 355.399C353.166 299.91 323.69 254.013 268.136 298.474C212.581 342.936 134.751 479.327 179.212 534.882C223.674 590.436 243.171 644.117 298.725 599.656C354.28 555.194 442.207 410.889 397.687 355.399Z" stroke="#2B6ED4" stroke-width="1.51201" stroke-miterlimit="10"/>
<path d="M408.33 357.046C363.809 301.557 334.291 256.097 278.742 300.683C223.193 345.268 145.665 481.46 190.186 536.949C234.706 592.438 254.447 645.984 310.06 601.458C365.55 556.938 452.916 412.595 408.33 357.046Z" stroke="#2B6ED4" stroke-width="1.51473" stroke-miterlimit="10"/>
<path d="M418.981 358.685C374.46 303.195 344.899 258.173 289.35 302.759C233.801 347.344 156.58 483.46 201.166 539.008C245.752 594.557 265.729 647.844 321.343 603.318C376.956 558.791 463.507 414.298 418.981 358.685Z" stroke="#2B6ED4" stroke-width="1.51654" stroke-miterlimit="10"/>
<path d="M429.631 360.454C385.11 304.964 355.447 260.444 299.957 304.965C244.468 349.486 167.619 485.585 212.14 541.074C256.661 596.563 277.065 649.644 332.619 605.183C388.173 560.722 474.151 415.943 429.631 360.454Z" stroke="#2B6ED4" stroke-width="1.51835" stroke-miterlimit="10"/>
<path d="M440.296 362.067C395.775 306.577 366.069 262.494 310.52 307.08C254.971 351.665 178.549 487.559 223.07 543.048C267.591 598.538 288.297 651.419 343.845 606.833C399.394 562.248 484.757 417.621 440.296 362.067Z" stroke="#2B6ED4" stroke-width="1.52107" stroke-miterlimit="10"/>
<path d="M450.882 363.774C406.361 308.284 376.677 264.698 321.064 309.225C265.45 353.751 189.46 489.563 233.986 545.176C278.512 600.79 299.515 653.347 355.063 608.761C410.612 564.176 495.467 419.323 450.882 363.774Z" stroke="#2B6ED4" stroke-width="1.52289" stroke-miterlimit="10"/>
<path d="M461.592 365.469C417.072 309.98 387.286 266.896 331.731 311.357C276.177 355.819 200.5 491.679 245.021 547.168C289.541 602.658 310.911 655.074 366.4 610.553C421.89 566.032 506.054 421.024 461.592 365.469Z" stroke="#2B6ED4" stroke-width="1.52561" stroke-miterlimit="10"/>
<path d="M472.182 367.175C427.661 311.685 397.833 269.038 342.219 313.565C286.605 358.091 211.355 493.746 255.816 549.3C300.277 604.854 322.008 657.005 377.497 612.484C432.987 567.964 516.703 422.664 472.182 367.175Z" stroke="#2B6ED4" stroke-width="1.52742" stroke-miterlimit="10"/>
<path d="M482.828 368.819C438.307 313.329 408.436 271.12 352.822 315.646C297.209 360.172 222.265 495.751 266.851 551.3C311.436 606.848 333.345 658.805 388.894 614.219C444.443 569.634 527.354 424.432 482.828 368.819Z" stroke="#2B6ED4" stroke-width="1.53014" stroke-miterlimit="10"/>
<path d="M493.477 370.587C448.957 315.097 418.983 273.39 363.494 317.911C308.004 362.431 233.369 497.934 277.889 553.424C322.41 608.913 344.68 660.605 400.234 616.143C455.789 571.682 537.998 426.076 493.477 370.587Z" stroke="#2B6ED4" stroke-width="1.53195" stroke-miterlimit="10"/>
<path d="M504.123 372.224C459.602 316.734 429.586 275.464 374.037 320.05C318.483 364.511 244.279 499.933 288.741 555.487C333.202 611.041 355.833 662.468 411.388 618.006C466.942 573.545 548.584 427.778 504.123 372.224Z" stroke="#2B6ED4" stroke-width="1.53376" stroke-miterlimit="10"/>
<path d="M514.716 373.919C470.196 318.43 440.078 277.662 384.588 322.183C329.099 366.704 255.138 501.99 299.723 557.539C344.309 613.087 367.118 664.319 422.732 619.793C478.345 575.267 559.302 429.468 514.716 373.919Z" stroke="#2B6ED4" stroke-width="1.53648" stroke-miterlimit="10"/>
<path d="M525.364 375.562C480.843 320.072 450.682 279.742 395.193 324.263C339.703 368.783 266.174 503.988 310.635 559.542C355.097 615.097 378.392 666.058 433.946 621.597C489.5 577.136 569.89 431.175 525.364 375.562Z" stroke="#2B6ED4" stroke-width="1.5383" stroke-miterlimit="10"/>
<path d="M536.017 377.328C491.496 321.838 461.358 282.004 405.744 326.531C350.131 371.057 277.092 506.115 321.618 561.729C366.145 617.342 389.677 668.045 445.166 623.524C500.656 579.003 580.538 432.817 536.017 377.328Z" stroke="#2B6ED4" stroke-width="1.54102" stroke-miterlimit="10"/>
<path d="M546.662 378.966C502.141 323.477 471.9 284.145 416.346 328.606C360.792 373.068 288.002 508.115 332.587 563.664C377.173 619.213 400.948 669.78 456.496 625.194C512.045 580.609 591.188 434.58 546.662 378.966Z" stroke="#2B6ED4" stroke-width="1.54283" stroke-miterlimit="10"/>
<path d="M557.248 380.675C512.728 325.185 482.444 286.291 426.89 330.752C371.336 375.214 298.977 510.18 343.439 565.734C387.9 621.288 412.101 671.65 467.65 627.064C523.199 582.479 601.834 436.223 557.248 380.675Z" stroke="#2B6ED4" stroke-width="1.54555" stroke-miterlimit="10"/>
<path d="M567.962 382.372C523.442 326.883 493.115 288.426 437.502 332.952C382.012 377.473 309.897 512.303 354.483 567.852C399.068 623.401 423.507 673.503 478.996 628.982C534.485 584.462 612.483 437.862 567.962 382.372Z" stroke="#2B6ED4" stroke-width="1.54736" stroke-miterlimit="10"/>
<path d="M578.611 384.013C534.09 328.524 503.662 290.569 448.172 335.09C392.683 379.61 320.935 514.3 365.461 569.914C409.982 625.403 434.722 675.305 490.336 630.779C545.949 586.253 623.072 439.568 578.611 384.013Z" stroke="#2B6ED4" stroke-width="1.54917" stroke-miterlimit="10"/>
<path d="M589.203 385.72C544.683 330.23 514.212 292.713 458.722 337.233C403.233 381.754 331.916 516.362 376.377 571.917C420.898 627.406 445.941 677.108 501.554 632.582C557.168 588.056 633.789 441.268 589.203 385.72Z" stroke="#2B6ED4" stroke-width="1.55189" stroke-miterlimit="10"/>
<path d="M599.91 387.418C555.389 331.929 524.875 294.848 469.326 339.434C413.778 384.019 342.828 518.487 387.349 573.977C431.869 629.466 457.273 678.903 512.828 634.442C568.382 589.98 644.371 442.972 599.91 387.418Z" stroke="#2B6ED4" stroke-width="1.55371" stroke-miterlimit="10"/>
<path d="M610.502 389.12C565.981 333.631 535.366 297.053 479.876 341.573C424.387 386.094 353.745 520.486 398.271 576.099C442.792 631.589 468.498 680.826 524.111 636.3C579.725 591.773 655.023 444.61 610.502 389.12Z" stroke="#2B6ED4" stroke-width="1.55643" stroke-miterlimit="10"/>
<path d="M621.147 390.763C576.627 335.274 546.033 299.192 490.479 343.654C434.925 388.115 364.72 522.55 409.24 578.039C453.761 633.528 479.769 682.565 535.318 637.98C590.867 593.394 665.674 446.377 621.147 390.763Z" stroke="#2B6ED4" stroke-width="1.55824" stroke-miterlimit="10"/>
<path d="M631.733 392.468C587.213 336.979 556.577 301.335 500.963 345.861C445.349 390.387 375.571 524.616 420.156 580.165C464.677 635.654 491.047 684.426 546.536 639.906C602.026 595.385 676.319 448.017 631.733 392.468Z" stroke="#2B6ED4" stroke-width="1.56005" stroke-miterlimit="10"/>
<path d="M642.445 394.173C597.924 338.684 567.186 303.542 511.632 348.003C456.078 392.465 386.672 526.677 431.133 582.231C475.594 637.785 502.325 686.293 557.815 641.772C613.304 597.251 686.906 449.727 642.445 394.173Z" stroke="#2B6ED4" stroke-width="1.56277" stroke-miterlimit="10"/>
<path d="M653.047 395.857C608.527 340.367 577.746 305.663 522.191 350.124C466.702 394.645 397.539 528.722 442.059 584.211C486.58 639.701 513.554 688.072 569.103 643.487C624.651 598.901 697.568 451.346 653.047 395.857Z" stroke="#2B6ED4" stroke-width="1.56458" stroke-miterlimit="10"/>
<path d="M663.699 397.494C619.179 342.005 588.355 307.738 532.806 352.323C477.258 396.909 408.52 530.78 453.047 586.394C497.567 641.883 524.903 689.99 580.392 645.47C635.881 600.949 708.226 453.108 663.699 397.494Z" stroke="#2B6ED4" stroke-width="1.5673" stroke-miterlimit="10"/>
<path d="M674.35 399.264C629.83 343.774 598.904 310.009 543.414 354.53C487.925 399.05 419.501 532.97 464.022 588.46C508.542 643.949 536.115 691.797 591.669 647.335C647.223 602.874 718.871 454.753 674.35 399.264Z" stroke="#2B6ED4" stroke-width="1.56912" stroke-miterlimit="10"/>
<path d="M684.998 400.901C640.477 345.412 609.508 312.084 554.019 356.605C498.53 401.125 430.473 534.904 474.993 590.394C519.514 645.883 547.388 693.531 603.002 649.004C658.616 604.478 729.459 456.456 684.998 400.901Z" stroke="#2B6ED4" stroke-width="1.57184" stroke-miterlimit="10"/>
<path d="M695.589 402.605C651.068 347.116 620.057 314.225 564.508 358.81C508.96 403.396 441.329 536.969 485.855 592.583C530.376 648.072 558.612 695.455 614.166 650.994C669.72 606.532 740.174 458.154 695.589 402.605Z" stroke="#2B6ED4" stroke-width="1.57365" stroke-miterlimit="10"/>
<path d="M706.232 404.245C661.711 348.755 630.663 316.426 575.109 360.887C519.554 405.349 452.302 539.03 496.822 594.519C541.343 650.009 569.881 697.191 625.435 652.73C680.989 608.269 750.758 459.858 706.232 404.245Z" stroke="#2B6ED4" stroke-width="1.57546" stroke-miterlimit="10"/>
<path d="M716.893 406.01C672.372 350.52 641.281 318.628 585.667 363.155C530.054 407.681 463.227 541.156 507.689 596.71C552.15 652.265 581.049 699.182 636.598 654.597C692.212 610.071 761.413 461.499 716.893 406.01Z" stroke="#2B6ED4" stroke-width="1.57818" stroke-miterlimit="10"/>
<path d="M727.538 407.646C683.017 352.157 651.883 320.702 596.269 365.228C540.656 409.755 474.137 543.154 518.723 598.703C563.308 654.252 592.385 700.975 647.934 656.389C703.548 611.863 772.058 463.136 727.538 407.646Z" stroke="#2B6ED4" stroke-width="1.57999" stroke-miterlimit="10"/>
<path d="M738.183 409.289C693.662 353.799 662.426 322.847 606.872 367.308C551.318 411.77 485.171 545.153 529.692 600.642C574.213 656.132 603.722 702.773 659.211 658.253C714.76 613.667 782.709 464.902 738.183 409.289Z" stroke="#2B6ED4" stroke-width="1.58271" stroke-miterlimit="10"/>
<path d="M748.836 411.054C704.315 355.564 673.037 325.049 617.488 369.635C561.939 414.22 496.154 547.338 540.616 602.892C585.077 658.447 614.942 704.699 670.491 660.114C726.04 615.528 793.357 466.543 748.836 411.054Z" stroke="#2B6ED4" stroke-width="1.58453" stroke-miterlimit="10"/>
<path d="M759.418 412.642C714.898 357.153 683.576 327.075 628.028 371.66C572.479 416.246 507.001 549.288 551.587 604.837C596.172 660.385 626.151 706.384 681.764 661.858C737.254 617.337 803.88 468.196 759.418 412.642Z" stroke="#2B6ED4" stroke-width="1.58634" stroke-miterlimit="10"/>
<path d="M767.556 412.459C723.036 356.97 691.612 327.394 636.123 371.915C580.633 416.436 515.529 549.461 559.99 605.015C604.451 660.57 634.915 706.298 690.469 661.837C746.083 617.311 812.142 468.008 767.556 412.459Z" stroke="#2B6ED4" stroke-width="1.58906" stroke-miterlimit="10"/>
<path d="M776.678 413.428C732.158 357.938 700.692 328.8 645.143 373.386C589.594 417.971 524.856 550.856 569.442 606.405C613.962 661.894 644.669 707.487 700.282 662.961C755.707 618.381 821.14 468.982 776.678 413.428Z" stroke="#2B6ED4" stroke-width="1.59087" stroke-miterlimit="10"/>
<path d="M786.416 415.413C741.895 359.923 710.451 331.282 654.837 375.808C599.224 420.334 534.983 553.197 579.503 608.686C624.024 664.176 655.032 709.569 710.646 665.042C766.135 620.522 831.001 470.962 786.416 415.413Z" stroke="#2B6ED4" stroke-width="1.59359" stroke-miterlimit="10"/>
<path d="M796.743 418.31C752.222 362.82 720.676 334.681 665.122 379.142C609.568 423.603 545.634 556.39 590.095 611.944C634.557 667.499 665.986 712.562 721.475 668.041C777.154 623.574 841.328 473.858 796.743 418.31Z" stroke="#2B6ED4" stroke-width="1.5954" stroke-miterlimit="10"/>
<path d="M807.484 422.07C762.964 366.58 731.375 338.878 675.761 383.404C620.148 427.93 556.581 560.576 601.167 616.125C645.752 671.674 677.419 716.478 732.973 672.016C788.522 627.431 852.07 477.618 807.484 422.07Z" stroke="#2B6ED4" stroke-width="1.59812" stroke-miterlimit="10"/>
<path d="M818.563 426.483C774.043 370.994 742.411 343.729 686.798 388.255C631.184 432.781 567.984 565.286 612.51 620.9C657.037 676.514 689.005 721.118 744.554 676.532C800.168 632.006 863.025 482.038 818.563 426.483Z" stroke="#2B6ED4" stroke-width="1.59994" stroke-miterlimit="10"/>
<path d="M829.671 431.532C785.15 376.043 753.417 349.28 697.928 393.801C642.438 438.321 579.487 570.815 624.007 626.305C668.528 681.794 700.864 726.257 756.353 681.737C811.902 637.151 874.192 487.022 829.671 431.532Z" stroke="#2B6ED4" stroke-width="1.60175" stroke-miterlimit="10"/>
<path d="M840.68 436.946C796.16 381.456 764.384 355.131 708.835 399.716C653.286 444.302 590.761 576.59 635.346 632.139C679.932 687.688 712.505 731.891 767.994 687.371C823.543 642.785 885.266 492.494 840.68 436.946Z" stroke="#2B6ED4" stroke-width="1.60447" stroke-miterlimit="10"/>
<path d="M851.567 442.744C807.046 387.254 775.228 361.366 719.679 405.952C664.13 450.537 601.977 582.809 646.498 638.299C691.019 693.788 723.893 737.792 779.507 693.266C835.061 648.804 896.093 498.357 851.567 442.744Z" stroke="#2B6ED4" stroke-width="1.60628" stroke-miterlimit="10"/>
<path d="M862.044 448.869C817.523 393.379 785.602 367.993 730.113 412.514C674.623 457.035 612.778 589.231 657.299 644.72C701.819 700.209 735.056 743.948 790.61 699.487C846.164 655.026 906.629 504.417 862.044 448.869Z" stroke="#2B6ED4" stroke-width="1.609" stroke-miterlimit="10"/>
<path d="M872.026 455.139C827.505 399.65 795.606 374.761 739.993 419.287C684.379 463.813 623.025 595.863 667.551 651.476C712.072 706.966 745.61 750.504 801.164 706.043C856.772 661.393 916.546 510.629 872.026 455.139Z" stroke="#2B6ED4" stroke-width="1.61082" stroke-miterlimit="10"/>
<path d="M881.321 461.387C836.8 405.898 804.799 381.511 749.245 425.972C693.691 470.433 632.644 602.407 677.17 658.021C721.697 713.634 755.532 756.849 811.145 712.323C866.635 667.802 925.841 516.877 881.321 461.387Z" stroke="#2B6ED4" stroke-width="1.61263" stroke-miterlimit="10"/>
<path d="M889.749 467.54C845.228 412.051 813.185 388.101 757.63 432.562C702.076 477.024 641.402 608.981 685.923 664.47C730.443 719.96 764.645 763.033 820.135 718.513C875.754 674.111 934.334 523.089 889.749 467.54Z" stroke="#2B6ED4" stroke-width="1.61535" stroke-miterlimit="10"/>
<path d="M897.224 473.547C852.704 418.057 820.617 394.545 765.004 439.071C709.39 483.597 649.142 615.349 693.669 670.962C738.195 726.576 772.693 769.325 828.183 724.805C883.672 680.284 941.81 529.095 897.224 473.547Z" stroke="#2B6ED4" stroke-width="1.61716" stroke-miterlimit="10"/>
<path d="M903.64 479.166C859.119 423.677 826.931 400.666 771.441 445.187C715.952 489.708 655.953 621.448 700.473 676.938C744.994 732.427 779.8 775.1 835.349 730.515C890.779 686.059 948.101 534.72 903.64 479.166Z" stroke="#2B6ED4" stroke-width="1.61988" stroke-miterlimit="10"/>
<path d="M900.64 487.27C856.119 431.78 823.888 409.207 768.399 453.728C712.909 498.249 653.277 629.848 697.738 685.403C742.199 740.957 777.367 783.366 832.915 738.78C888.405 694.259 945.101 542.824 900.64 487.27Z" stroke="#2B6ED4" stroke-width="1.62169" stroke-miterlimit="10"/>
<path d="M894.326 496.379C849.805 440.889 817.531 418.753 761.983 463.339C706.434 507.924 647.228 639.319 691.754 694.932C736.28 750.546 771.679 792.571 827.228 747.985C882.776 703.4 938.846 551.868 894.326 496.379Z" stroke="#2B6ED4" stroke-width="1.62441" stroke-miterlimit="10"/>
<path d="M888.076 505.426C843.556 449.936 811.18 428.303 755.691 472.823C700.201 517.344 641.308 648.786 685.829 704.276C730.349 759.765 766.056 801.715 821.67 757.188C877.1 712.733 932.538 560.98 888.076 505.426Z" stroke="#2B6ED4" stroke-width="1.62623" stroke-miterlimit="10"/>
<path d="M881.763 514.537C837.242 459.048 804.889 437.911 749.334 482.372C693.78 526.834 635.319 658.195 679.78 713.749C724.241 769.303 760.31 810.988 815.923 766.461C871.477 722 926.283 570.027 881.763 514.537Z" stroke="#2B6ED4" stroke-width="1.62804" stroke-miterlimit="10"/>
<path d="M875.515 523.594C830.995 468.105 798.599 447.405 742.985 491.931C687.372 536.457 629.277 667.678 673.863 723.226C718.448 778.775 754.753 820.2 810.243 775.68C865.856 731.153 919.977 579.149 875.515 523.594Z" stroke="#2B6ED4" stroke-width="1.63076" stroke-miterlimit="10"/>
<path d="M869.202 532.703C824.682 477.213 792.183 457.016 736.629 501.477C681.075 545.939 623.353 677.142 667.874 732.632C712.394 788.121 749.066 829.405 804.615 784.82C860.17 740.359 913.723 588.192 869.202 532.703Z" stroke="#2B6ED4" stroke-width="1.63257" stroke-miterlimit="10"/>
<path d="M862.949 541.757C818.428 486.267 785.888 466.507 730.333 510.969C674.779 555.43 617.424 686.493 661.885 742.047C706.347 797.601 743.38 838.621 798.929 794.035C854.548 749.633 907.475 597.37 862.949 541.757Z" stroke="#2B6ED4" stroke-width="1.63529" stroke-miterlimit="10"/>
<path d="M856.637 550.863C812.117 495.374 779.533 476.051 723.985 520.636C668.436 565.222 611.383 696.085 655.968 751.633C700.489 807.123 737.825 847.942 793.314 803.421C848.863 758.836 901.223 606.412 856.637 550.863Z" stroke="#2B6ED4" stroke-width="1.6371" stroke-miterlimit="10"/>
<path d="M850.385 559.914C805.864 504.424 773.178 485.604 717.689 530.124C662.199 574.645 605.519 705.491 649.98 761.045C694.442 816.6 732.139 857.154 787.628 812.633C843.242 768.107 894.97 615.462 850.385 559.914Z" stroke="#2B6ED4" stroke-width="1.63982" stroke-miterlimit="10"/>
<path d="M844.137 568.963C799.616 513.473 766.888 495.09 711.398 539.611C655.909 584.131 599.536 714.901 644.057 770.391C688.577 825.88 726.517 866.299 782.066 821.714C837.561 777.317 888.663 624.576 844.137 568.963Z" stroke="#2B6ED4" stroke-width="1.64164" stroke-miterlimit="10"/>
<path d="M837.806 578.1C793.285 522.611 760.514 504.665 704.966 549.25C649.417 593.836 593.47 724.4 638.056 779.949C682.641 835.498 720.813 875.533 776.367 831.072C831.922 786.611 882.392 633.649 837.806 578.1Z" stroke="#2B6ED4" stroke-width="1.64345" stroke-miterlimit="10"/>
<path d="M831.549 587.142C787.028 531.652 754.22 514.268 698.666 558.729C643.111 603.19 587.602 733.798 632.063 789.352C676.525 844.906 715.122 884.736 770.677 840.275C826.29 795.749 876.075 642.755 831.549 587.142Z" stroke="#2B6ED4" stroke-width="1.64617" stroke-miterlimit="10"/>
<path d="M825.304 596.319C780.783 540.83 747.932 523.882 692.378 568.344C636.824 612.805 581.622 743.336 626.207 798.885C670.793 854.434 709.569 894.069 765.182 849.543C820.607 804.963 869.824 651.809 825.304 596.319Z" stroke="#2B6ED4" stroke-width="1.64798" stroke-miterlimit="10"/>
<path d="M822.442 604.661C777.921 549.172 745.027 532.662 689.414 577.188C633.8 621.714 579.025 752.04 623.551 807.654C668.077 863.267 707.274 902.573 762.828 858.112C818.377 813.526 866.903 660.216 822.442 604.661Z" stroke="#2B6ED4" stroke-width="1.6507" stroke-miterlimit="10"/>
<path d="M829.752 610.99C785.231 555.5 752.236 539.492 696.681 583.954C641.127 628.415 586.665 758.789 631.185 814.279C675.706 869.768 715.21 908.998 770.7 864.477C826.378 820.01 874.278 666.603 829.752 610.99Z" stroke="#2B6ED4" stroke-width="1.65251" stroke-miterlimit="10"/>
<path d="M838.05 617.154C793.529 561.664 760.491 546.094 704.942 590.679C649.453 635.2 595.292 765.374 639.878 820.923C684.399 876.412 724.205 915.442 779.754 870.856C835.243 826.336 882.57 672.643 838.05 617.154Z" stroke="#2B6ED4" stroke-width="1.65433" stroke-miterlimit="10"/>
<path d="M847.271 623.082C802.75 567.592 769.669 552.459 714.121 597.045C658.631 641.565 604.838 771.599 649.364 827.212C693.89 882.826 733.993 921.531 789.542 876.946C845.031 832.425 891.797 678.695 847.271 623.082Z" stroke="#2B6ED4" stroke-width="1.65705" stroke-miterlimit="10"/>
<path d="M857.298 628.918C812.777 573.429 779.594 558.798 724.105 603.319C668.615 647.839 615.194 777.856 659.715 833.345C704.236 888.835 744.705 927.399 800.195 882.879C855.684 838.358 901.759 684.473 857.298 628.918Z" stroke="#2B6ED4" stroke-width="1.65886" stroke-miterlimit="10"/>
<path d="M867.937 634.599C823.416 579.11 790.191 564.916 734.642 609.501C679.152 654.022 626.099 783.898 670.625 839.512C715.151 895.125 755.852 933.306 811.466 888.78C867.015 844.195 912.458 690.089 867.937 634.599Z" stroke="#2B6ED4" stroke-width="1.66158" stroke-miterlimit="10"/>
<path d="M879.192 640.135C834.672 584.646 801.468 570.949 745.854 615.475C690.365 659.995 637.619 789.796 682.204 845.344C726.79 900.893 767.734 938.939 823.348 894.413C878.896 849.827 923.778 695.684 879.192 640.135Z" stroke="#2B6ED4" stroke-width="1.66339" stroke-miterlimit="10"/>
<path d="M890.941 645.52C846.42 590.031 813.114 576.836 757.56 621.297C702.071 665.818 649.756 795.536 694.277 851.026C738.798 906.515 780.168 944.356 835.722 899.894C891.277 855.433 935.467 701.134 890.941 645.52Z" stroke="#2B6ED4" stroke-width="1.66611" stroke-miterlimit="10"/>
<path d="M903.063 650.885C858.542 595.395 825.194 582.637 769.58 627.164C714.091 671.684 662.143 801.262 706.669 856.876C751.195 912.489 792.862 950.005 848.476 905.479C904.025 860.894 947.589 706.498 903.063 650.885Z" stroke="#2B6ED4" stroke-width="1.66792" stroke-miterlimit="10"/>
<path d="M915.488 656.179C870.967 600.689 837.576 588.369 781.963 632.895C726.473 677.416 674.898 806.977 719.419 862.466C763.939 917.956 805.914 955.396 861.463 910.81C917.017 866.349 959.949 711.733 915.488 656.179Z" stroke="#2B6ED4" stroke-width="1.66974" stroke-miterlimit="10"/>
<path d="M928.035 661.349C883.514 605.86 850.021 594.041 794.532 638.562C739.042 683.083 687.834 812.503 732.295 868.057C776.757 923.612 819.152 960.722 874.642 916.202C930.196 871.74 972.496 716.903 928.035 661.349Z" stroke="#2B6ED4" stroke-width="1.67246" stroke-miterlimit="10"/>
<path d="M940.644 666.568C896.123 611.078 862.588 599.697 807.039 644.283C751.549 688.803 700.649 818.148 745.234 873.697C789.82 929.245 832.393 966.161 887.883 921.641C943.491 876.99 985.165 722.057 940.644 666.568Z" stroke="#2B6ED4" stroke-width="1.67427" stroke-miterlimit="10"/>
<path d="M953.269 671.645C908.748 616.156 875.169 605.212 819.621 649.797C764.131 694.318 713.662 823.581 758.183 879.071C802.704 934.56 845.644 971.335 901.193 926.75C956.682 882.229 997.73 727.199 953.269 671.645Z" stroke="#2B6ED4" stroke-width="1.67699" stroke-miterlimit="10"/>
<path d="M965.623 676.756C921.102 621.266 887.421 610.825 831.932 655.345C776.443 699.866 726.341 828.988 770.802 884.543C815.263 940.097 858.624 976.542 914.114 932.022C969.727 887.495 1010.21 732.304 965.623 676.756Z" stroke="#2B6ED4" stroke-width="1.6788" stroke-miterlimit="10"/>
<path d="M977.855 681.875C933.334 626.386 899.676 616.441 844.062 660.967C788.573 705.488 738.779 834.534 783.364 890.083C827.95 945.632 871.424 981.823 926.978 937.362C982.527 892.777 1022.32 737.43 977.855 681.875Z" stroke="#2B6ED4" stroke-width="1.68061" stroke-miterlimit="10"/>
<path d="M989.661 687.07C945.14 631.581 911.439 622.073 855.825 666.599C800.336 711.12 750.973 840.085 795.435 895.639C839.896 951.194 883.796 987.18 939.41 942.653C994.959 898.068 1034.18 742.56 989.661 687.07Z" stroke="#2B6ED4" stroke-width="1.68333" stroke-miterlimit="10"/>
<path d="M1001.02 692.222C956.501 636.733 922.698 627.728 867.144 672.189C811.654 716.71 762.659 845.534 807.12 901.088C851.641 956.578 895.843 992.364 951.397 947.902C1006.95 903.441 1045.61 747.771 1001.02 692.222Z" stroke="#2B6ED4" stroke-width="1.68515" stroke-miterlimit="10"/>
<path d="M1011.83 697.464C967.309 641.974 933.463 633.406 877.849 677.932C822.36 722.453 773.672 851.202 818.257 906.75C862.778 962.24 907.283 997.826 962.837 953.364C1018.45 908.838 1056.41 753.013 1011.83 697.464Z" stroke="#2B6ED4" stroke-width="1.68787" stroke-miterlimit="10"/>
<path d="M1022.02 702.731C977.496 647.242 943.608 639.111 888.059 683.696C832.569 728.217 784.313 856.884 828.775 912.438C873.295 967.928 918.102 1003.31 973.651 958.728C1029.2 914.267 1066.54 758.345 1022.02 702.731Z" stroke="#2B6ED4" stroke-width="1.68968" stroke-miterlimit="10"/>
<path d="M1031.41 708.213C986.885 652.724 952.894 645.095 897.405 689.616C841.915 734.136 793.967 862.727 838.487 918.217C883.008 973.706 928.117 1008.89 983.665 964.306C1039.22 919.845 1075.93 763.702 1031.41 708.213Z" stroke="#2B6ED4" stroke-width="1.6924" stroke-miterlimit="10"/>
<path d="M1039.92 713.624C995.403 658.135 961.37 650.943 905.821 695.529C850.331 740.049 802.75 868.5 847.276 924.113C891.797 979.603 937.267 1014.52 992.756 970.003C1048.37 925.477 1084.45 769.238 1039.92 713.624Z" stroke="#2B6ED4" stroke-width="1.69421" stroke-miterlimit="10"/>
<path d="M1047.45 719.325C1002.93 663.836 968.793 657.146 913.304 701.667C857.814 746.188 810.664 874.557 855.126 930.111C899.587 985.665 945.418 1020.32 1000.97 975.736C1056.52 931.15 1091.97 774.815 1047.45 719.325Z" stroke="#2B6ED4" stroke-width="1.69602" stroke-miterlimit="10"/>
<path d="M1053.92 725.009C1009.4 669.52 975.289 663.327 919.735 707.789C864.246 752.309 817.403 880.602 861.989 936.151C906.574 991.7 952.519 1026.1 1008.13 981.576C1063.56 937.12 1098.45 780.623 1053.92 725.009Z" stroke="#2B6ED4" stroke-width="1.69874" stroke-miterlimit="10"/>
<path d="M1059.23 730.934C1014.7 675.445 980.549 669.689 924.935 714.215C869.446 758.736 822.971 886.888 867.497 942.502C912.018 997.991 958.388 1032.19 1013.94 987.726C1069.49 943.141 1103.69 786.488 1059.23 730.934Z" stroke="#2B6ED4" stroke-width="1.70056" stroke-miterlimit="10"/>
<path d="M1063.16 737.039C1018.64 681.55 984.385 676.297 928.831 720.758C873.341 765.279 827.238 893.414 871.759 948.904C916.28 1004.39 962.953 1038.39 1018.57 993.864C1074.12 949.402 1107.75 792.588 1063.16 737.039Z" stroke="#2B6ED4" stroke-width="1.70328" stroke-miterlimit="10"/>
<path d="M1065.81 743.264C1021.29 687.775 986.987 682.959 931.432 727.42C875.878 771.881 830.207 899.936 874.793 955.484C919.313 1010.97 966.288 1044.77 1021.9 1000.24C1077.33 955.788 1110.33 798.878 1065.81 743.264Z" stroke="#2B6ED4" stroke-width="1.70509" stroke-miterlimit="10"/>
<path d="M1066.91 749.746C1022.39 694.257 988.043 689.878 932.495 734.464C877.005 778.985 831.636 906.839 876.162 962.452C920.683 1017.94 968.019 1051.47 1023.51 1006.95C1079.06 962.367 1111.43 805.236 1066.91 749.746Z" stroke="#2B6ED4" stroke-width="1.7069" stroke-miterlimit="10"/>
<path d="M1066.4 756.421C1021.87 700.931 987.429 697.055 931.94 741.576C876.45 786.096 831.454 913.934 875.975 969.423C920.495 1024.91 968.134 1058.24 1023.62 1013.72C1079.24 969.197 1110.98 811.97 1066.4 756.421Z" stroke="#2B6ED4" stroke-width="1.70962" stroke-miterlimit="10"/>
<path d="M1064.22 763.365C1019.7 707.875 985.214 704.436 929.724 748.957C874.235 793.477 829.605 921.174 874.132 976.788C918.658 1032.4 966.593 1065.41 1022.14 1020.82C1077.63 976.302 1108.74 818.854 1064.22 763.365Z" stroke="#2B6ED4" stroke-width="1.71143" stroke-miterlimit="10"/>
<path d="M1060.19 770.514C1015.67 715.025 981.137 712.023 925.589 756.609C870.099 801.129 825.777 928.75 870.363 984.299C914.948 1039.85 963.185 1072.65 1018.67 1028.13C1074.29 983.608 1104.77 826.063 1060.19 770.514Z" stroke="#2B6ED4" stroke-width="1.71415" stroke-miterlimit="10"/>
<path d="M1054.36 778.437C1009.84 722.947 975.275 720.507 919.72 764.968C864.231 809.489 820.341 937.028 864.862 992.518C909.382 1048.01 957.986 1080.67 1013.48 1036.15C1069.09 991.627 1098.88 833.926 1054.36 778.437Z" stroke="#2B6ED4" stroke-width="1.71597" stroke-miterlimit="10"/>
<path d="M1048.05 787.428C1003.53 731.939 968.917 729.936 913.362 774.397C857.873 818.918 814.35 946.316 858.876 1001.93C903.402 1057.54 952.238 1089.83 1007.85 1045.3C1063.34 1000.78 1092.57 843.042 1048.05 787.428Z" stroke="#2B6ED4" stroke-width="1.71869" stroke-miterlimit="10"/>
<path d="M1041.67 796.482C997.152 740.992 962.499 739.427 906.885 783.953C851.396 828.473 808.245 955.855 852.766 1011.34C897.286 1066.83 946.489 1098.98 1002.04 1054.52C1057.66 1009.99 1086.26 852.031 1041.67 796.482Z" stroke="#2B6ED4" stroke-width="1.7205" stroke-miterlimit="10"/>
<path d="M1035.35 805.471C990.833 749.982 956.078 748.918 900.523 793.38C845.034 837.901 802.25 965.142 846.712 1020.7C891.173 1076.25 940.737 1108.13 996.291 1063.67C1051.9 1019.14 1079.88 861.085 1035.35 805.471Z" stroke="#2B6ED4" stroke-width="1.72231" stroke-miterlimit="10"/>
<path d="M1028.98 814.529C984.456 759.039 949.658 758.413 894.169 802.934C838.679 847.454 796.203 974.62 840.789 1030.17C885.309 1085.66 935.116 1117.4 990.73 1072.87C1046.22 1028.35 1073.56 870.078 1028.98 814.529Z" stroke="#2B6ED4" stroke-width="1.72503" stroke-miterlimit="10"/>
<path d="M1022.66 823.524C978.14 768.034 943.299 767.845 887.751 812.431C832.261 856.952 790.217 984.036 834.737 1039.52C879.258 1095.01 929.426 1126.49 984.916 1081.97C1040.41 1037.45 1067.19 879.137 1022.66 823.524Z" stroke="#2B6ED4" stroke-width="1.72684" stroke-miterlimit="10"/>
<path d="M1016.35 832.634C971.828 777.144 936.885 777.458 881.395 821.978C825.906 866.499 784.228 993.442 828.69 1049C873.151 1104.55 923.681 1135.76 979.17 1091.24C1034.78 1046.72 1060.87 888.123 1016.35 832.634Z" stroke="#2B6ED4" stroke-width="1.72956" stroke-miterlimit="10"/>
<path d="M1010.03 841.622C965.508 786.132 930.522 786.883 875.033 831.404C819.543 875.924 778.173 1002.79 822.759 1058.34C867.344 1113.89 918.052 1144.91 973.601 1100.32C1029.03 1055.87 1054.55 897.111 1010.03 841.622Z" stroke="#2B6ED4" stroke-width="1.73138" stroke-miterlimit="10"/>
<path d="M1003.72 850.614C959.195 795.125 924.232 796.372 868.618 840.898C813.129 885.419 772.191 1012.2 816.652 1067.76C861.173 1123.25 912.247 1154.13 967.796 1109.54C1023.35 1065.08 1048.18 906.169 1003.72 850.614Z" stroke="#2B6ED4" stroke-width="1.7341" stroke-miterlimit="10"/>
<path d="M997.34 859.67C952.82 804.181 917.754 805.93 862.2 850.392C806.645 894.853 766.08 1021.62 810.6 1077.11C855.121 1132.6 906.492 1163.15 962.046 1118.69C1017.66 1074.17 1041.86 915.16 997.34 859.67Z" stroke="#2B6ED4" stroke-width="1.73591" stroke-miterlimit="10"/>
<path d="M991.022 868.655C946.502 813.166 911.393 815.352 855.78 859.878C800.29 904.399 760.027 1030.97 804.612 1086.52C849.198 1142.07 900.806 1172.36 956.42 1127.83C1011.91 1083.31 1035.48 924.209 991.022 868.655Z" stroke="#2B6ED4" stroke-width="1.73772" stroke-miterlimit="10"/>
<path d="M984.627 877.737C940.106 822.247 904.955 824.871 849.341 869.398C793.852 913.918 754.02 1040.41 798.481 1095.96C842.943 1151.51 894.977 1181.6 950.591 1137.08C1006.2 1092.55 1029.21 933.286 984.627 877.737Z" stroke="#2B6ED4" stroke-width="1.74044" stroke-miterlimit="10"/>
<path d="M978.316 886.724C933.795 831.235 898.542 834.361 843.053 878.881C787.563 923.402 748.039 1049.81 792.56 1105.3C837.08 1160.79 889.417 1190.68 944.971 1146.22C1000.46 1101.7 1022.84 942.338 978.316 886.724Z" stroke="#2B6ED4" stroke-width="1.74225" stroke-miterlimit="10"/>
<path d="M971.94 895.777C927.42 840.287 892.124 843.851 836.575 888.436C781.086 932.957 741.929 1059.23 786.455 1114.84C830.981 1170.46 883.614 1200.02 939.163 1155.43C994.777 1110.91 1016.53 951.326 971.94 895.777Z" stroke="#2B6ED4" stroke-width="1.74497" stroke-miterlimit="10"/>
<path d="M965.624 904.765C921.103 849.275 885.765 853.276 830.216 897.862C774.726 942.382 736.001 1068.57 780.462 1124.13C824.924 1179.68 877.924 1209.1 933.473 1164.52C989.021 1119.93 1010.15 960.378 965.624 904.765Z" stroke="#2B6ED4" stroke-width="1.74679" stroke-miterlimit="10"/>
<path d="M959.311 913.88C914.79 858.39 879.35 862.893 823.86 907.414C768.371 951.934 729.953 1078.05 774.539 1133.6C819.124 1189.15 872.362 1218.31 927.851 1173.79C983.34 1129.27 1003.83 969.369 959.311 913.88Z" stroke="#2B6ED4" stroke-width="1.7486" stroke-miterlimit="10"/>
<path d="M952.991 922.876C908.47 867.386 873.052 872.386 817.438 916.912C761.949 961.432 723.898 1087.41 768.424 1143.02C812.95 1198.63 866.549 1227.53 922.038 1183.01C977.528 1138.49 997.452 978.43 952.991 922.876Z" stroke="#2B6ED4" stroke-width="1.75132" stroke-miterlimit="10"/>
<path d="M946.615 931.932C902.094 876.443 866.633 881.879 811.02 926.406C755.53 970.926 717.852 1096.88 762.372 1152.37C806.893 1207.86 860.799 1236.68 916.348 1192.1C971.902 1147.64 991.136 987.422 946.615 931.932Z" stroke="#2B6ED4" stroke-width="1.75313" stroke-miterlimit="10"/>
<path d="M940.299 940.917C895.778 885.427 860.215 891.366 804.661 935.828C749.171 980.348 711.86 1106.16 756.386 1161.78C800.912 1217.39 855.11 1245.77 910.664 1201.3C966.218 1156.84 984.76 996.471 940.299 940.917Z" stroke="#2B6ED4" stroke-width="1.75585" stroke-miterlimit="10"/>
<path d="M933.923 949.97C889.403 894.481 853.797 900.857 798.183 945.383C742.694 989.904 705.749 1115.58 750.276 1171.19C794.802 1226.81 849.301 1254.98 904.855 1210.52C960.41 1166.06 978.444 1005.46 933.923 949.97Z" stroke="#2B6ED4" stroke-width="1.75766" stroke-miterlimit="10"/>
<path d="M927.605 958.966C883.085 903.477 847.436 910.29 791.888 954.876C736.398 999.396 699.826 1125.05 744.347 1180.54C788.867 1236.03 843.675 1264.13 899.288 1219.61C954.778 1175.08 972.132 1014.58 927.605 958.966Z" stroke="#2B6ED4" stroke-width="1.76038" stroke-miterlimit="10"/>
<path d="M921.222 968.021C876.701 912.531 840.951 919.847 785.462 964.367C729.972 1008.89 693.767 1134.41 738.293 1190.02C782.819 1245.63 837.982 1273.34 893.537 1228.88C949.021 1184.24 965.808 1023.57 921.222 968.021Z" stroke="#2B6ED4" stroke-width="1.7622" stroke-miterlimit="10"/>
<path d="M914.91 977.01C870.389 921.521 834.596 929.274 779.047 973.859C723.498 1018.44 687.66 1143.82 732.246 1199.37C776.831 1254.92 832.237 1282.49 887.726 1237.97C943.216 1193.45 959.495 1032.56 914.91 977.01Z" stroke="#2B6ED4" stroke-width="1.76401" stroke-miterlimit="10"/>
<path d="M921.848 980.492C877.328 925.003 841.492 933.193 785.943 977.779C730.454 1022.3 694.988 1147.66 739.449 1203.21C783.91 1258.77 839.742 1286.14 895.291 1241.55C950.84 1196.97 966.434 1036.04 921.848 980.492Z" stroke="#2B6ED4" stroke-width="1.76673" stroke-miterlimit="10"/>
<path d="M932.444 982.444C887.924 926.955 852.051 935.706 796.496 980.168C741.007 1024.69 705.908 1149.91 750.434 1205.52C794.96 1261.13 851.03 1288.24 906.578 1243.66C962.133 1199.2 977.03 1037.99 932.444 982.444Z" stroke="#2B6ED4" stroke-width="1.76854" stroke-miterlimit="10"/>
<path d="M943.046 984.399C898.525 928.91 862.61 938.099 806.996 982.625C751.507 1027.15 716.716 1152.29 761.301 1207.84C805.887 1263.39 862.258 1290.3 917.747 1245.77C973.237 1201.25 987.572 1040.01 943.046 984.399Z" stroke="#2B6ED4" stroke-width="1.77126" stroke-miterlimit="10"/>
<path d="M953.704 986.418C909.184 930.929 873.166 940.62 817.612 985.081C762.122 1029.6 727.763 1154.66 772.224 1210.22C816.686 1265.77 873.418 1292.42 929.032 1247.89C984.586 1203.43 998.166 1041.97 953.704 986.418Z" stroke="#2B6ED4" stroke-width="1.77307" stroke-miterlimit="10"/>
<path d="M964.306 988.366C919.785 932.877 883.725 943.005 828.17 987.467C772.681 1031.99 738.629 1156.97 783.215 1212.52C827.8 1268.07 884.711 1294.52 940.324 1249.99C995.938 1205.47 1008.77 1043.92 964.306 988.366Z" stroke="#2B6ED4" stroke-width="1.77489" stroke-miterlimit="10"/>
<path d="M974.849 990.383C930.329 934.894 894.225 945.46 838.677 990.045C783.187 1034.57 749.567 1159.47 794.088 1214.96C838.609 1270.45 895.945 1296.69 951.5 1252.23C1006.98 1207.59 1019.37 1045.87 974.849 990.383Z" stroke="#2B6ED4" stroke-width="1.77761" stroke-miterlimit="10"/>
<path d="M985.449 992.336C940.928 936.847 904.723 947.915 849.233 992.436C793.744 1036.96 760.491 1161.72 804.952 1217.27C849.414 1272.83 907.112 1298.81 962.725 1254.28C1018.21 1209.76 1029.97 1047.83 985.449 992.336Z" stroke="#2B6ED4" stroke-width="1.77942" stroke-miterlimit="10"/>
<path d="M996.044 994.293C951.523 938.804 915.275 950.309 859.786 994.83C804.297 1039.35 771.351 1164.04 815.937 1219.59C860.522 1275.14 918.398 1300.92 973.947 1256.33C1029.5 1211.75 1040.56 1049.78 996.044 994.293Z" stroke="#2B6ED4" stroke-width="1.78214" stroke-miterlimit="10"/>
<path d="M1006.64 996.246C962.124 940.756 925.834 952.699 870.285 997.284C814.795 1041.8 782.282 1166.41 826.743 1221.97C871.204 1277.52 929.566 1303.03 985.056 1258.51C1040.55 1213.99 1051.11 1051.8 1006.64 996.246Z" stroke="#2B6ED4" stroke-width="1.78395" stroke-miterlimit="10"/>
<path d="M1017.24 998.196C972.723 942.707 936.395 955.211 880.841 999.673C825.351 1044.19 793.145 1168.72 837.666 1224.21C882.187 1279.7 940.791 1305.08 996.281 1260.56C1051.77 1216.04 1061.7 1053.75 1017.24 998.196Z" stroke="#2B6ED4" stroke-width="1.78667" stroke-miterlimit="10"/>
<path d="M1027.84 1000.16C983.321 944.666 946.951 957.607 891.397 1002.07C835.907 1046.59 804.068 1170.98 848.654 1226.53C893.239 1282.08 952.081 1307.2 1007.63 1262.61C1063.18 1218.02 1072.3 1055.71 1027.84 1000.16Z" stroke="#2B6ED4" stroke-width="1.78849" stroke-miterlimit="10"/>
<path d="M1038.38 1002.16C993.862 946.673 957.449 960.052 901.836 1004.58C846.346 1049.1 814.939 1173.41 859.4 1228.96C903.861 1284.52 963.189 1309.36 1018.68 1264.84C1074.29 1220.32 1082.9 1057.65 1038.38 1002.16Z" stroke="#2B6ED4" stroke-width="1.7903" stroke-miterlimit="10"/>
<path d="M1048.98 1004.12C1004.46 948.633 967.942 962.514 912.388 1006.98C856.898 1051.5 825.799 1175.73 870.319 1231.22C914.84 1286.71 974.345 1311.36 1029.9 1266.9C1085.51 1222.37 1093.5 1059.61 1048.98 1004.12Z" stroke="#2B6ED4" stroke-width="1.79302" stroke-miterlimit="10"/>
<path d="M1059.58 1006.07C1015.06 950.582 978.506 964.9 923.017 1009.42C867.527 1053.94 836.794 1178.03 881.32 1233.65C925.847 1289.26 985.649 1313.59 1041.26 1269.06C1096.88 1224.54 1104.11 1061.56 1059.58 1006.07Z" stroke="#2B6ED4" stroke-width="1.79483" stroke-miterlimit="10"/>
<path d="M1070.18 1008.03C1025.66 952.545 989.055 967.3 933.506 1011.89C878.017 1056.41 847.656 1180.48 892.177 1235.97C936.698 1291.46 996.866 1315.65 1052.42 1271.19C1107.97 1226.73 1114.64 1063.59 1070.18 1008.03Z" stroke="#2B6ED4" stroke-width="1.79755" stroke-miterlimit="10"/>
<path d="M1080.78 1009.99C1036.26 954.497 999.553 969.754 944.064 1014.27C888.575 1058.8 858.581 1182.73 903.167 1238.28C947.752 1293.83 1008.16 1317.76 1063.71 1273.3C1119.14 1228.72 1125.24 1065.54 1080.78 1009.99Z" stroke="#2B6ED4" stroke-width="1.79936" stroke-miterlimit="10"/>
<path d="M1091.38 1011.94C1046.86 956.452 1010.11 972.147 954.624 1016.67C899.135 1061.19 869.508 1184.98 914.034 1240.6C958.561 1296.21 1019.33 1319.87 1074.88 1275.29C1130.43 1230.7 1135.84 1067.5 1091.38 1011.94Z" stroke="#2B6ED4" stroke-width="1.80118" stroke-miterlimit="10"/>
<path d="M1101.92 1013.95C1057.4 958.46 1020.68 974.652 965.063 1019.18C909.574 1063.7 880.32 1187.48 924.84 1242.97C969.361 1298.45 1030.44 1322.04 1085.98 1277.46C1141.6 1232.93 1146.44 1069.44 1101.92 1013.95Z" stroke="#2B6ED4" stroke-width="1.8039" stroke-miterlimit="10"/>
<path d="M1112.52 1015.91C1068 960.421 1031.17 977.115 975.617 1021.58C920.127 1066.1 891.24 1189.73 935.767 1245.35C980.287 1300.84 1041.72 1324.16 1097.21 1279.64C1152.7 1235.12 1157.04 1071.4 1112.52 1015.91Z" stroke="#2B6ED4" stroke-width="1.80571" stroke-miterlimit="10"/>
<path d="M1123.12 1017.86C1078.6 962.373 1041.73 979.504 986.176 1023.97C930.686 1068.49 902.107 1192.05 946.692 1247.59C991.213 1303.08 1052.95 1326.21 1108.5 1281.62C1164.05 1237.04 1167.64 1073.35 1123.12 1017.86Z" stroke="#2B6ED4" stroke-width="1.80843" stroke-miterlimit="10"/>
<path d="M1133.72 1019.82C1089.19 964.328 1052.28 981.897 996.671 1026.42C941.181 1070.94 913.034 1194.42 957.554 1249.91C1002.07 1305.4 1064.05 1328.27 1119.66 1283.74C1175.22 1239.28 1178.18 1075.37 1133.72 1019.82Z" stroke="#2B6ED4" stroke-width="1.81024" stroke-miterlimit="10"/>
<path d="M1144.31 1021.77C1099.79 966.28 1062.78 984.35 1007.29 1028.87C951.801 1073.39 924.021 1196.73 968.547 1252.34C1013.07 1307.83 1075.4 1330.43 1130.96 1285.97C1186.51 1241.51 1188.78 1077.32 1144.31 1021.77Z" stroke="#2B6ED4" stroke-width="1.81296" stroke-miterlimit="10"/>
<path d="M1154.91 1023.72C1110.39 968.231 1073.34 986.739 1017.79 1031.32C962.3 1075.85 934.827 1199.11 979.413 1254.66C1023.93 1310.15 1086.57 1332.55 1142.19 1288.02C1197.8 1243.49 1199.44 1079.33 1154.91 1023.72Z" stroke="#2B6ED4" stroke-width="1.81477" stroke-miterlimit="10"/>
<path d="M1165.46 1025.71C1120.94 970.221 1083.84 989.166 1028.29 1033.75C972.805 1078.27 945.764 1201.45 990.225 1257.01C1034.75 1312.5 1097.69 1334.7 1153.3 1290.17C1208.91 1245.64 1210.05 1081.26 1165.46 1025.71Z" stroke="#2B6ED4" stroke-width="1.81659" stroke-miterlimit="10"/>
<path d="M1176.06 1027.67C1131.54 972.179 1094.34 991.627 1038.85 1036.15C983.358 1080.67 956.684 1203.71 1001.21 1259.32C1045.74 1314.94 1109.03 1336.75 1164.52 1292.23C1220.01 1247.7 1220.64 1083.22 1176.06 1027.67Z" stroke="#2B6ED4" stroke-width="1.81931" stroke-miterlimit="10"/>
<path d="M1186.66 1029.62C1142.14 974.13 1104.96 994.074 1049.35 1038.6C993.857 1083.12 967.49 1206.09 1012.08 1261.63C1056.6 1317.12 1120.2 1338.86 1175.69 1294.34C1231.18 1249.82 1231.24 1085.17 1186.66 1029.62Z" stroke="#2B6ED4" stroke-width="1.82112" stroke-miterlimit="10"/>
<path d="M1197.26 1031.58C1152.74 976.086 1115.52 996.467 1059.9 1040.99C1004.29 1085.52 978.48 1208.4 1022.94 1263.95C1067.46 1319.44 1131.37 1340.98 1186.92 1296.39C1242.47 1251.8 1241.84 1087.12 1197.26 1031.58Z" stroke="#2B6ED4" stroke-width="1.82384" stroke-miterlimit="10"/>
<path d="M1207.86 1033.53C1163.34 978.037 1126.02 998.921 1070.46 1043.38C1014.97 1087.9 989.345 1210.71 1033.93 1266.26C1078.52 1321.81 1142.72 1343.02 1198.21 1298.5C1253.7 1253.98 1252.39 1089.14 1207.86 1033.53Z" stroke="#2B6ED4" stroke-width="1.82565" stroke-miterlimit="10"/>
<path d="M1218.46 1035.47C1173.94 979.983 1136.58 1001.3 1080.96 1045.83C1025.35 1090.36 1000.28 1213.08 1044.74 1268.63C1089.26 1324.12 1153.83 1345.19 1209.32 1300.67C1264.81 1256.15 1262.99 1091.09 1218.46 1035.47Z" stroke="#2B6ED4" stroke-width="1.82837" stroke-miterlimit="10"/>
<path d="M1229.06 1037.44C1184.54 981.948 1147.13 1003.71 1091.58 1048.29C1036.03 1092.88 1011.26 1215.4 1055.72 1270.95C1100.24 1326.44 1165.05 1347.25 1220.66 1302.72C1276.28 1258.2 1273.58 1093.05 1229.06 1037.44Z" stroke="#2B6ED4" stroke-width="1.83018" stroke-miterlimit="10"/>
<path d="M1239.59 1039.45C1195.07 983.96 1157.56 1006.22 1102.07 1050.74C1046.58 1095.26 1022.06 1217.77 1066.65 1273.32C1111.17 1328.81 1176.34 1349.35 1231.89 1304.89C1287.38 1260.37 1284.18 1095 1239.59 1039.45Z" stroke="#2B6ED4" stroke-width="1.832" stroke-miterlimit="10"/>
<path d="M1250.2 1041.4C1205.67 985.914 1168.12 1008.61 1112.57 1053.2C1057.08 1097.72 1032.99 1220.15 1077.46 1275.7C1121.98 1331.19 1187.45 1351.53 1243 1307.07C1298.61 1262.42 1294.78 1096.95 1250.2 1041.4Z" stroke="#2B6ED4" stroke-width="1.83472" stroke-miterlimit="10"/>
<path d="M1257.15 1048C1212.63 992.508 1175.03 1015.64 1119.48 1060.23C1063.99 1104.75 1040.21 1227.1 1084.73 1282.59C1129.25 1338.08 1195.02 1358.22 1250.64 1313.7C1306.25 1269.17 1301.67 1103.49 1257.15 1048Z" stroke="#2B6ED4" stroke-width="1.83653" stroke-miterlimit="10"/>
<path d="M1262.11 1057.54C1217.59 1002.05 1179.96 1025.75 1124.4 1070.21C1068.85 1114.67 1045.5 1236.94 1090.03 1292.56C1134.55 1348.04 1200.62 1367.99 1256.17 1323.4C1311.72 1278.82 1306.63 1113.03 1262.11 1057.54Z" stroke="#2B6ED4" stroke-width="1.83925" stroke-miterlimit="10"/>
<path d="M1266.74 1067.98C1222.22 1012.49 1184.54 1036.62 1128.93 1081.15C1073.44 1125.67 1050.46 1247.8 1094.92 1303.35C1139.44 1358.84 1205.88 1378.52 1261.37 1334C1317.04 1289.41 1311.33 1123.53 1266.74 1067.98Z" stroke="#2B6ED4" stroke-width="1.84106" stroke-miterlimit="10"/>
<path d="M1271.28 1079.03C1226.76 1023.54 1189.04 1048.11 1133.43 1092.64C1077.94 1137.16 1055.26 1259.21 1099.78 1314.7C1144.3 1370.19 1211.04 1389.67 1266.59 1345.09C1322.14 1300.5 1315.8 1134.52 1271.28 1079.03Z" stroke="#2B6ED4" stroke-width="1.84287" stroke-miterlimit="10"/>
<path d="M1275.7 1090.34C1231.18 1034.85 1193.36 1059.93 1137.8 1104.39C1082.25 1148.85 1060.01 1270.82 1104.53 1326.43C1149.05 1381.92 1216.09 1401.2 1271.64 1356.62C1327.19 1312.03 1320.16 1145.9 1275.7 1090.34Z" stroke="#2B6ED4" stroke-width="1.84559" stroke-miterlimit="10"/>
<path d="M1280.19 1101.71C1235.67 1046.22 1197.8 1071.73 1142.26 1116.32C1086.71 1160.9 1064.83 1282.73 1109.35 1338.22C1153.87 1393.71 1221.21 1412.67 1276.76 1368.21C1332.31 1323.62 1324.65 1157.26 1280.19 1101.71Z" stroke="#2B6ED4" stroke-width="1.84741" stroke-miterlimit="10"/>
<path d="M1284.73 1112.9C1240.21 1057.41 1202.3 1083.35 1146.75 1127.94C1091.26 1172.46 1069.7 1294.22 1114.22 1349.71C1158.74 1405.19 1226.38 1423.95 1281.99 1379.42C1337.54 1334.96 1329.31 1168.45 1284.73 1112.9Z" stroke="#2B6ED4" stroke-width="1.85013" stroke-miterlimit="10"/>
<path d="M1289.62 1123.56C1245.1 1068.07 1207.09 1094.52 1151.61 1139.04C1096.12 1183.56 1074.91 1305.18 1119.44 1360.79C1163.96 1416.28 1231.9 1434.84 1287.52 1390.31C1343.13 1345.78 1334.14 1179.05 1289.62 1123.56Z" stroke="#2B6ED4" stroke-width="1.85194" stroke-miterlimit="10"/>
<path d="M1294.85 1133.34C1250.33 1077.85 1212.28 1104.74 1156.73 1149.32C1101.24 1193.84 1080.41 1315.44 1124.93 1370.93C1169.45 1426.42 1237.75 1444.71 1293.31 1400.25C1348.92 1355.72 1339.37 1188.95 1294.85 1133.34Z" stroke="#2B6ED4" stroke-width="1.85466" stroke-miterlimit="10"/>
<path d="M1300.59 1142.16C1256.07 1086.68 1217.98 1114.12 1162.43 1158.59C1106.87 1203.05 1086.47 1324.56 1131 1380.18C1175.52 1435.67 1244.13 1453.76 1299.68 1409.17C1355.22 1364.59 1345.12 1197.78 1300.59 1142.16Z" stroke="#2B6ED4" stroke-width="1.85647" stroke-miterlimit="10"/>
<path d="M1306.83 1149.66C1262.31 1094.17 1224.18 1122.06 1168.63 1166.52C1113.14 1211.04 1092.98 1332.42 1137.57 1387.97C1182.09 1443.46 1251 1461.35 1306.54 1416.76C1362.09 1372.18 1351.42 1205.21 1306.83 1149.66Z" stroke="#2B6ED4" stroke-width="1.85828" stroke-miterlimit="10"/>
<path d="M1313.87 1155.51C1269.35 1100.02 1231.18 1128.35 1175.56 1172.87C1119.95 1217.4 1100.35 1338.69 1144.87 1394.18C1189.39 1449.67 1258.66 1467.3 1314.15 1422.78C1369.64 1378.26 1358.39 1211.13 1313.87 1155.51Z" stroke="#2B6ED4" stroke-width="1.861" stroke-miterlimit="10"/>
<path d="M1321.64 1159.52C1277.12 1104.03 1238.84 1132.85 1183.29 1177.32C1127.74 1221.78 1108.44 1343 1152.97 1398.61C1197.49 1454.1 1267.06 1471.52 1322.55 1427C1378.17 1382.48 1366.23 1215.07 1321.64 1159.52Z" stroke="#2B6ED4" stroke-width="1.86282" stroke-miterlimit="10"/>
<path d="M1330.37 1161.3C1285.85 1105.81 1247.53 1135.08 1192.04 1179.6C1136.55 1224.12 1117.5 1345.2 1162.09 1400.75C1206.61 1456.24 1276.48 1473.46 1332.03 1428.88C1387.58 1384.29 1374.95 1216.85 1330.37 1161.3Z" stroke="#2B6ED4" stroke-width="1.86554" stroke-miterlimit="10"/>
<path d="M1340.3 1160.86C1295.78 1105.37 1257.42 1135.07 1201.87 1179.66C1146.32 1224.24 1127.77 1345.18 1172.23 1400.73C1216.75 1456.22 1286.92 1473.12 1342.47 1428.66C1398.03 1384.2 1384.89 1216.41 1340.3 1160.86Z" stroke="#2B6ED4" stroke-width="1.86735" stroke-miterlimit="10"/>
<path d="M1351.14 1159.94C1306.62 1104.45 1268.16 1134.65 1212.67 1179.17C1157.18 1223.69 1138.87 1344.62 1183.46 1400.17C1228.04 1455.72 1298.45 1472.36 1354 1427.9C1409.56 1383.44 1395.66 1215.43 1351.14 1159.94Z" stroke="#2B6ED4" stroke-width="1.86916" stroke-miterlimit="10"/>
<path d="M1361.92 1158.96C1317.4 1103.47 1278.9 1134.11 1223.41 1178.63C1167.92 1223.15 1149.97 1343.93 1194.56 1399.48C1239.08 1454.97 1309.85 1471.47 1365.47 1426.95C1420.96 1382.43 1406.51 1214.51 1361.92 1158.96Z" stroke="#2B6ED4" stroke-width="1.87188" stroke-miterlimit="10"/>
<path d="M1372.76 1157.92C1328.24 1102.43 1289.75 1133.56 1234.14 1178.09C1178.65 1222.61 1161.14 1343.31 1205.6 1398.87C1250.12 1454.36 1321.26 1470.59 1376.81 1426.13C1432.37 1381.67 1417.28 1213.53 1372.76 1157.92Z" stroke="#2B6ED4" stroke-width="1.87369" stroke-miterlimit="10"/>
<path d="M1383.61 1156.99C1339.08 1101.5 1300.5 1133.14 1244.95 1177.6C1189.46 1222.12 1172.25 1342.75 1216.84 1398.3C1261.36 1453.79 1332.8 1469.82 1388.29 1425.3C1443.77 1380.78 1428.07 1212.55 1383.61 1156.99Z" stroke="#2B6ED4" stroke-width="1.87641" stroke-miterlimit="10"/>
<path d="M1394.38 1156.03C1349.86 1100.54 1311.23 1132.61 1255.67 1177.08C1200.19 1221.6 1183.41 1342.14 1227.88 1397.7C1272.4 1453.19 1344.14 1469.02 1399.68 1424.44C1455.24 1379.98 1438.9 1211.64 1394.38 1156.03Z" stroke="#2B6ED4" stroke-width="1.87823" stroke-miterlimit="10"/>
<path d="M1405.16 1155.04C1360.64 1099.55 1321.97 1132.07 1266.35 1176.59C1210.86 1221.11 1194.4 1341.58 1238.92 1397.07C1283.44 1452.56 1355.48 1468.2 1411.03 1423.61C1466.58 1379.03 1449.68 1210.66 1405.16 1155.04Z" stroke="#2B6ED4" stroke-width="1.88095" stroke-miterlimit="10"/>
<path d="M1416.01 1154.12C1371.49 1098.63 1332.71 1131.64 1277.23 1176.16C1221.74 1220.69 1205.64 1341.01 1250.22 1396.56C1294.75 1452.05 1367.15 1467.42 1422.64 1422.9C1478.13 1378.38 1460.47 1209.67 1416.01 1154.12Z" stroke="#2B6ED4" stroke-width="1.88276" stroke-miterlimit="10"/>
<path d="M1426.79 1153.14C1382.26 1097.65 1343.45 1131.1 1287.96 1175.62C1232.47 1220.14 1216.81 1340.39 1261.27 1395.95C1305.79 1451.43 1378.43 1466.55 1434.04 1422.02C1489.53 1377.5 1471.31 1208.75 1426.79 1153.14Z" stroke="#2B6ED4" stroke-width="1.88457" stroke-miterlimit="10"/>
<path d="M1437.64 1152.23C1393.11 1096.74 1354.26 1130.63 1298.71 1175.21C1243.22 1219.73 1227.86 1339.9 1272.38 1395.39C1316.9 1450.88 1389.84 1465.8 1445.46 1421.27C1501.07 1376.74 1482.16 1207.72 1437.64 1152.23Z" stroke="#2B6ED4" stroke-width="1.88729" stroke-miterlimit="10"/>
<path d="M1448.41 1151.25C1403.89 1095.76 1364.93 1130.15 1309.44 1174.67C1253.95 1219.19 1238.96 1339.22 1283.48 1394.84C1328 1450.33 1401.31 1464.97 1456.86 1420.51C1512.42 1376.05 1492.93 1206.74 1448.41 1151.25Z" stroke="#2B6ED4" stroke-width="1.8891" stroke-miterlimit="10"/>
<path d="M1459.19 1150.27C1414.67 1094.78 1375.73 1129.67 1320.18 1174.13C1264.62 1218.59 1250.13 1338.6 1294.59 1394.15C1339.11 1449.64 1412.71 1464.09 1468.33 1419.56C1523.82 1375.04 1503.77 1205.82 1459.19 1150.27Z" stroke="#2B6ED4" stroke-width="1.89182" stroke-miterlimit="10"/>
<path d="M1470.03 1149.36C1425.51 1093.87 1386.53 1129.19 1330.92 1173.72C1275.3 1218.24 1261.18 1338.11 1305.7 1393.6C1350.22 1449.09 1424.13 1463.34 1479.68 1418.75C1535.22 1374.17 1514.55 1204.84 1470.03 1149.36Z" stroke="#2B6ED4" stroke-width="1.89364" stroke-miterlimit="10"/>
<path d="M1480.83 1148.36C1436.31 1092.87 1397.23 1128.69 1341.67 1173.16C1286.12 1217.62 1272.3 1337.41 1316.83 1393.02C1361.35 1448.64 1435.62 1462.49 1491.11 1417.97C1546.72 1373.45 1525.35 1203.85 1480.83 1148.36Z" stroke="#2B6ED4" stroke-width="1.89545" stroke-miterlimit="10"/>
<path d="M1491.61 1147.38C1447.09 1091.89 1407.97 1128.15 1352.35 1172.68C1296.86 1217.2 1283.35 1336.92 1327.87 1392.4C1372.39 1447.89 1446.96 1461.68 1502.45 1417.16C1557.94 1372.63 1536.2 1202.93 1491.61 1147.38Z" stroke="#2B6ED4" stroke-width="1.89817" stroke-miterlimit="10"/>
<path d="M1502.51 1146.39C1457.99 1090.9 1418.82 1127.61 1363.27 1172.19C1307.79 1216.71 1294.64 1336.29 1339.1 1391.84C1383.62 1447.33 1458.5 1460.91 1514.04 1416.33C1569.53 1371.81 1546.97 1201.95 1502.51 1146.39Z" stroke="#2B6ED4" stroke-width="1.89998" stroke-miterlimit="10"/>
<path d="M1513.29 1145.41C1468.77 1089.93 1429.5 1127.13 1374.01 1171.65C1318.52 1216.17 1305.74 1335.61 1350.27 1391.22C1394.79 1446.71 1470.02 1460.03 1525.51 1415.51C1581 1370.98 1557.75 1200.97 1513.29 1145.41Z" stroke="#2B6ED4" stroke-width="1.9027" stroke-miterlimit="10"/>
<path d="M1524.07 1144.44C1479.55 1088.95 1440.24 1126.59 1384.69 1171.18C1329.14 1215.76 1316.79 1335.12 1361.31 1390.61C1405.83 1446.09 1481.31 1459.15 1536.86 1414.69C1592.41 1370.23 1568.6 1200.05 1524.07 1144.44Z" stroke="#2B6ED4" stroke-width="1.90451" stroke-miterlimit="10"/>
<path d="M1534.92 1143.52C1490.4 1088.03 1451.04 1126.11 1395.49 1170.69C1340 1215.22 1327.97 1334.49 1372.49 1390.11C1417.01 1445.6 1492.79 1458.45 1548.4 1413.93C1604.01 1369.4 1579.38 1199.07 1534.92 1143.52Z" stroke="#2B6ED4" stroke-width="1.90723" stroke-miterlimit="10"/>
<path d="M1545.7 1142.54C1501.18 1087.05 1461.79 1125.69 1406.23 1170.15C1350.68 1214.62 1339.01 1333.88 1383.6 1389.42C1428.12 1444.91 1504.25 1457.51 1559.81 1413.05C1615.3 1368.52 1590.23 1198.15 1545.7 1142.54Z" stroke="#2B6ED4" stroke-width="1.90905" stroke-miterlimit="10"/>
<path d="M1556.48 1141.56C1511.96 1086.07 1472.52 1125.15 1416.91 1169.68C1361.29 1214.2 1350.12 1333.32 1394.58 1388.87C1439.1 1444.36 1515.54 1456.75 1571.09 1412.29C1626.77 1367.7 1601 1197.17 1556.48 1141.56Z" stroke="#2B6ED4" stroke-width="1.91086" stroke-miterlimit="10"/>
<path d="M1567.32 1140.64C1522.8 1085.15 1483.32 1124.67 1427.71 1169.19C1372.22 1213.71 1361.29 1332.69 1405.81 1388.31C1450.33 1443.8 1527.07 1455.99 1582.62 1411.4C1638.17 1366.82 1611.84 1196.13 1567.32 1140.64Z" stroke="#2B6ED4" stroke-width="1.91358" stroke-miterlimit="10"/>
<path d="M1578.1 1139.67C1533.58 1084.19 1494 1124.2 1438.44 1168.66C1382.89 1213.13 1372.33 1332.09 1416.91 1387.64C1461.5 1443.19 1538.48 1455.12 1594.03 1410.53C1649.57 1365.95 1622.68 1195.22 1578.1 1139.67Z" stroke="#2B6ED4" stroke-width="1.91539" stroke-miterlimit="10"/>
<path d="M1588.87 1138.7C1544.35 1083.21 1504.73 1123.66 1449.18 1168.25C1393.69 1212.77 1383.5 1331.59 1427.96 1387.14C1472.42 1442.7 1549.88 1454.36 1605.37 1409.84C1661.05 1365.25 1633.46 1194.25 1588.87 1138.7Z" stroke="#2B6ED4" stroke-width="1.91811" stroke-miterlimit="10"/>
<path d="M1599.72 1137.77C1555.2 1082.28 1515.53 1123.17 1459.98 1167.76C1404.44 1212.35 1394.61 1331.03 1439.19 1386.58C1483.72 1442.06 1561.42 1453.59 1616.97 1409.01C1672.46 1364.49 1644.24 1193.26 1599.72 1137.77Z" stroke="#2B6ED4" stroke-width="1.91992" stroke-miterlimit="10"/>
<path d="M1610.5 1136.79C1565.98 1081.3 1526.21 1122.69 1470.72 1167.22C1415.23 1211.74 1405.72 1330.34 1450.3 1385.89C1494.82 1441.38 1572.76 1452.65 1628.38 1408.12C1683.87 1363.6 1655.09 1192.34 1610.5 1136.79Z" stroke="#2B6ED4" stroke-width="1.92264" stroke-miterlimit="10"/>
<path d="M1621.28 1135.82C1576.76 1080.33 1536.95 1122.16 1481.4 1166.74C1425.85 1211.33 1416.82 1329.79 1461.28 1385.34C1505.8 1440.83 1584.11 1451.84 1639.66 1407.37C1695.22 1362.91 1665.86 1191.37 1621.28 1135.82Z" stroke="#2B6ED4" stroke-width="1.92446" stroke-miterlimit="10"/>
<path d="M1632.18 1134.83C1587.66 1079.34 1547.87 1121.67 1492.26 1166.19C1436.77 1210.72 1427.99 1329.16 1472.58 1384.71C1517.1 1440.2 1595.7 1451 1651.32 1406.48C1706.93 1361.95 1676.64 1190.38 1632.18 1134.83Z" stroke="#2B6ED4" stroke-width="1.92627" stroke-miterlimit="10"/>
<path d="M1642.96 1133.86C1598.44 1078.37 1558.55 1121.2 1503 1165.66C1447.44 1210.12 1439.09 1328.49 1483.62 1384.1C1528.14 1439.59 1607.05 1450.2 1662.66 1405.67C1718.28 1361.14 1687.49 1189.47 1642.96 1133.86Z" stroke="#2B6ED4" stroke-width="1.92899" stroke-miterlimit="10"/>
<path d="M1653.81 1132.93C1609.29 1077.44 1569.35 1120.71 1513.74 1165.23C1458.25 1209.75 1450.21 1328.05 1494.73 1383.53C1539.25 1439.02 1618.52 1449.36 1674.01 1404.84C1729.5 1360.32 1698.27 1188.48 1653.81 1132.93Z" stroke="#2B6ED4" stroke-width="1.9308" stroke-miterlimit="10"/>
<path d="M1664.59 1131.96C1620.07 1076.47 1580.03 1120.24 1524.48 1164.7C1468.93 1209.16 1461.32 1327.37 1505.9 1382.92C1550.42 1438.41 1630 1448.55 1685.48 1404.03C1740.97 1359.51 1709.05 1187.51 1664.59 1131.96Z" stroke="#2B6ED4" stroke-width="1.93352" stroke-miterlimit="10"/>
<path d="M1675.37 1130.98C1630.85 1075.49 1590.77 1119.69 1535.28 1164.22C1479.79 1208.74 1472.55 1326.8 1517.01 1382.36C1561.53 1437.85 1641.4 1447.79 1696.95 1403.2C1752.5 1358.62 1719.89 1186.59 1675.37 1130.98Z" stroke="#2B6ED4" stroke-width="1.93533" stroke-miterlimit="10"/>
<path d="M1686.21 1130.06C1641.69 1074.57 1601.57 1119.22 1546.02 1163.8C1490.47 1208.39 1483.6 1326.32 1528.12 1381.81C1572.64 1437.3 1652.87 1446.97 1708.36 1402.45C1763.85 1357.93 1730.73 1185.55 1686.21 1130.06Z" stroke="#2B6ED4" stroke-width="1.93715" stroke-miterlimit="10"/>
<path d="M1696.99 1129.08C1652.47 1073.59 1612.25 1118.74 1556.76 1163.26C1501.27 1207.78 1494.7 1325.63 1539.23 1381.25C1583.75 1436.74 1664.28 1446.21 1719.77 1401.69C1775.26 1357.17 1741.51 1184.57 1696.99 1129.08Z" stroke="#2B6ED4" stroke-width="1.93987" stroke-miterlimit="10"/>
<path d="M1707.77 1128.1C1663.25 1072.61 1622.99 1118.19 1567.5 1162.71C1512.01 1207.23 1505.81 1325.07 1550.34 1380.56C1594.86 1436.05 1675.63 1445.26 1731.24 1400.74C1786.86 1356.21 1752.36 1183.65 1707.77 1128.1Z" stroke="#2B6ED4" stroke-width="1.94168" stroke-miterlimit="10"/>
<path d="M1561.45 1380C1605.97 1435.49 1687.1 1444.44 1742.66 1399.98C1798.21 1355.52 1763.14 1182.67 1718.62 1127.18C1674.1 1071.69 1633.86 1117.77 1578.24 1162.3C1522.63 1206.82 1516.99 1324.45 1561.45 1380Z" stroke="#2B6ED4" stroke-width="1.9444" stroke-miterlimit="10"/>
</svg>
