<svg width="2762" height="2729" viewBox="0 0 2762 2729" fill="none" xmlns="http://www.w3.org/2000/svg">
<rect x="1.51397" y="-2.16568" width="1471.56" height="1471.56" transform="matrix(0.992963 0.118429 -0.452257 -0.891888 1293.67 2548.85)" stroke="white" stroke-width="5.6"/>
<rect x="-4.04662" y="-2.82889" width="2857" height="1464.22" transform="matrix(-0.452257 -0.891888 -0.992963 -0.118429 2752.71 2721.29)" stroke="white" stroke-width="5.6"/>
<rect x="1.51397" y="-2.16568" width="1471.56" height="1471.56" transform="matrix(0.992963 0.118429 -0.452257 -0.891888 1261.04 2484.5)" stroke="white" stroke-width="5.6"/>
<rect x="-4.04662" y="-2.82889" width="2857" height="1387.18" transform="matrix(-0.452257 -0.891888 -0.992963 -0.118429 2676.22 2712.16)" stroke="white" stroke-width="5.6"/>
<rect x="1.51397" y="-2.16568" width="1471.56" height="1471.56" transform="matrix(0.992963 0.118429 -0.452257 -0.891888 1226.75 2416.88)" stroke="white" stroke-width="5.6"/>
<rect x="-4.04662" y="-2.82889" width="2857" height="1306.48" transform="matrix(-0.452257 -0.891888 -0.992963 -0.118429 2596.08 2702.61)" stroke="white" stroke-width="5.6"/>
<rect x="1.51397" y="-2.16568" width="1471.56" height="1471.56" transform="matrix(0.992963 0.118429 -0.452257 -0.891888 1192.46 2349.26)" stroke="white" stroke-width="5.6"/>
<rect x="-4.04662" y="-2.82889" width="2857" height="1227" transform="matrix(-0.452257 -0.891888 -0.992963 -0.118429 2517.15 2693.19)" stroke="white" stroke-width="5.6"/>
<rect x="1.51397" y="-2.16568" width="1471.56" height="1471.56" transform="matrix(0.992963 0.118429 -0.452257 -0.891888 1158.17 2281.65)" stroke="white" stroke-width="5.6"/>
<rect x="-4.04662" y="-2.82889" width="2857" height="1146.29" transform="matrix(-0.452257 -0.891888 -0.992963 -0.118429 2437.02 2683.64)" stroke="white" stroke-width="5.6"/>
<rect x="1.51397" y="-2.16568" width="1471.56" height="1471.56" transform="matrix(0.992963 0.118429 -0.452257 -0.891888 1123.33 2212.94)" stroke="white" stroke-width="5.6"/>
<rect x="-4.04662" y="-2.82889" width="2857" height="1064.36" transform="matrix(-0.452257 -0.891888 -0.992963 -0.118429 2355.66 2673.93)" stroke="white" stroke-width="5.6"/>
<rect x="1.51397" y="-2.16568" width="1471.56" height="1471.56" transform="matrix(0.992963 0.118429 -0.452257 -0.891888 1085.73 2138.78)" stroke="white" stroke-width="5.6"/>
<rect x="-4.04662" y="-2.82889" width="2857" height="976.319" transform="matrix(-0.452257 -0.891888 -0.992963 -0.118429 2268.24 2663.51)" stroke="white" stroke-width="5.6"/>
<rect x="1.51397" y="-2.16568" width="1471.56" height="1471.56" transform="matrix(0.992963 0.118429 -0.452257 -0.891888 1044.8 2058.07)" stroke="white" stroke-width="5.6"/>
<rect x="1.51397" y="-2.16568" width="1471.56" height="1471.56" transform="matrix(0.992963 0.118429 -0.452257 -0.891888 1001.11 1971.91)" stroke="white" stroke-width="5.6"/>
<rect x="-4.04662" y="-2.82889" width="2857" height="855.26" transform="matrix(-0.452257 -0.891888 -0.992963 -0.118429 2148.03 2649.17)" stroke="white" stroke-width="5.6"/>
<rect x="1.51397" y="-2.16568" width="1471.56" height="1471.56" transform="matrix(0.992963 0.118429 -0.452257 -0.891888 959.638 1890.12)" stroke="white" stroke-width="5.6"/>
<rect x="-4.04662" y="-2.82889" width="2857" height="729.311" transform="matrix(-0.452257 -0.891888 -0.992963 -0.118429 2022.97 2634.25)" stroke="white" stroke-width="5.6"/>
<rect x="1.51397" y="-2.16568" width="1471.56" height="1471.56" transform="matrix(0.992963 0.118429 -0.452257 -0.891888 927.009 1825.77)" stroke="white" stroke-width="5.6"/>
<rect x="-4.04662" y="-2.82889" width="2857" height="608.252" transform="matrix(-0.452257 -0.891888 -0.992963 -0.118429 1902.76 2619.92)" stroke="white" stroke-width="5.6"/>
<rect x="1.51397" y="-2.16568" width="1471.56" height="1471.56" transform="matrix(0.992963 0.118429 -0.452257 -0.891888 892.722 1758.15)" stroke="white" stroke-width="5.6"/>
<rect x="1.51397" y="-2.16568" width="1471.56" height="1471.56" transform="matrix(0.992963 0.118429 -0.452257 -0.891888 858.434 1690.53)" stroke="white" stroke-width="5.6"/>
<rect x="-4.04662" y="-2.82889" width="2857" height="484.748" transform="matrix(-0.452257 -0.891888 -0.992963 -0.118429 1780.13 2605.29)" stroke="white" stroke-width="5.6"/>
<rect x="1.51397" y="-2.16568" width="1471.56" height="1471.56" transform="matrix(0.992963 0.118429 -0.452257 -0.891888 824.146 1622.92)" stroke="white" stroke-width="5.6"/>
<rect x="-4.04662" y="-2.82889" width="2857" height="362.467" transform="matrix(-0.452257 -0.891888 -0.992963 -0.118429 1658.71 2590.81)" stroke="white" stroke-width="5.6"/>
<rect x="1.51397" y="-2.16568" width="1471.56" height="1471.56" transform="matrix(0.992963 0.118429 -0.452257 -0.891888 789.306 1554.21)" stroke="white" stroke-width="5.6"/>
<rect x="-4.04662" y="-2.82889" width="2857" height="281.761" transform="matrix(-0.452257 -0.891888 -0.992963 -0.118429 1578.57 2581.25)" stroke="white" stroke-width="5.6"/>
<rect x="1.51397" y="-2.16568" width="1471.56" height="1471.56" transform="matrix(0.992963 0.118429 -0.452257 -0.891888 751.7 1480.05)" stroke="white" stroke-width="5.6"/>
<rect x="-4.04662" y="-2.82889" width="2857" height="193.718" transform="matrix(-0.452257 -0.891888 -0.992963 -0.118429 1491.15 2570.82)" stroke="white" stroke-width="5.6"/>
<rect x="1.51397" y="-2.16568" width="1471.56" height="1471.56" transform="matrix(0.992963 0.118429 -0.452257 -0.891888 751.7 1480.05)" stroke="white" stroke-width="5.6"/>
<rect x="-4.04662" y="-2.82889" width="2857" height="201.055" transform="matrix(-0.452257 -0.891888 -0.992963 -0.118429 1491.15 2570.82)" stroke="white" stroke-width="5.6"/>
<rect x="1.51397" y="-2.16568" width="1471.56" height="1471.56" transform="matrix(0.992963 0.118429 -0.452257 -0.891888 710.776 1399.34)" stroke="white" stroke-width="5.6"/>
<rect x="-4.04662" y="-2.82889" width="2857" height="97.1163" transform="matrix(-0.452257 -0.891888 -0.992963 -0.118429 1395.23 2559.38)" stroke="white" stroke-width="5.6"/>
<rect x="1.51397" y="-2.16568" width="1471.56" height="1471.56" transform="matrix(0.992963 0.118429 -0.452257 -0.891888 667.087 1313.18)" stroke="white" stroke-width="5.6"/>
<rect x="-0.441808" y="-0.308857" width="2861.99" height="0.611406" transform="matrix(-0.452257 -0.891888 -0.992963 -0.118429 1300.97 2553.25)" stroke="white" stroke-width="0.611406"/>
</svg>
