<svg width="3452" height="3411" viewBox="0 0 3452 3411" fill="none" xmlns="http://www.w3.org/2000/svg">
<rect x="1.89247" y="-2.7071" width="1839.45" height="1839.45" transform="matrix(0.992963 0.118429 -0.452257 -0.891888 1617.08 3186.06)" stroke="#2B6ED4" stroke-width="7"/>
<rect x="-5.05827" y="-3.53611" width="3571.26" height="1830.28" transform="matrix(-0.452257 -0.891888 -0.992963 -0.118429 3440.89 3401.61)" stroke="#2B6ED4" stroke-width="7"/>
<rect x="1.89247" y="-2.7071" width="1839.45" height="1839.45" transform="matrix(0.992963 0.118429 -0.452257 -0.891888 1576.3 3105.62)" stroke="#2B6ED4" stroke-width="7"/>
<rect x="-5.05827" y="-3.53611" width="3571.26" height="1733.98" transform="matrix(-0.452257 -0.891888 -0.992963 -0.118429 3345.27 3390.2)" stroke="#2B6ED4" stroke-width="7"/>
<rect x="1.89247" y="-2.7071" width="1839.45" height="1839.45" transform="matrix(0.992963 0.118429 -0.452257 -0.891888 1533.44 3021.1)" stroke="#2B6ED4" stroke-width="7"/>
<rect x="-5.05827" y="-3.53611" width="3571.26" height="1633.1" transform="matrix(-0.452257 -0.891888 -0.992963 -0.118429 3245.1 3378.26)" stroke="#2B6ED4" stroke-width="7"/>
<rect x="1.89247" y="-2.7071" width="1839.45" height="1839.45" transform="matrix(0.992963 0.118429 -0.452257 -0.891888 1490.58 2936.58)" stroke="#2B6ED4" stroke-width="7"/>
<rect x="-5.05827" y="-3.53611" width="3571.26" height="1533.74" transform="matrix(-0.452257 -0.891888 -0.992963 -0.118429 3146.44 3366.49)" stroke="#2B6ED4" stroke-width="7"/>
<rect x="1.89247" y="-2.7071" width="1839.45" height="1839.45" transform="matrix(0.992963 0.118429 -0.452257 -0.891888 1447.72 2852.06)" stroke="#2B6ED4" stroke-width="7"/>
<rect x="-5.05827" y="-3.53611" width="3571.26" height="1432.86" transform="matrix(-0.452257 -0.891888 -0.992963 -0.118429 3046.27 3354.54)" stroke="#2B6ED4" stroke-width="7"/>
<rect x="1.89247" y="-2.7071" width="1839.45" height="1839.45" transform="matrix(0.992963 0.118429 -0.452257 -0.891888 1404.17 2766.17)" stroke="#2B6ED4" stroke-width="7"/>
<rect x="-5.05827" y="-3.53611" width="3571.26" height="1330.45" transform="matrix(-0.452257 -0.891888 -0.992963 -0.118429 2944.58 3342.42)" stroke="#2B6ED4" stroke-width="7"/>
<rect x="1.89247" y="-2.7071" width="1839.45" height="1839.45" transform="matrix(0.992963 0.118429 -0.452257 -0.891888 1357.16 2673.47)" stroke="#2B6ED4" stroke-width="7"/>
<rect x="-5.05827" y="-3.53611" width="3571.26" height="1220.4" transform="matrix(-0.452257 -0.891888 -0.992963 -0.118429 2835.3 3329.38)" stroke="#2B6ED4" stroke-width="7"/>
<rect x="1.89247" y="-2.7071" width="1839.45" height="1839.45" transform="matrix(0.992963 0.118429 -0.452257 -0.891888 1306 2572.59)" stroke="#2B6ED4" stroke-width="7"/>
<rect x="1.89247" y="-2.7071" width="1839.45" height="1839.45" transform="matrix(0.992963 0.118429 -0.452257 -0.891888 1251.39 2464.89)" stroke="#2B6ED4" stroke-width="7"/>
<rect x="-5.05827" y="-3.53611" width="3571.26" height="1069.08" transform="matrix(-0.452257 -0.891888 -0.992963 -0.118429 2685.04 3311.46)" stroke="#2B6ED4" stroke-width="7"/>
<rect x="1.89247" y="-2.7071" width="1839.45" height="1839.45" transform="matrix(0.992963 0.118429 -0.452257 -0.891888 1199.55 2362.64)" stroke="#2B6ED4" stroke-width="7"/>
<rect x="-5.05827" y="-3.53611" width="3571.26" height="911.638" transform="matrix(-0.452257 -0.891888 -0.992963 -0.118429 2528.71 3292.82)" stroke="#2B6ED4" stroke-width="7"/>
<rect x="1.89247" y="-2.7071" width="1839.45" height="1839.45" transform="matrix(0.992963 0.118429 -0.452257 -0.891888 1158.76 2282.21)" stroke="#2B6ED4" stroke-width="7"/>
<rect x="-5.05827" y="-3.53611" width="3571.26" height="760.315" transform="matrix(-0.452257 -0.891888 -0.992963 -0.118429 2378.45 3274.89)" stroke="#2B6ED4" stroke-width="7"/>
<rect x="1.89247" y="-2.7071" width="1839.45" height="1839.45" transform="matrix(0.992963 0.118429 -0.452257 -0.891888 1115.9 2197.69)" stroke="#2B6ED4" stroke-width="7"/>
<rect x="1.89247" y="-2.7071" width="1839.45" height="1839.45" transform="matrix(0.992963 0.118429 -0.452257 -0.891888 1073.04 2113.17)" stroke="#2B6ED4" stroke-width="7"/>
<rect x="-5.05827" y="-3.53611" width="3571.26" height="605.935" transform="matrix(-0.452257 -0.891888 -0.992963 -0.118429 2225.16 3256.61)" stroke="#2B6ED4" stroke-width="7"/>
<rect x="1.89247" y="-2.7071" width="1839.45" height="1839.45" transform="matrix(0.992963 0.118429 -0.452257 -0.891888 1030.18 2028.64)" stroke="#2B6ED4" stroke-width="7"/>
<rect x="-5.05827" y="-3.53611" width="3571.26" height="453.083" transform="matrix(-0.452257 -0.891888 -0.992963 -0.118429 2073.38 3238.51)" stroke="#2B6ED4" stroke-width="7"/>
<rect x="1.89247" y="-2.7071" width="1839.45" height="1839.45" transform="matrix(0.992963 0.118429 -0.452257 -0.891888 986.632 1942.76)" stroke="#2B6ED4" stroke-width="7"/>
<rect x="-5.05827" y="-3.53611" width="3571.26" height="352.201" transform="matrix(-0.452257 -0.891888 -0.992963 -0.118429 1973.21 3226.56)" stroke="#2B6ED4" stroke-width="7"/>
<rect x="1.89247" y="-2.7071" width="1839.45" height="1839.45" transform="matrix(0.992963 0.118429 -0.452257 -0.891888 939.625 1850.06)" stroke="#2B6ED4" stroke-width="7"/>
<rect x="-5.05827" y="-3.53611" width="3571.26" height="242.148" transform="matrix(-0.452257 -0.891888 -0.992963 -0.118429 1863.94 3213.53)" stroke="#2B6ED4" stroke-width="7"/>
<rect x="1.89247" y="-2.7071" width="1839.45" height="1839.45" transform="matrix(0.992963 0.118429 -0.452257 -0.891888 939.625 1850.06)" stroke="#2B6ED4" stroke-width="7"/>
<rect x="-5.05827" y="-3.53611" width="3571.26" height="251.319" transform="matrix(-0.452257 -0.891888 -0.992963 -0.118429 1863.94 3213.53)" stroke="#2B6ED4" stroke-width="7"/>
<rect x="1.89247" y="-2.7071" width="1839.45" height="1839.45" transform="matrix(0.992963 0.118429 -0.452257 -0.891888 888.47 1749.18)" stroke="#2B6ED4" stroke-width="7"/>
<rect x="-5.05827" y="-3.53611" width="3571.26" height="121.395" transform="matrix(-0.452257 -0.891888 -0.992963 -0.118429 1744.03 3199.23)" stroke="#2B6ED4" stroke-width="7"/>
<rect x="1.89247" y="-2.7071" width="1839.45" height="1839.45" transform="matrix(0.992963 0.118429 -0.452257 -0.891888 833.859 1641.48)" stroke="#2B6ED4" stroke-width="7"/>
<rect x="-0.55226" y="-0.386071" width="3577.49" height="0.764258" transform="matrix(-0.452257 -0.891888 -0.992963 -0.118429 1626.21 3191.56)" stroke="#2B6ED4" stroke-width="0.764258"/>
</svg>
