<svg width="369" height="369" viewBox="0 0 369 369" fill="none" xmlns="http://www.w3.org/2000/svg">
<path d="M124.73 216.087C128.894 223.835 134.449 230.642 141.242 236.313C148.034 241.983 155.722 246.235 164.09 248.951C172.755 251.764 181.773 252.795 190.894 252.018C200.015 251.241 208.695 248.703 216.691 244.472C224.415 240.387 231.18 234.904 236.796 228.175C242.415 221.446 246.6 213.812 249.244 205.484C251.978 196.859 252.927 187.868 252.065 178.752C251.203 169.637 248.578 160.949 244.266 152.925C240.101 145.177 234.546 138.37 227.753 132.699C220.961 127.029 213.273 122.777 204.905 120.061C196.241 117.248 187.222 116.217 178.101 116.994C168.98 117.772 160.301 120.309 152.305 124.54C144.581 128.626 137.815 134.109 132.199 140.838C126.58 147.566 122.395 155.2 119.752 163.528C117.018 172.154 116.068 181.145 116.93 190.26C117.792 199.375 120.417 208.063 124.73 216.087ZM121.279 164.024C123.859 155.892 127.947 148.437 133.433 141.869C138.919 135.3 145.524 129.944 153.067 125.955C160.875 121.824 169.349 119.347 178.256 118.588C187.162 117.829 195.966 118.836 204.424 121.582C212.596 124.234 220.099 128.384 226.731 133.924C233.363 139.461 238.789 146.106 242.853 153.672C247.063 161.505 249.625 169.988 250.468 178.889C251.312 187.789 250.384 196.568 247.713 204.988C245.134 213.12 241.045 220.575 235.559 227.143C230.073 233.712 223.468 239.068 215.926 243.057C208.117 247.188 199.643 249.665 190.737 250.424C181.83 251.183 173.027 250.176 164.568 247.43C156.396 244.778 148.893 240.628 142.261 235.088C135.629 229.551 130.203 222.906 126.139 215.34C121.929 207.507 119.368 199.024 118.524 190.124C117.68 181.223 118.608 172.444 121.279 164.024Z" fill="white"/>
<path d="M213.666 246.792C222.648 243.317 230.717 238.378 237.652 232.106C244.586 225.834 250.039 218.548 253.852 210.447C257.802 202.06 259.819 193.166 259.84 184.012C259.862 174.857 257.893 165.99 253.986 157.655C250.211 149.605 244.798 142.389 237.894 136.204C230.989 130.023 222.945 125.184 213.981 121.827C204.699 118.349 194.837 116.622 184.667 116.686C174.496 116.752 164.622 118.609 155.326 122.205C146.344 125.68 138.275 130.619 131.34 136.891C124.406 143.163 118.953 150.449 115.14 158.551C111.19 166.937 109.173 175.831 109.152 184.985C109.13 194.14 111.099 203.007 115.006 211.342C118.781 219.392 124.194 226.608 131.098 232.793C138.003 238.974 146.047 243.813 155.011 247.17C164.293 250.648 174.155 252.375 184.325 252.311C194.496 252.248 204.37 250.388 213.666 246.792ZM155.707 245.691C146.955 242.413 139.101 237.689 132.36 231.653C125.619 225.616 120.332 218.57 116.646 210.71C112.832 202.571 110.909 193.913 110.93 184.976C110.954 176.037 112.92 167.354 116.776 159.167C120.502 151.259 125.824 144.143 132.595 138.019C139.367 131.895 147.248 127.068 156.015 123.678C165.094 120.167 174.732 118.355 184.664 118.292C194.595 118.228 204.225 119.916 213.285 123.309C222.037 126.587 229.891 131.311 236.632 137.348C243.373 143.384 248.66 150.43 252.346 158.29C256.163 166.429 258.083 175.087 258.062 184.024C258.038 192.963 256.072 201.646 252.216 209.833C248.49 217.741 243.168 224.857 236.397 230.981C229.625 237.105 221.744 241.932 212.977 245.322C203.898 248.833 194.26 250.645 184.328 250.708C174.397 250.772 164.767 249.084 155.707 245.691Z" fill="white"/>
<path d="M256.274 160.873C253.298 151.625 248.611 143.154 242.342 135.696C236.069 128.242 228.533 122.175 219.938 117.669C211.038 113.002 201.39 110.22 191.259 109.398C181.128 108.575 171.124 109.766 161.519 112.933C152.243 115.99 143.73 120.757 136.218 127.095C128.706 133.434 122.573 141.028 117.988 149.662C113.24 158.605 110.373 168.28 109.459 178.417C108.546 188.554 109.647 198.552 112.726 208.127C115.702 217.375 120.389 225.846 126.658 233.304C132.931 240.759 140.467 246.825 149.062 251.331C157.962 255.998 167.61 258.78 177.741 259.603C187.872 260.425 197.876 259.234 207.481 256.067C216.757 253.01 225.27 248.244 232.782 241.905C240.294 235.566 246.427 227.972 251.012 219.338C255.76 210.395 258.627 200.721 259.541 190.583C260.454 180.446 259.353 170.448 256.274 160.873ZM249.443 218.515C244.967 226.947 238.979 234.362 231.642 240.55C224.305 246.74 215.994 251.392 206.937 254.377C197.559 257.467 187.79 258.629 177.898 257.827C168.006 257.026 158.585 254.31 149.897 249.753C141.504 245.352 134.143 239.431 128.019 232.148C121.895 224.869 117.319 216.598 114.413 207.567C111.407 198.217 110.333 188.457 111.226 178.559C112.118 168.661 114.918 159.213 119.551 150.482C124.027 142.05 130.015 134.635 137.352 128.447C144.689 122.257 152.999 117.605 162.057 114.62C171.435 111.53 181.204 110.368 191.096 111.17C200.988 111.971 210.409 114.687 219.097 119.244C227.49 123.645 234.851 129.566 240.975 136.849C247.099 144.128 251.674 152.399 254.581 161.43C257.587 170.781 258.66 180.54 257.768 190.438C256.876 200.336 254.076 209.784 249.443 218.515Z" fill="white"/>
<path d="M165.293 110.94C154.766 113.097 144.937 117.031 136.079 122.626C127.218 128.224 119.775 135.204 113.954 143.375C107.926 151.834 103.913 161.203 102.023 171.225C100.133 181.245 100.481 191.319 103.054 201.162C105.54 210.671 109.992 219.565 116.279 227.6C122.567 235.636 130.378 242.407 139.493 247.73C148.932 253.237 159.363 256.939 170.495 258.732C181.627 260.525 192.799 260.302 203.698 258.067C214.225 255.91 224.054 251.979 232.912 246.381C241.773 240.783 249.216 233.803 255.038 225.632C261.065 217.173 265.078 207.804 266.968 197.781C268.858 187.762 268.51 177.688 265.937 167.844C263.451 158.336 258.999 149.442 252.712 141.406C246.424 133.371 238.613 126.6 229.498 121.277C220.059 115.77 209.629 112.068 198.496 110.275C187.364 108.482 176.192 108.705 165.293 110.94ZM228.436 122.771C237.337 127.967 244.964 134.578 251.103 142.426C257.242 150.274 261.588 158.959 264.016 168.241C266.53 177.852 266.868 187.686 265.024 197.47C263.179 207.253 259.259 216.402 253.374 224.661C247.692 232.639 240.421 239.452 231.772 244.92C223.12 250.385 213.524 254.226 203.244 256.331C192.605 258.511 181.697 258.729 170.824 256.978C159.952 255.227 149.77 251.613 140.555 246.236C131.654 241.043 124.027 234.429 117.888 226.581C111.749 218.733 107.403 210.048 104.975 200.766C102.461 191.155 102.123 181.32 103.968 171.537C105.812 161.754 109.732 152.605 115.617 144.346C121.299 136.368 128.57 129.554 137.219 124.087C145.871 118.622 155.467 114.781 165.747 112.676C176.386 110.496 187.294 110.278 198.167 112.029C209.039 113.78 219.221 117.394 228.436 122.771Z" fill="white"/>
<path d="M101.214 197.222C102.584 207.898 105.983 218.032 111.321 227.344C116.659 236.658 123.663 244.682 132.143 251.193C140.922 257.934 150.905 262.749 161.814 265.507C172.722 268.262 183.903 268.794 195.05 267.088C205.817 265.44 216.093 261.784 225.595 256.219C235.1 250.655 243.35 243.466 250.122 234.847C257.132 225.925 262.24 215.855 265.303 204.922C268.367 193.986 269.199 182.839 267.783 171.788C266.413 161.113 263.014 150.979 257.676 141.667C252.338 132.352 245.334 124.329 236.854 117.818C228.075 111.077 218.092 106.262 207.183 103.504C196.275 100.749 185.094 100.217 173.947 101.922C163.181 103.571 152.904 107.227 143.402 112.791C133.897 118.356 125.647 125.548 118.876 134.164C111.865 143.085 106.757 153.156 103.694 164.089C100.63 175.024 99.7987 186.172 101.214 197.222ZM120.424 135.349C127.035 126.936 135.092 119.914 144.373 114.482C153.654 109.05 163.689 105.479 174.198 103.867C185.079 102.201 195.997 102.721 206.648 105.412C217.3 108.104 227.047 112.804 235.617 119.387C243.898 125.744 250.739 133.58 255.949 142.674C261.16 151.768 264.481 161.663 265.818 172.085C267.2 182.875 266.386 193.759 263.395 204.435C260.404 215.114 255.417 224.942 248.573 233.655C241.962 242.069 233.906 249.091 224.624 254.523C215.343 259.954 205.308 263.526 194.799 265.138C183.918 266.804 173 266.284 162.349 263.592C151.698 260.901 141.951 256.201 133.38 249.617C125.099 243.26 118.259 235.424 113.048 226.331C107.837 217.237 104.516 207.341 103.18 196.92C101.798 186.129 102.611 175.245 105.602 164.569C108.593 153.891 113.58 144.062 120.424 135.349Z" fill="white"/>
<path d="M190.51 268.582C202.459 268.149 214.005 265.645 224.832 261.139C235.659 256.633 245.219 250.355 253.248 242.473C261.562 234.314 267.858 224.791 271.965 214.163C276.072 203.536 277.744 192.443 276.934 181.19C276.15 170.321 273.099 159.766 267.861 149.814C262.623 139.861 255.462 131.015 246.579 123.518C237.383 115.758 226.731 109.791 214.925 105.787C203.118 101.783 190.858 99.9801 178.489 100.428C166.54 100.86 154.993 103.364 144.167 107.87C133.34 112.377 123.78 118.655 115.751 126.536C107.437 134.695 101.141 144.219 97.0337 154.846C92.9268 165.473 91.2544 176.566 92.0649 187.816C92.8481 198.682 95.8996 209.24 101.138 219.193C106.376 229.146 113.537 237.991 122.419 245.489C131.616 253.249 142.267 259.216 154.074 263.22C165.881 267.224 178.141 269.026 190.51 268.579V268.582ZM123.886 244.052C115.212 236.733 108.22 228.093 103.106 218.376C97.9924 208.656 95.0105 198.35 94.2453 187.741C93.453 176.757 95.0861 165.924 99.0962 155.548C103.106 145.171 109.255 135.872 117.369 127.906C125.208 120.212 134.54 114.079 145.113 109.682C155.686 105.282 166.96 102.838 178.625 102.415C190.701 101.976 202.67 103.736 214.199 107.647C225.727 111.557 236.128 117.382 245.107 124.957C253.78 132.276 260.772 140.916 265.886 150.633C271 160.353 273.982 170.66 274.747 181.269C275.54 192.253 273.907 203.086 269.896 213.462C265.886 223.838 259.738 233.138 251.624 241.103C243.785 248.797 234.452 254.93 223.879 259.327C213.307 263.728 202.032 266.171 190.368 266.595C178.292 267.033 166.322 265.273 154.794 261.363C143.265 257.452 132.865 251.628 123.886 244.052Z" fill="white"/>
<path d="M278.143 185.843C278.821 173.904 277.166 162.182 273.229 151.004C269.291 139.826 263.264 129.756 255.319 121.07C247.093 112.079 237.162 104.975 225.797 99.9578C214.432 94.9406 202.316 92.3095 189.781 92.1341C177.675 91.9677 165.696 94.0877 154.17 98.4396C142.648 102.792 132.16 109.151 123.003 117.347C113.522 125.833 105.885 135.922 100.312 147.336C94.738 158.749 91.5535 170.804 90.8519 183.167C90.1744 195.107 91.8287 206.828 95.7663 218.006C99.7038 229.184 105.731 239.254 113.676 247.94C121.902 256.931 131.833 264.035 143.198 269.052C154.564 274.07 166.679 276.701 179.214 276.876C191.32 277.042 203.299 274.922 214.825 270.57C226.347 266.219 236.835 259.859 245.992 251.663C255.473 243.177 263.11 233.088 268.683 221.674C274.257 210.261 277.442 198.206 278.143 185.843ZM244.541 250.075C235.598 258.077 225.361 264.289 214.108 268.538C202.855 272.787 191.157 274.859 179.338 274.696C167.102 274.526 155.271 271.956 144.175 267.056C133.079 262.157 123.381 255.222 115.348 246.443C107.591 237.963 101.709 228.131 97.8621 217.217C94.0152 206.302 92.4003 194.859 93.0626 183.2C93.7461 171.13 96.855 159.36 102.299 148.216C107.742 137.071 115.197 127.218 124.454 118.935C133.397 110.933 143.634 104.721 154.887 100.472C166.14 96.2229 177.838 94.1512 189.657 94.3146C201.893 94.4839 213.724 97.0545 224.82 101.954C235.916 106.853 245.614 113.788 253.647 122.567C261.404 131.047 267.286 140.879 271.133 151.793C274.98 162.708 276.595 174.152 275.932 185.81C275.246 197.88 272.14 209.65 266.696 220.794C261.253 231.939 253.798 241.792 244.541 250.075Z" fill="white"/>
<path d="M195.046 91.3297C181.896 89.6149 168.762 90.2409 156.006 93.1896C143.252 96.1382 131.521 101.264 121.139 108.423C110.391 115.832 101.566 125.11 94.9099 135.995C88.2566 146.879 84.1678 158.719 82.7615 171.191C81.4037 183.236 82.5922 195.355 86.2908 207.216C89.9895 219.074 96.0168 230.076 104.203 239.914C112.677 250.099 123.108 258.585 135.199 265.133C147.293 271.68 160.327 275.902 173.942 277.68C187.092 279.395 200.226 278.769 212.982 275.821C225.736 272.872 237.467 267.746 247.849 260.587C258.597 253.178 267.422 243.9 274.078 233.015C280.731 222.131 284.82 210.291 286.227 197.819C287.584 185.774 286.396 173.656 282.697 161.795C278.999 149.936 272.971 138.934 264.785 129.096C256.311 118.911 245.88 110.425 233.789 103.877C221.695 97.3298 208.661 93.1079 195.046 91.3297ZM262.891 130.403C270.882 140.008 276.767 150.75 280.381 162.33C283.995 173.91 285.153 185.744 283.828 197.505C282.455 209.68 278.466 221.242 271.967 231.869C265.468 242.496 256.855 251.554 246.361 258.788C236.224 265.777 224.771 270.779 212.317 273.661C199.863 276.54 187.037 277.151 174.2 275.476C160.908 273.743 148.179 269.621 136.372 263.225C124.563 256.831 114.38 248.545 106.109 238.601C98.1186 228.996 92.2335 218.254 88.6195 206.674C85.0055 195.094 83.8472 183.261 85.1719 171.499C86.5449 159.324 90.5338 147.762 97.0329 137.135C103.532 126.508 112.145 117.45 122.639 110.216C132.776 103.227 144.229 98.2249 156.683 95.3428C169.137 92.4638 181.963 91.8529 194.801 93.5283C208.092 95.2612 220.821 99.3832 232.628 105.779C244.438 112.173 254.62 120.459 262.891 130.403Z" fill="white"/>
<path d="M82.3907 165.871C79.2182 178.821 78.6376 191.962 80.6668 204.924C82.6961 217.885 87.2325 230.019 94.1489 240.985C101.31 252.338 110.725 261.937 122.126 269.515C133.528 277.094 146.242 282.196 159.908 284.685C173.109 287.086 186.639 286.959 200.124 284.307C213.61 281.655 226.369 276.61 238.051 269.313C250.145 261.758 260.549 252.108 268.968 240.631C277.388 229.154 283.321 216.537 286.609 203.127C289.781 190.177 290.362 177.037 288.333 164.075C286.303 151.113 281.767 138.98 274.85 128.014C267.689 116.661 258.275 107.062 246.873 99.4833C235.472 91.9045 222.758 86.8026 209.091 84.3137C195.891 81.9124 182.36 82.0395 168.875 84.6917C155.39 87.344 142.631 92.3884 130.948 99.6859C118.854 107.24 108.451 116.891 100.031 128.368C91.6116 139.845 85.678 152.462 82.3907 165.871ZM132.209 101.691C143.613 94.5659 156.073 89.6424 169.241 87.0506C182.408 84.4619 195.618 84.3379 208.508 86.6817C221.851 89.1101 234.262 94.0941 245.394 101.491C256.53 108.892 265.72 118.264 272.712 129.348C279.465 140.054 283.896 151.903 285.877 164.559C287.858 177.215 287.292 190.044 284.195 202.692C280.99 215.784 275.195 228.101 266.972 239.309C258.752 250.517 248.594 259.938 236.787 267.314C225.383 274.439 212.923 279.362 199.755 281.954C186.588 284.543 173.375 284.667 160.489 282.323C147.146 279.895 134.734 274.911 123.602 267.513C112.467 260.113 103.276 250.741 96.284 239.657C89.5309 228.951 85.1004 217.102 83.1195 204.446C81.1386 191.789 81.7042 178.96 84.801 166.313C88.0067 153.221 93.8011 140.903 102.024 129.695C110.244 118.488 120.402 109.067 132.209 101.691Z" fill="white"/>
<path d="M153.989 284.594C168.019 288.882 182.505 290.606 197.049 289.714C211.592 288.822 225.461 285.359 238.269 279.426C251.53 273.28 263.068 264.74 272.558 254.04C282.048 243.34 288.928 231.122 293.008 217.725C296.945 204.784 298.116 191.293 296.486 177.63C294.856 163.966 290.507 150.814 283.563 138.541C276.371 125.833 266.7 114.632 254.812 105.244C242.923 95.8571 229.532 88.8439 215.006 84.4043C200.98 80.116 186.491 78.3921 171.947 79.2843C157.404 80.1764 143.535 83.6392 130.727 89.5728C117.466 95.718 105.928 104.258 96.438 114.958C86.9449 125.658 80.0678 137.876 75.9911 151.273C72.0535 164.214 70.8832 177.705 72.5132 191.369C74.1433 205.032 78.4921 218.185 85.4358 230.457C92.6275 243.165 102.299 254.367 114.187 263.754C126.076 273.141 139.467 280.154 153.992 284.594H153.989ZM87.7735 229.371C80.9932 217.389 76.7472 204.548 75.1564 191.202C73.5657 177.859 74.7058 164.689 78.5526 152.054C82.5325 138.974 89.2494 127.043 98.5187 116.597C107.788 106.152 119.05 97.8108 131.997 91.8107C144.502 86.0163 158.045 82.6352 172.247 81.7642C186.449 80.8932 200.593 82.5747 214.29 86.7632C228.47 91.1 241.544 97.9439 253.151 107.11C264.758 116.277 274.203 127.216 281.225 139.621C288.006 151.603 292.252 164.444 293.842 177.79C295.433 191.133 294.293 204.307 290.446 216.939C286.466 230.019 279.749 241.949 270.48 252.395C261.211 262.841 249.949 271.182 237.002 277.182C224.497 282.976 210.954 286.357 196.752 287.228C182.55 288.099 168.406 286.418 154.709 282.229C140.528 277.892 127.455 271.049 115.848 261.879C104.241 252.713 94.7958 241.774 87.7735 229.368V229.371Z" fill="white"/>
<path d="M292.339 223.621C298.445 210.021 301.753 195.738 302.177 181.173C302.597 166.605 300.108 152.488 294.779 139.212C289.26 125.467 280.925 113.228 270.002 102.839C259.078 92.451 246.219 84.5335 231.784 79.3046C217.843 74.2541 203.024 71.9134 187.739 72.3458C172.455 72.7783 157.479 75.9628 143.219 81.8117C128.458 87.8663 115.121 96.5277 103.578 107.551C92.0342 118.574 82.9766 131.306 76.6559 145.387C70.55 158.987 67.2414 173.271 66.818 187.836C66.3977 202.403 68.8866 216.521 74.2153 229.797C79.7346 243.542 88.0694 255.781 98.993 266.17C109.917 276.558 122.776 284.475 137.21 289.704C151.152 294.755 165.971 297.095 181.255 296.663C196.54 296.231 211.516 293.046 225.775 287.197C240.537 281.143 253.874 272.481 265.417 261.458C276.961 250.434 286.018 237.702 292.339 223.621ZM224.801 284.775C210.881 290.484 196.256 293.596 181.334 294.017C166.409 294.44 151.941 292.154 138.329 287.221C124.236 282.116 111.683 274.383 101.016 264.24C90.3497 254.097 82.2114 242.148 76.8222 228.729C71.6205 215.768 69.189 201.98 69.6003 187.757C70.0116 173.534 73.2415 159.589 79.2053 146.31C85.3778 132.562 94.2207 120.132 105.492 109.369C116.763 98.6023 129.786 90.1465 144.196 84.2341C158.117 78.5244 172.742 75.4124 187.664 74.992C202.588 74.5687 217.056 76.855 230.669 81.7875C244.761 86.8924 257.315 94.6254 267.982 104.769C278.648 114.912 286.786 126.861 292.176 140.279C297.38 153.241 299.809 167.026 299.397 181.252C298.986 195.475 295.756 209.42 289.792 222.699C283.62 236.447 274.777 248.877 263.506 259.64C252.234 270.407 239.212 278.862 224.801 284.775Z" fill="white"/>
<path d="M238.238 80.4825C223.776 73.2153 208.286 68.6729 192.203 66.9823C176.12 65.2948 160.252 66.5408 145.04 70.6931C129.29 74.9905 114.937 82.2306 102.38 92.2075C89.8234 102.185 79.8131 114.303 72.6275 128.226C65.6869 141.675 61.6616 156.234 60.6606 171.497C59.6596 186.76 61.7342 201.957 66.827 216.67C72.1013 231.903 80.3938 245.945 91.4807 258.405C102.565 270.865 115.777 280.996 130.753 288.523C145.215 295.79 160.706 300.333 176.789 302.023C192.871 303.711 208.74 302.465 223.952 298.313C239.702 294.015 254.055 286.775 266.612 276.798C279.168 266.821 289.178 254.703 296.364 240.78C303.305 227.331 307.33 212.772 308.331 197.509C309.332 182.245 307.257 167.045 302.165 152.336C296.89 137.102 288.598 123.061 277.511 110.601C266.424 98.1411 253.211 88.0099 238.238 80.4825ZM299.385 153.092C304.357 167.457 306.383 182.297 305.406 197.2C304.43 212.104 300.498 226.318 293.721 239.449C286.705 253.043 276.933 264.877 264.67 274.618C252.41 284.359 238.395 291.426 223.02 295.624C208.168 299.677 192.675 300.895 176.97 299.247C161.265 297.599 146.144 293.162 132.021 286.068C117.401 278.722 104.5 268.826 93.6763 256.66C82.8525 244.493 74.7536 230.784 69.6063 215.914C64.6345 201.549 62.6082 186.709 63.5851 171.806C64.5619 156.902 68.4934 142.688 75.2707 129.557C82.287 115.963 92.0583 104.129 104.322 94.388C116.582 84.6469 130.596 77.5793 145.971 73.3816C160.824 69.3291 176.317 68.1104 192.022 69.7586C207.727 71.4068 222.848 75.8434 236.971 82.9382C251.59 90.2841 264.492 100.179 275.315 112.346C286.139 124.512 294.238 138.221 299.385 153.092Z" fill="white"/>
<path d="M74.5632 121.9C65.1185 135.675 58.5892 150.709 55.1627 166.583C51.7362 182.457 51.582 198.374 54.703 213.888C57.9359 229.953 64.559 244.881 74.3848 258.26C84.2106 271.639 96.6553 282.666 111.374 291.04C125.588 299.127 141.314 304.407 158.111 306.732C174.908 309.061 191.931 308.317 208.713 304.525C226.084 300.599 242.43 293.559 257.294 283.603C272.158 273.647 284.654 261.366 294.435 247.104C303.879 233.328 310.409 218.295 313.835 202.42C317.262 186.546 317.416 170.629 314.295 155.115C311.062 139.05 304.439 124.123 294.613 110.743C284.787 97.3641 272.343 86.3377 257.624 77.9636C243.41 69.8768 227.684 64.5965 210.887 62.2708C194.09 59.9421 177.067 60.6861 160.285 64.4785C142.914 68.404 126.568 75.4444 111.704 85.4002C96.8398 95.356 84.3436 107.637 74.5632 121.9ZM160.857 67.3122C177.239 63.6106 193.861 62.8847 210.264 65.159C226.664 67.4302 242.019 72.5865 255.897 80.4828C270.265 88.6573 282.416 99.4236 292.009 112.488C301.605 125.55 308.071 140.127 311.225 155.811C314.274 170.959 314.123 186.501 310.778 202.003C307.43 217.505 301.058 232.182 291.837 245.631C282.289 259.554 270.09 271.542 255.573 281.265C241.06 290.988 225.101 297.862 208.141 301.694C191.759 305.396 175.137 306.122 158.734 303.847C142.333 301.576 126.979 296.42 113.101 288.524C98.733 280.349 86.5816 269.583 76.9887 256.518C67.3928 243.456 60.9269 228.879 57.7726 213.196C54.7242 198.047 54.8754 182.506 58.2202 167.003C61.5681 151.501 67.9401 136.824 77.1611 123.376C86.7086 109.452 98.9084 97.4639 113.425 87.741C127.938 78.018 143.897 71.147 160.857 67.3122Z" fill="white"/>
<path d="M104.558 288.57C118.89 299.179 134.897 306.994 152.138 311.79C169.377 316.587 186.981 318.129 204.458 316.372C222.552 314.552 239.718 309.256 255.477 300.634C271.236 292.012 284.649 280.574 295.339 266.642C305.667 253.187 313.034 237.981 317.235 221.45C321.439 204.92 322.264 187.896 319.694 170.852C317.029 153.202 310.821 136.306 301.24 120.631C291.659 104.956 279.275 91.4381 264.438 80.451C250.106 69.842 234.098 62.0274 216.857 57.2309C199.619 52.4345 182.015 50.8921 164.538 52.6492C146.444 54.4698 129.278 59.7652 113.519 68.3873C97.7595 77.0095 84.347 88.4471 73.6563 102.38C63.3285 115.835 55.9614 131.041 51.7608 147.571C47.5571 164.102 46.7314 181.125 49.3021 198.17C51.9664 215.819 58.1752 232.716 67.756 248.39C77.3368 264.065 89.7211 277.583 104.558 288.57ZM52.4926 197.849C49.9825 181.207 50.79 164.582 54.8939 148.442C58.9978 132.302 66.1894 117.456 76.2723 104.318C86.7119 90.7184 99.8069 79.5528 115.194 71.1303C130.582 62.7108 147.342 57.5394 165.007 55.7611C182.069 54.0434 199.256 55.5494 216.092 60.234C232.925 64.9185 248.557 72.5457 262.551 82.9067C277.037 93.6307 289.128 106.832 298.482 122.137C307.839 137.443 313.899 153.94 316.5 171.169C319.01 187.812 318.203 204.433 314.099 220.576C309.995 236.717 302.803 251.563 292.72 264.7C282.281 278.3 269.186 289.466 253.798 297.888C238.411 306.308 221.651 311.479 203.986 313.257C186.923 314.975 169.737 313.469 152.901 308.784C136.068 304.1 120.435 296.473 106.442 286.112C91.956 275.388 79.8651 262.187 70.5111 246.881C61.1571 231.576 55.0935 215.078 52.4926 197.849Z" fill="white"/>
<path d="M291.94 273.203C305.071 259.851 315.269 244.585 322.249 227.828C329.229 211.073 332.64 193.672 332.386 176.107C332.123 157.922 327.926 140.361 319.905 123.909C311.885 107.457 300.526 93.1007 286.143 81.2336C272.249 69.7747 256.133 61.1103 238.242 55.4822C220.35 49.854 201.588 47.5465 182.472 48.6232C162.678 49.7391 143.374 54.4509 125.096 62.6284C106.817 70.806 90.6555 81.9654 77.0585 95.7893C63.9273 109.141 53.7295 124.408 46.7496 141.165C39.7696 157.919 36.3583 175.321 36.6123 192.886C36.8754 211.07 41.0731 228.632 49.0934 245.084C57.1137 261.536 68.4727 275.892 82.856 287.759C96.7494 299.218 112.866 307.882 130.757 313.511C148.648 319.139 167.411 321.446 186.527 320.37C206.321 319.254 225.624 314.542 243.903 306.364C262.182 298.187 278.343 287.027 291.94 273.203ZM186.479 317.164C167.813 318.216 149.492 315.963 132.024 310.468C114.556 304.973 98.818 296.514 85.2542 285.325C71.2097 273.742 60.1198 259.721 52.29 243.657C44.4602 227.592 40.3594 210.447 40.1023 192.692C39.8543 175.545 43.184 158.554 50.0007 142.193C56.8173 125.832 66.7731 110.926 79.5959 97.8881C92.8693 84.3909 108.65 73.4976 126.499 65.5105C144.348 57.5235 163.195 52.9236 182.517 51.8349C201.183 50.7825 219.503 53.0355 236.971 58.5306C254.439 64.0256 270.178 72.4844 283.741 83.6741C297.786 95.257 308.876 109.277 316.706 125.342C324.535 141.407 328.636 158.551 328.893 176.307C329.141 193.454 325.812 210.444 318.995 226.806C312.178 243.167 302.222 258.073 289.4 271.111C276.126 284.608 260.346 295.501 242.497 303.488C224.648 311.475 205.801 316.075 186.479 317.164Z" fill="white"/>
<path d="M293.089 85.2001C279.58 70.9529 263.669 59.4638 245.799 51.0504C227.929 42.6369 208.997 37.7225 189.533 36.4433C169.379 35.1187 149.534 37.7739 130.548 44.3275C111.562 50.881 94.5685 60.9487 80.0431 74.2433C66.0136 87.0842 54.8602 102.384 46.9004 119.716C38.9376 137.048 34.5675 155.538 33.9083 174.675C33.2248 194.49 36.5726 214.13 43.855 233.052C51.1374 251.975 61.9218 269.047 75.9089 283.799C89.4182 298.046 105.329 309.535 123.199 317.949C141.069 326.362 160.001 331.277 179.465 332.556C199.619 333.881 219.464 331.225 238.45 324.672C257.436 318.118 274.429 308.051 288.955 294.756C302.984 281.915 314.138 266.615 322.097 249.283C330.06 231.952 334.43 213.461 335.09 194.324C335.773 174.509 332.425 154.87 325.143 135.947C317.861 117.024 307.076 99.9524 293.089 85.2001ZM331.533 194.091C330.889 212.775 326.622 230.833 318.846 247.756C311.071 264.68 300.184 279.62 286.487 292.158C272.303 305.138 255.715 314.967 237.174 321.366C218.635 327.766 199.259 330.357 179.583 329.066C160.579 327.817 142.095 323.021 124.645 314.804C107.195 306.587 91.6592 295.37 78.4705 281.461C64.816 267.06 54.2886 250.39 47.1756 231.915C40.0626 213.437 36.7964 194.26 37.4617 174.917C38.1059 156.234 42.3731 138.176 50.1484 121.252C57.9238 104.328 68.811 89.3887 82.5078 76.8502C96.6885 63.8701 113.283 54.0413 131.821 47.642C150.36 41.2427 169.736 38.651 189.412 39.9423C208.416 41.1913 226.9 45.9878 244.35 54.2047C261.8 62.4215 277.336 73.6384 290.524 87.5469C304.179 101.948 314.706 118.618 321.819 137.093C328.932 155.571 332.198 174.748 331.533 194.091Z" fill="white"/>
<path d="M85.0989 67.6646C68.021 79.8795 53.7647 94.7286 42.7202 111.797C31.6757 128.866 24.4054 147.296 21.1059 166.576C17.6885 186.539 18.7047 206.538 24.1211 226.023C29.5375 245.508 39.0337 263.312 52.3433 278.944C65.1994 294.041 81.0555 306.483 99.4671 315.925C117.882 325.366 137.923 331.333 159.045 333.656C180.91 336.063 202.975 334.439 224.625 328.835C246.276 323.228 266.218 313.974 283.898 301.327C300.975 289.112 315.232 274.263 326.276 257.194C337.321 240.125 344.591 221.695 347.891 202.416C351.308 182.453 350.292 162.453 344.875 142.968C339.459 123.483 329.963 105.679 316.653 90.047C303.797 74.95 287.941 62.5083 269.529 53.0666C251.118 43.6249 231.073 37.6581 209.952 35.3355C188.087 32.9282 166.022 34.5491 144.371 40.1561C122.721 45.763 102.779 55.0172 85.0959 67.6646H85.0989ZM209.35 38.8557C229.969 41.1269 249.542 46.9516 267.521 56.1695C285.5 65.3904 300.982 77.5357 313.535 92.2759C326.53 107.536 335.8 124.92 341.089 143.945C346.378 162.971 347.37 182.501 344.035 201.989C340.814 220.812 333.713 238.81 322.928 255.476C312.144 272.143 298.223 286.641 281.551 298.569C264.288 310.917 244.818 319.953 223.679 325.427C202.539 330.901 180.995 332.485 159.65 330.136C139.03 327.864 119.457 322.04 101.478 312.822C83.4991 303.601 68.018 291.456 55.4644 276.715C42.4692 261.455 33.1999 244.072 27.9105 225.046C22.6211 206.021 21.6291 186.49 24.9649 167.005C28.1857 148.182 35.2866 130.185 46.0711 113.518C56.8555 96.8516 70.7761 82.3534 87.4488 70.4257C104.711 58.0778 124.181 49.0413 145.321 43.5674C166.46 38.0936 188.005 36.5089 209.35 38.8587V38.8557Z" fill="white"/>
<path d="M45.5512 273.344C57.4183 291.42 72.473 306.919 90.2979 319.407C108.123 331.897 127.82 340.746 148.838 345.714C170.604 350.859 192.841 351.59 214.933 347.892C237.025 344.193 257.653 336.288 276.243 324.387C294.198 312.895 309.504 298.185 321.74 280.666C333.973 263.146 342.52 243.698 347.138 222.861C351.919 201.289 352.261 179.166 348.151 157.111C344.041 135.055 335.73 114.381 323.443 95.6639C311.576 77.588 296.521 62.0888 278.696 49.6017C260.871 37.1116 241.177 28.2626 220.156 23.2938C198.39 18.1496 176.153 17.4177 154.061 21.1163C131.969 24.815 111.341 32.7204 92.7506 44.6208C74.7956 56.1129 59.4869 70.8228 47.2538 88.3422C35.0208 105.862 26.4743 125.311 21.8562 146.148C17.0749 167.72 16.7332 189.842 20.8431 211.898C24.9531 233.954 33.2637 254.627 45.5512 273.344ZM25.697 147.055C30.2062 126.711 38.5501 107.722 50.4958 90.6134C62.4416 73.5053 77.3874 59.1432 94.9189 47.9232C113.067 36.3071 133.209 28.5892 154.781 24.9783C176.353 21.3673 198.064 22.0811 219.312 27.1043C239.835 31.9552 259.069 40.5985 276.473 52.7923C293.878 64.986 308.579 80.1193 320.165 97.7688C332.159 116.041 340.276 136.225 344.289 157.764C348.302 179.299 347.969 200.899 343.3 221.962C338.791 242.306 330.447 261.296 318.501 278.404C306.556 295.512 291.61 309.874 274.078 321.094C255.93 332.71 235.788 340.431 214.216 344.039C192.644 347.65 170.933 346.936 149.685 341.913C129.159 337.062 109.928 328.422 92.5237 316.225C75.1192 304.031 60.4184 288.898 48.8325 271.248C36.8383 252.976 28.7213 232.792 24.7081 211.254C20.6949 189.718 21.0276 168.119 25.697 147.058V147.055Z" fill="white"/>
<path d="M269.377 330.667C290.534 320.421 309.145 306.772 324.696 290.106C340.247 273.439 351.951 254.589 359.484 234.079C367.283 212.845 370.25 190.756 368.297 168.425C366.343 146.094 359.587 124.855 348.219 105.3C337.238 86.4109 322.437 69.8804 304.231 56.1655C286.022 42.4505 265.324 32.2437 242.709 25.8263C219.292 19.182 194.841 16.9138 170.027 19.0852C145.216 21.2566 121.527 27.7346 99.6229 38.3436C78.4653 48.5898 59.8511 62.2382 44.3034 78.9048C28.7528 95.5714 17.049 114.421 9.51558 134.932C1.71001 156.171 -1.25375 178.257 0.699915 200.588C2.65358 222.919 9.40973 244.155 20.7779 263.713C31.7589 282.603 46.5595 299.133 64.7655 312.848C82.9744 326.563 103.672 336.77 126.288 343.187C149.704 349.832 174.155 352.1 198.969 349.928C223.78 347.757 247.469 341.279 269.377 330.67V330.667ZM127.667 339.44C105.587 333.174 85.3757 323.209 67.5962 309.818C49.8166 296.426 35.3668 280.286 24.6428 261.844C13.5439 242.752 6.948 222.015 5.0397 200.21C3.13141 178.405 6.02561 156.839 13.6406 136.108C20.9956 116.085 32.4242 97.6793 47.6089 81.4058C62.7937 65.1293 80.9663 51.8045 101.625 41.8003C123.012 31.4423 146.139 25.1156 170.366 22.9986C194.593 20.8786 218.47 23.0924 241.33 29.5794C263.41 35.8456 283.621 45.8105 301.4 59.2018C319.18 72.5932 333.63 88.7335 344.351 107.175C355.45 126.267 362.045 147.005 363.954 168.809C365.862 190.614 362.968 212.18 355.353 232.911C347.998 252.935 336.569 271.34 321.385 287.614C306.2 303.89 288.027 317.215 267.369 327.219C245.981 337.577 222.855 343.901 198.628 346.021C174.4 348.141 150.524 345.927 127.664 339.44H127.667Z" fill="white"/>
<path d="M354.499 112.683C345.205 90.7122 331.902 70.982 314.96 54.0372C298.015 37.0923 278.285 23.7917 256.314 14.4982C233.565 4.8781 209.405 0 184.497 0C159.589 0 135.429 4.8781 112.68 14.5012C90.7092 23.7947 70.9791 37.0984 54.0342 54.0402C37.0894 70.985 23.7888 90.7152 14.4953 112.686C4.87517 135.432 -0.00292969 159.595 -0.00292969 184.5C-0.00292969 209.405 4.87517 233.568 14.4983 256.317C23.7918 278.288 37.0955 298.018 54.0373 314.963C70.9821 331.908 90.7122 345.208 112.683 354.502C135.432 364.122 159.592 369.003 184.5 369.003C209.408 369.003 233.568 364.125 256.317 354.502C278.288 345.208 298.018 331.905 314.963 314.963C331.908 298.018 345.208 278.288 354.502 256.317C364.122 233.568 369.003 209.408 369.003 184.5C369.003 159.592 364.125 135.432 354.502 112.683H354.499ZM350.486 254.62C341.413 276.071 328.424 295.335 311.878 311.881C295.332 328.427 276.068 341.416 254.617 350.489C232.41 359.882 208.818 364.645 184.497 364.645C160.176 364.645 136.584 359.882 114.377 350.489C92.926 341.416 73.6616 328.427 57.1159 311.881C40.5703 295.335 27.5812 276.071 18.5085 254.62C9.11516 232.413 4.35198 208.821 4.35198 184.5C4.35198 160.179 9.11516 136.587 18.5085 114.38C27.5812 92.9289 40.5703 73.6645 57.1159 57.1189C73.6616 40.5732 92.926 27.5841 114.377 18.5114C136.584 9.11809 160.176 4.35491 184.497 4.35491C208.818 4.35491 232.407 9.11809 254.617 18.5114C276.068 27.5841 295.332 40.5732 311.878 57.1189C328.424 73.6645 341.413 92.9289 350.486 114.38C359.879 136.587 364.642 160.179 364.642 184.5C364.642 208.821 359.879 232.41 350.486 254.62Z" fill="white"/>
</svg>
