<svg width="1131" height="723" viewBox="0 0 1131 723" fill="none" xmlns="http://www.w3.org/2000/svg">
<path d="M1128.8 187.762C1010.76 490.819 784.273 114.265 706.067 110.291C608.31 105.323 611.918 566.368 589.405 624.168C566.893 681.968 279.747 323.93 310.671 159.516C341.596 -4.89899 821.949 384.721 788.485 564.7C755.021 744.68 421.012 654.387 323.901 466.872C226.791 279.358 -27.3033 442.082 -28.4948 265.159C-29.6864 88.2351 87.3546 -71.1674 228.301 37.2662C369.247 145.7 687.758 311.949 528.691 344.109C369.623 376.268 97.299 436.729 167.216 553.874C237.134 671.019 664.331 42.0061 1027.36 244.794C1192.73 347.817 812.994 766.676 717.415 697.327C597.941 610.641 601.889 96.4825 529.887 41.6701C457.884 -13.1423 275.251 485.607 180.066 721.851" stroke="#2B6ED4" stroke-width="3.79714"/>
</svg>
