<svg width="521" height="443" viewBox="0 0 521 443" fill="none" xmlns="http://www.w3.org/2000/svg">
<g clip-path="url(#clip0_58_89)">
<path d="M479.219 266.506L472.774 306.19V439.503H451.921V5.4601H472.774V194.579L500.451 5.4601H520.925L491.921 198.919L520.925 439.503H499.504L479.219 266.506Z" fill="url(#paint0_linear_58_89)"/>
<path d="M400.062 339.674C400.062 355.382 401.01 366.543 402.905 373.157C404.928 379.357 407.582 382.458 410.868 382.458C414.153 382.458 416.744 379.357 418.64 373.157C420.662 366.543 421.673 355.382 421.673 339.674V105.29C421.673 89.5821 420.662 78.6277 418.64 72.4271C416.744 65.8131 414.153 62.5061 410.868 62.5061C407.582 62.5061 404.928 65.8131 402.905 72.4271C401.01 78.6277 400.062 89.5821 400.062 105.29V339.674ZM379.209 109.631C379.209 74.494 381.926 47.6246 387.361 29.0228C392.795 10.0076 400.631 0.5 410.868 0.5C421.104 0.5 428.94 10.0076 434.374 29.0228C439.809 47.6246 442.526 74.494 442.526 109.631V335.333C442.526 370.47 439.809 397.546 434.374 416.561C428.94 435.163 421.104 444.464 410.868 444.464C400.631 444.464 392.795 435.163 387.361 416.561C381.926 397.546 379.209 370.47 379.209 335.333V109.631Z" fill="url(#paint1_linear_58_89)"/>
<path d="M280.676 377.497C281.813 377.91 283.014 378.117 284.278 378.117C285.541 378.117 286.742 378.117 287.88 378.117C291.165 378.117 293.946 375.43 296.221 370.056C298.622 364.682 299.823 353.521 299.823 336.573V5.4601H365.794V377.497H376.41V489.108H355.178V439.503H301.908V489.108H280.676V377.497ZM320.676 331.612C320.676 349.801 320.107 365.096 318.969 377.497H344.941V67.4662H320.676V331.612Z" fill="url(#paint2_linear_58_89)"/>
<path d="M245.919 67.4662C242.254 67.4662 239.537 70.9799 237.768 78.0073C236.125 85.0346 235.303 96.4024 235.303 112.111V154.895C235.303 172.257 236.377 184.244 238.526 190.858C240.801 197.472 243.897 200.779 247.815 200.779H255.967V67.4662H245.919ZM211.986 439.503C212.997 431.236 213.629 423.175 213.882 415.321C214.134 407.053 214.261 397.546 214.261 386.798V319.831C214.261 297.096 215.209 277.874 217.104 262.166C219.126 246.044 222.791 234.469 228.099 227.442C219 213.387 214.45 184.038 214.45 139.393V105.29C214.45 71.8067 216.852 46.7975 221.654 30.2626C226.583 13.7276 234.482 5.4601 245.351 5.4601H276.82V439.503H255.967V262.786H248.763C243.96 262.786 240.485 266.919 238.336 275.187C236.188 283.454 235.114 297.716 235.114 317.971V386.178C235.114 394.859 235.05 402.093 234.924 407.88C234.924 413.667 234.798 418.421 234.545 422.141C234.419 425.862 234.229 428.962 233.976 431.442C233.723 433.923 233.471 436.609 233.218 439.503H211.986Z" fill="url(#paint3_linear_58_89)"/>
<path d="M179.005 5.4601C189.494 5.4601 197.267 14.5543 202.322 32.7428C207.504 50.9313 210.094 77.5939 210.094 112.731V169.156C210.094 204.293 207.504 230.956 202.322 249.144C197.267 267.333 189.494 276.427 179.005 276.427H169.147V439.503H148.294V5.4601H179.005ZM169.147 67.4662V214.421H179.005C182.291 214.421 184.818 211.527 186.588 205.74C188.357 199.953 189.242 189.205 189.242 173.497V108.39C189.242 92.6821 188.357 81.9343 186.588 76.1471C184.818 70.3599 182.291 67.4662 179.005 67.4662H169.147Z" fill="url(#paint4_linear_58_89)"/>
<path d="M96.436 339.674C96.436 355.382 97.3838 366.543 99.2795 373.157C101.302 379.357 103.956 382.458 107.242 382.458C110.527 382.458 113.118 379.357 115.014 373.157C117.036 366.543 118.047 355.382 118.047 339.674V105.29C118.047 89.5821 117.036 78.6277 115.014 72.4271C113.118 65.8131 110.527 62.5061 107.242 62.5061C103.956 62.5061 101.302 65.8131 99.2795 72.4271C97.3838 78.6277 96.436 89.5821 96.436 105.29V339.674ZM75.583 109.631C75.583 74.494 78.3002 47.6246 83.7346 29.0228C89.169 10.0076 97.0047 0.5 107.242 0.5C117.478 0.5 125.314 10.0076 130.749 29.0228C136.183 47.6246 138.9 74.494 138.9 109.631V335.333C138.9 370.47 136.183 397.546 130.749 416.561C125.314 435.163 117.478 444.464 107.242 444.464C97.0047 444.464 89.169 435.163 83.7346 416.561C78.3002 397.546 75.583 370.47 75.583 335.333V109.631Z" fill="url(#paint5_linear_58_89)"/>
<path d="M21.2216 439.503H0.368652V5.4601H66.1502V439.503H44.9181V67.4662H21.2216V439.503Z" fill="url(#paint6_linear_58_89)"/>
</g>
<defs>
<linearGradient id="paint0_linear_58_89" x1="257.464" y1="7.47738" x2="257.463" y2="460.991" gradientUnits="userSpaceOnUse">
<stop stop-color="#2B6ED4"/>
<stop offset="1" stop-color="white"/>
</linearGradient>
<linearGradient id="paint1_linear_58_89" x1="257.463" y1="7.47737" x2="257.463" y2="460.991" gradientUnits="userSpaceOnUse">
<stop stop-color="#2B6ED4"/>
<stop offset="1" stop-color="white"/>
</linearGradient>
<linearGradient id="paint2_linear_58_89" x1="257.463" y1="7.47738" x2="257.463" y2="460.991" gradientUnits="userSpaceOnUse">
<stop stop-color="#2B6ED4"/>
<stop offset="1" stop-color="white"/>
</linearGradient>
<linearGradient id="paint3_linear_58_89" x1="257.463" y1="7.47738" x2="257.463" y2="460.991" gradientUnits="userSpaceOnUse">
<stop stop-color="#2B6ED4"/>
<stop offset="1" stop-color="white"/>
</linearGradient>
<linearGradient id="paint4_linear_58_89" x1="257.463" y1="7.47738" x2="257.463" y2="460.991" gradientUnits="userSpaceOnUse">
<stop stop-color="#2B6ED4"/>
<stop offset="1" stop-color="white"/>
</linearGradient>
<linearGradient id="paint5_linear_58_89" x1="257.464" y1="7.47737" x2="257.463" y2="460.991" gradientUnits="userSpaceOnUse">
<stop stop-color="#2B6ED4"/>
<stop offset="1" stop-color="white"/>
</linearGradient>
<linearGradient id="paint6_linear_58_89" x1="257.464" y1="7.47738" x2="257.463" y2="460.991" gradientUnits="userSpaceOnUse">
<stop stop-color="#2B6ED4"/>
<stop offset="1" stop-color="white"/>
</linearGradient>
<clipPath id="clip0_58_89">
<rect width="521" height="443" fill="white"/>
</clipPath>
</defs>
</svg>
