<svg width="424" height="444" viewBox="0 0 424 444" fill="none" xmlns="http://www.w3.org/2000/svg">
<path d="M403.162 66.9662H378.897V331.112C378.897 353.021 378.076 371.003 376.433 385.058C374.79 399.112 372.578 410.273 369.798 418.541C367.017 426.395 363.795 431.976 360.13 435.283C356.591 438.59 352.863 440.243 348.945 440.243C347.049 440.243 345.343 440.243 343.826 440.243C342.31 440.243 340.667 439.83 338.897 439.003V376.997C340.035 377.41 341.236 377.617 342.499 377.617C343.763 377.617 344.964 377.617 346.101 377.617C349.387 377.617 352.168 374.93 354.442 369.556C356.844 364.182 358.044 353.021 358.044 336.073V4.96008H424.015V439.003H403.162V66.9662Z" fill="url(#paint0_linear_1600_2033)"/>
<path d="M335.163 277.167V334.833C335.163 369.97 332.509 397.046 327.201 416.061C322.019 434.663 314.31 443.964 304.073 443.964C293.836 443.964 286.064 434.663 280.756 416.061C275.574 397.046 272.983 369.97 272.983 334.833V109.131C272.983 73.994 275.574 47.1246 280.756 28.5228C286.064 9.5076 293.836 0 304.073 0C314.31 0 322.019 9.5076 327.201 28.5228C332.509 47.1246 335.163 73.994 335.163 109.131V151.295H315.448V104.79C315.448 89.0821 314.437 78.1277 312.414 71.9271C310.519 65.3131 307.928 62.0061 304.642 62.0061C301.356 62.0061 298.702 65.3131 296.68 71.9271C294.784 78.1277 293.836 89.0821 293.836 104.79V339.174C293.836 354.882 294.784 365.836 296.68 372.037C298.702 378.237 301.356 381.338 304.642 381.338C307.928 381.338 310.519 378.237 312.414 372.037C314.437 365.836 315.448 354.882 315.448 339.174V277.167H335.163Z" fill="url(#paint1_linear_1600_2033)"/>
<path d="M201.266 376.997C204.552 376.997 207.08 374.103 208.849 368.316C210.619 362.529 211.503 351.781 211.503 336.073V270.966C211.503 255.258 210.619 244.51 208.849 238.723C207.08 232.936 204.552 230.042 201.266 230.042H191.409V376.997H201.266ZM170.556 439.003V4.96008H191.409V168.036H201.266C211.756 168.036 219.528 177.13 224.584 195.319C229.765 213.507 232.356 240.17 232.356 275.307V331.732C232.356 366.869 229.765 393.532 224.584 411.72C219.528 429.909 211.756 439.003 201.266 439.003H170.556ZM242.593 4.96008H263.446V439.003H242.593V4.96008Z" fill="url(#paint2_linear_1600_2033)"/>
<path d="M115.96 313.131L130.178 4.96008H159.183V439.003H139.467V127.732L125.06 439.003H105.344L89.7995 132.073V439.003H71.6006V4.96008H100.605L115.96 313.131Z" fill="url(#paint3_linear_1600_2033)"/>
<path d="M62.1797 277.167V334.833C62.1797 369.97 59.5257 397.046 54.2176 416.061C49.036 434.663 41.3267 443.964 31.0898 443.964C20.8529 443.964 13.0805 434.663 7.77246 416.061C2.59082 397.046 0 369.97 0 334.833V109.131C0 73.994 2.59082 47.1246 7.77246 28.5228C13.0805 9.5076 20.8529 0 31.0898 0C41.3267 0 49.036 9.5076 54.2176 28.5228C59.5257 47.1246 62.1797 73.994 62.1797 109.131V151.295H42.4642V104.79C42.4642 89.0821 41.4531 78.1277 39.431 71.9271C37.5353 65.3131 34.9445 62.0061 31.6586 62.0061C28.3726 62.0061 25.7186 65.3131 23.6965 71.9271C21.8008 78.1277 20.8529 89.0821 20.8529 104.79V339.174C20.8529 354.882 21.8008 365.836 23.6965 372.037C25.7186 378.237 28.3726 381.338 31.6586 381.338C34.9445 381.338 37.5353 378.237 39.431 372.037C41.4531 365.836 42.4642 354.882 42.4642 339.174V277.167H62.1797Z" fill="url(#paint4_linear_1600_2033)"/>
<defs>
<linearGradient id="paint0_linear_1600_2033" x1="212.445" y1="10.3702" x2="212.445" y2="451.444" gradientUnits="userSpaceOnUse">
<stop stop-color="#2B6ED4"/>
<stop offset="1" stop-color="white"/>
</linearGradient>
<linearGradient id="paint1_linear_1600_2033" x1="212.445" y1="10.3702" x2="212.445" y2="451.444" gradientUnits="userSpaceOnUse">
<stop stop-color="#2B6ED4"/>
<stop offset="1" stop-color="white"/>
</linearGradient>
<linearGradient id="paint2_linear_1600_2033" x1="212.445" y1="10.3702" x2="212.445" y2="451.444" gradientUnits="userSpaceOnUse">
<stop stop-color="#2B6ED4"/>
<stop offset="1" stop-color="white"/>
</linearGradient>
<linearGradient id="paint3_linear_1600_2033" x1="212.445" y1="10.3702" x2="212.445" y2="451.444" gradientUnits="userSpaceOnUse">
<stop stop-color="#2B6ED4"/>
<stop offset="1" stop-color="white"/>
</linearGradient>
<linearGradient id="paint4_linear_1600_2033" x1="212.445" y1="10.3702" x2="212.445" y2="451.444" gradientUnits="userSpaceOnUse">
<stop stop-color="#2B6ED4"/>
<stop offset="1" stop-color="white"/>
</linearGradient>
</defs>
</svg>
