<svg width="287" height="444" viewBox="0 0 287 444" fill="none" xmlns="http://www.w3.org/2000/svg">
<path d="M286.541 277.167V334.833C286.541 369.97 283.887 397.046 278.579 416.061C273.397 434.663 265.688 443.964 255.451 443.964C245.214 443.964 237.442 434.663 232.134 416.061C226.952 397.046 224.361 369.97 224.361 334.833V109.131C224.361 73.994 226.952 47.1246 232.134 28.5228C237.442 9.5076 245.214 0 255.451 0C265.688 0 273.397 9.5076 278.579 28.5228C283.887 47.1246 286.541 73.994 286.541 109.131V151.295H266.825V104.79C266.825 89.0821 265.814 78.1277 263.792 71.9271C261.897 65.3131 259.306 62.0061 256.02 62.0061C252.734 62.0061 250.08 65.3131 248.058 71.9271C246.162 78.1277 245.214 89.0821 245.214 104.79V339.174C245.214 354.882 246.162 365.836 248.058 372.037C250.08 378.237 252.734 381.338 256.02 381.338C259.306 381.338 261.897 378.237 263.792 372.037C265.814 365.836 266.825 354.882 266.825 339.174V277.167H286.541Z" fill="url(#paint0_linear_1600_2027)"/>
<path d="M174.399 339.174C174.399 354.882 175.347 366.043 177.242 372.657C179.265 378.857 181.919 381.958 185.204 381.958C188.49 381.958 191.081 378.857 192.977 372.657C194.999 366.043 196.01 354.882 196.01 339.174V104.79C196.01 89.0821 194.999 78.1277 192.977 71.9271C191.081 65.3131 188.49 62.0061 185.204 62.0061C181.919 62.0061 179.265 65.3131 177.242 71.9271C175.347 78.1277 174.399 89.0821 174.399 104.79V339.174ZM153.546 109.131C153.546 73.994 156.263 47.1246 161.697 28.5228C167.132 9.5076 174.968 0 185.204 0C195.441 0 203.277 9.5076 208.711 28.5228C214.146 47.1246 216.863 73.994 216.863 109.131V334.833C216.863 369.97 214.146 397.046 208.711 416.061C203.277 434.663 195.441 443.964 185.204 443.964C174.968 443.964 167.132 434.663 161.697 416.061C156.263 397.046 153.546 369.97 153.546 334.833V109.131Z" fill="url(#paint1_linear_1600_2027)"/>
<path d="M149.703 439.003H128.66L125.058 360.255H99.4659L95.8641 439.003H76.7173L97.9494 4.96008H128.47L149.703 439.003ZM102.12 301.349H122.215L112.167 81.8477L102.12 301.349Z" fill="url(#paint2_linear_1600_2027)"/>
<path d="M74.3123 4.96008L52.5115 215.781L75.8289 439.003H53.8385L36.777 267.246L19.5259 439.003H0L23.3174 215.781L1.51658 4.96008H23.1278L38.8623 164.936L54.9759 4.96008H74.3123Z" fill="url(#paint3_linear_1600_2027)"/>
<defs>
<linearGradient id="paint0_linear_1600_2027" x1="144.318" y1="10.3702" x2="144.318" y2="451.444" gradientUnits="userSpaceOnUse">
<stop stop-color="#2B6ED4"/>
<stop offset="1" stop-color="white"/>
</linearGradient>
<linearGradient id="paint1_linear_1600_2027" x1="144.318" y1="10.3702" x2="144.317" y2="451.444" gradientUnits="userSpaceOnUse">
<stop stop-color="#2B6ED4"/>
<stop offset="1" stop-color="white"/>
</linearGradient>
<linearGradient id="paint2_linear_1600_2027" x1="144.318" y1="10.3702" x2="144.318" y2="451.444" gradientUnits="userSpaceOnUse">
<stop stop-color="#2B6ED4"/>
<stop offset="1" stop-color="white"/>
</linearGradient>
<linearGradient id="paint3_linear_1600_2027" x1="144.318" y1="10.3702" x2="144.318" y2="451.444" gradientUnits="userSpaceOnUse">
<stop stop-color="#2B6ED4"/>
<stop offset="1" stop-color="white"/>
</linearGradient>
</defs>
</svg>
