<svg width="418" height="602" viewBox="0 0 418 602" fill="none" xmlns="http://www.w3.org/2000/svg">
<path d="M385.543 287.985V551.816H388.039C392.676 551.816 393.389 549.133 393.389 531.246V312.132C393.389 287.985 393.033 287.091 388.753 287.091H386.969C386.613 287.091 385.899 287.091 385.543 287.985ZM388.753 599.216H360.575V2.68973H385.543V238.796H392.319C413.363 238.796 418 253.106 418 309.449V527.669C418 587.59 412.65 599.216 388.753 599.216Z" fill="url(#paint0_linear_1597_2055)"/>
<path d="M323.939 599.216V50.9843H312.525V2.68973H359.606V50.9843H348.193V599.216H323.939Z" fill="url(#paint1_linear_1597_2055)"/>
<path d="M313.126 360.42V531.24C313.126 587.583 306.706 601.893 283.522 601.893C269.255 601.893 262.835 597.421 258.555 580.429C255.701 567.908 255.345 558.964 255.345 502.621V83.1739C255.345 10.7321 259.625 0 285.306 0C308.846 0 313.126 13.4151 313.126 80.4908V207.488H288.159V63.4983C288.159 53.6606 286.732 49.1889 284.236 49.1889C281.739 49.1889 280.312 54.5549 280.312 64.3927V534.817C280.312 548.232 281.025 551.81 284.236 551.81C287.446 551.81 288.159 548.232 288.159 533.028V360.42H313.126Z" fill="url(#paint2_linear_1597_2055)"/>
<path d="M217.086 66.1814V534.817C217.086 546.444 218.512 552.704 221.009 552.704C223.506 552.704 224.576 546.444 224.576 534.817V66.1814C224.576 54.5549 223.506 49.1889 221.009 49.1889C218.512 49.1889 217.086 54.5549 217.086 66.1814ZM249.543 80.4908V520.508C249.543 588.478 244.906 601.893 220.652 601.893C196.755 601.893 192.118 588.478 192.118 520.508V80.4908C192.118 13.4151 196.755 0 220.652 0C244.906 0 249.543 13.4151 249.543 80.4908Z" fill="url(#paint3_linear_1597_2055)"/>
<path d="M127.871 599.216V2.68973H152.482V254.894H161.042V2.68973H185.653V599.216H161.042V304.083H152.482V599.216H127.871Z" fill="url(#paint4_linear_1597_2055)"/>
<path d="M122.054 360.42V531.24C122.054 587.583 115.633 601.893 92.4495 601.893C78.1824 601.893 71.7622 597.421 67.4821 580.429C64.6286 567.908 64.272 558.964 64.272 502.621V83.1739C64.272 10.7321 68.5521 0 94.2329 0C117.774 0 122.054 13.4151 122.054 80.4908V207.488H97.0863V63.4983C97.0863 53.6606 95.6596 49.1889 93.1628 49.1889C90.6661 49.1889 89.2394 54.5549 89.2394 64.3927V534.817C89.2394 548.232 89.9527 551.81 93.1628 551.81C96.3729 551.81 97.0863 548.232 97.0863 533.028V360.42H122.054Z" fill="url(#paint5_linear_1597_2055)"/>
<path d="M32.8143 273.676V50.9843H30.3176C25.6808 50.9843 24.9674 53.6673 24.9674 68.8711V253.106C24.9674 270.993 25.6808 274.57 30.3176 274.57C31.3876 274.57 32.1009 274.57 32.8143 273.676ZM31.3876 2.68973H57.425V599.216H32.8143V332.702C32.1009 331.808 31.3876 331.808 30.3176 331.808C25.6808 331.808 24.9674 335.385 24.9674 354.166V599.216H0V375.631C0 330.019 2.14006 314.815 11.4137 303.189C1.42671 287.985 0 279.936 0 232.536V78.7089C0 43.8295 0.356678 32.2031 4.28013 20.5766C9.27361 5.37277 13.1971 2.68973 31.3876 2.68973Z" fill="url(#paint6_linear_1597_2055)"/>
<defs>
<linearGradient id="paint0_linear_1597_2055" x1="368.344" y1="234.048" x2="330" y2="613.513" gradientUnits="userSpaceOnUse">
<stop stop-color="#2B6ED4"/>
<stop offset="0.856123" stop-color="white"/>
</linearGradient>
<linearGradient id="paint1_linear_1597_2055" x1="346.179" y1="115.559" x2="344.269" y2="575.436" gradientUnits="userSpaceOnUse">
<stop stop-color="#2B6ED4"/>
<stop offset="1" stop-color="white"/>
</linearGradient>
<linearGradient id="paint2_linear_1597_2055" x1="280.223" y1="171.281" x2="236.104" y2="572.671" gradientUnits="userSpaceOnUse">
<stop stop-color="#2B6ED4"/>
<stop offset="1" stop-color="white"/>
</linearGradient>
<linearGradient id="paint3_linear_1597_2055" x1="230.666" y1="171.281" x2="157.709" y2="567.578" gradientUnits="userSpaceOnUse">
<stop stop-color="#2B6ED4"/>
<stop offset="1" stop-color="white"/>
</linearGradient>
<linearGradient id="paint4_linear_1597_2055" x1="156.78" y1="186.73" x2="156.78" y2="581.889" gradientUnits="userSpaceOnUse">
<stop stop-color="#2B6ED4"/>
<stop offset="1" stop-color="white"/>
</linearGradient>
<linearGradient id="paint5_linear_1597_2055" x1="92.9876" y1="148.991" x2="32.8758" y2="570.456" gradientUnits="userSpaceOnUse">
<stop stop-color="#2B6ED4"/>
<stop offset="1" stop-color="white"/>
</linearGradient>
<linearGradient id="paint6_linear_1597_2055" x1="28.8332" y1="108.129" x2="-60.9429" y2="568.439" gradientUnits="userSpaceOnUse">
<stop stop-color="#2B6ED4"/>
<stop offset="1" stop-color="white"/>
</linearGradient>
</defs>
</svg>
