<svg width="398" height="414" viewBox="0 0 398 414" fill="none" xmlns="http://www.w3.org/2000/svg">
<path d="M367.035 198.085V379.556H369.412C373.827 379.556 374.506 377.71 374.506 365.407V214.694C374.506 198.085 374.166 197.47 370.092 197.47H368.394C368.054 197.47 367.375 197.47 367.035 198.085ZM370.092 412.159H343.267V1.85007H367.035V164.251H373.487C393.521 164.251 397.935 174.094 397.935 212.849V362.947C397.935 404.162 392.842 412.159 370.092 412.159Z" fill="url(#paint0_linear_1597_2397)"/>
<path d="M308.389 412.159V35.0685H297.523V1.85007H342.344V35.0685H331.479V412.159H308.389Z" fill="url(#paint1_linear_1597_2397)"/>
<path d="M298.095 247.908V365.403C298.095 404.158 291.983 414 269.912 414C256.33 414 250.218 410.924 246.143 399.236C243.426 390.624 243.087 384.473 243.087 345.718V57.2095C243.087 7.38185 247.162 0 271.61 0C294.02 0 298.095 9.22732 298.095 55.364V142.716H274.326V43.6761C274.326 36.9094 272.968 33.8336 270.591 33.8336C268.214 33.8336 266.856 37.5245 266.856 44.2912V367.863C266.856 377.091 267.535 379.551 270.591 379.551C273.647 379.551 274.326 377.091 274.326 366.633V247.908H298.095Z" fill="url(#paint2_linear_1597_2397)"/>
<path d="M206.665 45.5215V367.863C206.665 375.86 208.023 380.166 210.4 380.166C212.777 380.166 213.796 375.86 213.796 367.863V45.5215C213.796 37.5245 212.777 33.8336 210.4 33.8336C208.023 33.8336 206.665 37.5245 206.665 45.5215ZM237.564 55.364V358.021C237.564 404.773 233.15 414 210.06 414C187.31 414 182.896 404.773 182.896 358.021V55.364C182.896 9.22732 187.31 0 210.06 0C233.15 0 237.564 9.22732 237.564 55.364Z" fill="url(#paint3_linear_1597_2397)"/>
<path d="M121.733 412.159V1.85007H145.162V175.324H153.312V1.85007H176.741V412.159H153.312V209.158H145.162V412.159H121.733Z" fill="url(#paint4_linear_1597_2397)"/>
<path d="M116.195 247.908V365.403C116.195 404.158 110.083 414 88.0114 414C74.4292 414 68.3172 410.924 64.2425 399.236C61.5261 390.624 61.1865 384.473 61.1865 345.718V57.2095C61.1865 7.38185 65.2612 0 89.7092 0C112.12 0 116.195 9.22732 116.195 55.364V142.716H92.4256V43.6761C92.4256 36.9094 91.0674 33.8336 88.6905 33.8336C86.3136 33.8336 84.9554 37.5245 84.9554 44.2912V367.863C84.9554 377.091 85.6345 379.551 88.6905 379.551C91.7465 379.551 92.4256 377.091 92.4256 366.633V247.908H116.195Z" fill="url(#paint5_linear_1597_2397)"/>
<path d="M31.2391 188.242V35.0685H28.8622C24.448 35.0685 23.7689 36.914 23.7689 47.3716V174.094C23.7689 186.397 24.448 188.857 28.8622 188.857C29.8809 188.857 30.56 188.858 31.2391 188.242ZM29.8809 1.85007H54.6684V412.159H31.2391V228.843C30.56 228.227 29.8809 228.227 28.8622 228.227C24.448 228.227 23.7689 230.688 23.7689 243.606V412.159H0V258.37C0 226.997 2.03733 216.54 10.8658 208.542C1.35822 198.085 0 192.548 0 159.945V54.1383C0 30.1472 0.339556 22.1502 4.07467 14.1532C8.82844 3.69555 12.5636 1.85007 29.8809 1.85007Z" fill="url(#paint6_linear_1597_2397)"/>
<defs>
<linearGradient id="paint0_linear_1597_2397" x1="350.662" y1="160.985" x2="331.514" y2="423.26" gradientUnits="userSpaceOnUse">
<stop stop-color="white"/>
<stop offset="1" stop-color="#2B6ED4"/>
</linearGradient>
<linearGradient id="paint1_linear_1597_2397" x1="329.561" y1="79.4849" x2="328.612" y2="395.805" gradientUnits="userSpaceOnUse">
<stop stop-color="white"/>
<stop offset="1" stop-color="#2B6ED4"/>
</linearGradient>
<linearGradient id="paint2_linear_1597_2397" x1="266.771" y1="117.812" x2="244.72" y2="395.485" gradientUnits="userSpaceOnUse">
<stop stop-color="white"/>
<stop offset="1" stop-color="#2B6ED4"/>
</linearGradient>
<linearGradient id="paint3_linear_1597_2397" x1="219.593" y1="117.812" x2="182.759" y2="394.736" gradientUnits="userSpaceOnUse">
<stop stop-color="white"/>
<stop offset="1" stop-color="#2B6ED4"/>
</linearGradient>
<linearGradient id="paint4_linear_1597_2397" x1="149.254" y1="128.439" x2="149.254" y2="400.241" gradientUnits="userSpaceOnUse">
<stop stop-color="white"/>
<stop offset="1" stop-color="#2B6ED4"/>
</linearGradient>
<linearGradient id="paint5_linear_1597_2397" x1="88.5237" y1="102.481" x2="58.3628" y2="395.166" gradientUnits="userSpaceOnUse">
<stop stop-color="white"/>
<stop offset="1" stop-color="#2B6ED4"/>
</linearGradient>
<linearGradient id="paint6_linear_1597_2397" x1="27.4491" y1="74.3743" x2="-17.962" y2="396.634" gradientUnits="userSpaceOnUse">
<stop stop-color="white"/>
<stop offset="1" stop-color="#2B6ED4"/>
</linearGradient>
</defs>
</svg>
